<svg xmlns="http://www.w3.org/2000/svg" width="162.903" height="98.47"><g id="グループ_11479" data-name="グループ 11479" transform="translate(-618.664 -799.063)"><path id="パス_47130" data-name="パス 47130" d="M48.024-3.024c0-.288-.36-.5-.648-.5a4.34 4.34 0 00-1.584.648c-.648.288-1.224.5-1.872.864-.936.576-2.088.648-3.1 1.224a4.829 4.829 0 01-2.808.72c-.936 0-1.872-.072-1.872-.792 0-2.736 2.232-3.744 2.232-4.9a2.492 2.492 0 00-2.448-2.232c-1.44 0-2.088 1.512-3.24 1.656-1.8.288-4.824 2.664-6.12 2.664-.216 0-.288-.072-.288-.288 0-.648.648-1.368.648-1.872 0-1.008-2.16-1.944-3.024-1.944-1.08 0-1.872 1.08-3.456 1.08-1.656.072-2.808 1.584-4.176 2.3a7.261 7.261 0 00-1.3.648c-.5 0-.936.216-1.368.216s-.648-.216-.648-.576c0-.72.432-1.368.432-2.016 0-1.008-1.44-1.224-2.16-1.44-.72-.144-.36-.5-1.08-.5-2.088 0-4.9 2.592-6.552 3.744a14.725 14.725 0 01-2.224 1.44 1.109 1.109 0 00-.648.936c0 .36.36.5.72.5 1.152 0 2.376-1.368 3.672-1.656 1.44-.288 1.656-1.872 3.816-1.872.5 0 .864.144.864.72 0 .72-.72 3.1-1.44 3.528A1.219 1.219 0 007.7.288c0 .5 1.512 1.368 2.016 1.368.864 0 1.872-1.512 2.52-2.016a12.062 12.062 0 013.6-1.8 5.33 5.33 0 002.88-1.152 3.426 3.426 0 011.8-.648c.792 0 1.368.36 1.368 1.152 0 1.512-1.872 1.872-1.872 3.168 0 .792 1.944 1.656 1.944 1.656a1.4 1.4 0 00.576-.072C23.544 1.8 23.76.144 24.7-.432a25.563 25.563 0 013.1-1.656c.792-.36 1.656-1.152 2.52-1.152 1.512 0 1.728-.792 2.664-.792.288 0 .792.072.792.432a8.686 8.686 0 00-.576 2.088 3.08 3.08 0 002.952 3.24c.432 0 .792-.144 1.224-.144.288 0 .576.072.864.072 2.592 0 5.112-1.944 7.416-2.88.496-.216 2.368-1.008 2.368-1.8zm6.408-4.536c0 .432-1.224 1.152-1.584 1.512s-.936.36-1.368.648c-.144.072-.36.288-.5.288s-.144-.072-.144-.144c0-.288.648-.864.864-1.08A3.844 3.844 0 0154.144-7.7c.144 0 .288 0 .288.14zm9.648 4.68a.588.588 0 00-.648-.576c-1.152 0-4.1 2.088-5.616 2.232S55.08.216 52.848.216c-1.3 0-3.1-1.152-3.1-2.52 0-.792 2.736-1.44 3.312-2.016 1.584-1.44 3.816-1.368 3.816-4.536 0-1.08-.648-1.224-1.512-1.224h-.644c-1.44 0-2.736 1.3-3.96 2.016A7.476 7.476 0 0048.024-5.4c-1.008 1.44-1.3 2.088-2.808 2.88-.216.216-.576.432-.576.792a.654.654 0 00.72.576c.648 0 .792 1.656 2.952 2.3a7.035 7.035 0 012.16.792 3.182 3.182 0 001.584.36 24.523 24.523 0 007.92-2.66 13.206 13.206 0 012.16-1.3c.504-.14 1.944-.572 1.944-1.22zm1.944 3.96a.845.845 0 01-.72.648c-.216 0-.5-.216-.5-.432 0-.288.576-.5.792-.5s.428.068.428.284zm12.312-11.448c0-1.008-1.44-1.224-2.16-1.224a3.713 3.713 0 00-2.952 1.224c-.648.864-1.08.648-1.728 1.944-.72 1.656-7.128 3.528-8.928 5.04-.576.432-2.664 1.08-2.664 1.8 0 .432.5.5.792.5.792 0 3.744-1.872 5.112-2.016 1.08-.216 2.736-1.944 3.384-1.944.936 0 1.512-.792 1.944-.792s.936.792.936 1.224c0 .864-.576 4.032-1.8 4.032-.648 0-1.224.072-1.872.072-.72 0-.576-.288-1.08-.288-.36 0-.792.072-1.152.072-.288 0-.5-.072-.72-.072-.792 0-3.024 1.728-3.024 2.52 0 .864 1.3 1.8 2.088 1.8s1.44-.5 2.3-.5c.216 0 .576.072.936.072a2.351 2.351 0 00.864-.144 2.886 2.886 0 011.584-.72c.72-.144 1.512-.936 2.3-1.224.648-.288.936-1.224 1.368-1.8a4.8 4.8 0 00.872-2.808c0-.72-.36-1.3-.36-1.944 0-2.088 2.16-1.728 2.448-2.376.288-.792 1.512-1.8 1.512-2.448zM84.6 1.08a.845.845 0 01-.72.648c-.216 0-.5-.216-.5-.432 0-.288.576-.5.792-.5s.428.068.428.284zm12.312-11.448c0-1.008-1.44-1.224-2.16-1.224a3.713 3.713 0 00-2.952 1.224c-.648.864-1.08.648-1.728 1.944-.72 1.656-7.128 3.528-8.928 5.04-.576.432-2.664 1.08-2.664 1.8 0 .432.5.5.792.5.792 0 3.744-1.872 5.112-2.016 1.08-.216 2.736-1.944 3.384-1.944.936 0 1.512-.792 1.944-.792s.936.792.936 1.224c0 .864-.576 4.032-1.8 4.032-.648 0-1.224.072-1.872.072-.72 0-.576-.288-1.08-.288-.36 0-.792.072-1.152.072-.288 0-.5-.072-.72-.072C83.232-.792 81 .936 81 1.728c0 .864 1.3 1.8 2.088 1.8s1.44-.5 2.3-.5c.216 0 .576.072.936.072a2.351 2.351 0 00.864-.144 2.886 2.886 0 011.584-.72c.72-.144 1.512-.936 2.3-1.224.648-.288.936-1.224 1.368-1.8a4.8 4.8 0 00.872-2.812c0-.72-.36-1.3-.36-1.944 0-2.088 2.16-1.728 2.448-2.376.288-.792 1.512-1.8 1.512-2.448zm12.24 4.968c0 .72-1.44 1.152-1.872 1.944-.648 1.08-2.808 2.88-4.1 2.88a1.13 1.13 0 01-1.224-1.008 1.539 1.539 0 01.864-1.224c1.44-.792 4.032-3.456 5.616-3.456a.806.806 0 01.716.864zm11.3 2.376c0-.288-.432-.432-.72-.432a10.694 10.694 0 00-3.168 1.224 28.107 28.107 0 01-5.04 1.44c-.72 0-1.152-.936-1.152-1.584 0-1.008 1.3-2.376 1.3-3.816 0-.936-.36-2.376-1.512-2.376-.648 0-1.3.288-2.016.288h-.288c-1.8 0-3.24 1.3-4.608 2.016-1.656.936-4.536 2.952-4.536 5.04 0 1.584.648 1.872 2.016 2.232a9.187 9.187 0 002.448.432c1.872 0 2.736-1.368 3.744-1.368 1.152 0 1.08 1.728 2.736 1.728a10.9 10.9 0 002.664-.5 10.549 10.549 0 012.016-1.012 42.02 42.02 0 005.472-2.448c.216-.14.648-.504.648-.864zm-3.24 14.688a1.279 1.279 0 01-.288.72c-1.224 1.512-2.52 2.88-3.672 4.464a13.647 13.647 0 01-1.368 1.512c-.5.576-1.728 1.3-2.088 1.944a5.956 5.956 0 01-1.872 2.52c-.576.432-2.088 2.52-2.52 2.52-.216 0-.288-.216-.288-.36 0-1.368 1.8-1.512 2.088-3.168a2.254 2.254 0 011.152-1.8c.72-.288 1.3-1.368 1.944-1.872.792-.576 1.152-1.728 1.8-2.52.792-.792 1.656-1.44 2.376-2.3.36-.36 1.944-2.016 2.448-2.016.22-.008.292.212.292.356zm25.7-14.616c0-.216-.216-.576-.432-.576a4.05 4.05 0 00-1.3.5c-.792.288-1.44.216-2.088.864-.216.216-2.16.648-2.664.864L133.272 0c-1.008.432-4.1 2.448-4.824 2.448-.288 0-.432-.144-.432-.36 0-1.224 4.68-6.12 4.68-7.272a.63.63 0 00-.576-.648c-.648 0-1.656 1.008-2.376 1.3-.648.216-1.584 1.3-2.088 1.3-.792 0-1.008.792-1.656.792-.072 0-.216-.072-.288-.072-.648 0-1.8 1.3-2.952 1.3-.576 0-1.512-.432-1.512-1.152 0-.432 1.08-1.728 1.656-1.728.5 0 3.96-2.88 6.264-2.88.432 0 .792.144 1.224.144.36 0 .432-.36.432-.648 0-.648-.288-1.368-1.08-1.368s-1.584.216-2.376.288c-1.152.144-1.656.072-2.52.936-.72.72-2.088 1.8-3.24 1.8-.864 0-2.088 2.088-2.952 2.664a1.154 1.154 0 00-.648 1.152c0 2.3 2.376 2.952 4.32 2.952 1.728 0 2.808-1.512 4.32-1.512.144 0 .36.072.36.288a11.23 11.23 0 01-1.728 2.52l-2.16 2.592c-1.44 1.728-5.328 3.24-6.408 4.752-.432.72-1.584.72-2.088 1.512-.5 1.008-2.592 1.8-2.952 2.808-.5 1.152-2.16 2.3-2.808 3.384-.5 1.008-1.872 2.088-2.232 2.952-.432 1.224-2.376 3.456-3.168 4.536a6.809 6.809 0 00-1.656 3.384.764.764 0 00.864.864c1.008 0 2.376-1.08 3.1-1.8 1.584-1.584 3.312-3.024 4.968-4.536a44.227 44.227 0 005.9-6.768c1.656-2.3 3.744-4.32 5.472-6.552a10.823 10.823 0 014.176-3.672c1.3-.648 2.88-2.016 4.1-2.376 1.3-.288 2.3-1.368 3.6-1.728 1.08-.36 1.872-1.152 2.952-1.3a29.158 29.158 0 004.1-1.728c.44-.224 1.88-.8 1.88-1.52zm6.336-4.608c0 .432-1.224 1.152-1.584 1.512s-.936.36-1.368.648c-.144.072-.36.288-.5.288s-.144-.072-.144-.144c0-.288.648-.864.864-1.08a3.844 3.844 0 012.452-1.364c.144 0 .288 0 .288.14zm9.652 4.68a.588.588 0 00-.648-.576c-1.152 0-4.1 2.088-5.616 2.232S149.9.216 147.672.216c-1.3 0-3.1-1.152-3.1-2.52 0-.792 2.736-1.44 3.312-2.016 1.584-1.44 3.816-1.368 3.816-4.536 0-1.08-.648-1.224-1.512-1.224h-.648c-1.44 0-2.736 1.3-3.96 2.016a7.476 7.476 0 00-2.732 2.664c-1.008 1.44-1.3 2.088-2.808 2.88-.216.216-.576.432-.576.792a.654.654 0 00.72.576c.648 0 .792 1.656 2.952 2.3a7.036 7.036 0 012.16.792 3.182 3.182 0 001.584.36 24.523 24.523 0 007.92-2.66 13.206 13.206 0 012.16-1.3c.504-.14 1.94-.572 1.94-1.22z" transform="translate(618.662 854.662)" fill="#2ca2dc"/><path id="長方形_23338" data-name="長方形 23338" transform="translate(618.664 799.063)" fill="none" d="M0 0h162.903v98.47H0z"/></g></svg>