<svg xmlns="http://www.w3.org/2000/svg" width="956.691" height="184.7"><defs><clipPath id="clip-path"><path id="長方形_23262" data-name="長方形 23262" fill="none" d="M0 0h956.691v184.7H0z"/></clipPath></defs><g id="ricochet" opacity=".1"><g id="グループ_10350" data-name="グループ 10350"><g id="グループ_10349" data-name="グループ 10349" clip-path="url(#clip-path)" fill="#2ca2dc"><path id="パス_46162" data-name="パス 46162" d="M522.123 1153.181c-4.477 3.358-16.418 10.075-21.269 11.194a25.86 25.86 0 01-7.462 1.119 28.664 28.664 0 01-13.433-3.358c-6.717-3.732-4.478-5.97-9.329-9.328a4.134 4.134 0 01-1.865-3.732c0-1.493.373-2.985.373-4.85 0-2.985 2.239-5.224 2.239-8.21 0-2.612-1.493-4.85-4.1-4.85-3.732 0-6.717 5.97-8.209 8.955-2.985 4.477-8.21 7.089-13.06 8.582-4.478 1.493-6.717 5.6-10.821 7.836-12.687 7.463-12.314 15.3-21.27 22.016-4.477 3.358-4.85 8.955-14.925 8.955-2.612 0-6.344-1.119-6.344-4.478 0-4.477 10.075-12.314 13.433-14.925 4.478-3.359 6.343-8.21 11.194-11.194 4.1-2.612 6.344-5.971 6.344-10.822 0-1.493-1.493-2.239-2.985-2.239-5.6 0-9.7 7.464-14.179 7.464-3.359 0-8.955 5.223-12.687 6.343-3.731.746-9.328 4.851-11.941 4.851-1.866 0-3.358-1.119-3.358-2.985 0-4.85 11.941-7.462 15.3-10.821 5.224-4.851 13.06-7.836 19.4-10.821 2.612-1.493 14.926-10.448 17.538-10.448 2.612.746 8.582 2.239 8.582 5.223 0 1.494.746 1.866 1.866 1.866 2.985 0 6.717-2.238 8.955-4.1 4.851-3.731 2.985-6.344 10.075-7.837 2.239-.746 12.314-4.477 13.06-4.477 4.851 0 8.583 7.836 8.583 11.941v3.357c0 4.478 1.492 7.837 1.492 12.314a23 23 0 001.12 6.717c1.493 3.358 5.224 4.478 8.583 4.478 10.448 0 26.492-11.2 28.358-11.2a3.608 3.608 0 013.359 3.359c0 1.866-1.493 3.358-2.612 4.1" transform="translate(-378.465 -1002.806)"/><path id="パス_46163" data-name="パス 46163" d="M582.193 1165.766c-4.477 2.239-8.582 3.732-12.686 7.09-4.478 4.1-11.94 4.85-17.911 6.343-4.477 1.12-9.7 4.1-14.553 4.1-5.6 0-17.537-4.478-19.4-10.075-.746-3.359-.746-7.464-2.612-10.076-1.12-1.865-3.358-3.731-3.358-5.97 0-2.612 7.462-9.7 9.7-11.194 4.1-2.612 6.716-6.717 9.7-10.448 2.239-2.985 6.716-3.732 10.448-3.732 3.359 0 6.344.373 6.344 4.851a3.634 3.634 0 01-1.494 3.358c-3.357 2.239-4.1 8.583-8.209 10.448-3.731 1.493-7.836 7.09-7.836 11.568a8.942 8.942 0 008.582 8.582c2.612 0 4.851-1.119 7.462-1.119 1.121 0 2.612.373 4.1.373a5.73 5.73 0 004.851-1.866c4.1-3.359 13.433-1.866 19.4-6.344 4.478-3.358 7.09-2.611 9.7-4.477a13.006 13.006 0 016.344-2.239c1.493 0 3.731.373 3.731 2.239 0 4.477-8.955 7.089-12.314 8.582m40.3-100.374c-9.328 0-14.926-8.209-14.926-17.165 0-4.1 7.463-14.925 10.448-14.925 1.866 0 4.1 2.612 5.6 4.1 3.359 3.731 2.612 9.7 3.359 14.179.373 2.985 2.984 5.223 2.984 7.836 0 2.985-4.477 5.971-7.462 5.971" transform="translate(-375.108 -1004.943)"/><path id="パス_46164" data-name="パス 46164" d="M677.015 1159.013a40.694 40.694 0 01-11.567 5.224 81.985 81.985 0 00-9.7 5.6c-1.12.746-19.4 7.836-20.522 8.209-4.1.373-7.09 3.732-11.567 3.732h-2.612c-2.985 0-5.6 1.867-8.956 1.867-6.343 0-25-5.6-27.612-12.315a13.409 13.409 0 01-.746-4.1c0-1.866.373-3.731.373-5.97 0-1.493-.373-2.984-.373-4.851 0-3.729 2.239-5.6 5.224-7.835 1.865-1.12 1.865-3.359 3.731-4.851 4.1-3.357 8.583-5.97 12.314-9.7 4.1-3.731 10.821-9.328 16.419-10.075 1.12 0 2.239-.373 2.984-.373 6.717 0 11.567 10.075 11.567 15.673 0 5.222-5.6 7.461-10.075 7.461-4.85 0-2.984-5.6-8.209-5.6-6.716 0-8.582 8.209-14.553 10.821-2.239.747-3.731 1.865-3.731 5.6 0 4.477.373 11.566 6.343 11.566 2.985 0 7.089 3.359 11.941 3.359 3.359 0 5.224-1.12 10.075-1.12a7.522 7.522 0 004.1-1.118c4.1-1.494 7.462-1.121 11.94-3.359 3.732-2.239 5.6-4.851 10.448-5.224 6.343-.373 13.433-8.954 21.269-8.954 1.866 0 4.478.745 4.478 2.983 0 1.493-1.493 2.613-2.985 3.359" transform="translate(-373.292 -1002.669)"/><path id="パス_46165" data-name="パス 46165" d="M743.85 1165.3c-5.223 0-13.433-1.866-18.283-3.732-1.866-.746-6.344-2.985-8.209-2.985s-5.224 2.612-5.971 3.732c-1.493 4.1-5.6 5.97-8.955 7.089-8.209 2.985-12.314 10.448-22.015 10.448-3.359 0-6.344 1.493-9.7 1.493-5.224 0-14.926-6.343-14.926-11.94a6.014 6.014 0 011.12-3.358c1.866-3.358 1.493-8.582 4.1-11.568 5.6-6.716 21.643-23.135 30.971-24.253 5.6-1.119 11.194-4.477 17.164-4.477 4.851 0 6.344 5.969 11.194 5.969 2.612 0 8.21 5.6 8.21 8.21 0 1.12-1.866 2.611-1.866 5.224 0 7.836 12.687 11.94 19.03 11.94 10.448 0 17.911-8.582 23.508-8.582 1.12 0 1.493 1.12 1.493 1.866 0 8.209-20.149 14.926-26.866 14.926M701.312 1150c-1.866-1.866-2.985-5.971-2.985-6.344v-1.491c0-.746.373-1.12.373-2.239 0-.373-1.12-.746-1.12-.746-8.209 0-9.7 6.716-14.179 8.582-3.732 1.493-5.6 6.344-6.344 9.7-.746 2.611-3.732 5.223-3.732 7.462 0 3.358 5.6 4.85 8.21 4.85 10.075 0 12.314-9.7 19.03-12.687 1.12-.373 4.478-1.866 4.478-3.359 0-1.865-2.612-2.61-3.732-3.731m11.567-10.821c-.746 0-2.612.373-2.612 1.492 0 1.493 2.239 2.611 3.359 2.611a1.763 1.763 0 001.866-1.865 2.5 2.5 0 00-2.612-2.239" transform="translate(-371.477 -1002.613)"/><path id="パス_46166" data-name="パス 46166" d="M841.155 1159.013a40.692 40.692 0 01-11.567 5.224 81.979 81.979 0 00-9.7 5.6c-1.12.746-19.4 7.836-20.522 8.209-4.1.373-7.09 3.732-11.567 3.732h-2.612c-2.985 0-5.6 1.867-8.956 1.867-6.343 0-25-5.6-27.612-12.315a13.411 13.411 0 01-.746-4.1c0-1.866.373-3.731.373-5.97 0-1.493-.373-2.984-.373-4.851 0-3.729 2.239-5.6 5.224-7.835 1.865-1.12 1.865-3.359 3.731-4.851 4.1-3.357 8.583-5.97 12.314-9.7 4.1-3.731 10.821-9.328 16.419-10.075 1.12 0 2.239-.373 2.984-.373 6.717 0 11.567 10.075 11.567 15.673 0 5.222-5.6 7.461-10.075 7.461-4.85 0-2.984-5.6-8.209-5.6-6.716 0-8.582 8.209-14.553 10.821-2.239.747-3.731 1.865-3.731 5.6 0 4.477.373 11.566 6.343 11.566 2.985 0 7.089 3.359 11.941 3.359 3.359 0 5.224-1.12 10.075-1.12a7.522 7.522 0 004.1-1.118c4.1-1.494 7.462-1.121 11.94-3.359 3.732-2.239 5.6-4.851 10.448-5.224 6.343-.373 13.433-8.954 21.269-8.954 1.866 0 4.478.745 4.478 2.983 0 1.493-1.493 2.613-2.985 3.359" transform="translate(-369.156 -1002.669)"/><path id="パス_46167" data-name="パス 46167" d="M1002.9 1026.536c-4.1 5.224-7.462 13.806-12.687 17.538s-7.836 11.94-12.687 14.553c-6.343 2.984-10.448 7.836-13.806 13.432-4.1 6.344-12.687 7.09-16.791 13.06-5.6 7.09-18.658 16.792-26.493 21.642-5.971 4.1-12.314 7.464-17.538 13.06-8.209 9.328-15.671 20.149-22.388 30.6-1.865 2.239-10.448 10.075-10.448 11.94 0 1.493 2.612 1.493 3.732 1.493 8.955 0 16.045-11.941 24.254-14.179 6.343-1.493 13.06-8.956 19.4-8.956a7.016 7.016 0 017.09 6.717c0 5.223-3.359 9.7-3.359 15.3 0 7.463 5.6 10.821 12.687 10.821 4.85 0 9.7-1.866 14.18-4.1 6.716-2.985 13.433-4.105 20.149-7.836 1.493-1.12 13.806-6.344 14.926-6.344 1.865 0 4.477 1.12 4.477 3.359a2.477 2.477 0 01-1.492 1.865c-5.224 3.359-4.851 3.732-11.942 5.971-6.716 2.239-12.314 7.835-19.776 10.075-6.716 1.493-14.926 7.09-21.642 7.09h-2.239c-10.075-2.612-14.926-4.1-19.4-14.179-2.612-5.6-3.358-12.314-10.448-12.314-4.851 0-10.449 6.344-15.672 8.209-11.941 4.478-10.448 7.836-18.284 12.314-4.851 2.612-12.314 5.6-17.538 5.6-4.1 0-7.089-2.239-7.089-6.717 0-4.85 3.731-7.836 7.836-10.075s1.12-7.089 7.089-11.194c3.732-2.239 5.6-4.477 5.6-9.328a4.349 4.349 0 00-.746-2.612 15.4 15.4 0 01-4.1 2.612c-4.85 1.866-7.836 5.6-12.687 7.462-6.343 2.239-10.821 7.835-17.164 10.448-2.612 1.12-5.6 2.239-8.209 2.239-1.493 0-5.224-1.12-5.224-2.611s22.015-13.433 25.374-16.045c4.85-4.1 7.089-8.21 13.433-9.7 6.716-1.493 7.836-10.449 15.3-10.449 8.583 0 19.4-16.417 22.763-23.507 7.462-15.672 38.806-67.165 53.732-74.255a40.616 40.616 0 008.582-5.224c4.478-2.984 6.344-7.089 11.94-8.582 11.194-2.612 15.3-10.075 28.359-10.075 7.462 0 12.314 1.12 12.314 10.075a19.437 19.437 0 01-3.359 10.821m-11.194-10.448c-19.03 0-28.359 16.419-36.195 17.911-8.955 1.492-25.747 28.731-30.6 36.94-4.478 7.464-9.7 15.3-9.7 24.627a.99.99 0 001.119 1.12c4.478 0 16.045-8.955 19.4-12.314 4.85-4.85 9.328-5.6 14.179-11.567 4.1-4.85 7.463-7.462 12.314-11.194 2.986-2.612 5.224-6.343 8.21-9.328 5.223-5.224 10.448-9.328 14.926-15.3 2.984-3.359 10.075-14.178 10.075-19.03 0-1.866-2.612-1.866-3.732-1.866" transform="translate(-367.478 -1005.64)"/><path id="パス_46168" data-name="パス 46168" d="M1047.45 1161.763c-3.731 1.493-7.836 4.478-11.194 6.717-6.716 4.85-33.209 13.805-41.045 13.805a16.474 16.474 0 01-8.211-1.865c-3.732-2.238-6.717-2.984-11.194-4.1-11.194-3.359-11.94-11.94-15.3-11.94-1.866 0-3.732-1.12-3.732-2.985s1.866-2.986 2.985-4.1c7.836-4.1 9.328-7.463 14.553-14.926 4.85-6.717 6.716-9.328 14.18-13.806 6.343-3.731 13.059-10.448 20.522-10.448h3.357c4.478 0 7.837.746 7.837 6.343 0 16.418-11.567 16.045-19.776 23.508-2.985 2.985-17.165 6.344-17.165 10.448 0 7.09 9.328 13.06 16.045 13.06 11.566 0 17.91-6.716 25.746-7.462s23.136-11.567 29.105-11.567c1.866 0 3.359 1.12 3.359 2.985 0 3.359-7.463 5.6-10.076 6.343m-41.418-31.344c-4.478 0-9.7 3.732-12.687 7.089-1.119 1.12-4.478 4.1-4.478 5.6 0 .373 0 .746.746.746s1.866-1.12 2.612-1.493c2.239-1.493 5.224-1.493 7.09-3.359s8.209-5.6 8.209-7.836c0-.746-.746-.746-1.493-.746" transform="translate(-363.892 -1002.806)"/><path id="パス_46169" data-name="パス 46169" d="M1314.851 1090.18c-3.732 0-7.835-1.866-11.94-1.866-3.732 0-7.089.746-11.567.746h-2.985c-4.85 0-9.7.374-14.552.374-4.1 0-8.209-.746-12.314-.746-6.717 0-13.433 1.12-20.15 1.12-4.1 0-7.835-1.494-11.566-1.494-3.359 0-5.971 1.121-9.328 1.121-5.224 0-10.449-1.121-15.673-1.121-10.82 0-21.641 1.494-32.463 1.494h-10.448c-4.477 0-11.94 2.611-14.552 6.715-2.985 4.478-9.329 5.972-11.568 11.567-2.238 5.972-11.941 8.584-15.3 16.046-3.359 7.835-11.567 9.7-13.806 15.3-1.866 5.223-6.717 7.09-7.836 10.449a33.284 33.284 0 00-1.866 11.941c0 7.461 5.971 9.328 12.314 9.328a16.9 16.9 0 005.97-1.12c5.6-1.865 11.568-1.865 16.792-4.477 4.1-2.239 8.582-2.984 12.687-5.223s10.075-5.971 14.553-5.971c1.492 0 4.1 1.12 4.1 2.984 0 2.24-10.821 7.464-13.433 8.21-4.85 1.12-7.089 5.6-12.314 6.344s-10.075 4.477-15.671 5.223c-6.344 1.12-12.314 3.358-18.658 3.358-7.462 0-21.269-4.1-21.269-13.432v-11.2c0-1.865 0-3.731 1.119-5.222 4.1-6.344 5.6-14.18 11.941-18.285 5.971-3.73 5.6-4.851 8.955-9.7 2.239-2.984 9.329-7.089 11.94-10.82a4.353 4.353 0 00.746-2.613c0-.372-.373-.745-1.12-.745l-1.12 1.12c-1.866 2.239-2.984 3.732-6.343 5.224-10.075 5.6-7.836 10.074-12.314 12.686-5.224 2.985-8.209 7.089-12.314 11.2a55.9 55.9 0 01-13.433 9.7c-3.731 2.239-5.6 6.343-9.7 7.836a86.3 86.3 0 00-13.06 6.716c-2.239 1.492-4.851 2.985-7.462 2.985-1.493 0-3.732-1.12-3.732-2.985 0-2.985 14.926-10.448 17.91-12.687 5.224-3.358 9.7-7.836 14.927-11.194s9.7-8.582 15.3-11.94c7.836-4.85 11.567-12.687 17.911-18.657 1.865-1.866 15.671-16.417 15.671-17.164 0-.374-.373-.746-.746-1.121-4.478-1.12-10.448-.745-15.3-1.12-2.984-.746-5.6-.746-9.7-.746h-8.209c-2.985 0-5.971 1.121-8.955 1.121-1.493 0-2.612-.374-4.1-.374-1.119 0-3.359 1.12-4.851 1.12-2.984 0-2.611-.745-5.6-.745-5.224 0-10.075.373-14.926.373-2.239 0-5.6-.373-5.6-3.359 0-3.358.746-5.971 4.85-5.971 2.239 0 4.478.746 6.717.746 6.343 0 12.314-.372 18.657-.372 7.836 0 16.045.372 24.254.372 4.478 0 8.955-1.865 13.806-1.865 4.1 0 8.582.746 12.687.746 16.418 0 11.194-7.464 20.9-11.194 7.835-2.613 7.835-7.09 13.06-8.956s7.089-8.209 12.687-10.821c4.478-1.866 11.194-7.464 15.672-7.464a5.619 5.619 0 015.223 5.226c0 2.984-7.836 15.3-10.448 16.79-4.478 2.986-8.956 13.061-12.314 13.806-.373.374-1.493.374-1.493 1.121 0 2.239 4.85 2.985 9.328 2.985 3.359 0 6.717-.374 7.837-.374 5.6 0 11.566.746 17.164.746 4.478 0 8.582-1.493 13.06-1.493 5.224 0 10.821 1.121 16.046 1.121 3.731 0 7.089-.746 10.448-.746 4.85 0 9.328 1.492 14.18 1.492 4.477 0 8.582-1.12 12.687-1.12 2.611 0 4.85.374 7.089.374 3.732 0 6.716-1.493 10.075-1.493 5.97 0 11.941 1.119 17.91 1.119 4.478 0 8.583-2.239 13.433-2.239 2.612 0 5.224.746 5.224 4.852 0 2.983 0 6.342-3.732 6.342" transform="translate(-361.893 -1004.732)"/></g></g></g></svg>