<svg width="178" height="177" fill="none" xmlns="http://www.w3.org/2000/svg"><g clip-path="url(#clip0_1_840)" stroke="#333" stroke-width="2"><path d="M49.656 54.611v-18.19c0-5.59 4.549-10.125 10.155-10.125h96.915c5.607 0 10.155 4.535 10.155 10.124v74.038c0 5.59-4.548 10.125-10.154 10.125H145.04l-25.535 23.012v-23.012h-8.443M48.325 86.858c6.823-6.815 6.823-17.864 0-24.68-6.824-6.814-17.888-6.814-24.712 0-6.824 6.816-6.824 17.865 0 24.68 6.824 6.815 17.888 6.815 24.712 0z" stroke-linecap="round" stroke-linejoin="round"/><circle cx="108" cy="71" r="27"/><circle cx="108" cy="71" r="17"/><path d="M40.341 156.977H16.307c-8.248 0-14.938-6.678-14.938-14.918v-25.593c0-8.237 6.687-14.918 14.938-14.918H45.36c8.248 0 14.938 6.678 14.938 14.918v2.875m26.826 32.251l-8.35 14.869H40.401l4.713-8.895 19.953-37.636h39.743l-7.936 14.185" stroke-linecap="round" stroke-linejoin="round"/><path d="M21.82 122.732v19.873h23.486c3.46 0 5.51-3.866 3.57-6.724L37.632 119.34m-19.135 56.113v-18.476m39.059 18.476v-9.582m30.148-15.054l-19.873.687 10.279-18.477 19.185.684-9.59 17.106z" stroke-linecap="round" stroke-linejoin="round"/></g><defs><clipPath id="clip0_1_840"><path fill="#fff" transform="translate(.299 .572)" d="M0 0h176.866v175.949H0z"/></clipPath></defs></svg>