<svg width="198" height="152" fill="none" xmlns="http://www.w3.org/2000/svg"><g clip-path="url(#clip0_1_822)" stroke="#333" stroke-width="2" stroke-linecap="round" stroke-linejoin="round"><path d="M197.638 135.16H.361v16.483h197.277V135.16zM58.837 121.672V86.37c0-7.84-6.38-14.198-14.246-14.198H25.83c-7.867 0-14.247 6.358-14.247 14.198v48.786h27.762"/><path d="M87.323 129.85c0 2.03-.738 3.879-1.967 5.31H39.343l-1.772-5.173-13.444-36.224c-1.57-4.232.604-8.936 4.85-10.5a8.2 8.2 0 012.843-.512c3.339 0 6.474 2.047 7.697 5.345L51.98 121.68h27.14c4.532 0 8.203 3.662 8.203 8.175v-.004zm70.287 5.31h27.762V86.374c0-7.84-6.38-14.198-14.246-14.198h-18.76c-7.867 0-14.247 6.358-14.247 14.198v35.302"/><path d="M109.631 129.851c0 2.03.738 3.879 1.967 5.31h46.013l1.772-5.173 13.444-36.224c1.569-4.232-.604-8.936-4.85-10.5a8.205 8.205 0 00-2.843-.512c-3.338 0-6.474 2.047-7.697 5.345l-12.463 33.583h-27.14c-4.532 0-8.203 3.662-8.203 8.175v-.004zM38.754 63.345c9.135 0 16.54-7.38 16.54-16.483 0-9.104-7.405-16.483-16.54-16.483-9.134 0-16.54 7.38-16.54 16.483 0 9.103 7.406 16.483 16.54 16.483zm121.082 0c9.135 0 16.54-7.38 16.54-16.483 0-9.104-7.405-16.483-16.54-16.483-9.134 0-16.539 7.38-16.539 16.483 0 9.103 7.405 16.483 16.539 16.483zM117.309.36v37.083h-37.17L67.106 49.219V37.443H63.56V.36h53.749zM74.783 26.262h29.531m-29.531-6.477h21.853m-21.853-6.473h11.813"/></g><defs><clipPath id="clip0_1_822"><path fill="#fff" d="M0 0h198v152H0z"/></clipPath></defs></svg>