<svg width="776" height="372" fill="none" xmlns="http://www.w3.org/2000/svg"><path d="M192.593 280.01c-.708 0-1.302-.219-1.771-.667a4.5 4.5 0 01-1.083-1.687 6.336 6.336 0 01-.354-2.167c0-.776.114-1.489.354-2.146a4.348 4.348 0 011.083-1.666c.469-.459 1.063-.688 1.771-.688h31.396c.708 0 1.302.229 1.792.688.484.448.843 1 1.083 1.666.25.657.375 1.37.375 2.146 0 .782-.125 1.5-.375 2.167a4.398 4.398 0 01-1.063 1.687c-.474.448-1.078.667-1.812.667h-31.396zm143.51 0c-.708 0-1.302-.219-1.771-.667a4.5 4.5 0 01-1.083-1.687 6.336 6.336 0 01-.354-2.167c0-.776.114-1.489.354-2.146a4.348 4.348 0 011.083-1.666c.469-.459 1.063-.688 1.771-.688h31.396c.708 0 1.302.229 1.791.688.485.448.844 1 1.084 1.666.25.657.375 1.37.375 2.146 0 .782-.125 1.5-.375 2.167a4.398 4.398 0 01-1.063 1.687c-.474.448-1.078.667-1.812.667h-31.396zM42.27 262.239c-.29 1.115-.739 2.292-1.333 3.542a24.853 24.853 0 01-2.208 3.687 24.201 24.201 0 01-3.062 3.459 21.538 21.538 0 01-3.917 2.916c-.974.542-1.896.657-2.77.334-.876-.318-1.543-.839-2-1.563-.449-.734-.62-1.547-.522-2.437.094-.886.646-1.61 1.646-2.167 1.901-1.026 3.427-2.198 4.584-3.521 1.15-1.333 1.947-2.713 2.395-4.146.136-.359.01-.541-.375-.541H2.875c-.974 0-1.698-.313-2.167-.938A3.332 3.332 0 010 258.802c0-.776.234-1.479.708-2.104.47-.636 1.193-.959 2.167-.959h33.958c2.167 0 3.74.615 4.73 1.834.984 1.208 1.218 2.765.708 4.666zm-18.77 3.542c0 2.016-.037 4.031-.104 6.042-.073 2-.26 3.948-.563 5.833a30.09 30.09 0 01-1.416 5.458 18.784 18.784 0 01-2.605 4.875c-1.114 1.5-2.515 2.865-4.208 4.084-1.682 1.208-3.75 2.213-6.208 3.02-.932.318-1.823.334-2.667.042a5.54 5.54 0 01-2.187-1.417 6.37 6.37 0 01-1.396-2.25c-.323-.875-.453-1.734-.396-2.583.068-.844.36-1.614.875-2.312.51-.693 1.302-1.167 2.375-1.417 2.552-.651 4.583-1.583 6.083-2.792 1.51-1.218 2.667-2.651 3.459-4.291.791-1.651 1.296-3.511 1.52-5.584.235-2.067.355-4.302.355-6.708 0-.583.171-1.052.52-1.417.36-.375.797-.656 1.313-.854a4.524 4.524 0 011.688-.271 5.679 5.679 0 011.708.292c.51.182.948.458 1.312.833.36.365.542.834.542 1.417zm62.788-9.459c.485.49.688 1 .605 1.542a2.197 2.197 0 01-.73 1.333c-.406.349-.906.542-1.5.584-.598.031-1.16-.235-1.687-.792a30.102 30.102 0 00-1.958-1.854 27.065 27.065 0 00-1.875-1.479c-.615-.459-.917-.928-.917-1.417 0-.511.188-.943.563-1.292.374-.359.843-.583 1.416-.666.584-.084 1.151.072 1.709.458.75.516 1.479 1.062 2.187 1.646a43.088 43.088 0 012.188 1.937zm-5.062 3.5c.526.558.73 1.12.604 1.688a2.175 2.175 0 01-.875 1.354c-.458.333-1.015.5-1.666.5-.641 0-1.24-.292-1.792-.875a39.805 39.805 0 00-2.188-2.208 25.685 25.685 0 00-1.937-1.667c-.584-.458-.87-.948-.854-1.479a2.1 2.1 0 01.604-1.396c.385-.386.896-.615 1.52-.688.636-.083 1.272.12 1.897.605.734.541 1.49 1.145 2.27 1.812a29.686 29.686 0 012.417 2.354zm4.417 12.854c.968.459 1.547 1.167 1.729 2.125a4.545 4.545 0 01-.313 2.73 4.314 4.314 0 01-1.791 2.02c-.808.459-1.698.454-2.667-.02a116.923 116.923 0 00-5.083-2.438 129.669 129.669 0 00-5.146-2.187 106.205 106.205 0 00-4.917-1.834 69.3 69.3 0 00-4.52-1.416c.093 4.083.26 7.875.5 11.375.25 3.489.614 6.536 1.103 9.145.193 1.042.042 1.907-.458 2.605-.5.692-1.177 1.208-2.02 1.541-.834.344-1.772.521-2.813.521-1 0-1.927-.182-2.771-.542-.833-.349-1.51-.864-2.02-1.541-.516-.683-.699-1.542-.543-2.584.36-2.093.636-4.489.834-7.187.193-2.708.338-5.615.437-8.729.094-3.125.151-6.417.167-9.875.01-3.469.02-7 .02-10.584 0-.583.188-1.067.563-1.458a3.397 3.397 0 011.355-.854 5.663 5.663 0 011.77-.271c.651 0 1.24.099 1.771.292.542.198.99.479 1.354.854.375.375.563.854.563 1.437v4.5c0 1.459.01 2.917.041 4.375 1.626.448 3.365.954 5.23 1.521 1.86.573 3.77 1.188 5.729 1.854 1.958.657 3.943 1.37 5.958 2.146 2.026.782 4.005 1.604 5.938 2.479zm50.119-9.499c-.323 4.291-1.266 8.281-2.833 11.958-1.573 3.667-3.724 6.906-6.459 9.708-2.739 2.792-6.052 5.105-9.937 6.938-3.875 1.818-8.302 3.021-13.271 3.604-.823.094-1.536-.078-2.146-.521a5.567 5.567 0 01-1.562-1.708 6.984 6.984 0 01-.855-2.375 7.332 7.332 0 010-2.479 4.11 4.11 0 01.98-2c.5-.568 1.187-.901 2.062-1 4.209-.485 7.886-1.318 11.042-2.5 3.151-1.177 5.833-2.677 8.042-4.5 2.218-1.834 3.984-3.964 5.291-6.396 1.318-2.427 2.219-5.146 2.709-8.146.067-.26-.032-.396-.292-.396H98.262c-.974 0-1.708-.333-2.208-1-.5-.666-.75-1.38-.75-2.146 0-.776.25-1.5.75-2.166.5-.667 1.234-1 2.208-1h31.958c.969 0 1.818.182 2.542.541.734.349 1.339.813 1.813 1.396a5.368 5.368 0 011 1.979 6.32 6.32 0 01.187 2.209zm9.837 31.666a1.834 1.834 0 01-1.396-.604c-.364-.406-.635-.912-.812-1.521a6.732 6.732 0 01-.271-1.937c0-.709.089-1.365.271-1.98.177-.625.448-1.135.812-1.541a1.834 1.834 0 011.396-.604h19.542l2.104-15h-18.062c-.808 0-1.427-.292-1.855-.875-.416-.584-.625-1.214-.625-1.896 0-.667.209-1.292.625-1.875.428-.584 1.047-.875 1.855-.875h19.562c3.261 0 4.714 1.489 4.354 4.458l-1.937 16.063h4.75c.552 0 1.005.203 1.354.604.359.406.63.916.812 1.541a7.07 7.07 0 01.271 1.98c0 .682-.093 1.328-.271 1.937-.182.609-.453 1.115-.812 1.521-.349.401-.802.604-1.354.604h-30.313zm117.325-20.312c0 2.224-.166 4.453-.5 6.688a19.145 19.145 0 01-2.02 6.27c-1.016 1.933-2.469 3.657-4.355 5.167-1.89 1.5-4.416 2.635-7.583 3.417-.948.218-1.807.146-2.583-.229a5.51 5.51 0 01-1.979-1.605 7.26 7.26 0 01-1.188-2.375c-.25-.885-.328-1.739-.229-2.562.094-.833.385-1.563.875-2.188.484-.625 1.214-1.02 2.187-1.187 1.943-.359 3.563-.818 4.855-1.375 1.291-.568 2.338-1.302 3.145-2.208.803-.917 1.402-2.011 1.792-3.292.386-1.276.615-2.781.688-4.521h-17.563c-.906 0-1.594-.333-2.062-1-.474-.667-.709-1.385-.709-2.167 0-.776.235-1.489.709-2.145.468-.667 1.156-1 2.062-1h17.604v-6.563c-1.974.073-3.989.125-6.041.167-2.058.031-4.12.041-6.188.041-1 0-1.76-.302-2.271-.916-.515-.625-.791-1.313-.833-2.063-.031-.76.198-1.448.687-2.062.485-.625 1.23-.938 2.23-.938 5.375 0 10.385-.156 15.041-.479 4.651-.318 8.646-.771 11.979-1.354 1.068-.193 1.938-.021 2.605.521.666.531 1.083 1.166 1.25 1.916.177.74.088 1.459-.271 2.167-.349.708-1.011 1.162-1.979 1.354a64.591 64.591 0 01-4.375.688c-1.542.198-3.188.37-4.938.521v7h14.271c.927 0 1.625.333 2.083 1a3.66 3.66 0 01.688 2.145c0 .782-.229 1.5-.688 2.167-.458.667-1.156 1-2.083 1h-14.313zm58.899-2.376c-.291.74-.703 1.537-1.229 2.396-.515.865-1.161 1.729-1.937 2.604a24.177 24.177 0 01-2.729 2.563 22.113 22.113 0 01-3.438 2.271c-.833.489-1.646.562-2.437.229-.792-.344-1.407-.854-1.834-1.521a3.434 3.434 0 01-.5-2.208c.084-.802.563-1.448 1.438-1.938 1.734-.927 3.156-1.833 4.271-2.708 1.125-.875 1.895-1.729 2.312-2.563l-11.875.667a384.448 384.448 0 001.688 10.188 157.854 157.854 0 002.104 9.854c.193.75.114 1.401-.229 1.958-.334.568-.823 1.011-1.459 1.333a6.042 6.042 0 01-2.083.646 5.557 5.557 0 01-2.188-.146c-.697-.197-1.281-.531-1.75-1-.458-.474-.687-1.114-.687-1.916a137.682 137.682 0 00-.5-10.084 286.95 286.95 0 00-1.104-10.5l-8.104.438c-.808.042-1.438-.198-1.896-.729a3.166 3.166 0 01-.771-1.854 3.116 3.116 0 01.521-1.938c.385-.594.989-.917 1.812-.958l7.709-.438a71.12 71.12 0 00-.25-1.687 22.843 22.843 0 01-.23-1.75c-.14-.776.084-1.386.667-1.834a4 4 0 011.979-.833c.75-.094 1.469 0 2.167.292.693.291 1.089.781 1.187 1.458.094.641.193 1.292.292 1.958.094.667.193 1.355.292 2.063l13.979-.771c1.042-.068 1.927.073 2.667.417.75.333 1.338.812 1.77 1.437.443.615.693 1.313.75 2.104.068.792-.057 1.625-.375 2.5zm64.57 23.126c-.198.943-.604 1.667-1.229 2.167a4.2 4.2 0 01-2.062.916c-.75.11-1.521.094-2.313-.041-.792-.141-1.49-.438-2.083-.896a3.59 3.59 0 01-1.25-1.729c-.224-.698-.25-1.459-.084-2.292l13-39.979c.193-.651.605-1.089 1.23-1.313a3.788 3.788 0 011.895-.208 3.029 3.029 0 011.625.792c.459.416.605.968.438 1.645l-9.167 40.938zm50.605-6.938c.218.781.234 1.495.041 2.146-.198.64-.599 1.182-1.208 1.625-.615.432-1.344.75-2.188.958a6.916 6.916 0 01-2.479.208 5.145 5.145 0 01-2.166-.708c-.625-.385-1.053-.969-1.271-1.75-.49-1.708-.974-3.359-1.459-4.958-.489-1.61-.974-3.193-1.458-4.75h-14.021c-.489 1.557-.969 3.14-1.437 4.75-.459 1.599-.917 3.25-1.375 4.958-.198.781-.62 1.365-1.271 1.75a5.156 5.156 0 01-2.146.708c-.792.084-1.615.005-2.458-.229-.834-.224-1.563-.552-2.188-1-.614-.458-1.021-1-1.229-1.625-.208-.635-.203-1.333.021-2.083l14.229-31c.443-1 1.115-1.755 2.021-2.271.917-.526 1.875-.792 2.875-.792s1.948.261 2.854.771c.917.5 1.609 1.266 2.083 2.292l14.23 31zm-14.375-13.667c-1.615-4.526-3.209-8.542-4.792-12.042a160.055 160.055 0 00-2.438 5.688c-.807 2-1.614 4.12-2.416 6.354h9.646zm55.717-.937c0 2.849-.454 5.448-1.355 7.792-.89 2.349-2.166 4.349-3.833 6-1.656 1.656-3.682 2.932-6.083 3.833-2.391.907-5.094 1.354-8.104 1.354h-9.98c-3.5 0-5.25-1.75-5.25-5.25v-27.833c0-3.177 1.75-4.771 5.25-4.771h9.355c3.01 0 5.75.49 8.208 1.459 2.458.974 4.552 2.312 6.292 4.02a17.8 17.8 0 014.062 5.98c.958 2.291 1.438 4.765 1.438 7.416zm-7.438-1.396c0-1.625-.302-3.104-.896-4.437a10.14 10.14 0 00-2.541-3.479c-1.099-.969-2.407-1.719-3.917-2.25-1.5-.542-3.156-.813-4.958-.813h-7.584c-.156 0-.229.084-.229.25v21.25c0 .49.24.729.729.729h7.459c1.942 0 3.651-.291 5.125-.875 1.468-.583 2.713-1.375 3.729-2.375a9.618 9.618 0 002.312-3.562c.511-1.375.771-2.854.771-4.438zm50.616 1.396c0 2.849-.453 5.448-1.354 7.792-.891 2.349-2.167 4.349-3.833 6-1.657 1.656-3.683 2.932-6.084 3.833-2.39.907-5.093 1.354-8.104 1.354h-9.979c-3.5 0-5.25-1.75-5.25-5.25v-27.833c0-3.177 1.75-4.771 5.25-4.771h9.354c3.011 0 5.75.49 8.209 1.459 2.458.974 4.552 2.312 6.291 4.02a17.818 17.818 0 014.063 5.98c.958 2.291 1.437 4.765 1.437 7.416zm-7.437-1.396c0-1.625-.302-3.104-.896-4.437a10.13 10.13 0 00-2.542-3.479c-1.099-.969-2.406-1.719-3.916-2.25-1.5-.542-3.157-.813-4.959-.813h-7.583c-.156 0-.229.084-.229.25v21.25c0 .49.239.729.729.729h7.458c1.943 0 3.651-.291 5.125-.875 1.469-.583 2.714-1.375 3.729-2.375a9.632 9.632 0 002.313-3.562c.51-1.375.771-2.854.771-4.438zm50.759-10.979c-.167 0-.25.073-.25.209 0 1.614.047 3.927.146 6.937h14.896c1.041 0 1.812.344 2.312 1.021.5.682.75 1.427.75 2.229 0 .807-.25 1.552-.75 2.229-.5.683-1.26 1.021-2.271 1.021h-14.166c.135 2.24.302 4.583.5 7.042.192 2.458.427 4.948.708 7.458.094.781-.083 1.448-.542 2-.448.542-1.036.969-1.771 1.271-.724.318-1.52.49-2.395.521a7.07 7.07 0 01-2.438-.334c-.766-.239-1.391-.614-1.875-1.145-.489-.542-.708-1.214-.667-2.021.094-2.901.178-5.75.25-8.542.084-2.802.136-5.489.167-8.062a752.1 752.1 0 00.083-7.313c.011-2.292.021-4.396.021-6.312 0-1.485.438-2.636 1.313-3.459.875-.833 2.187-1.25 3.937-1.25h17.896c1.042 0 1.813.344 2.313 1.021.5.682.75 1.427.75 2.229a3.7 3.7 0 01-.75 2.25c-.5.667-1.25 1-2.25 1H564.84zm56.419 18.729c0 4.5-1.307 7.917-3.917 10.25-2.599 2.334-6.244 3.5-10.937 3.5-4.875 0-8.667-1.125-11.375-3.375-2.698-2.25-4.042-5.708-4.042-10.375v-23.416c0-.818.36-1.427 1.084-1.834a4.839 4.839 0 012.395-.604c.917 0 1.735.203 2.459.604.719.407 1.083 1.016 1.083 1.834v21c0 1.489.396 2.724 1.188 3.708a7.18 7.18 0 003 2.208c1.218.49 2.526.73 3.916.73 1.386 0 2.688-.24 3.896-.73 1.219-.484 2.229-1.218 3.021-2.208.792-.984 1.187-2.219 1.187-3.708v-21c0-.818.36-1.427 1.084-1.834a4.963 4.963 0 012.416-.604c.901 0 1.714.203 2.438.604.734.407 1.104 1.016 1.104 1.834v23.416zm25.477-18.625c0 2.24.026 4.323.083 6.25.068 1.917.156 3.917.271 6 .109 2.084.276 4.37.5 6.855.234 2.474.526 5.354.875 8.645.094.917-.115 1.678-.625 2.271-.516.599-1.182 1.052-2 1.354-.807.303-1.708.459-2.708.459-.974 0-1.865-.156-2.667-.459-.807-.302-1.474-.755-2-1.354-.516-.593-.724-1.354-.625-2.271.359-3.291.646-6.166.854-8.625.208-2.458.375-4.729.5-6.812.135-2.094.229-4.109.271-6.042.052-1.942.083-4.031.083-6.271h-9.229c-.573 0-1.062-.156-1.479-.479a2.802 2.802 0 01-.896-1.208 4.205 4.205 0 01-.292-1.604c0-.584.094-1.115.292-1.604.193-.485.49-.886.896-1.209.417-.333.906-.5 1.479-.5h25.521c.625 0 1.13.167 1.521.5.385.323.687.724.896 1.209.208.489.312 1.02.312 1.604 0 .583-.104 1.12-.312 1.604a3.13 3.13 0 01-.896 1.208c-.391.323-.896.479-1.521.479h-9.104zm48.462 18.625c0 4.5-1.308 7.917-3.917 10.25-2.599 2.334-6.245 3.5-10.938 3.5-4.875 0-8.666-1.125-11.375-3.375-2.697-2.25-4.041-5.708-4.041-10.375v-23.416c0-.818.359-1.427 1.083-1.834a4.846 4.846 0 012.396-.604c.917 0 1.734.203 2.458.604.719.407 1.084 1.016 1.084 1.834v21c0 1.489.395 2.724 1.187 3.708a7.193 7.193 0 003 2.208c1.219.49 2.526.73 3.917.73 1.385 0 2.687-.24 3.896-.73 1.218-.484 2.229-1.218 3.02-2.208.792-.984 1.188-2.219 1.188-3.708v-21c0-.818.359-1.427 1.083-1.834a4.97 4.97 0 012.417-.604c.901 0 1.713.203 2.437.604.735.407 1.105 1.016 1.105 1.834v23.416zm43.768 7.48c.51.682.693 1.354.542 2.02-.141.667-.49 1.261-1.042 1.771-.542.516-1.224.948-2.042 1.292a7.164 7.164 0 01-2.479.542 5.025 5.025 0 01-2.354-.438c-.724-.318-1.26-.864-1.604-1.646a85.086 85.086 0 01-2.313-5.521 35.522 35.522 0 01-1.625-5.687c-.198-.969-.64-1.75-1.333-2.333-.698-.584-1.469-.875-2.312-.875h-8.625c.093 1.916.192 3.854.291 5.812.094 1.958.386 4.229.875 6.813.151.807.011 1.494-.416 2.062-.433.573-1.021 1.016-1.771 1.333-.75.318-1.573.5-2.459.542a7.536 7.536 0 01-2.5-.25c-.765-.224-1.406-.588-1.916-1.104-.5-.526-.729-1.208-.688-2.042.292-5.859.448-11.276.479-16.25.026-4.984.042-9.666.042-14.041 0-1.485.438-2.636 1.313-3.459.875-.833 2.187-1.25 3.937-1.25h13.479c2.427 0 4.511.261 6.25.771 1.75.5 3.198 1.208 4.354 2.125 1.151.917 2 2.031 2.542 3.333.552 1.292.833 2.709.833 4.25 0 1.042-.125 2.058-.375 3.042a8.991 8.991 0 01-1.187 2.771 9.508 9.508 0 01-2.083 2.292c-.834.682-1.87 1.239-3.105 1.666.427.125.802.334 1.125.625.318.292.594.615.834.959.25.333.448.698.604 1.083.167.391.297.745.396 1.062.26.808.521 1.584.771 2.334.26.739.562 1.453.895 2.146.344.698.73 1.395 1.146 2.104.427.698.938 1.411 1.521 2.146zm-7.437-22.167c0-1.526-.594-2.583-1.771-3.167-1.183-.583-2.933-.875-5.25-.875h-11.5c-.167 0-.25.073-.25.209 0 1.39.005 2.75.021 4.083.01 1.323.052 2.833.125 4.542h11.604c2.416 0 4.187-.417 5.312-1.25 1.136-.844 1.709-2.026 1.709-3.542zm20.439 27.312c-3.5 0-5.25-1.75-5.25-5.25v-27.833c0-3.177 1.75-4.771 5.25-4.771h20.521c1.067 0 1.864.344 2.395 1.021.526.682.792 1.427.792 2.229 0 .823-.266 1.573-.792 2.25-.531.667-1.312 1-2.354 1h-18.541c-.157 0-.23.084-.23.25v6.709h17.417c1.068 0 1.859.343 2.375 1.02.511.667.771 1.412.771 2.23 0 .807-.26 1.552-.771 2.229-.516.682-1.292 1.021-2.333 1.021h-17.459v7.895c0 .334.047.563.146.688.094.125.302.187.625.187h18.188a2.4 2.4 0 011.729.688c.469.448.823 1.01 1.062 1.687.25.683.375 1.412.375 2.188 0 .781-.125 1.51-.375 2.187-.239.683-.583 1.25-1.041 1.709-.448.448-1.031.666-1.75.666h-20.75zm-634.394 55.294c-.416 0-.744-.167-.979-.5a1.842 1.842 0 01-.354-1.104c0-.417.104-.792.313-1.125.218-.344.562-.521 1.02-.521h4.334v-.709c0-.375.213-.651.646-.833a3.885 3.885 0 011.458-.271c.526 0 1.005.099 1.437.292.427.198.646.469.646.812v.709h4.542c.5 0 .875.177 1.125.521.26.333.396.708.396 1.125 0 .406-.136.77-.396 1.104-.25.333-.625.5-1.125.5h-13.063zm26.292-2.021c.318.364.422.739.313 1.125a1.853 1.853 0 01-.646.958c-.323.24-.688.37-1.104.396-.407.016-.761-.156-1.063-.521a14.415 14.415 0 00-1.187-1.291 19.846 19.846 0 00-1.334-1.209c-.39-.291-.562-.609-.521-.958.042-.344.198-.636.48-.875.291-.25.651-.396 1.083-.438.443-.041.864.084 1.271.375.484.365.968.766 1.458 1.209.5.448.917.854 1.25 1.229zm.708 16.25c.042 2.208-.041 3.917-.25 5.125-.198 1.198-.468 2.068-.812 2.625-.349.568-.75.901-1.208 1a6.202 6.202 0 01-1.438.167h-1.333c-.933 0-1.677-.266-2.229-.792-.542-.516-.813-1.365-.813-2.563v-5.708a45.671 45.671 0 01-1.437 4.542 14.881 14.881 0 01-2.209 4c-.364.468-.786.755-1.271.854a2.603 2.603 0 01-1.437-.125 4.342 4.342 0 01-1.354-.792 3.817 3.817 0 01-.979-1.229 3.007 3.007 0 01-.313-1.437c.026-.511.24-.985.646-1.417.135-.167.271-.318.396-.458.125-.136.255-.292.396-.459a1.765 1.765 0 01-.771-.271c-.209-.135-.349-.354-.417-.645a29.488 29.488 0 00-.542-2.292c-.182-.693-.375-1.417-.583-2.167-.141-.442-.104-.812.104-1.104.219-.302.49-.51.813-.625a1.842 1.842 0 011.021-.083.985.985 0 01.75.541c.333.615.635 1.198.916 1.75.292.558.563 1.188.813 1.896a19.604 19.604 0 002.125-5c.468-1.719.75-3.51.833-5.375h-2.021c-.182 0-.344-.021-.479-.062a1.585 1.585 0 01-.354-.209v3.625c0 1.599-.833 2.396-2.5 2.396h-2.479v10c0 .766-.12 1.406-.354 1.938a2.414 2.414 0 01-1.125 1.208c-.516.276-1.183.422-2 .438-.823.026-1.829-.094-3.021-.355a1.971 1.971 0 01-.979-.5 2.465 2.465 0 01-.605-.895 3.382 3.382 0 01-.25-1.105 6.821 6.821 0 01.063-1.208 3.054 3.054 0 01-.854-.292 2.16 2.16 0 01-.688-.562 1.76 1.76 0 01-.333-.75c-.042-.276.026-.573.208-.896.542-1.01.985-1.969 1.334-2.875.343-.917.651-1.865.916-2.854.094-.417.334-.693.709-.833a1.898 1.898 0 011.166-.042c.386.099.719.302 1 .604.292.292.406.656.354 1.083a30.502 30.502 0 01-.458 2.396 24.016 24.016 0 01-.708 2.521 42.7 42.7 0 001.021.188c.26.031.458.031.583 0 .125-.042.198-.105.229-.188a.932.932 0 00.063-.375v-6.646h-2.771c-1.641 0-2.459-.797-2.459-2.396v-4.041c0-1.568.818-2.354 2.459-2.354h8.979c.927 0 1.604.265 2.021.791a2.19 2.19 0 01.458-.75c.208-.208.49-.312.854-.312h2.084v-4.479c0-.485.197-.844.604-1.084.401-.25.843-.375 1.333-.375.484 0 .927.125 1.333.375.401.24.605.599.605 1.084v4.479h4.833c.552 0 .963.177 1.229.521.26.349.396.729.396 1.145 0 .407-.136.782-.396 1.125-.266.349-.677.521-1.229.521h-4.917c-.015.24-.031.49-.041.75-.016.25-.032.49-.042.709.276-.053.552-.068.833-.042.292.031.552.104.792.229.25.115.443.271.583.479.151.198.229.438.229.729v9.646c0 .209.084.313.25.313a.46.46 0 00.313-.104c.094-.084.167-.235.208-.459.042-.234.073-.562.104-.979.026-.427.052-.99.084-1.687.01-.568.198-.959.562-1.167.36-.219.75-.292 1.167-.208.427.083.818.286 1.167.604.343.323.52.729.52 1.229zm-17.083-9.938h-6.75v2.605h6.75v-2.605zm58.316 3.125c0 .24-.073.438-.208.605a2.01 2.01 0 01-.542.437 2.4 2.4 0 01-.771.229 4.031 4.031 0 01-.833.042c.511.448.771 1.036.771 1.771 0 1.916-.031 3.599-.083 5.041-.058 1.433-.203 2.662-.438 3.688-.224 1.031-.578 1.849-1.062 2.458-.49.625-1.167 1.084-2.042 1.375-.865.292-1.953.422-3.271.396-1.307-.016-2.896-.161-4.771-.437-.489-.073-.864-.303-1.125-.688a3.137 3.137 0 01-.521-1.312 5.642 5.642 0 01-.02-1.625 5.185 5.185 0 01.416-1.542c.219-.469.49-.839.813-1.104a1.29 1.29 0 011.125-.292c1.666.323 2.948.516 3.854.583.917.058 1.589-.088 2.021-.437.442-.344.708-.938.791-1.771.084-.844.125-2.005.125-3.479h-7.958a26.67 26.67 0 01-.917 3.937 10.934 10.934 0 01-1.854 3.48c-.823 1.057-1.896 1.989-3.229 2.791-1.323.818-3.016 1.464-5.083 1.938-.531.125-1.011.052-1.438-.209a3.248 3.248 0 01-1.041-1.083 5.228 5.228 0 01-.625-1.542 5.471 5.471 0 01-.125-1.625c.052-.51.198-.963.437-1.354a1.441 1.441 0 011.021-.729c2.443-.458 4.318-1.146 5.625-2.062 1.318-.928 2.24-2.11 2.771-3.542h-5.813c-.406 0-.729-.094-.979-.292a1.835 1.835 0 01-.521-.75 1.872 1.872 0 01-.062-.937 1.71 1.71 0 01.354-.834 3.688 3.688 0 01-1.625-.229c-.516-.208-.771-.547-.771-1.021v-3.375c0-.791.25-1.401.75-1.833.511-.427 1.219-.646 2.125-.646h1.271a.887.887 0 01-.438-.354 25.038 25.038 0 00-1.125-1.604 27.257 27.257 0 00-1.291-1.5c-.375-.375-.49-.776-.334-1.208.167-.443.443-.803.834-1.084a2.57 2.57 0 011.396-.479c.541-.026 1 .167 1.375.583.458.516.906 1.073 1.354 1.667.442.599.844 1.182 1.208 1.75.25.406.271.813.063 1.229-.198.417-.5.75-.917 1h6.437a1.107 1.107 0 01-.479-.625c-.239-.625-.5-1.229-.791-1.812a22.515 22.515 0 00-.896-1.709c-.266-.484-.266-.916 0-1.291.26-.386.625-.667 1.083-.834a3.028 3.028 0 011.5-.125c.526.084.917.355 1.167.813.333.614.635 1.229.916 1.854.292.625.553 1.266.792 1.917.125.406.083.765-.125 1.083-.208.323-.51.563-.896.729h5.334c-.474-.291-.792-.677-.959-1.166-.166-.485-.031-.943.417-1.375.318-.292.588-.547.812-.771a13.681 13.681 0 001.292-1.479l.688-.917c.291-.401.692-.604 1.208-.604a2.697 2.697 0 011.437.354c.428.239.75.557.959.958.208.406.156.823-.146 1.25a47.92 47.92 0 01-1.625 2.167 12.434 12.434 0 01-1.521 1.583h1.771c.927 0 1.651.224 2.167.667.526.448.791 1.052.791 1.812v3.5zm-3.896.584a.877.877 0 01-.208-.584v-2.437c0-.125-.052-.188-.146-.188h-19.083c-.042 0-.078.021-.104.063a.202.202 0 00-.042.125v2.312c0 .282-.099.5-.292.667h6.105a3.97 3.97 0 00.083-.583c.01-.219.042-.448.083-.688.042-.291.177-.541.417-.75a2.24 2.24 0 01.812-.458 3.578 3.578 0 011.021-.146c.375 0 .709.063 1 .188.302.114.547.27.729.479.193.208.282.474.271.791a6.326 6.326 0 00-.062.625c0 .198-.021.375-.063.542h9c.209 0 .365.016.479.042zm45.525-9.855c-.083.281-.182.578-.292.896-.099.307-.208.614-.333.916-.115.292-.224.573-.333.834a6.993 6.993 0 01-.271.646c-.198.416-.49.666-.875.75-.375.072-.74.031-1.083-.125a1.973 1.973 0 01-.834-.75c-.198-.334-.208-.698-.041-1.105.093-.177.192-.385.291-.625.11-.25.214-.51.313-.791.109-.292.213-.573.312-.854a11.2 11.2 0 00.271-.813.865.865 0 01.688-.667 1.975 1.975 0 011.083.021c.359.115.667.313.917.604.25.282.312.636.187 1.063zm-.021 12.771c.344.458.443.932.292 1.416a2.265 2.265 0 01-.75 1.146 1.816 1.816 0 01-1.208.396c-.433-.01-.782-.271-1.042-.771-.25-.484-.516-.989-.792-1.521a17.917 17.917 0 00-.937-1.625v5.292c0 .49-.203.854-.604 1.104-.391.24-.813.354-1.271.354-.448 0-.865-.114-1.25-.354-.391-.25-.584-.614-.584-1.104v-4.625a16.73 16.73 0 01-.958 1.646c-.333.489-.682.953-1.042 1.396-.432.531-.89.75-1.375.666a2.135 2.135 0 01-1.229-.687v2.937c0 .042.031.105.104.188.084.073.146.104.188.104h11.146c.359 0 .656.156.896.458.25.308.437.688.562 1.146.125.448.188.948.188 1.5a6.09 6.09 0 01-.167 1.459c-.115.458-.287.838-.521 1.145-.24.302-.536.459-.896.459h-11.791c-1.198 0-2.058-.271-2.584-.813-.515-.531-.771-1.396-.771-2.604v-9.687c-.099.25-.27.437-.52.562a1.64 1.64 0 01-.771.188c-.25 0-.49-.068-.709-.209-.208-.151-.343-.38-.395-.687a1.363 1.363 0 01-.063-.25c0-.084-.016-.172-.042-.271l-1.604.146c0 .515.011 1.229.042 2.146.026.916.068 1.932.125 3.041.052 1.115.125 2.261.208 3.438.084 1.182.167 2.271.25 3.271.042.5-.052.906-.271 1.229a2.07 2.07 0 01-.895.75 2.59 2.59 0 01-1.209.25 3.09 3.09 0 01-1.208-.271 2.044 2.044 0 01-.875-.75c-.224-.323-.313-.724-.271-1.208.109-.969.198-2.032.271-3.188a98.58 98.58 0 00.187-3.354c.052-1.094.094-2.089.125-2.979.042-.901.068-1.573.084-2.021l-2.438.25c-.489.042-.875-.089-1.166-.396a1.767 1.767 0 01-.48-1.042c-.041-.385.042-.75.25-1.083.209-.344.552-.526 1.042-.542.177 0 .354-.005.521-.02.177-.011.359-.021.542-.021.416-.417.776-.797 1.083-1.146.302-.359.604-.75.896-1.167a27.083 27.083 0 00-1.688-1.416 35.31 35.31 0 00-1.812-1.334c-.407-.276-.62-.614-.646-1.021-.016-.401.088-.77.312-1.104a1.87 1.87 0 01.959-.729c.416-.151.843-.104 1.291.146.36-.583.688-1.13.98-1.646.302-.526.583-1.083.833-1.667.167-.427.458-.687.875-.77a2.01 2.01 0 011.167.062c.375.125.671.354.895.688.219.333.23.718.021 1.145a15.03 15.03 0 01-1.083 1.959c-.406.64-.849 1.302-1.333 1.979.192.167.375.344.541.521.177.166.344.343.5.521.276-.375.531-.792.771-1.25.25-.459.484-.901.708-1.334.235-.442.563-.698.98-.771a1.716 1.716 0 011.145.146c.36.183.631.448.813.792.177.349.151.729-.083 1.146a29.626 29.626 0 01-1.938 3.229 27.543 27.543 0 01-2.271 2.792c.344-.011.688-.026 1.021-.042.333-.026.677-.063 1.042-.104l-.188-.584c-.125-.343-.114-.635.042-.875.167-.25.385-.416.667-.5a1.47 1.47 0 01.895 0c.302.099.526.329.667.688.234.557.469 1.125.708 1.708a8.32 8.32 0 01.5 1.688v-12.209c0-.484.188-.854.563-1.104.385-.25.802-.375 1.25-.375.458 0 .875.125 1.25.375.385.25.583.62.583 1.104v.896a1.83 1.83 0 01.625-.583c.276-.167.552-.255.834-.271a1.5 1.5 0 01.833.167c.26.14.469.396.625.771.167.432.333.875.5 1.333.177.448.354.927.521 1.437.135.448.088.829-.146 1.146a2.005 2.005 0 01-.896.688c-.365.14-.724.177-1.083.104-.365-.068-.604-.261-.729-.583a5.016 5.016 0 01-.23-.625 18.126 18.126 0 00-.291-.834c-.099-.291-.198-.573-.292-.854a10.702 10.702 0 00-.271-.729v5.25c.11-.219.261-.406.459-.563.208-.151.458-.229.75-.229h3.395v-6.521c0-.484.193-.854.584-1.104a2.31 2.31 0 012.521 0c.401.25.604.62.604 1.104v6.521h3.041c.459 0 .797.177 1.021.521a1.904 1.904 0 01-.021 2.188c-.224.333-.557.5-1 .5h-2.604a50.415 50.415 0 012.063 2.312c.734.865 1.38 1.667 1.937 2.417zm-16.666 8.521c0 .458-.162.807-.48 1.041a1.69 1.69 0 01-1.02.375c-.375 0-.724-.109-1.042-.333-.323-.219-.479-.552-.479-1 0-.542-.011-1.172-.021-1.896v-2.187c0-.709-.011-1.381-.021-2.021a60.397 60.397 0 01-.021-1.5c0-.334.094-.589.292-.771.208-.193.443-.297.708-.313a1.08 1.08 0 01.729.188c.235.141.386.375.459.708.067.308.146.802.229 1.479.094.683.193 1.417.292 2.209.093.791.177 1.562.25 2.312.083.74.125 1.308.125 1.709zm-8.063-7.73v1.417c0 .641-.016 1.349-.042 2.125-.015.781-.031 1.594-.041 2.438 0 .833-.021 1.599-.063 2.291-.031.49-.229.834-.604 1.042-.365.208-.75.281-1.167.229a1.847 1.847 0 01-1.083-.5c-.323-.302-.437-.713-.354-1.229a33.3 33.3 0 00.292-2.083c.083-.776.166-1.547.25-2.313.083-.76.151-1.458.208-2.083.068-.636.114-1.125.146-1.459.041-.385.187-.671.437-.854a1.31 1.31 0 011.646.084c.25.197.375.494.375.895zm13.188-5.52c-.292 0-.542-.068-.75-.209a1.508 1.508 0 01-.459-.583v5.708a17.86 17.86 0 001.854-2.208c.302-.427.589-.875.855-1.333.26-.469.479-.928.645-1.375h-2.145zm46.525-6.271v1.083h4.5c.541 0 .948.167 1.229.5.276.323.417.682.417 1.083 0 .407-.141.771-.417 1.105-.281.323-.688.479-1.229.479h-13.063c-.557 0-.974-.156-1.25-.479a1.727 1.727 0 01-.396-1.105c0-.401.131-.76.396-1.083.276-.333.693-.5 1.25-.5h4.563v-1.083h-5.292c-.557 0-.969-.167-1.229-.5-.266-.344-.396-.709-.396-1.084 0-.401.136-.77.417-1.104.276-.343.677-.521 1.208-.521h5.292v-.437c0-.417.198-.719.604-.917.417-.208.88-.312 1.396-.312.5 0 .958.104 1.375.312.416.198.625.5.625.917v.437h5.437c.552 0 .964.178 1.229.521.276.334.417.703.417 1.104 0 .375-.141.74-.417 1.084-.265.333-.677.5-1.229.5h-5.437zm6.562 10.083c0 .448-.198.771-.583.979a2.575 2.575 0 01-1.271.313c-.448 0-.854-.11-1.229-.334-.375-.218-.563-.552-.563-1v-1.75h-9.791v1.792c0 .406-.162.708-.479.917a2.235 2.235 0 01-1.084.354 2.276 2.276 0 01-1.146-.208c-.364-.167-.583-.427-.666-.792a1.57 1.57 0 01-.604.271 1.531 1.531 0 01-.667-.021 1.51 1.51 0 01-.604-.292.892.892 0 01-.313-.562.369.369 0 01-.021-.125.282.282 0 00-.041-.146c-.167.016-.334.031-.5.042-.156.015-.313.031-.479.041.026.516.052 1.24.083 2.167.026.932.068 1.953.125 3.062.052 1.099.115 2.224.187 3.375.084 1.157.167 2.23.25 3.23.042.5-.057.906-.291 1.229-.24.333-.542.583-.917.75-.364.177-.766.26-1.208.25a3.418 3.418 0 01-1.25-.271 2.044 2.044 0 01-.896-.75c-.224-.323-.313-.724-.271-1.208.109-.959.198-2.011.271-3.167a98.86 98.86 0 00.187-3.333c.053-1.084.094-2.068.125-2.959.042-.885.063-1.562.063-2.021-.432.042-.87.073-1.313.084-.432.015-.869.041-1.312.083-.49.016-.87-.13-1.146-.437a1.974 1.974 0 01-.5-1.063c-.042-.401.042-.76.25-1.083.208-.334.563-.505 1.063-.521h.52c.178 0 .36-.01.542-.042.333-.401.646-.781.938-1.146.302-.375.588-.75.854-1.125a92.133 92.133 0 00-1.688-1.27c-.541-.401-1.12-.818-1.729-1.25-.406-.25-.62-.568-.646-.959-.031-.385.063-.75.271-1.083.208-.344.5-.604.875-.771.386-.167.802-.151 1.25.042.375-.584.719-1.156 1.042-1.729a34.56 34.56 0 00.896-1.771c.177-.417.484-.667.916-.75.443-.084.86-.052 1.25.083.401.125.719.365.959.708.234.334.25.709.041 1.125-.64 1.334-1.479 2.73-2.521 4.188.178.125.339.26.48.396.151.125.302.25.458.375.5-.761 1.005-1.61 1.521-2.542.25-.443.594-.698 1.041-.771.443-.083.86-.031 1.25.146.386.182.678.453.875.813.209.364.188.75-.062 1.166-1.24 2.183-2.604 4.162-4.104 5.938a8.68 8.68 0 01.812-.042 7.73 7.73 0 00.813-.083 2.437 2.437 0 01-.104-.334 1.945 1.945 0 00-.084-.375c-.114-.333-.073-.609.125-.833.209-.234.459-.396.75-.479.302-.094.61-.094.917 0a.9.9 0 01.604.625c.136.365.25.708.333 1.042.094.323.198.661.313 1.02v-.229c0-1.291.729-1.937 2.187-1.937h12.355c.734 0 1.296.166 1.687.5.401.323.604.802.604 1.437v3.021zm-24.354 1.708v1.417c0 .641-.016 1.349-.042 2.125-.015.781-.031 1.594-.041 2.438 0 .833-.021 1.599-.063 2.291-.031.49-.229.834-.604 1.042a1.95 1.95 0 01-1.208.229 1.973 1.973 0 01-1.125-.5c-.323-.302-.438-.713-.354-1.229.093-.625.187-1.318.27-2.083l.25-2.313c.094-.76.172-1.458.23-2.083.067-.636.109-1.125.125-1.459.041-.385.192-.671.458-.854.26-.177.552-.26.875-.25.318.016.604.125.854.334.25.198.375.494.375.895zm24.938 2.792c0 1.766-.058 3.219-.167 4.354-.099 1.125-.287 2-.563 2.625-.265.636-.64 1.073-1.125 1.313-.474.25-1.093.375-1.854.375h-1.354c-1.182 0-2.042-.261-2.583-.771-.542-.516-.813-1.375-.813-2.583v-9.605c0-.458.188-.802.563-1.041a2.434 2.434 0 011.291-.354c.459 0 .875.119 1.25.354.386.239.584.583.584 1.041v6.396c0 .198.01.334.041.417.026.083.151.125.375.125h.459a.45.45 0 00.291-.083c.084-.068.151-.198.209-.396.052-.209.094-.49.125-.854.026-.375.052-.865.083-1.48 0-.442.167-.77.5-.979a1.93 1.93 0 011.104-.291c.401 0 .761.119 1.084.354.333.239.5.599.5 1.083zm-9.73-4.25c0 2.307-.057 4.24-.166 5.792-.115 1.541-.37 2.823-.771 3.833-.391 1-.974 1.761-1.75 2.292-.766.541-1.807.963-3.125 1.271a2.053 2.053 0 01-1.25-.105 2.688 2.688 0 01-1.063-.75c-.307-.348-.541-.781-.708-1.291-.167-.5-.219-1.052-.146-1.667a1.76 1.76 0 01-.771-.417c-.208-.208-.312-.489-.312-.854v-1.708c.01-.609.01-1.208 0-1.792 0-.583-.01-1.13-.021-1.646-.016-.51-.036-.937-.062-1.27-.016-.344.083-.61.291-.792.219-.193.464-.297.729-.313.276-.026.542.037.792.188.261.141.422.375.479.708.042.266.089.599.146 1 .068.391.136.828.208 1.313.084.489.151 1 .209 1.541.067.542.135 1.063.208 1.563.818-.167 1.448-.401 1.896-.708a2.778 2.778 0 001-1.25c.219-.542.354-1.214.396-2.021.041-.802.062-1.792.062-2.959 0-.458.193-.802.584-1.041a2.434 2.434 0 011.291-.354c.459 0 .88.119 1.271.354.386.239.583.599.583 1.083zm49.942 6.709c.401.042.719.245.958.604.235.365.386.792.459 1.292a6.25 6.25 0 010 1.583 6.212 6.212 0 01-.355 1.542c-.182.484-.411.864-.687 1.146-.266.291-.563.416-.896.375-2.391-.349-4.536-.761-6.437-1.229-1.891-.474-3.636-1.105-5.23-1.896-3.448 1.651-7.703 2.692-12.77 3.125-.375.041-.709-.099-1-.417a3.434 3.434 0 01-.709-1.146 5.695 5.695 0 01-.312-1.541 6.703 6.703 0 01.062-1.605 3.3 3.3 0 01.5-1.25c.25-.343.589-.526 1.021-.541 1.318-.11 2.563-.235 3.729-.375a43.146 43.146 0 003.334-.521 39.208 39.208 0 01-2-2.146 38.186 38.186 0 01-2-2.542 1.242 1.242 0 01-.292-.791c0-.292.068-.563.208-.813.136-.26.323-.489.563-.687.25-.209.526-.36.833-.459h-2.771c-.531 0-.916-.192-1.166-.583a2.331 2.331 0 01-.375-1.25c0-.469.125-.901.375-1.292.25-.385.635-.583 1.166-.583h8.854v-3.208h-9.708c-.531 0-.932-.177-1.208-.542a2.041 2.041 0 010-2.417c.276-.375.677-.562 1.208-.562h9.708v-1.792c0-.484.219-.844.667-1.083a3.198 3.198 0 011.479-.354c.552 0 1.052.12 1.5.354.459.239.688.599.688 1.083v1.792h9.75c.552 0 .963.187 1.229.562.26.375.396.782.396 1.209 0 .432-.136.833-.396 1.208-.266.365-.677.542-1.229.542h-9.75v3.208h6.979c.667 0 1.219.125 1.667.375.442.25.776.583 1 1 .218.417.317.891.291 1.417-.015.531-.161 1.062-.437 1.604a29.996 29.996 0 01-2.209 3.667 22.437 22.437 0 01-2.708 3.125c.885.166 1.823.312 2.813.437 1 .125 2.067.25 3.208.375zm-19.354-8.292c.234.099.416.24.541.417 1.094 1.24 2.157 2.271 3.188 3.104 1.042.823 2.125 1.5 3.25 2.042a16.59 16.59 0 003.625-2.292c1.083-.916 2.104-2.005 3.062-3.271h-13.666zm61.108 8.667c.417.057.74.25.98.583.25.323.406.719.479 1.188a4.41 4.41 0 01-.021 1.521 5.411 5.411 0 01-.438 1.479 2.838 2.838 0 01-.833 1.062 1.486 1.486 0 01-1.167.334c-1.182-.141-2.187-.354-3.02-.646a17.662 17.662 0 01-2.459-1.083c-.864.427-1.765.791-2.708 1.083-.948.292-2.078.51-3.396.667-.391.041-.729-.042-1.021-.25a2.587 2.587 0 01-.75-.813 4.648 4.648 0 01-.458-1.187 5.035 5.035 0 01-.125-1.292c-.375.583-.76 1.12-1.146 1.604-.307.385-.641.594-1 .625a1.762 1.762 0 01-1.062-.271 3.135 3.135 0 01-.938-.833 3.662 3.662 0 01-.604-1.229 3.217 3.217 0 01-.104-1.313c.067-.427.271-.812.604-1.146.969-.968 1.833-2.187 2.583-3.645.75-1.459 1.276-3.053 1.584-4.792h-1.938a1.51 1.51 0 01-.333.687c-.167.224-.406.417-.709.584-.322.14-.64.281-.958.416-.323.141-.641.271-.958.396v8.604c0 .75-.078 1.396-.229 1.938-.141.552-.417.989-.834 1.312-.406.318-.974.506-1.708.563-.724.068-1.656 0-2.792-.208-.364-.073-.656-.287-.875-.646-.224-.349-.375-.771-.458-1.271a6.516 6.516 0 01-.063-1.563 5.923 5.923 0 01.292-1.5c.167-.458.38-.817.646-1.083.26-.26.568-.365.917-.312.635.125 1.02.166 1.145.125.125-.053.188-.276.188-.667v-3.667l-1.042.292c-.573.141-1.057.052-1.458-.271a2.39 2.39 0 01-.813-1.208 2.174 2.174 0 01.042-1.396c.177-.469.552-.771 1.125-.896a40.39 40.39 0 011.125-.292 11.45 11.45 0 001.021-.291v-5.563h-1.583c-.542 0-.954-.177-1.23-.541a1.881 1.881 0 01-.416-1.188c0-.417.135-.802.416-1.167.276-.359.688-.541 1.23-.541h1.583v-3.25c0-.469.193-.818.583-1.042a2.665 2.665 0 011.292-.333c.484 0 .922.114 1.312.333.386.224.584.557.584 1v3.292h1.208c.552 0 .969.182 1.25.541.292.365.438.75.438 1.167 0 .432-.146.828-.438 1.188-.281.364-.698.541-1.25.541h-1.208v4.229c.109-.041.208-.073.291-.104.084-.026.178-.062.292-.104.401-.193.771-.234 1.104-.125.084-.302.235-.552.459-.75.218-.208.52-.312.895-.312h2.313c.026-.167.042-.323.042-.48.01-.166.031-.333.062-.5h-1.646c-.474 0-.833-.151-1.083-.458a1.652 1.652 0 01-.354-1.021c0-.385.114-.734.354-1.041.25-.318.609-.48 1.083-.48h.75a5.869 5.869 0 00-.458-.708c-.182-.25-.354-.479-.521-.687a.932.932 0 01-.229-.771 1.82 1.82 0 01.354-.792h-.437c-.448 0-.792-.156-1.042-.479a1.877 1.877 0 01-.375-1.063c0-.385.115-.739.354-1.062.25-.333.625-.5 1.125-.5 1.693 0 3.302-.021 4.833-.063 1.526-.041 2.943-.088 4.25-.145a86.201 86.201 0 003.563-.25c1.052-.11 1.948-.23 2.687-.355.511-.083.938.011 1.271.271.334.266.547.584.646.959a1.57 1.57 0 01-.125 1.104c-.182.364-.536.583-1.062.666a3.245 3.245 0 01-.334.084c-.114.015-.229.031-.354.041.401.167.698.427.896.771.208.334.193.74-.042 1.209-.166.307-.333.604-.5.895-.156.282-.328.573-.521.875h.771c.5 0 .865.162 1.104.48.25.307.375.656.375 1.041 0 .365-.125.703-.375 1.021-.25.307-.619.458-1.104.458H340.72c-.016.167-.031.334-.042.5a13.22 13.22 0 00-.042.48h10.605c.552 0 .963.161 1.229.479.26.323.396.682.396 1.083 0 .375-.136.724-.396 1.042-.266.323-.677.479-1.229.479H340.22c-.016.167-.031.344-.042.521a3.434 3.434 0 01-.083.521h9.479c.484 0 .859.104 1.125.312.276.198.469.453.583.771.125.323.177.667.167 1.042a5.25 5.25 0 01-.167 1.104c-.208.75-.437 1.448-.687 2.083-.24.625-.516 1.224-.834 1.792.292.041.573.078.855.104.291.031.588.062.895.104zm-3.333-18.917c-.599.073-1.245.136-1.937.188-.683.057-1.412.104-2.188.146.208.265.386.531.542.791.151.266.312.579.479.938.135.281.172.542.104.792a1.738 1.738 0 01-.354.645h1.458c.344-.552.63-1.052.854-1.5.219-.442.448-.927.688-1.458.042-.094.088-.187.146-.271a7.8 7.8 0 00.208-.271zm-6.25 3.5a8.145 8.145 0 00-.396-.75 21.627 21.627 0 00-.521-.833.853.853 0 01-.145-.75c.083-.26.229-.5.437-.708-.489 0-.979.01-1.479.021-.5 0-1.021.015-1.563.041.209.24.381.453.521.646.136.182.292.417.459.708.166.292.213.579.145.855a1.63 1.63 0 01-.395.77h2.937zm.125 11.125a10.763 10.763 0 003.021 2.584 6.588 6.588 0 001.458-1.104 6.311 6.311 0 001.104-1.48h-5.583zm-1.667 4.23a9.893 9.893 0 01-.812-1.292c-.25-.5-.469-1.011-.646-1.542a25.735 25.735 0 01-1.146 3.25c.125-.052.271-.083.438-.083.844-.026 1.567-.136 2.166-.333zm49.338 1.02c.135.515.145.979.02 1.396-.125.416-.39.77-.791 1.062a3.92 3.92 0 01-1.438.625 4.69 4.69 0 01-1.604.125c-.531-.042-1-.187-1.417-.437-.406-.261-.682-.646-.833-1.146a212.588 212.588 0 00-.958-3.25c-.308-1.052-.62-2.089-.938-3.104h-9.166c-.308 1.015-.62 2.052-.938 3.104a102.963 102.963 0 00-.896 3.25 1.81 1.81 0 01-.833 1.146c-.417.25-.886.395-1.396.437a4.382 4.382 0 01-1.604-.146 4.14 4.14 0 01-1.417-.646c-.406-.302-.677-.656-.812-1.062-.141-.417-.136-.865.021-1.354l9.27-20.25c.302-.651.75-1.146 1.334-1.479a3.686 3.686 0 011.875-.521c.651 0 1.271.166 1.854.5.594.333 1.052.833 1.375 1.5l9.292 20.25zm-9.396-8.938c-1.058-2.958-2.099-5.573-3.125-7.854a92.522 92.522 0 00-1.584 3.708 112.798 112.798 0 00-1.583 4.146h6.292zm42.907-4.854c0 .49-.198.854-.583 1.104-.391.24-.813.354-1.271.354-.448 0-.87-.114-1.271-.354-.391-.25-.583-.614-.583-1.104v-7.021c0-.51.192-.885.583-1.125a2.36 2.36 0 011.271-.375c.458 0 .88.125 1.271.375.385.24.583.615.583 1.125v7.021zm5.625 2.646c0 .698-.115 1.292-.333 1.792-.224.489-.604.869-1.146 1.145-.542.282-1.271.438-2.188.48-.916.041-2.078-.032-3.479-.23-.573-.083-.979-.338-1.229-.77a2.305 2.305 0 01-.292-1.355c.042-.484.23-.901.563-1.25.333-.343.76-.479 1.292-.395.583.083 1.052.156 1.416.208.375.042.667.052.875.021.219-.026.375-.084.459-.167.083-.094.125-.24.125-.437v-9.73c0-.484.197-.854.604-1.104.416-.25.864-.375 1.354-.375.484 0 .937.125 1.354.375.417.25.625.62.625 1.104v10.688zm-25.729 15.771c-.365 0-.667-.146-.917-.438-.239-.291-.416-.661-.541-1.104a5.71 5.71 0 01-.167-1.437c0-.5.052-.969.167-1.417.125-.443.302-.813.541-1.104.25-.302.552-.459.917-.459h10.125v-2.25h-8.167c-.557 0-.974-.171-1.25-.52a1.958 1.958 0 01-.396-1.188c0-.417.131-.802.396-1.167.276-.359.693-.541 1.25-.541h8.167v-.688c0-.302.114-.547.354-.729a3.203 3.203 0 01-.937-.396c-.266-.166-.396-.396-.396-.687v-3.479h-3.417c-.208 1.156-.542 2.156-1 3-.458.849-1.161 1.614-2.104 2.291-.474.334-.969.433-1.479.292a3.074 3.074 0 01-1.334-.729 2.265 2.265 0 01-.687-1.209c-.083-.458.088-.838.521-1.145.651-.485 1.146-.896 1.479-1.23.344-.343.604-.77.771-1.27h-1.563c-.5 0-.885-.167-1.146-.5a1.802 1.802 0 01-.395-1.125c0-.401.13-.771.395-1.105.261-.343.646-.52 1.146-.52h1.854v-2.855h-1.145c-.532 0-.928-.166-1.188-.5a1.693 1.693 0 01-.396-1.083c0-.385.13-.75.396-1.083.26-.344.656-.521 1.188-.521h12.895c.526 0 .922.177 1.188.521.26.333.396.698.396 1.083 0 .391-.136.75-.396 1.083-.266.334-.662.5-1.188.5h-.854v2.855h1.396c.5 0 .875.177 1.125.52.26.334.396.704.396 1.105 0 .406-.136.781-.396 1.125-.25.333-.625.5-1.125.5h-1.396v3.479a.721.721 0 01-.062.291 1.998 1.998 0 01-.167.271c.484.042.906.177 1.271.396.359.208.542.495.542.854v.688h8.687c.542 0 .943.182 1.208.541.261.365.396.75.396 1.167 0 .432-.135.828-.396 1.188-.265.349-.666.52-1.208.52h-8.687v2.25h10.604c.359 0 .656.157.896.459.25.291.427.661.541 1.104.125.448.188.917.188 1.417 0 .515-.063.994-.188 1.437-.114.443-.291.813-.541 1.104-.24.292-.537.438-.896.438h-25.271zm9.146-23.709h-3.188v2.855h3.188v-2.855zm40.066 10.021c0 .375-.078.74-.229 1.084a2.812 2.812 0 01-.604.895c-.266.25-.573.454-.917.605a2.78 2.78 0 01-1.083.208 2.86 2.86 0 01-1.084-.208 3.188 3.188 0 01-.895-.605 2.944 2.944 0 01-.625-.895 2.842 2.842 0 01-.209-1.084c0-.375.068-.729.209-1.062a2.98 2.98 0 01.625-.917c.26-.26.562-.463.895-.604a2.683 2.683 0 012.167 0c.344.141.651.344.917.604.26.266.463.573.604.917.151.333.229.687.229 1.062zm39.327 3.647c0 2.791-.791 4.87-2.375 6.229-1.573 1.364-4.057 2.042-7.458 2.042h-8.583c-2.282 0-3.417-1.136-3.417-3.417v-18.229c0-2.042 1.135-3.063 3.417-3.063h8.02c3.052 0 5.355.495 6.896 1.479 1.542.974 2.313 2.469 2.313 4.48a5.25 5.25 0 01-.584 2.437c-.39.74-1.073 1.307-2.041 1.708 1.135.448 2.052 1.24 2.75 2.375.708 1.125 1.062 2.448 1.062 3.959zm-5.75-10.146c0-1.375-1.458-2.063-4.375-2.063h-7c-.083 0-.125.037-.125.105v4.145h7.521c1.302 0 2.292-.166 2.958-.5.677-.333 1.021-.895 1.021-1.687zm.959 9.354c0-1.042-.417-1.781-1.25-2.229-.823-.458-2.073-.688-3.75-.688h-7.459v5.521c0 .334.177.5.542.5h6.917c1.802 0 3.088-.255 3.854-.771.76-.51 1.146-1.291 1.146-2.333zm38.964-7.584c0 .49-.197.854-.583 1.104-.391.24-.812.354-1.271.354-.448 0-.87-.114-1.271-.354-.39-.25-.583-.614-.583-1.104v-7.021c0-.51.193-.885.583-1.125a2.36 2.36 0 011.271-.375c.459 0 .88.125 1.271.375.386.24.583.615.583 1.125v7.021zm5.625 2.646c0 .698-.114 1.292-.333 1.792-.224.489-.604.869-1.146 1.145-.541.282-1.271.438-2.187.48-.917.041-2.078-.032-3.479-.23-.573-.083-.98-.338-1.23-.77a2.304 2.304 0 01-.291-1.355c.041-.484.229-.901.562-1.25.334-.343.761-.479 1.292-.395.583.083 1.052.156 1.417.208.375.042.666.052.875.021.218-.026.375-.084.458-.167.083-.094.125-.24.125-.437v-9.73c0-.484.198-.854.604-1.104.417-.25.865-.375 1.354-.375.485 0 .938.125 1.354.375.417.25.625.62.625 1.104v10.688zm-25.729 15.771c-.364 0-.666-.146-.916-.438-.24-.291-.417-.661-.542-1.104a5.71 5.71 0 01-.167-1.437c0-.5.052-.969.167-1.417.125-.443.302-.813.542-1.104.25-.302.552-.459.916-.459h10.125v-2.25h-8.166c-.558 0-.974-.171-1.25-.52a1.951 1.951 0 010-2.355c.276-.359.692-.541 1.25-.541h8.166v-.688c0-.302.115-.547.354-.729a3.214 3.214 0 01-.937-.396c-.266-.166-.396-.396-.396-.687v-3.479h-3.417c-.208 1.156-.541 2.156-1 3-.458.849-1.161 1.614-2.104 2.291-.474.334-.968.433-1.479.292a3.07 3.07 0 01-1.333-.729 2.26 2.26 0 01-.688-1.209c-.083-.458.089-.838.521-1.145.651-.485 1.146-.896 1.479-1.23.344-.343.604-.77.771-1.27h-1.562c-.5 0-.886-.167-1.146-.5a1.797 1.797 0 01-.396-1.125c0-.401.13-.771.396-1.105.26-.343.646-.52 1.146-.52h1.854v-2.855h-1.146c-.531 0-.927-.166-1.188-.5a1.697 1.697 0 01-.395-1.083c0-.385.13-.75.395-1.083.261-.344.657-.521 1.188-.521h12.896c.526 0 .922.177 1.187.521.261.333.396.698.396 1.083 0 .391-.135.75-.396 1.083-.265.334-.661.5-1.187.5h-.854v2.855h1.395c.5 0 .875.177 1.125.52.261.334.396.704.396 1.105 0 .406-.135.781-.396 1.125-.25.333-.625.5-1.125.5h-1.395v3.479a.706.706 0 01-.063.291 1.998 1.998 0 01-.167.271c.485.042.907.177 1.271.396.36.208.542.495.542.854v.688h8.687c.542 0 .943.182 1.209.541.26.365.396.75.396 1.167 0 .432-.136.828-.396 1.188-.266.349-.667.52-1.209.52h-8.687v2.25h10.604c.359 0 .656.157.896.459.25.291.427.661.542 1.104.125.448.187.917.187 1.417 0 .515-.062.994-.187 1.437-.115.443-.292.813-.542 1.104-.24.292-.537.438-.896.438h-25.271zm9.146-23.709h-3.187v2.855h3.187v-2.855zm57.963 13.063v2.5c0 1.583-.87 2.375-2.605 2.375h-7.604v1.562c0 .99-.083 1.834-.25 2.542-.166.708-.604 1.25-1.312 1.625-.709.385-1.781.604-3.209.646-1.416.042-3.385-.104-5.895-.438-.49-.073-.886-.27-1.188-.604a2.804 2.804 0 01-.625-1.166 3.966 3.966 0 01-.125-1.417c.052-.5.193-.948.417-1.354.219-.401.521-.719.896-.959.375-.25.823-.333 1.354-.25a86.96 86.96 0 003.083.417c.75.073 1.302.094 1.667.063.359-.042.573-.11.646-.209.067-.109.104-.26.104-.458h-9.604c-.5 0-.886-.198-1.146-.604a2.623 2.623 0 01-.375-1.375c0-.511.125-.969.375-1.375.26-.417.646-.625 1.146-.625h9.77v-.896h-11.229c-.458 0-.802-.125-1.021-.375a1.24 1.24 0 01-.333-.854c0-.318.11-.604.333-.854.219-.261.563-.396 1.021-.396h11.229v-.854h-9.833c-.5 0-.885-.131-1.146-.396-.25-.261-.375-.542-.375-.834 0-.317.125-.609.375-.875.261-.26.646-.395 1.146-.395h9.833v-.75h-8.25c-1.432 0-2.145-.625-2.145-1.875v-1.959c0-1.234.713-1.854 2.145-1.854h8.25v-.792H547.91c-.557 0-.974-.135-1.25-.416-.265-.292-.396-.589-.396-.896 0-.344.131-.656.396-.938.276-.291.693-.437 1.25-.437h10.458v-.542c0-.333.198-.583.605-.75.416-.166.88-.25 1.395-.25.5 0 .959.084 1.375.25.417.167.625.417.625.75v.542h9.855c.541 0 .948.146 1.229.437.276.282.416.594.416.938 0 .307-.14.604-.416.896-.281.281-.688.416-1.229.416h-9.855v.792h7.813c1.458 0 2.187.62 2.187 1.854v1.959c0 1.25-.729 1.875-2.187 1.875h-7.813v.75h7.875c.875 0 1.527.14 1.959.416.427.281.646.802.646 1.563v1.375h.562c.302 0 .526.135.667.396.151.25.229.536.229.854 0 .323-.078.604-.229.854-.141.25-.365.375-.667.375h-.562zm-4.271-9.938h-6.209v.98h6.209v-.98zm-10.209 0h-6.583v.98h6.583v-.98zm10.771 6.605h-6.771v.854h6.771v-.854zm0 3.333h-6.771v.896h6.771v-.896zm45.483 4.501c.417.072.735.27.959.604.218.333.354.745.395 1.229a4.94 4.94 0 01-.104 1.479 5.01 5.01 0 01-.479 1.396c-.208.427-.458.771-.75 1.021-.292.26-.614.354-.958.271a29.08 29.08 0 01-2.729-.75 19.45 19.45 0 01-2.396-.938 20.885 20.885 0 01-2.188-1.187 24.388 24.388 0 01-2.083-1.438c.01.042.052.198.125.458.083.266.187.62.312 1.063l.313 1.125c.125.542.026.984-.292 1.333-.307.344-.739.61-1.291.792a5.753 5.753 0 01-1.792.271 5.884 5.884 0 01-1.792-.229c-.541-.167-.974-.433-1.291-.792-.323-.365-.417-.823-.292-1.375.068-.302.172-.672.312-1.104.136-.443.25-.797.334-1.063.094-.276.156-.437.187-.479a18.195 18.195 0 01-4.312 2.75c-.74.333-1.521.615-2.354.854a39.45 39.45 0 01-2.709.709c-.349.083-.666-.011-.958-.271-.292-.25-.552-.594-.771-1.021a5.791 5.791 0 01-.479-1.396 5.295 5.295 0 01-.083-1.479c.041-.484.171-.896.395-1.229.219-.334.542-.532.959-.604.719-.11 1.51-.23 2.375-.355.875-.135 1.75-.281 2.625-.437a49.924 49.924 0 002.521-.542 22.845 22.845 0 002.062-.625h-9.187c-.532 0-.927-.151-1.188-.458a1.533 1.533 0 01-.375-1c0-.386.125-.734.375-1.042.261-.302.656-.458 1.188-.458h10.458v-1.063h-8.667c-.531 0-.927-.145-1.187-.437-.266-.302-.391-.63-.375-.979.01-.344.151-.657.416-.938.261-.291.646-.437 1.146-.437h8.667v-1.042h-9.458c-.532 0-.917-.151-1.167-.458a1.653 1.653 0 01-.375-1.042c0-.375.125-.713.375-1.021.25-.302.635-.458 1.167-.458h5.27a11.99 11.99 0 00-.395-.854 5.025 5.025 0 00-.375-.667h-5.73c-.5 0-.885-.167-1.145-.5a1.739 1.739 0 01-.375-1.062c0-.401.125-.761.375-1.084.26-.333.645-.5 1.145-.5h2.313c-.167-.234-.344-.469-.521-.708-.182-.25-.375-.5-.583-.75-.323-.375-.386-.75-.188-1.125.209-.375.526-.677.959-.917a2.72 2.72 0 011.395-.375c.5-.01.886.162 1.167.521.333.417.693.953 1.083 1.604a39.58 39.58 0 011 1.75h1.105v-3.208c0-.344.198-.615.604-.813a3.183 3.183 0 011.354-.291c.484 0 .937.099 1.354.291.417.198.625.469.625.813v3.208h2v-3.208c0-.344.208-.615.625-.813.417-.192.88-.291 1.396-.291.526 0 1 .099 1.417.291.427.198.645.469.645.813v3.208h1.334c.291-.442.594-.942.916-1.5a35.56 35.56 0 00.917-1.666c.208-.443.552-.693 1.042-.75.484-.053.948.015 1.396.208.442.198.796.489 1.062.875.261.375.271.781.021 1.208-.167.308-.344.599-.521.875-.167.266-.333.516-.5.75h1.938c.5 0 .885.167 1.166.5.292.323.443.677.459 1.063.01.39-.115.75-.375 1.083-.266.333-.683.5-1.25.5h-5.48c-.072.224-.156.469-.25.729a17.7 17.7 0 01-.333.792h4.917c.526 0 .922.156 1.187.458.261.308.396.646.396 1.021 0 .375-.135.724-.396 1.042-.265.307-.661.458-1.187.458h-9.438v1.042h8.646c.511 0 .901.146 1.167.437.26.281.396.594.396.938.01.349-.115.677-.375.979-.266.292-.662.437-1.188.437h-8.646v1.063h10.459c.526 0 .921.156 1.187.458.261.308.396.656.396 1.042 0 .364-.135.698-.396 1-.266.307-.661.458-1.187.458h-9.105a21.92 21.92 0 002.063.625c.802.198 1.635.375 2.5.542.875.156 1.734.302 2.583.437.86.125 1.651.245 2.375.355zM598.81 350.47c.094.224.198.469.312.729.125.266.24.531.354.792h4.75c.136-.261.261-.526.375-.792.11-.26.214-.505.313-.729h-6.104zm31.962-3.522c-.531 0-.932-.171-1.208-.52a1.86 1.86 0 01-.396-1.167c0-.443.13-.839.396-1.188.276-.343.677-.52 1.208-.52h10.813c.541 0 .948.177 1.229.52.276.349.417.745.417 1.188 0 .432-.136.823-.396 1.167-.266.349-.677.52-1.229.52h-10.834zm23.667 7.667l.104 1.271c.042.849.115 1.948.229 3.292.125 1.349.281 2.875.479 4.583.209 1.698.443 3.411.709 5.146.109.583-.011 1.067-.354 1.458a2.843 2.843 0 01-1.313.875c-.531.193-1.125.281-1.792.271-.656 0-1.25-.099-1.791-.292a3.085 3.085 0 01-1.292-.875c-.323-.39-.437-.87-.354-1.437.292-1.735.526-3.448.708-5.146.193-1.708.344-3.234.459-4.583.125-1.344.218-2.443.291-3.292l.063-1.271h-3.084c0 2.115-.036 3.917-.104 5.417a39.845 39.845 0 01-.375 4 20.313 20.313 0 01-.729 3.125 27.396 27.396 0 01-1.104 2.896c-.281.583-.667.979-1.167 1.187a2.792 2.792 0 01-1.583.208 4.331 4.331 0 01-1.667-.583c-.541-.323-.979-.708-1.312-1.167a3.058 3.058 0 01-.604-1.479c-.073-.541.093-1.073.5-1.604a23.988 23.988 0 001.916-2.917c.542-.968.99-1.984 1.354-3.041.36-1.052.631-2.177.813-3.375.177-1.193.271-2.505.271-3.938v-6.25c0-1.843 1.031-2.781 3.104-2.812.609-.026 1.271-.052 1.979-.084a45.518 45.518 0 002.104-.125 32.924 32.924 0 001.979-.25 13.245 13.245 0 001.605-.333c.526-.151.984-.083 1.375.208.385.282.651.636.791 1.063.136.417.125.849-.041 1.292-.157.432-.5.718-1.042.854-.516.125-1.115.239-1.792.333-.666.099-1.37.182-2.104.25-.724.057-1.437.104-2.146.146-.708.042-1.344.062-1.896.062-.057 0-.083.037-.083.105v3.333h8.521c.526 0 .922.182 1.187.542.261.349.396.744.396 1.187 0 .448-.135.849-.396 1.208-.265.365-.661.542-1.187.542h-1.625zm-11.917 2.813c0 1.583-.875 2.375-2.625 2.375h-4.916c0 .64.01 1.416.041 2.333a61.2 61.2 0 01.063 2.833c0 .974-.042 1.933-.125 2.875-.084.948-.25 1.75-.5 2.417-.183.469-.474.802-.875 1a2.31 2.31 0 01-1.313.25 4.118 4.118 0 01-1.437-.417 3.65 3.65 0 01-1.229-.958 3.402 3.402 0 01-.688-1.396c-.115-.542-.042-1.114.208-1.729.443-1.109.802-2.339 1.084-3.688.276-1.343.416-2.989.416-4.937v-7.979c0-1.542.86-2.313 2.584-2.313h6.687c1.75 0 2.625.771 2.625 2.313v7.021zm-3.896-6.042h-4.104v4.5h4.104v-4.5z" fill="#fff"/><path d="M416.317 125.97L473.677 2M461.17 166.964l123.627-58.095m-118.749 88.318H604M442.435 140.48l70.311-64.76m-59.105 77.631l40.706-27.755m4.222-2.938l5.551-3.7m-100.817 3.501l11.102-49.958m1.85-5.394l1.269-5.711m-55.362 64.574L304.803 2m12.506 164.964l-123.627-58.095m118.27 88.318H174m162.045-56.707l-70.311-64.76m59.104 77.631l-40.707-27.755m-5.234-3.708l-5.55-3.701m39.412 64.802l-47.452-13.254m-6.143-1.835l-6.444-1.727m215.997 16.816l47.451-13.254m6.145-1.835l6.444-1.727m-97.573-34.284l26.853-41.307m3.398-5.438l3.694-5.555m-118.723 52.3l-26.853-41.307m-3.4-5.438l-3.694-5.556m62.719 42.871l-11.102-49.958m-1.85-5.394l-1.27-5.711m28.777 59.478V28.417" stroke="#fff" stroke-width="3" stroke-linecap="round"/></svg>