<svg xmlns="http://www.w3.org/2000/svg" width="63.023" height="14.425" viewBox="0 0 63.023 14.425">
  <g id="case02" transform="translate(-247.727 -2758.646)">
    <path id="パス_47142" data-name="パス 47142" d="M12.012-1.638c0-.252-.294-.336-.5-.336-.882,0-1.68.966-2.394,1.008-.546.042-.756.336-1.176.588A9.352,9.352,0,0,1,6.594,0a.847.847,0,0,1-.462.126C5.586.126,5.376.252,5,.252c-.546,0-1.008-.378-1.344-.378-.672,0-.714-.8-.714-1.3,0-.42.168-.546.42-.63C4.032-2.352,4.242-3.276,5-3.276c.588,0,.378.63.924.63.5,0,1.134-.252,1.134-.84,0-.63-.546-1.764-1.3-1.764-.084,0-.21.042-.336.042A4.257,4.257,0,0,0,3.57-4.074,17.606,17.606,0,0,1,2.184-2.982c-.21.168-.21.42-.42.546-.336.252-.588.462-.588.882,0,.21.042.378.042.546,0,.252-.042.462-.042.672A1.51,1.51,0,0,0,1.26.126c.294.756,2.394,1.386,3.108,1.386.378,0,.672-.21,1.008-.21H5.67c.5,0,.84-.378,1.3-.42C7.1.84,9.156.042,9.282-.042a9.245,9.245,0,0,1,1.092-.63,4.581,4.581,0,0,0,1.3-.588C11.844-1.344,12.012-1.47,12.012-1.638ZM16.674-3.15c0,.42-.84.672-1.092,1.134a4.027,4.027,0,0,1-2.394,1.68.659.659,0,0,1-.714-.588.9.9,0,0,1,.5-.714c.84-.462,2.352-2.016,3.276-2.016A.47.47,0,0,1,16.674-3.15Zm6.594,1.386c0-.168-.252-.252-.42-.252A6.238,6.238,0,0,0,21-1.3a16.4,16.4,0,0,1-2.94.84c-.42,0-.672-.546-.672-.924,0-.588.756-1.386.756-2.226,0-.546-.21-1.386-.882-1.386-.378,0-.756.168-1.176.168h-.168A6,6,0,0,0,13.23-3.654c-.966.546-2.646,1.722-2.646,2.94,0,.924.378,1.092,1.176,1.3A5.359,5.359,0,0,0,13.188.84c1.092,0,1.6-.8,2.184-.8.672,0,.63,1.008,1.6,1.008A6.359,6.359,0,0,0,18.522.756,6.153,6.153,0,0,1,19.7.168,24.512,24.512,0,0,0,22.89-1.26C23.016-1.344,23.268-1.554,23.268-1.764ZM24.276.63a.493.493,0,0,1-.42.378c-.126,0-.294-.126-.294-.252,0-.168.336-.294.462-.294S24.276.5,24.276.63Zm7.182-6.678c0-.588-.84-.714-1.26-.714a2.166,2.166,0,0,0-1.722.714c-.378.5-.63.378-1.008,1.134-.42.966-4.158,2.058-5.208,2.94-.336.252-1.554.63-1.554,1.05,0,.252.294.294.462.294.462,0,2.184-1.092,2.982-1.176.63-.126,1.6-1.134,1.974-1.134.546,0,.882-.462,1.134-.462s.546.462.546.714c0,.5-.336,2.352-1.05,2.352-.378,0-.714.042-1.092.042-.42,0-.336-.168-.63-.168-.21,0-.462.042-.672.042-.168,0-.294-.042-.42-.042-.462,0-1.764,1.008-1.764,1.47,0,.5.756,1.05,1.218,1.05s.84-.294,1.344-.294c.126,0,.336.042.546.042a1.371,1.371,0,0,0,.5-.084,1.684,1.684,0,0,1,.924-.42c.42-.084.882-.546,1.344-.714.378-.168.546-.714.8-1.05a2.8,2.8,0,0,0,.5-1.638c0-.42-.21-.756-.21-1.134,0-1.218,1.26-1.008,1.428-1.386C30.744-5.082,31.458-5.67,31.458-6.048ZM37.506-4.41c0,.252-.714.672-.924.882s-.546.21-.8.378c-.084.042-.21.168-.294.168s-.084-.042-.084-.084c0-.168.378-.5.5-.63a2.242,2.242,0,0,1,1.428-.8C37.422-4.494,37.506-4.494,37.506-4.41Zm5.628,2.73a.343.343,0,0,0-.378-.336c-.672,0-2.394,1.218-3.276,1.3s-1.6.84-2.9.84c-.756,0-1.806-.672-1.806-1.47,0-.462,1.6-.84,1.932-1.176.924-.84,2.226-.8,2.226-2.646,0-.63-.378-.714-.882-.714h-.378c-.84,0-1.6.756-2.31,1.176a4.361,4.361,0,0,0-1.6,1.554c-.588.84-.756,1.218-1.638,1.68-.126.126-.336.252-.336.462a.382.382,0,0,0,.42.336c.378,0,.462.966,1.722,1.344a4.1,4.1,0,0,1,1.26.462,1.856,1.856,0,0,0,.924.21A14.3,14.3,0,0,0,40.74-.21,7.7,7.7,0,0,1,42-.966C42.294-1.05,43.134-1.3,43.134-1.68Z" transform="translate(246.551 2771.013)"/>
    <path id="パス_47141" data-name="パス 47141" d="M15.6-9.66a1.138,1.138,0,0,1-.42.81c-.36.33-.3.81-.84,1.08-.48.24-.66.81-1.17,1.11L12-6c-.09.06-.15.15-.27.15-.21,0-.42-.3-.54-.42-.24-.3-.69-.3-.84-.54a.838.838,0,0,1-.18-.54,3.512,3.512,0,0,1,.12-.78c.12-.48.6-.69.84-1.08.36-.54.72-.48,1.14-.84.39-.3.87-.24,1.26-.48a1.158,1.158,0,0,1,.6-.18c1.14,0,.78.24,1.35.75A.385.385,0,0,1,15.6-9.66Zm1.47.21c0-.33-.18-.63-.18-.96a1.715,1.715,0,0,0-1.71-1.41c-.42,0-.84.21-1.26.21-.6,0-.93.45-1.47.57-.78.12-.75.63-1.29.9A4.35,4.35,0,0,0,9.18-7.32c0,.24.09.45.09.72v.45a.67.67,0,0,0,.09.42,1.052,1.052,0,0,0,.72.57c.12.03.6.03.6.21,0,.09-.12.18-.18.24-.39.33-.66.81-1.14,1.08-.45.24-.6.57-1.14.57l-.18-.03c-.51,0-.66.42-1.08.54-.39.09-.6.51-.96.54a4.608,4.608,0,0,0-1.32.99c0,.21.33.33.48.39.3.12.39.39.72.39.87,0,1.26-.75,1.98-.75.6,0,.81.42,1.08.9A8.763,8.763,0,0,0,9.96,1.02c.27.33,1.17.39,1.56.39.24,0,1.14-.51,1.14-.72a.484.484,0,0,0-.54-.45c-.27,0-.51.06-.78.06-1.14,0-.9-1.23-1.56-1.98A.592.592,0,0,1,9.6-2.1a.4.4,0,0,1,.33-.42c.75-.06,1.38-1.53,2.31-1.68.48-.09,1.11-.75,1.65-.96.66-.27.75-.87,1.11-1.08.54-.27.66-.66,1.08-1.02.48-.42.48-1.17.81-1.68A.815.815,0,0,0,17.07-9.45Z" transform="translate(293.68 2770.466)"/>
  </g>
</svg>
