<svg xmlns="http://www.w3.org/2000/svg" width="132.6" height="38.272" viewBox="0 0 132.6 38.272">
  <path id="パス_47135" data-name="パス 47135" d="M14.872-2.028c0-.312-.364-.416-.624-.416-1.092,0-2.08,1.2-2.964,1.248-.676.052-.936.416-1.456.728A11.579,11.579,0,0,1,8.164,0a1.048,1.048,0,0,1-.572.156c-.676,0-.936.156-1.4.156-.676,0-1.248-.468-1.664-.468-.832,0-.884-.988-.884-1.612,0-.52.208-.676.52-.78.832-.364,1.092-1.508,2.028-1.508.728,0,.468.78,1.144.78.624,0,1.4-.312,1.4-1.04C8.736-5.1,8.06-6.5,7.124-6.5c-.1,0-.26.052-.416.052a5.27,5.27,0,0,0-2.288,1.4A21.8,21.8,0,0,1,2.7-3.692c-.26.208-.26.52-.52.676-.416.312-.728.572-.728,1.092,0,.26.052.468.052.676,0,.312-.052.572-.052.832a1.869,1.869,0,0,0,.1.572c.364.936,2.964,1.716,3.848,1.716.468,0,.832-.26,1.248-.26H7.02c.624,0,1.04-.468,1.612-.52.156-.052,2.7-1.04,2.86-1.144a11.446,11.446,0,0,1,1.352-.78,5.671,5.671,0,0,0,1.612-.728C14.664-1.664,14.872-1.82,14.872-2.028ZM20.644-3.9c0,.52-1.04.832-1.352,1.4-.468.78-2.028,2.08-2.964,2.08a.816.816,0,0,1-.884-.728,1.111,1.111,0,0,1,.624-.884c1.04-.572,2.912-2.5,4.056-2.5A.582.582,0,0,1,20.644-3.9Zm8.164,1.716c0-.208-.312-.312-.52-.312A7.723,7.723,0,0,0,26-1.612a20.3,20.3,0,0,1-3.64,1.04c-.52,0-.832-.676-.832-1.144,0-.728.936-1.716.936-2.756,0-.676-.26-1.716-1.092-1.716-.468,0-.936.208-1.456.208h-.208c-1.3,0-2.34.936-3.328,1.456-1.2.676-3.276,2.132-3.276,3.64C13.1.26,13.572.468,14.56.728a6.635,6.635,0,0,0,1.768.312c1.352,0,1.976-.988,2.7-.988.832,0,.78,1.248,1.976,1.248A7.874,7.874,0,0,0,22.932.936,7.618,7.618,0,0,1,24.388.208,30.348,30.348,0,0,0,28.34-1.56C28.5-1.664,28.808-1.924,28.808-2.184Zm31.72,0c0-.208-.26-.364-.468-.364a3.134,3.134,0,0,0-1.144.468c-.468.208-.884.364-1.352.624-.676.416-1.508.468-2.236.884a3.488,3.488,0,0,1-2.028.52c-.676,0-1.352-.052-1.352-.572,0-1.976,1.612-2.7,1.612-3.536a1.8,1.8,0,0,0-1.768-1.612c-1.04,0-1.508,1.092-2.34,1.2-1.3.208-3.484,1.924-4.42,1.924-.156,0-.208-.052-.208-.208,0-.468.468-.988.468-1.352,0-.728-1.56-1.4-2.184-1.4-.78,0-1.352.78-2.5.78-1.2.052-2.028,1.144-3.016,1.664a5.244,5.244,0,0,0-.936.468c-.364,0-.676.156-.988.156S35.2-2.7,35.2-2.964c0-.52.312-.988.312-1.456,0-.728-1.04-.884-1.56-1.04-.52-.1-.26-.364-.78-.364-1.508,0-3.536,1.872-4.732,2.7a10.635,10.635,0,0,1-1.612,1.04.8.8,0,0,0-.468.676c0,.26.26.364.52.364.832,0,1.716-.988,2.652-1.2,1.04-.208,1.2-1.352,2.756-1.352.364,0,.624.1.624.52A4.613,4.613,0,0,1,31.876-.52a.881.881,0,0,0-.468.728c0,.364,1.092.988,1.456.988.624,0,1.352-1.092,1.82-1.456a8.711,8.711,0,0,1,2.6-1.3,3.849,3.849,0,0,0,2.08-.832,2.475,2.475,0,0,1,1.3-.468c.572,0,.988.26.988.832C41.652-.936,40.3-.676,40.3.26c0,.572,1.4,1.2,1.4,1.2A1.014,1.014,0,0,0,42.12,1.4c.728-.1.884-1.3,1.56-1.716a18.462,18.462,0,0,1,2.236-1.2c.572-.26,1.2-.832,1.82-.832,1.092,0,1.248-.572,1.924-.572.208,0,.572.052.572.312a6.273,6.273,0,0,0-.416,1.508,2.225,2.225,0,0,0,2.132,2.34c.312,0,.572-.1.884-.1.208,0,.416.052.624.052,1.872,0,3.692-1.4,5.356-2.08C59.176-1.04,60.528-1.612,60.528-2.184ZM75.4-12.48c0-.312-.312-.468-.624-.468a1.1,1.1,0,0,0-.676.26,5.8,5.8,0,0,1-1.976.936,5.712,5.712,0,0,0-1.872,1.508A5.052,5.052,0,0,1,68.12-8.788c-.884.364-1.508,1.4-2.132,1.612-.624.156-.364.572-1.04.884-.78.312-1.144,1.144-1.872,1.508-.468.26-.832.572-1.3.832A3.876,3.876,0,0,0,60.112-2.86a10.724,10.724,0,0,1-1.924,1.2.639.639,0,0,0-.364.572.425.425,0,0,0,.468.416c.468,0,1.144-.624,1.664-.78.416-.1,1.04-.728,1.3-.728a2.932,2.932,0,0,0,1.612-.884c.416-.468.936-.572,1.4-.988.156-.156.416-.416.624-.416a.138.138,0,0,1,.156.156,3.08,3.08,0,0,1-1.04,1.56c-.468.312-.676.936-1.092,1.352a11.007,11.007,0,0,0-2.548,2.6C59.7,2.34,58.5,2.964,57.668,4c-.572.78-1.508,1.2-2.08,1.924-.26.416-1.04,1.768-1.56,1.768-.26,0-1.612,1.456-2.132,1.768-.676.364-1.612,1.3-1.612,2.08,0,.52.208.624.728.624A2.921,2.921,0,0,0,53.3,11.18a2,2,0,0,1,1.2-1.3c.52-.208,1.56-1.716,2.08-2.184.728-.624,1.144-2.028,1.82-2.444A4.033,4.033,0,0,0,59.9,3.536c.312-.572,1.04-.728,1.3-1.248A4.053,4.053,0,0,1,62.66.78c.624-.416.988-1.2,1.56-1.716.728-.624,1.4-1.976,2.132-2.392.832-.468,1.352-1.3,2.132-1.716A7.781,7.781,0,0,0,70.3-6.916a6.31,6.31,0,0,1,2.028-1.456c.988-.52,1.508-2.236,2.132-2.6A2.124,2.124,0,0,0,75.4-12.48Zm5.3,10.4c0-.26-.364-.416-.572-.416C79.664-2.5,76.44-.52,75.92-.52c-.728,0-1.352.572-1.872.572-1.3,0-1.56-.156-1.56-1.456,0-.624.416-1.144.416-1.716a1.416,1.416,0,0,0-.364-1.04C72.124-4.628,72.28-5.3,71.4-5.3c-.832,0-1.352,1.248-1.924,1.4-.624.208-1.092,1.2-1.716,1.456-.624.312-.884,1.092-1.456,1.4-.364.208-1.092.676-1.092,1.144a.336.336,0,0,0,.312.312c.884,0,2.028-1.664,2.6-1.664s1.092-1.4,1.456-1.4c.156,0,.676.468.676.624,0,.312-.156.572-.156.884a6.934,6.934,0,0,0,1.612,2.236,4.22,4.22,0,0,0,1.82.364c.676,0,1.352-.52,2.08-.52s1.56-1.04,2.34-1.248a9.724,9.724,0,0,0,2.08-1.04C80.288-1.508,80.7-1.716,80.7-2.08ZM86.528-3.9c0,.52-1.04.832-1.352,1.4-.468.78-2.028,2.08-2.964,2.08a.816.816,0,0,1-.884-.728,1.111,1.111,0,0,1,.624-.884c1.04-.572,2.912-2.5,4.056-2.5A.582.582,0,0,1,86.528-3.9Zm8.164,1.716c0-.208-.312-.312-.52-.312a7.723,7.723,0,0,0-2.288.884,20.3,20.3,0,0,1-3.64,1.04c-.52,0-.832-.676-.832-1.144,0-.728.936-1.716.936-2.756,0-.676-.26-1.716-1.092-1.716-.468,0-.936.208-1.456.208h-.208c-1.3,0-2.34.936-3.328,1.456-1.2.676-3.276,2.132-3.276,3.64,0,1.144.468,1.352,1.456,1.612a6.635,6.635,0,0,0,1.768.312c1.352,0,1.976-.988,2.7-.988.832,0,.78,1.248,1.976,1.248A7.874,7.874,0,0,0,88.816.936,7.618,7.618,0,0,1,90.272.208,30.348,30.348,0,0,0,94.224-1.56C94.38-1.664,94.692-1.924,94.692-2.184Zm21.008.1c0-.312-.364-.416-.572-.416-.624,0-2.7,1.2-3.64,1.508a8.079,8.079,0,0,1-2.652.936c-1.4,0-1.716-.416-2.08-1.768a3.069,3.069,0,0,1-.1-.728c0-1.508,1.716-1.2,1.716-2.236,0-.572-.676-1.612-1.3-1.612-1.092,0-2.548,1.508-3.172,2.288a18.848,18.848,0,0,1-3.9,2.6c-.208,0-.26-.1-.26-.312,0-.78.78-1.352.78-1.872,0-.624-1.3-1.612-1.924-1.612a1.753,1.753,0,0,0-.884.26c-.988.572-1.872,1.248-2.86,1.768-.832.416-1.664.728-2.444,1.144-.26.1-1.4.676-1.4,1.04,0,.208.572.26.728.26a2.543,2.543,0,0,0,1.2-.416c.936-.572,2.028-.572,3.068-1.04a1.1,1.1,0,0,1,.364-.156c.26,0,.936.78.936.988C97.292-.832,96.2-.364,96.2.312c0,.624.676.936,1.248.936,2.6,0,2.86-1.56,4.628-2.288.624-.26,2.028-1.352,2.5-1.352s.26,1.612.572,2.08a3.416,3.416,0,0,0,2.7,1.872,5.543,5.543,0,0,0,1.56-.312c.624-.208,1.04-.78,1.664-.832.832-.052,1.04-.364,1.664-.728a12.564,12.564,0,0,1,2.08-.988C115.128-1.456,115.7-1.716,115.7-2.08ZM117,10.764c0,.364-.416.676-.676.832a14.714,14.714,0,0,0-1.924,2.08c-.676.78-3.9,3.276-4.212,3.848-.208.468-1.456.78-1.924,1.2a10.367,10.367,0,0,0-1.768,1.924c-.416.468-1.612.676-2.028,1.144-.312.416-.78.624-1.092.988a.722.722,0,0,1-.52.26c-.208,0-.364-.1-.364-.312v-.1a1.3,1.3,0,0,1,.624-1.04c.624-.52.78-1.82,1.664-2.236a2.665,2.665,0,0,0,1.508-1.4c.416-.884,1.4-1.508,1.976-2.288.416-.624,1.924-1.352,2.548-1.976a11.932,11.932,0,0,1,1.4-1.4c.78-.52,1.82-.624,2.548-1.2a3.08,3.08,0,0,1,1.716-.572C116.688,10.5,117,10.5,117,10.764ZM134.056-6.084a.605.605,0,0,0-.676-.572,1.8,1.8,0,0,0-.936.26,4.548,4.548,0,0,1-1.976.572c-.676,0-1.092.624-1.508.988-.832.728-1.924.728-2.7,1.3a5.073,5.073,0,0,1-3.068,1.508c-.468,0-.936-.156-.936-.728a1.086,1.086,0,0,1,.416-.832c.364-.312.208-.78.728-1.3.1-.1.208-.208.208-.312,0-.364-1.2-1.352-1.56-1.352a.964.964,0,0,0-.624.364c-.676.624-1.664.624-2.392,1.2a6.888,6.888,0,0,1-1.82,1.2,7.846,7.846,0,0,0-1.456.78c-.364.208-1.82.728-1.82,1.144,0,.26.416.416.624.416A22,22,0,0,0,117.572-2.6c.78-.312,1.092-.884,2.132-.884a.368.368,0,0,1,.416.364c0,.416-.572,1.2-.572,2.08,0,.832.572,1.092,1.3,1.092,1.248,0,4.316-1.4,5.46-2.028.624-.312,1.456-1.2,2.08-1.3.468-.052,1.04-.468,1.456-.468.208,0,.416,0,.416.312a3.528,3.528,0,0,1-1.612,2.392c-.884.52-1.248,2.028-1.872,2.444s-1.2,1.3-1.716,1.56a6.62,6.62,0,0,0-2.08,2.08c-.52.832-2.028,1.508-2.756,2.444A4.238,4.238,0,0,1,117.1,9.2c-.26,0-.572-.156-.832-.156-.52,0-1.2.676-1.768.78-.832.156-1.3.884-2.08.988s-1.092.936-1.768,1.144-1.3,1.248-1.924,1.664c-.728.468-1.04,1.456-1.82,1.872-.832.52-1.144,1.872-2.184,2.34s-1.716,2.392-2.7,3.172c-1.092.884-.936,1.612-1.456,2.808a1.694,1.694,0,0,0-.208.676c0,.728,1.144.832,1.664.832.728,0,1.4-1.092,2.08-1.4.884-.364,3.172-1.56,3.64-2.288.728-.988,1.976-1.508,2.652-2.444.364-.572,1.3-.884,1.82-1.4.728-.676,1.4-.728,2.08-1.664a8.7,8.7,0,0,1,2.288-2.288c.832-.676,1.924-2.236,2.548-2.652a.878.878,0,0,1,.52-.156,1.2,1.2,0,0,1,1.248,1.092,4.845,4.845,0,0,1-.832,2.652c-.78,1.092-1.872.52-1.872,1.4a.383.383,0,0,0,.416.416,15.925,15.925,0,0,0,1.976-.728c.624-.156.78-.936,1.092-1.456a4.324,4.324,0,0,0,.936-2.184c0-.468-.832-1.352-1.092-2.028-.156-.312-.676-.728-.676-.884,0-.416,1.56-1.872,1.872-2.184a15.724,15.724,0,0,1,1.612-1.612c.676-.416.728-1.144,1.508-1.56.52-.26,1.508-1.716,2.236-2.288,1.092-.936,2.132-2.86,3.016-3.484.572-.416.728-1.56,1.3-1.872.52-.312.468-.78.884-1.2C133.536-5.2,134.056-5.616,134.056-6.084Z" transform="translate(-1.456 12.948)" fill="#fff"/>
</svg>
