<svg xmlns="http://www.w3.org/2000/svg" width="142.168" height="21.944" viewBox="0 0 142.168 21.944">
  <path id="パス_47138" data-name="パス 47138" d="M8.684-4.524a2.569,2.569,0,0,1-.624,1.56c-.364.364,0,.572-.624.78-.468.208-.884.988-1.2.988S5.408-.26,4.108-.26c-.364,0-.832-.052-.832-.52,0-1.092,1.352-1.352,1.664-2.236.26-.676.312-.52.884-.78.52-.26,1.248-.884,1.82-.884a2.526,2.526,0,0,0,.728-.208C8.528-4.784,8.684-4.888,8.684-4.524Zm16.64-14.352c0-.676-1.092-.988-1.612-.988-1.4,0-2.184,1.872-3.588,2.132-.884.208-1.4,1.768-2.34,2.184-.988.416-1.248,1.82-2.288,2.236-.052.052-1.4,1.768-1.508,1.976a17.015,17.015,0,0,1-1.82,2.5,10.885,10.885,0,0,0-1.144,1.456c-.208.416-1.04,1.664-1.56,1.664-.416,0-.208-.78-1.04-.78-.26,0-.572.312-.832.312-.676,0-1.092.52-1.716.676-.884.208-1.508,1.2-2.236,1.664-.676.416-1.144,1.04-1.768,1.456-.312.26-.208.676-.416,1.04a1.4,1.4,0,0,0-.26.78A2.007,2.007,0,0,0,3.38,1.456c.936,0,1.508-.572,2.028-.572,1.04,0,2.184-1.2,2.652-1.2.78,0,.728-.78,1.2-.78.312,0,.468.624.52.832.1.728.624.624.832,1.248.156.468.988.52,1.4.52a3.779,3.779,0,0,0,1.3-.208c.728-.26,1.4-.572,2.08-.884.624-.208,1.144-.624,1.768-.78.52-.156,2.808-1.248,2.808-1.716,0-.208,0-.468-.208-.468A19.458,19.458,0,0,0,16.432-1.2a7.406,7.406,0,0,1-1.3.624,1.769,1.769,0,0,1-.52.052c-.572.1-.78.572-1.3.572a1.08,1.08,0,0,1-.624-.26c-1.092-.572-.832-.728-.936-1.768a5.73,5.73,0,0,1-.1-.936,1.928,1.928,0,0,1,.208-.728c.26-.52-.1-.624.416-1.248.52-.52.624-1.612,1.4-1.872.936-.312,1.248-2.028,1.768-2.08.52-.1,1.144-1.612,1.872-1.716.676-.052.624-1.56,1.248-1.612,1.248-.156,1.976-2.5,2.808-2.7.572-.156.624-1.2.988-1.664.156-.208,1.144-.78,1.56-1.2C24.232-18.1,25.324-18.46,25.324-18.876ZM24.8-2.288c0,.208-.468.416-.624.468-.936.416-1.248,1.768-2.652,1.768-.364,0-1.144-.208-1.144-.676,0-.312.416-.676.52-1.04a1.865,1.865,0,0,1,.884-1.352c.624-.26.832-1.2,1.976-1.2,0,0,.156.052.156.1,0,.156-.052.208-.052.312v.208a2.085,2.085,0,0,0,.416.884C24.44-2.652,24.8-2.548,24.8-2.288ZM26.26-4a.246.246,0,0,1-.26.26c-.156,0-.468-.156-.468-.364,0-.156.26-.208.364-.208A.348.348,0,0,1,26.26-4Zm7.7,1.248c0-.1-.052-.26-.208-.26-.78,0-1.82,1.2-3.276,1.2-.884,0-2.652-.572-2.652-1.664,0-.364.26-.572.26-.728a1.791,1.791,0,0,0-1.144-1.144c-.676,0-.884-.832-1.56-.832a12.446,12.446,0,0,0-2.392.624c-1.3.156-3.536,2.444-4.316,3.38-.364.416-.312,1.144-.572,1.612A.839.839,0,0,0,17.94-.1c0,.78,1.352,1.664,2.08,1.664.468,0,.884-.208,1.352-.208C22.724,1.352,23.3.312,24.44-.1a1.823,1.823,0,0,0,1.248-.988,1.531,1.531,0,0,1,.832-.52,5.07,5.07,0,0,1,1.144.416,8.552,8.552,0,0,0,2.548.52C31.148-.676,33.956-1.612,33.956-2.756Zm24.908.624c0-.208-.26-.312-.416-.312-.624,0-1.508.832-2.548.832-.936,0-2.34-.312-2.548-1.352-.156-1.092,0-.78-.832-1.56a.642.642,0,0,0-.416-.208c-.728,0-1.352,1.352-1.976,1.664-.676.312-.728,1.144-1.612,1.664-.468.26-.832,1.3-1.352,1.3-.468,0-.728-.676-.728-1.04a.66.66,0,0,1,.052-.312c.468-.78.26-1.4.52-1.82a.752.752,0,0,0,.1-.364c0-.364-.78-1.4-1.144-1.4-.468,0-.832.728-1.092,1.04-.624.78-2.184,1.4-2.964,2.132a6.59,6.59,0,0,1-2.184,1.3C39-.312,38.48.572,37.544.572c-.208,0-.468-.1-.468-.364a1.351,1.351,0,0,1,.468-.832c.364-.416.26-.884.832-1.3a8.384,8.384,0,0,0,1.2-1.716c.312-.416.416-.988.78-1.352.416-.364.624-.884,1.092-1.248.416-.312.468-.936.884-1.3.208-.208.676-.624.676-.936l-.052-.156a1.963,1.963,0,0,0-1.2-.416.629.629,0,0,0-.52.156c-.572.416-.988.364-1.456.988a3.086,3.086,0,0,1-1.352,1.092c-.676.312-1.04,1.092-1.716,1.4-.728.312-1.248,1.04-1.976,1.352-.624.26-.936.988-1.56,1.248-.676.26-1.3.624-1.924.936-.208.1-.52.26-.52.468,0,.312.468.468.728.468.624,0,2.86-1.56,3.536-1.924s.832-.936,1.716-1.248a14,14,0,0,0,1.4-1.04.27.27,0,0,1,.208-.1.191.191,0,0,1,.052.156,1.228,1.228,0,0,1-.312.468l-.832.936c-.728.832-1.4,2.5-2.184,3.38a1.478,1.478,0,0,0-.468.988c0,.78.988,1.4,1.716,1.4a14.108,14.108,0,0,0,2.132-.468c1.4-.208,3.588-2.392,4.94-2.392.624,0,.52.936.624,1.352.156.988,1.144.676,1.82.936a.771.771,0,0,0,.364.052c2.08,0,3.12-3.536,4.836-3.536.156,0,.312.052.416.052.416,0,.676-.26.988-.26.572,0,.676.988,1.248,1.248a4.063,4.063,0,0,0,1.924.312h.624C56.732-.624,58.864-1.56,58.864-2.132Zm21.268.052c0-.312-.364-.416-.572-.416-.624,0-2.7,1.2-3.64,1.508a8.079,8.079,0,0,1-2.652.936c-1.4,0-1.716-.416-2.08-1.768a3.069,3.069,0,0,1-.1-.728c0-1.508,1.716-1.2,1.716-2.236,0-.572-.676-1.612-1.3-1.612-1.092,0-2.548,1.508-3.172,2.288a18.848,18.848,0,0,1-3.9,2.6c-.208,0-.26-.1-.26-.312,0-.78.78-1.352.78-1.872,0-.624-1.3-1.612-1.924-1.612a1.753,1.753,0,0,0-.884.26c-.988.572-1.872,1.248-2.86,1.768-.832.416-1.664.728-2.444,1.144-.26.1-1.4.676-1.4,1.04,0,.208.572.26.728.26a2.543,2.543,0,0,0,1.2-.416c.936-.572,2.028-.572,3.068-1.04a1.1,1.1,0,0,1,.364-.156c.26,0,.936.78.936.988,0,.624-1.092,1.092-1.092,1.768,0,.624.676.936,1.248.936,2.6,0,2.86-1.56,4.628-2.288.624-.26,2.028-1.352,2.5-1.352s.26,1.612.572,2.08a3.416,3.416,0,0,0,2.7,1.872,5.543,5.543,0,0,0,1.56-.312c.624-.208,1.04-.78,1.664-.832.832-.052,1.04-.364,1.664-.728a12.564,12.564,0,0,1,2.08-.988C79.56-1.456,80.132-1.716,80.132-2.08ZM95.16-15.7c-.052.936-2.236,3.38-2.964,3.744a5.227,5.227,0,0,0-1.768,1.768c-.364.468-1.3.468-1.716.936-.364.468-.624,1.04-1.144,1.3a3.939,3.939,0,0,0-.676.52c-.468.364-.624.416-.676.416s-.052-.052-.052-.156a.98.98,0,0,1,.208-.468,10.354,10.354,0,0,1,2.184-2.288c.676-.624.988-1.768,1.716-2.288,1.092-.728,3.588-3.64,4.68-3.692a.257.257,0,0,1,.156.052S95.16-15.86,95.16-15.7Zm3.12-1.976c0-.884-.416-1.092-1.248-1.092-2.808,0-2.444,1.664-4.16,2.184-1.2.312-1.976,1.352-2.912,2.132a9.3,9.3,0,0,0-2.444,2.5c-.52.832-1.352,1.4-1.82,2.236-.572.988-1.56,1.82-2.028,2.86a5.351,5.351,0,0,1-1.924,2.236c-.624.26-.936,1.144-1.664,1.456-.832.312-1.4.936-2.184,1.3-.26.156-1.2.52-1.2.884,0,.156.26.312.416.312a3.83,3.83,0,0,0,.728-.208c1.2-.208,3.068-1.872,3.952-1.872a.605.605,0,0,1,.572.676c0,1.768,1.04,3.432,3.016,3.432a.773.773,0,0,0,.468-.1c.624-.364,1.456,0,2.652-.676.832-.52,1.924-.676,2.6-1.144.572-.364,2.548-.78,2.548-1.508,0-.26-.052-.416-.364-.416a2.738,2.738,0,0,0-1.248.416c-.572.416-1.352.52-1.976.884a16.176,16.176,0,0,1-2.808.936,3.954,3.954,0,0,1-1.3.312,1.056,1.056,0,0,1-1.2-1.04c0-.208.052-.364.052-.52,0-.78-.364-1.508-.364-2.236,0-.884.936-1.3,1.612-1.612.728-.416,1.092-1.2,1.924-1.56.728-.364,1.092-1.092,1.716-1.4A7.332,7.332,0,0,0,92.248-10.5c.676-.936,1.04-.728,1.612-1.4.78-.78,2.288-1.456,2.756-2.392C97.4-15.912,98.28-15.392,98.28-17.68Zm.156,15.392c0,.208-.468.416-.624.468C96.876-1.4,96.564-.052,95.16-.052c-.364,0-1.144-.208-1.144-.676,0-.312.416-.676.52-1.04A1.865,1.865,0,0,1,95.42-3.12c.624-.26.832-1.2,1.976-1.2,0,0,.156.052.156.1,0,.156-.052.208-.052.312v.208a2.085,2.085,0,0,0,.416.884C98.072-2.652,98.436-2.548,98.436-2.288ZM99.892-4a.246.246,0,0,1-.26.26c-.156,0-.468-.156-.468-.364,0-.156.26-.208.364-.208A.348.348,0,0,1,99.892-4Zm7.7,1.248c0-.1-.052-.26-.208-.26-.78,0-1.82,1.2-3.276,1.2-.884,0-2.652-.572-2.652-1.664,0-.364.26-.572.26-.728a1.791,1.791,0,0,0-1.144-1.144c-.676,0-.884-.832-1.56-.832a12.446,12.446,0,0,0-2.392.624c-1.3.156-3.536,2.444-4.316,3.38-.364.416-.312,1.144-.572,1.612a.839.839,0,0,0-.156.468c0,.78,1.352,1.664,2.08,1.664.468,0,.884-.208,1.352-.208,1.352,0,1.924-1.04,3.068-1.456a1.823,1.823,0,0,0,1.248-.988,1.531,1.531,0,0,1,.832-.52A5.07,5.07,0,0,1,101.3-1.2a8.552,8.552,0,0,0,2.548.52C104.78-.676,107.588-1.612,107.588-2.756ZM112.84-3.9c0,.52-1.04.832-1.352,1.4-.468.78-2.028,2.08-2.964,2.08a.816.816,0,0,1-.884-.728,1.111,1.111,0,0,1,.624-.884c1.04-.572,2.912-2.5,4.056-2.5A.582.582,0,0,1,112.84-3.9ZM121-2.184c0-.208-.312-.312-.52-.312a7.723,7.723,0,0,0-2.288.884,20.3,20.3,0,0,1-3.64,1.04c-.52,0-.832-.676-.832-1.144,0-.728.936-1.716.936-2.756,0-.676-.26-1.716-1.092-1.716-.468,0-.936.208-1.456.208H111.9c-1.3,0-2.34.936-3.328,1.456-1.2.676-3.276,2.132-3.276,3.64,0,1.144.468,1.352,1.456,1.612a6.635,6.635,0,0,0,1.768.312c1.352,0,1.976-.988,2.7-.988.832,0,.78,1.248,1.976,1.248a7.874,7.874,0,0,0,1.924-.364,7.618,7.618,0,0,1,1.456-.728,30.348,30.348,0,0,0,3.952-1.768C120.692-1.664,121-1.924,121-2.184Zm5.72-2.34a2.569,2.569,0,0,1-.624,1.56c-.364.364,0,.572-.624.78-.468.208-.884.988-1.2.988s-.832.936-2.132.936c-.364,0-.832-.052-.832-.52,0-1.092,1.352-1.352,1.664-2.236.26-.676.312-.52.884-.78.52-.26,1.248-.884,1.82-.884a2.526,2.526,0,0,0,.728-.208C126.568-4.784,126.724-4.888,126.724-4.524Zm16.64-14.352c0-.676-1.092-.988-1.612-.988-1.4,0-2.184,1.872-3.588,2.132-.884.208-1.4,1.768-2.34,2.184-.988.416-1.248,1.82-2.288,2.236-.052.052-1.4,1.768-1.508,1.976a17.016,17.016,0,0,1-1.82,2.5,10.885,10.885,0,0,0-1.144,1.456c-.208.416-1.04,1.664-1.56,1.664-.416,0-.208-.78-1.04-.78-.26,0-.572.312-.832.312-.676,0-1.092.52-1.716.676-.884.208-1.508,1.2-2.236,1.664-.676.416-1.144,1.04-1.768,1.456-.312.26-.208.676-.416,1.04a1.4,1.4,0,0,0-.26.78,2.007,2.007,0,0,0,2.184,2.028c.936,0,1.508-.572,2.028-.572,1.04,0,2.184-1.2,2.652-1.2.78,0,.728-.78,1.2-.78.312,0,.468.624.52.832.1.728.624.624.832,1.248.156.468.988.52,1.4.52a3.779,3.779,0,0,0,1.3-.208c.728-.26,1.4-.572,2.08-.884.624-.208,1.144-.624,1.768-.78.52-.156,2.808-1.248,2.808-1.716,0-.208,0-.468-.208-.468A19.459,19.459,0,0,0,134.472-1.2a7.406,7.406,0,0,1-1.3.624,1.769,1.769,0,0,1-.52.052c-.572.1-.78.572-1.3.572a1.08,1.08,0,0,1-.624-.26c-1.092-.572-.832-.728-.936-1.768a5.73,5.73,0,0,1-.1-.936,1.928,1.928,0,0,1,.208-.728c.26-.52-.1-.624.416-1.248.52-.52.624-1.612,1.4-1.872.936-.312,1.248-2.028,1.768-2.08.52-.1,1.144-1.612,1.872-1.716.676-.052.624-1.56,1.248-1.612,1.248-.156,1.976-2.5,2.808-2.7.572-.156.624-1.2.988-1.664.156-.208,1.144-.78,1.56-1.2C142.272-18.1,143.364-18.46,143.364-18.876Z" transform="translate(-1.196 19.864)" fill="#fff"/>
</svg>
