<svg width="146" height="152" viewBox="0 0 146 152" fill="none" xmlns="http://www.w3.org/2000/svg">
<g clip-path="url(#clip0_1_809)">
<path d="M109.486 107.611V138.315H12.8652V0.280029H109.486V43.7062" stroke="black" stroke-width="2" stroke-linecap="round" stroke-linejoin="round"/>
<path d="M96.9052 138.315V151.72H0.28418V13.6875H12.8652" stroke="black" stroke-width="2" stroke-linecap="round" stroke-linejoin="round"/>
<path d="M26.4502 64.8005H77.586" stroke="black" stroke-width="2" stroke-linecap="round" stroke-linejoin="round"/>
<path d="M26.4502 91.6128H77.586" stroke="black" stroke-width="2" stroke-linecap="round" stroke-linejoin="round"/>
<path d="M26.4502 112.466H49.6001" stroke="black" stroke-width="2" stroke-linecap="round" stroke-linejoin="round"/>
<path d="M145.717 43.6389L104.747 95.631L104.608 95.6927L90.6846 84.1725L90.7016 84.1024L131.725 32.0571L145.717 43.6389Z" stroke="black" stroke-width="2" stroke-linecap="round" stroke-linejoin="round"/>
<path d="M104.608 95.6926L85.834 104.054L90.6842 84.1724L104.608 95.6926Z" stroke="black" stroke-width="2" stroke-linecap="round" stroke-linejoin="round"/>
<path d="M134.072 58.4131L119.913 47.0525" stroke="black" stroke-width="2" stroke-linecap="round" stroke-linejoin="round"/>
<path d="M32.1543 49.1138V25.8328H27.4113V24.0038H39.1293V25.8328H34.5103V49.1138H32.1543ZM41.8903 49.1138V24.0038H47.5633C49.1339 24.0038 50.3636 24.2621 51.2523 24.7788C52.1616 25.2748 52.8126 26.0084 53.2053 26.9798C53.5979 27.9304 53.7943 29.0671 53.7943 30.3898C53.7943 31.3198 53.6909 32.1981 53.4843 33.0248C53.2776 33.8514 52.9263 34.5541 52.4303 35.1328C51.9343 35.7114 51.2316 36.0938 50.3223 36.2798L54.1663 49.1138H51.8723L48.1833 36.7758H44.2463V49.1138H41.8903ZM44.2463 35.0398H47.4393C48.4933 35.0398 49.3096 34.8641 49.8883 34.5128C50.4669 34.1614 50.8803 33.6448 51.1283 32.9628C51.3763 32.2808 51.5003 31.4231 51.5003 30.3898C51.5003 28.8398 51.2316 27.6824 50.6943 26.9178C50.1569 26.1531 49.0926 25.7708 47.5013 25.7708H44.2463V35.0398ZM57.8155 49.1138V24.0038H60.1715V49.1138H57.8155ZM63.2616 49.1138L68.5626 24.0038H71.0426L76.3746 49.1138H74.0496L72.8096 42.3868H66.8266L65.5556 49.1138H63.2616ZM67.1676 40.6818H72.4996L69.8336 27.1348L67.1676 40.6818ZM79.399 49.1138V24.0038H81.755V47.3468H88.885V49.1138H79.399Z" fill="black"/>
</g>
<defs>
<clipPath id="clip0_1_809">
<rect width="146" height="152" fill="white"/>
</clipPath>
</defs>
</svg>
