<svg xmlns="http://www.w3.org/2000/svg" width="20" height="20" viewBox="0 0 20 20">
  <path id="パス_46661" data-name="パス 46661" d="M5.859.07A7.313,7.313,0,0,0,3.433.539,4.892,4.892,0,0,0,1.664,1.7,4.9,4.9,0,0,0,.513,3.469,7.346,7.346,0,0,0,.053,5.9C.007,6.964,0,7.3,0,10.02s.017,3.056.068,4.123a7.331,7.331,0,0,0,.469,2.425A4.9,4.9,0,0,0,1.7,18.337a4.9,4.9,0,0,0,1.774,1.15,7.339,7.339,0,0,0,2.428.46C6.963,19.994,7.3,20,10.019,20s3.057-.017,4.123-.068a7.35,7.35,0,0,0,2.426-.469,5.11,5.11,0,0,0,2.919-2.93,7.322,7.322,0,0,0,.46-2.427C19.993,13.037,20,12.7,20,9.981s-.017-3.056-.068-4.122a7.334,7.334,0,0,0-.469-2.426,4.906,4.906,0,0,0-1.156-1.769A4.894,4.894,0,0,0,16.531.514,7.316,7.316,0,0,0,14.1.054C13.037.007,12.7,0,9.981,0S6.925.019,5.859.07m.117,18.078a5.545,5.545,0,0,1-1.857-.34,3.116,3.116,0,0,1-1.152-.746,3.107,3.107,0,0,1-.75-1.148,5.539,5.539,0,0,1-.348-1.857c-.05-1.054-.061-1.37-.066-4.04s0-2.986.051-4.041a5.537,5.537,0,0,1,.34-1.857A3.1,3.1,0,0,1,2.94,2.967a3.1,3.1,0,0,1,1.149-.75,5.534,5.534,0,0,1,1.856-.348C7,1.819,7.315,1.809,9.984,1.8s2.986,0,4.041.051a5.524,5.524,0,0,1,1.856.34,3.1,3.1,0,0,1,1.152.746,3.1,3.1,0,0,1,.75,1.149,5.52,5.52,0,0,1,.347,1.855c.05,1.055.062,1.371.066,4.04s0,2.986-.051,4.041a5.545,5.545,0,0,1-.34,1.858,3.312,3.312,0,0,1-1.895,1.9,5.538,5.538,0,0,1-1.855.348c-1.055.05-1.371.061-4.041.066s-2.985,0-4.04-.051M14.127,4.655a1.2,1.2,0,1,0,1.2-1.2,1.2,1.2,0,0,0-1.2,1.2M4.865,10.01A5.135,5.135,0,1,0,9.99,4.866,5.134,5.134,0,0,0,4.865,10.01m1.8,0a3.333,3.333,0,1,1,3.339,3.327,3.333,3.333,0,0,1-3.339-3.327" transform="translate(0 0)" fill="#0070c5"/>
</svg>
