<svg width="776" height="372" viewBox="0 0 776 372" fill="none" xmlns="http://www.w3.org/2000/svg">
<path d="M192.593 280.01C191.885 280.01 191.291 279.791 190.822 279.343C190.348 278.885 189.989 278.323 189.739 277.656C189.499 276.989 189.385 276.271 189.385 275.489C189.385 274.713 189.499 274 189.739 273.343C189.989 272.677 190.348 272.125 190.822 271.677C191.291 271.218 191.885 270.989 192.593 270.989H223.989C224.697 270.989 225.291 271.218 225.781 271.677C226.265 272.125 226.624 272.677 226.864 273.343C227.114 274 227.239 274.713 227.239 275.489C227.239 276.271 227.114 276.989 226.864 277.656C226.624 278.323 226.27 278.885 225.801 279.343C225.327 279.791 224.723 280.01 223.989 280.01H192.593Z" fill="white"/>
<path d="M336.103 280.01C335.395 280.01 334.801 279.791 334.332 279.343C333.858 278.885 333.499 278.323 333.249 277.656C333.009 276.989 332.895 276.271 332.895 275.489C332.895 274.713 333.009 274 333.249 273.343C333.499 272.677 333.858 272.125 334.332 271.677C334.801 271.218 335.395 270.989 336.103 270.989H367.499C368.207 270.989 368.801 271.218 369.29 271.677C369.775 272.125 370.134 272.677 370.374 273.343C370.624 274 370.749 274.713 370.749 275.489C370.749 276.271 370.624 276.989 370.374 277.656C370.134 278.323 369.78 278.885 369.311 279.343C368.837 279.791 368.233 280.01 367.499 280.01H336.103Z" fill="white"/>
<path d="M42.2708 262.239C41.9792 263.354 41.5312 264.531 40.9375 265.781C40.3385 267.021 39.6042 268.25 38.7292 269.468C37.8542 270.677 36.8333 271.833 35.6667 272.927C34.5 274.026 33.1927 275 31.75 275.843C30.776 276.385 29.8542 276.5 28.9792 276.177C28.1042 275.859 27.4375 275.338 26.9792 274.614C26.5312 273.88 26.3594 273.067 26.4583 272.177C26.5521 271.291 27.1042 270.567 28.1042 270.01C30.0052 268.984 31.5312 267.812 32.6875 266.489C33.8385 265.156 34.6354 263.776 35.0833 262.343C35.2188 261.984 35.0938 261.802 34.7083 261.802H2.875C1.90104 261.802 1.17708 261.489 0.708333 260.864C0.234375 260.239 0 259.552 0 258.802C0 258.026 0.234375 257.323 0.708333 256.698C1.17708 256.062 1.90104 255.739 2.875 255.739H36.8333C39 255.739 40.5729 256.354 41.5625 257.573C42.5469 258.781 42.7812 260.338 42.2708 262.239ZM23.5 265.781C23.5 267.797 23.4635 269.812 23.3958 271.823C23.3229 273.823 23.1354 275.771 22.8333 277.656C22.526 279.547 22.0521 281.364 21.4167 283.114C20.7917 284.864 19.9219 286.489 18.8125 287.989C17.6979 289.489 16.2969 290.854 14.6042 292.073C12.9219 293.281 10.8542 294.286 8.39583 295.093C7.46354 295.411 6.57292 295.427 5.72917 295.135C4.89583 294.843 4.16667 294.369 3.54167 293.718C2.92708 293.078 2.46354 292.333 2.14583 291.468C1.82292 290.593 1.69271 289.734 1.75 288.885C1.81771 288.041 2.10937 287.271 2.625 286.573C3.13542 285.88 3.92708 285.406 5 285.156C7.55208 284.505 9.58333 283.573 11.0833 282.364C12.5938 281.146 13.75 279.713 14.5417 278.073C15.3333 276.422 15.8385 274.562 16.0625 272.489C16.2969 270.422 16.4167 268.187 16.4167 265.781C16.4167 265.198 16.5885 264.729 16.9375 264.364C17.2969 263.989 17.7344 263.708 18.25 263.51C18.7604 263.317 19.3229 263.229 19.9375 263.239C20.5625 263.255 21.1302 263.354 21.6458 263.531C22.1562 263.713 22.5938 263.989 22.9583 264.364C23.3177 264.729 23.5 265.198 23.5 265.781Z" fill="white"/>
<path d="M86.2885 256.322C86.7729 256.812 86.976 257.322 86.8927 257.864C86.8094 258.395 86.5646 258.838 86.1635 259.197C85.7573 259.546 85.2573 259.739 84.6635 259.781C84.0646 259.812 83.5021 259.546 82.976 258.989C82.3614 258.353 81.7104 257.734 81.0177 257.135C80.3198 256.541 79.6948 256.046 79.1427 255.656C78.5281 255.197 78.226 254.728 78.226 254.239C78.226 253.728 78.4135 253.296 78.7885 252.947C79.1635 252.588 79.6323 252.364 80.2052 252.281C80.7885 252.197 81.3562 252.353 81.9135 252.739C82.6635 253.255 83.3927 253.801 84.101 254.385C84.8094 254.968 85.5385 255.614 86.2885 256.322ZM81.226 259.822C81.7521 260.38 81.9552 260.942 81.8302 261.51C81.7156 262.067 81.4239 262.52 80.9552 262.864C80.4969 263.197 79.9396 263.364 79.2885 263.364C78.6479 263.364 78.0489 263.072 77.4969 262.489C76.7573 261.687 76.0281 260.947 75.3094 260.281C74.601 259.614 73.9552 259.062 73.3719 258.614C72.7885 258.156 72.5021 257.666 72.5177 257.135C72.5437 256.593 72.7469 256.13 73.1219 255.739C73.5073 255.353 74.0177 255.124 74.6427 255.051C75.2781 254.968 75.9135 255.171 76.5385 255.656C77.2729 256.197 78.0281 256.801 78.8094 257.468C79.5854 258.135 80.3927 258.921 81.226 259.822ZM85.6427 272.676C86.6114 273.135 87.1896 273.843 87.3719 274.801C87.5489 275.749 87.4448 276.656 87.0594 277.531C86.6687 278.406 86.0698 279.083 85.2677 279.551C84.4604 280.01 83.5698 280.005 82.601 279.531C80.9448 278.687 79.2521 277.874 77.5177 277.093C75.7937 276.317 74.0802 275.588 72.3719 274.906C70.6739 274.229 69.0385 273.614 67.4552 273.072C65.8719 272.52 64.3614 272.046 62.9344 271.656C63.0281 275.739 63.1948 279.531 63.4344 283.031C63.6844 286.52 64.0489 289.567 64.5385 292.176C64.7312 293.218 64.5802 294.083 64.0802 294.781C63.5802 295.473 62.9031 295.989 62.0594 296.322C61.226 296.666 60.2885 296.843 59.2469 296.843C58.2469 296.843 57.3198 296.661 56.476 296.301C55.6427 295.952 54.9656 295.437 54.4552 294.76C53.9396 294.077 53.7573 293.218 53.9135 292.176C54.2729 290.083 54.5489 287.687 54.7469 284.989C54.9396 282.281 55.0854 279.374 55.1844 276.26C55.2781 273.135 55.3354 269.843 55.351 266.385C55.3614 262.916 55.3719 259.385 55.3719 255.801C55.3719 255.218 55.5594 254.734 55.9344 254.343C56.3094 253.958 56.7573 253.671 57.2885 253.489C57.8302 253.312 58.4187 253.218 59.0594 253.218C59.7104 253.218 60.2989 253.317 60.8302 253.51C61.3719 253.708 61.8198 253.989 62.1844 254.364C62.5594 254.739 62.7469 255.218 62.7469 255.801C62.7469 257.317 62.7469 258.817 62.7469 260.301C62.7469 261.76 62.7573 263.218 62.7885 264.676C64.4135 265.124 66.1531 265.63 68.0177 266.197C69.8771 266.77 71.7885 267.385 73.7469 268.051C75.7052 268.708 77.6896 269.421 79.7052 270.197C81.7312 270.979 83.7104 271.801 85.6427 272.676Z" fill="white"/>
<path d="M135.762 263.177C135.439 267.468 134.496 271.458 132.929 275.135C131.356 278.802 129.205 282.041 126.47 284.843C123.731 287.635 120.418 289.948 116.533 291.781C112.658 293.599 108.231 294.802 103.262 295.385C102.439 295.479 101.726 295.307 101.116 294.864C100.502 294.432 99.9808 293.864 99.5537 293.156C99.137 292.448 98.8506 291.656 98.6995 290.781C98.5589 289.906 98.5589 289.083 98.6995 288.302C98.8506 287.526 99.1787 286.859 99.6787 286.302C100.179 285.734 100.866 285.401 101.741 285.302C105.95 284.817 109.627 283.984 112.783 282.802C115.934 281.625 118.616 280.125 120.825 278.302C123.043 276.468 124.809 274.338 126.116 271.906C127.434 269.479 128.335 266.76 128.825 263.76C128.892 263.5 128.793 263.364 128.533 263.364H98.262C97.2881 263.364 96.5537 263.031 96.0537 262.364C95.5537 261.698 95.3037 260.984 95.3037 260.218C95.3037 259.442 95.5537 258.718 96.0537 258.052C96.5537 257.385 97.2881 257.052 98.262 257.052H130.22C131.189 257.052 132.038 257.234 132.762 257.593C133.496 257.942 134.101 258.406 134.575 258.989C135.043 259.573 135.377 260.234 135.575 260.968C135.767 261.692 135.83 262.427 135.762 263.177Z" fill="white"/>
<path d="M145.599 294.843C145.042 294.843 144.578 294.64 144.203 294.239C143.839 293.833 143.568 293.327 143.391 292.718C143.209 292.109 143.12 291.463 143.12 290.781C143.12 290.072 143.209 289.416 143.391 288.801C143.568 288.176 143.839 287.666 144.203 287.26C144.578 286.859 145.042 286.656 145.599 286.656H165.141L167.245 271.656H149.183C148.375 271.656 147.756 271.364 147.328 270.781C146.912 270.197 146.703 269.567 146.703 268.885C146.703 268.218 146.912 267.593 147.328 267.01C147.756 266.426 148.375 266.135 149.183 266.135H168.745C172.006 266.135 173.459 267.624 173.099 270.593L171.162 286.656H175.912C176.464 286.656 176.917 286.859 177.266 287.26C177.625 287.666 177.896 288.176 178.078 288.801C178.256 289.416 178.349 290.072 178.349 290.781C178.349 291.463 178.256 292.109 178.078 292.718C177.896 293.327 177.625 293.833 177.266 294.239C176.917 294.64 176.464 294.843 175.912 294.843H145.599Z" fill="white"/>
<path d="M262.924 274.531C262.924 276.755 262.758 278.984 262.424 281.219C262.102 283.458 261.43 285.547 260.404 287.489C259.388 289.422 257.935 291.146 256.049 292.656C254.159 294.156 251.633 295.291 248.466 296.073C247.518 296.291 246.659 296.219 245.883 295.844C245.102 295.469 244.445 294.932 243.904 294.239C243.372 293.541 242.977 292.75 242.716 291.864C242.466 290.979 242.388 290.125 242.487 289.302C242.581 288.469 242.872 287.739 243.362 287.114C243.846 286.489 244.576 286.094 245.549 285.927C247.492 285.568 249.112 285.109 250.404 284.552C251.695 283.984 252.742 283.25 253.549 282.344C254.352 281.427 254.951 280.333 255.341 279.052C255.727 277.776 255.956 276.271 256.029 274.531H238.466C237.56 274.531 236.872 274.198 236.404 273.531C235.93 272.864 235.695 272.146 235.695 271.364C235.695 270.588 235.93 269.875 236.404 269.219C236.872 268.552 237.56 268.219 238.466 268.219H256.07V261.656C254.096 261.729 252.081 261.781 250.029 261.823C247.971 261.854 245.909 261.864 243.841 261.864C242.841 261.864 242.081 261.562 241.57 260.948C241.055 260.323 240.779 259.635 240.737 258.885C240.706 258.125 240.935 257.437 241.424 256.823C241.909 256.198 242.654 255.885 243.654 255.885C249.029 255.885 254.039 255.729 258.695 255.406C263.346 255.088 267.341 254.635 270.674 254.052C271.742 253.859 272.612 254.031 273.279 254.573C273.945 255.104 274.362 255.739 274.529 256.489C274.706 257.229 274.617 257.948 274.258 258.656C273.909 259.364 273.247 259.818 272.279 260.01C270.914 260.276 269.456 260.505 267.904 260.698C266.362 260.896 264.716 261.068 262.966 261.219V268.219H277.237C278.164 268.219 278.862 268.552 279.32 269.219C279.779 269.875 280.008 270.588 280.008 271.364C280.008 272.146 279.779 272.864 279.32 273.531C278.862 274.198 278.164 274.531 277.237 274.531H262.924Z" fill="white"/>
<path d="M321.823 272.155C321.532 272.895 321.12 273.692 320.594 274.551C320.079 275.416 319.433 276.28 318.657 277.155C317.876 278.02 316.969 278.874 315.928 279.718C314.896 280.551 313.751 281.312 312.49 281.989C311.657 282.478 310.844 282.551 310.053 282.218C309.261 281.874 308.646 281.364 308.219 280.697C307.803 280.02 307.636 279.28 307.719 278.489C307.803 277.687 308.282 277.041 309.157 276.551C310.891 275.624 312.313 274.718 313.428 273.843C314.553 272.968 315.323 272.114 315.74 271.28L303.865 271.947C304.376 275.312 304.938 278.708 305.553 282.135C306.178 285.567 306.876 288.853 307.657 291.989C307.85 292.739 307.771 293.39 307.428 293.947C307.094 294.515 306.605 294.958 305.969 295.28C305.344 295.614 304.646 295.827 303.886 295.926C303.12 296.02 302.391 295.973 301.698 295.78C301.001 295.583 300.417 295.249 299.948 294.78C299.49 294.306 299.261 293.666 299.261 292.864C299.219 289.53 299.053 286.171 298.761 282.78C298.469 279.379 298.1 275.879 297.657 272.28L289.553 272.718C288.745 272.76 288.115 272.52 287.657 271.989C287.198 271.447 286.938 270.833 286.886 270.135C286.844 269.442 287.016 268.796 287.407 268.197C287.792 267.603 288.396 267.28 289.219 267.239L296.928 266.801C296.855 266.26 296.771 265.697 296.678 265.114C296.579 264.53 296.501 263.947 296.448 263.364C296.308 262.588 296.532 261.978 297.115 261.53C297.698 261.072 298.355 260.796 299.094 260.697C299.844 260.603 300.563 260.697 301.261 260.989C301.954 261.28 302.35 261.77 302.448 262.447C302.542 263.088 302.641 263.739 302.74 264.405C302.834 265.072 302.933 265.76 303.032 266.468L317.011 265.697C318.053 265.629 318.938 265.77 319.678 266.114C320.428 266.447 321.016 266.926 321.448 267.551C321.891 268.166 322.141 268.864 322.198 269.655C322.266 270.447 322.141 271.28 321.823 272.155Z" fill="white"/>
<path d="M386.393 295.281C386.195 296.224 385.789 296.948 385.164 297.448C384.549 297.948 383.862 298.25 383.102 298.364C382.352 298.474 381.581 298.458 380.789 298.323C379.997 298.182 379.299 297.885 378.706 297.427C378.107 296.968 377.69 296.39 377.456 295.698C377.232 295 377.206 294.239 377.372 293.406L390.372 253.427C390.565 252.776 390.977 252.338 391.602 252.114C392.237 251.88 392.872 251.812 393.497 251.906C394.122 252.005 394.664 252.271 395.122 252.698C395.581 253.114 395.727 253.666 395.56 254.343L386.393 295.281Z" fill="white"/>
<path d="M436.998 288.343C437.216 289.124 437.232 289.838 437.039 290.489C436.841 291.129 436.44 291.671 435.831 292.114C435.216 292.546 434.487 292.864 433.643 293.072C432.81 293.291 431.982 293.364 431.164 293.28C430.357 293.197 429.633 292.957 428.998 292.572C428.373 292.187 427.945 291.603 427.727 290.822C427.237 289.114 426.753 287.463 426.268 285.864C425.779 284.254 425.294 282.671 424.81 281.114H410.789C410.3 282.671 409.82 284.254 409.352 285.864C408.893 287.463 408.435 289.114 407.977 290.822C407.779 291.603 407.357 292.187 406.706 292.572C406.065 292.957 405.352 293.197 404.56 293.28C403.768 293.364 402.945 293.285 402.102 293.051C401.268 292.827 400.539 292.499 399.914 292.051C399.3 291.593 398.893 291.051 398.685 290.426C398.477 289.791 398.482 289.093 398.706 288.343L412.935 257.343C413.378 256.343 414.05 255.588 414.956 255.072C415.873 254.546 416.831 254.28 417.831 254.28C418.831 254.28 419.779 254.541 420.685 255.051C421.602 255.551 422.294 256.317 422.768 257.343L436.998 288.343ZM422.623 274.676C421.008 270.15 419.414 266.134 417.831 262.634C417.024 264.416 416.211 266.312 415.393 268.322C414.586 270.322 413.779 272.442 412.977 274.676H422.623Z" fill="white"/>
<path d="M478.34 273.739C478.34 276.588 477.886 279.187 476.985 281.531C476.095 283.88 474.819 285.88 473.152 287.531C471.496 289.187 469.47 290.463 467.069 291.364C464.678 292.271 461.975 292.718 458.965 292.718H448.985C445.485 292.718 443.735 290.968 443.735 287.468V259.635C443.735 256.458 445.485 254.864 448.985 254.864H458.34C461.35 254.864 464.09 255.354 466.548 256.323C469.006 257.297 471.1 258.635 472.84 260.343C474.59 262.041 475.944 264.031 476.902 266.323C477.86 268.614 478.34 271.088 478.34 273.739ZM470.902 272.343C470.902 270.718 470.6 269.239 470.006 267.906C469.407 266.562 468.558 265.401 467.465 264.427C466.366 263.458 465.058 262.708 463.548 262.177C462.048 261.635 460.392 261.364 458.59 261.364H451.006C450.85 261.364 450.777 261.448 450.777 261.614V282.864C450.777 283.354 451.017 283.593 451.506 283.593H458.965C460.907 283.593 462.616 283.302 464.09 282.718C465.558 282.135 466.803 281.343 467.819 280.343C468.845 279.343 469.616 278.156 470.131 276.781C470.642 275.406 470.902 273.927 470.902 272.343Z" fill="white"/>
<path d="M521.518 273.739C521.518 276.588 521.065 279.187 520.164 281.531C519.273 283.88 517.997 285.88 516.331 287.531C514.674 289.187 512.648 290.463 510.247 291.364C507.857 292.271 505.154 292.718 502.143 292.718H492.164C488.664 292.718 486.914 290.968 486.914 287.468V259.635C486.914 256.458 488.664 254.864 492.164 254.864H501.518C504.529 254.864 507.268 255.354 509.727 256.323C512.185 257.297 514.279 258.635 516.018 260.343C517.768 262.041 519.122 264.031 520.081 266.323C521.039 268.614 521.518 271.088 521.518 273.739ZM514.081 272.343C514.081 270.718 513.779 269.239 513.185 267.906C512.586 266.562 511.737 265.401 510.643 264.427C509.544 263.458 508.237 262.708 506.727 262.177C505.227 261.635 503.57 261.364 501.768 261.364H494.185C494.029 261.364 493.956 261.448 493.956 261.614V282.864C493.956 283.354 494.195 283.593 494.685 283.593H502.143C504.086 283.593 505.794 283.302 507.268 282.718C508.737 282.135 509.982 281.343 510.997 280.343C512.023 279.343 512.794 278.156 513.31 276.781C513.82 275.406 514.081 273.927 514.081 272.343Z" fill="white"/>
<path d="M564.84 261.364C564.673 261.364 564.59 261.437 564.59 261.573C564.59 263.187 564.637 265.5 564.736 268.51H579.632C580.673 268.51 581.444 268.854 581.944 269.531C582.444 270.213 582.694 270.958 582.694 271.76C582.694 272.567 582.444 273.312 581.944 273.989C581.444 274.672 580.684 275.01 579.673 275.01H565.507C565.642 277.25 565.809 279.593 566.007 282.052C566.199 284.51 566.434 287 566.715 289.51C566.809 290.291 566.632 290.958 566.173 291.51C565.725 292.052 565.137 292.479 564.402 292.781C563.678 293.099 562.882 293.271 562.007 293.302C561.142 293.328 560.33 293.218 559.569 292.968C558.803 292.729 558.178 292.354 557.694 291.823C557.205 291.281 556.986 290.609 557.027 289.802C557.121 286.901 557.205 284.052 557.277 281.26C557.361 278.458 557.413 275.771 557.444 273.198C557.486 270.614 557.512 268.177 557.527 265.885C557.538 263.593 557.548 261.489 557.548 259.573C557.548 258.088 557.986 256.937 558.861 256.114C559.736 255.281 561.048 254.864 562.798 254.864H580.694C581.736 254.864 582.507 255.208 583.007 255.885C583.507 256.567 583.757 257.312 583.757 258.114C583.757 258.937 583.507 259.687 583.007 260.364C582.507 261.031 581.757 261.364 580.757 261.364H564.84Z" fill="white"/>
<path d="M621.259 280.093C621.259 284.593 619.952 288.01 617.342 290.343C614.743 292.677 611.098 293.843 606.405 293.843C601.53 293.843 597.738 292.718 595.03 290.468C592.332 288.218 590.988 284.76 590.988 280.093V256.677C590.988 255.859 591.348 255.25 592.072 254.843C592.79 254.442 593.592 254.239 594.467 254.239C595.384 254.239 596.202 254.442 596.926 254.843C597.645 255.25 598.009 255.859 598.009 256.677V277.677C598.009 279.166 598.405 280.401 599.197 281.385C599.988 282.375 600.988 283.109 602.197 283.593C603.415 284.083 604.723 284.323 606.113 284.323C607.499 284.323 608.801 284.083 610.009 283.593C611.228 283.109 612.238 282.375 613.03 281.385C613.822 280.401 614.217 279.166 614.217 277.677V256.677C614.217 255.859 614.577 255.25 615.301 254.843C616.035 254.442 616.842 254.239 617.717 254.239C618.618 254.239 619.431 254.442 620.155 254.843C620.889 255.25 621.259 255.859 621.259 256.677V280.093Z" fill="white"/>
<path d="M646.736 261.468C646.736 263.708 646.762 265.791 646.819 267.718C646.887 269.635 646.975 271.635 647.09 273.718C647.199 275.802 647.366 278.088 647.59 280.573C647.824 283.047 648.116 285.927 648.465 289.218C648.559 290.135 648.35 290.896 647.84 291.489C647.324 292.088 646.658 292.541 645.84 292.843C645.033 293.146 644.132 293.302 643.132 293.302C642.158 293.302 641.267 293.146 640.465 292.843C639.658 292.541 638.991 292.088 638.465 291.489C637.949 290.896 637.741 290.135 637.84 289.218C638.199 285.927 638.486 283.052 638.694 280.593C638.902 278.135 639.069 275.864 639.194 273.781C639.329 271.687 639.423 269.672 639.465 267.739C639.517 265.797 639.548 263.708 639.548 261.468H630.319C629.746 261.468 629.257 261.312 628.84 260.989C628.434 260.672 628.137 260.271 627.944 259.781C627.746 259.297 627.652 258.76 627.652 258.177C627.652 257.593 627.746 257.062 627.944 256.573C628.137 256.088 628.434 255.687 628.84 255.364C629.257 255.031 629.746 254.864 630.319 254.864H655.84C656.465 254.864 656.97 255.031 657.361 255.364C657.746 255.687 658.048 256.088 658.257 256.573C658.465 257.062 658.569 257.593 658.569 258.177C658.569 258.76 658.465 259.297 658.257 259.781C658.048 260.271 657.746 260.672 657.361 260.989C656.97 261.312 656.465 261.468 655.84 261.468H646.736Z" fill="white"/>
<path d="M695.198 280.093C695.198 284.593 693.89 288.01 691.281 290.343C688.682 292.677 685.036 293.843 680.343 293.843C675.468 293.843 671.677 292.718 668.968 290.468C666.271 288.218 664.927 284.76 664.927 280.093V256.677C664.927 255.859 665.286 255.25 666.01 254.843C666.729 254.442 667.531 254.239 668.406 254.239C669.323 254.239 670.14 254.442 670.864 254.843C671.583 255.25 671.948 255.859 671.948 256.677V277.677C671.948 279.166 672.343 280.401 673.135 281.385C673.927 282.375 674.927 283.109 676.135 283.593C677.354 284.083 678.661 284.323 680.052 284.323C681.437 284.323 682.739 284.083 683.948 283.593C685.166 283.109 686.177 282.375 686.968 281.385C687.76 280.401 688.156 279.166 688.156 277.677V256.677C688.156 255.859 688.515 255.25 689.239 254.843C689.974 254.442 690.781 254.239 691.656 254.239C692.557 254.239 693.369 254.442 694.093 254.843C694.828 255.25 695.198 255.859 695.198 256.677V280.093Z" fill="white"/>
<path d="M738.966 287.573C739.476 288.255 739.659 288.927 739.508 289.593C739.367 290.26 739.018 290.854 738.466 291.364C737.924 291.88 737.242 292.312 736.424 292.656C735.617 292.989 734.789 293.166 733.945 293.198C733.112 293.239 732.325 293.093 731.591 292.76C730.867 292.442 730.331 291.896 729.987 291.114C729.138 289.271 728.367 287.427 727.674 285.593C726.976 283.75 726.435 281.854 726.049 279.906C725.851 278.937 725.409 278.156 724.716 277.573C724.018 276.989 723.247 276.698 722.404 276.698H713.779C713.872 278.614 713.971 280.552 714.07 282.51C714.164 284.468 714.456 286.739 714.945 289.323C715.096 290.13 714.956 290.817 714.529 291.385C714.096 291.958 713.508 292.401 712.758 292.718C712.008 293.036 711.185 293.218 710.299 293.26C709.409 293.312 708.575 293.229 707.799 293.01C707.034 292.786 706.393 292.422 705.883 291.906C705.383 291.38 705.154 290.698 705.195 289.864C705.487 284.005 705.643 278.588 705.674 273.614C705.7 268.63 705.716 263.948 705.716 259.573C705.716 258.088 706.154 256.937 707.029 256.114C707.904 255.281 709.216 254.864 710.966 254.864H724.445C726.872 254.864 728.956 255.125 730.695 255.635C732.445 256.135 733.893 256.843 735.049 257.76C736.2 258.677 737.049 259.791 737.591 261.093C738.143 262.385 738.424 263.802 738.424 265.343C738.424 266.385 738.299 267.401 738.049 268.385C737.81 269.375 737.414 270.297 736.862 271.156C736.32 272.005 735.622 272.771 734.779 273.448C733.945 274.13 732.909 274.687 731.674 275.114C732.101 275.239 732.476 275.448 732.799 275.739C733.117 276.031 733.393 276.354 733.633 276.698C733.883 277.031 734.081 277.396 734.237 277.781C734.404 278.172 734.534 278.526 734.633 278.843C734.893 279.651 735.154 280.427 735.404 281.177C735.664 281.916 735.966 282.63 736.299 283.323C736.643 284.021 737.029 284.718 737.445 285.427C737.872 286.125 738.383 286.838 738.966 287.573ZM731.529 265.406C731.529 263.88 730.935 262.823 729.758 262.239C728.575 261.656 726.825 261.364 724.508 261.364H713.008C712.841 261.364 712.758 261.437 712.758 261.573C712.758 262.963 712.763 264.323 712.779 265.656C712.789 266.979 712.831 268.489 712.904 270.198H724.508C726.924 270.198 728.695 269.781 729.82 268.948C730.956 268.104 731.529 266.922 731.529 265.406Z" fill="white"/>
<path d="M751.968 292.718C748.468 292.718 746.718 290.968 746.718 287.468V259.635C746.718 256.458 748.468 254.864 751.968 254.864H772.489C773.556 254.864 774.353 255.208 774.884 255.885C775.41 256.567 775.676 257.312 775.676 258.114C775.676 258.937 775.41 259.687 774.884 260.364C774.353 261.031 773.572 261.364 772.53 261.364H753.989C753.832 261.364 753.759 261.448 753.759 261.614V268.323H771.176C772.244 268.323 773.035 268.666 773.551 269.343C774.062 270.01 774.322 270.755 774.322 271.573C774.322 272.38 774.062 273.125 773.551 273.802C773.035 274.484 772.259 274.823 771.218 274.823H753.759V282.718C753.759 283.052 753.806 283.281 753.905 283.406C753.999 283.531 754.207 283.593 754.53 283.593H772.718C773.395 283.593 773.973 283.823 774.447 284.281C774.916 284.729 775.27 285.291 775.509 285.968C775.759 286.651 775.884 287.38 775.884 288.156C775.884 288.937 775.759 289.666 775.509 290.343C775.27 291.026 774.926 291.593 774.468 292.052C774.02 292.5 773.437 292.718 772.718 292.718H751.968Z" fill="white"/>
<path d="M117.574 348.012C117.158 348.012 116.83 347.845 116.595 347.512C116.356 347.178 116.241 346.814 116.241 346.408C116.241 345.991 116.345 345.616 116.554 345.283C116.772 344.939 117.116 344.762 117.574 344.762H121.908V344.053C121.908 343.678 122.121 343.402 122.554 343.22C122.996 343.043 123.481 342.949 124.012 342.949C124.538 342.949 125.017 343.048 125.449 343.241C125.876 343.439 126.095 343.71 126.095 344.053V344.762H130.637C131.137 344.762 131.512 344.939 131.762 345.283C132.022 345.616 132.158 345.991 132.158 346.408C132.158 346.814 132.022 347.178 131.762 347.512C131.512 347.845 131.137 348.012 130.637 348.012H117.574ZM143.866 345.991C144.184 346.355 144.288 346.73 144.179 347.116C144.064 347.507 143.85 347.824 143.533 348.074C143.21 348.314 142.845 348.444 142.429 348.47C142.022 348.486 141.668 348.314 141.366 347.949C141.033 347.533 140.637 347.105 140.179 346.658C139.731 346.215 139.288 345.814 138.845 345.449C138.455 345.158 138.283 344.84 138.324 344.491C138.366 344.147 138.522 343.855 138.804 343.616C139.095 343.366 139.455 343.22 139.887 343.178C140.33 343.137 140.751 343.262 141.158 343.553C141.642 343.918 142.126 344.319 142.616 344.762C143.116 345.21 143.533 345.616 143.866 345.991ZM144.574 362.241C144.616 364.449 144.533 366.158 144.324 367.366C144.126 368.564 143.856 369.434 143.512 369.991C143.163 370.559 142.762 370.892 142.304 370.991C141.845 371.1 141.366 371.158 140.866 371.158H139.533C138.6 371.158 137.856 370.892 137.304 370.366C136.762 369.85 136.491 369.001 136.491 367.803V362.095C136.085 363.652 135.606 365.168 135.054 366.637C134.512 368.111 133.772 369.439 132.845 370.637C132.481 371.105 132.059 371.392 131.574 371.491C131.085 371.585 130.606 371.543 130.137 371.366C129.663 371.199 129.21 370.934 128.783 370.574C128.366 370.225 128.038 369.814 127.804 369.345C127.58 368.887 127.475 368.408 127.491 367.908C127.517 367.397 127.731 366.923 128.137 366.491C128.272 366.324 128.408 366.173 128.533 366.033C128.658 365.897 128.788 365.741 128.929 365.574C128.621 365.533 128.366 365.444 128.158 365.303C127.949 365.168 127.809 364.949 127.741 364.658C127.574 363.814 127.392 363.048 127.199 362.366C127.017 361.673 126.824 360.949 126.616 360.199C126.475 359.757 126.512 359.387 126.72 359.095C126.939 358.793 127.21 358.585 127.533 358.47C127.866 358.345 128.205 358.319 128.554 358.387C128.897 358.444 129.147 358.626 129.304 358.928C129.637 359.543 129.939 360.126 130.22 360.678C130.512 361.236 130.783 361.866 131.033 362.574C131.991 360.965 132.699 359.298 133.158 357.574C133.626 355.855 133.908 354.064 133.991 352.199H131.97C131.788 352.199 131.626 352.178 131.491 352.137C131.366 352.085 131.246 352.012 131.137 351.928V355.553C131.137 357.152 130.304 357.949 128.637 357.949H126.158V367.949C126.158 368.715 126.038 369.355 125.804 369.887C125.58 370.413 125.205 370.814 124.679 371.095C124.163 371.371 123.496 371.517 122.679 371.533C121.856 371.559 120.85 371.439 119.658 371.178C119.267 371.095 118.939 370.928 118.679 370.678C118.413 370.428 118.21 370.126 118.074 369.783C117.934 369.449 117.85 369.085 117.824 368.678C117.809 368.277 117.83 367.876 117.887 367.47C117.595 367.418 117.309 367.319 117.033 367.178C116.751 367.027 116.522 366.84 116.345 366.616C116.179 366.397 116.064 366.147 116.012 365.866C115.97 365.59 116.038 365.293 116.22 364.97C116.762 363.96 117.205 363.001 117.554 362.095C117.897 361.178 118.205 360.23 118.47 359.241C118.564 358.824 118.804 358.548 119.179 358.408C119.564 358.272 119.955 358.257 120.345 358.366C120.731 358.465 121.064 358.668 121.345 358.97C121.637 359.262 121.751 359.626 121.699 360.053C121.585 360.819 121.434 361.616 121.241 362.449C121.059 363.272 120.824 364.111 120.533 364.97C120.96 365.053 121.304 365.116 121.554 365.158C121.814 365.189 122.012 365.189 122.137 365.158C122.262 365.116 122.335 365.053 122.366 364.97C122.408 364.876 122.429 364.751 122.429 364.595V357.949H119.658C118.017 357.949 117.199 357.152 117.199 355.553V351.512C117.199 349.944 118.017 349.158 119.658 349.158H128.637C129.564 349.158 130.241 349.423 130.658 349.949C130.767 349.658 130.918 349.408 131.116 349.199C131.324 348.991 131.606 348.887 131.97 348.887H134.054V344.408C134.054 343.923 134.251 343.564 134.658 343.324C135.059 343.074 135.501 342.949 135.991 342.949C136.475 342.949 136.918 343.074 137.324 343.324C137.725 343.564 137.929 343.923 137.929 344.408V348.887H142.762C143.314 348.887 143.725 349.064 143.991 349.408C144.251 349.757 144.387 350.137 144.387 350.553C144.387 350.96 144.251 351.335 143.991 351.678C143.725 352.027 143.314 352.199 142.762 352.199H137.845C137.83 352.439 137.814 352.689 137.804 352.949C137.788 353.199 137.772 353.439 137.762 353.658C138.038 353.605 138.314 353.59 138.595 353.616C138.887 353.647 139.147 353.72 139.387 353.845C139.637 353.96 139.83 354.116 139.97 354.324C140.121 354.522 140.199 354.762 140.199 355.053V364.699C140.199 364.908 140.283 365.012 140.449 365.012C140.574 365.012 140.679 364.98 140.762 364.908C140.856 364.824 140.929 364.673 140.97 364.449C141.012 364.215 141.043 363.887 141.074 363.47C141.1 363.043 141.126 362.48 141.158 361.783C141.168 361.215 141.356 360.824 141.72 360.616C142.08 360.397 142.47 360.324 142.887 360.408C143.314 360.491 143.705 360.694 144.054 361.012C144.397 361.335 144.574 361.741 144.574 362.241ZM127.491 352.303H120.741V354.908H127.491V352.303Z" fill="white"/>
<path d="M185.807 355.428C185.807 355.668 185.734 355.866 185.599 356.033C185.458 356.199 185.276 356.345 185.057 356.47C184.833 356.585 184.578 356.658 184.286 356.699C184.005 356.741 183.729 356.757 183.453 356.741C183.964 357.189 184.224 357.777 184.224 358.512C184.224 360.428 184.193 362.111 184.141 363.553C184.083 364.986 183.938 366.215 183.703 367.241C183.479 368.272 183.125 369.09 182.641 369.699C182.151 370.324 181.474 370.783 180.599 371.074C179.734 371.366 178.646 371.496 177.328 371.47C176.021 371.454 174.432 371.309 172.557 371.033C172.068 370.96 171.693 370.73 171.432 370.345C171.167 369.97 170.995 369.533 170.911 369.033C170.828 368.522 170.818 367.98 170.891 367.408C170.958 366.84 171.099 366.324 171.307 365.866C171.526 365.397 171.797 365.027 172.12 364.762C172.453 364.486 172.828 364.387 173.245 364.47C174.911 364.793 176.193 364.986 177.099 365.053C178.016 365.111 178.688 364.965 179.12 364.616C179.562 364.272 179.828 363.678 179.911 362.845C179.995 362.001 180.036 360.84 180.036 359.366H172.078C171.87 360.715 171.562 362.027 171.161 363.303C170.755 364.569 170.141 365.73 169.307 366.783C168.484 367.84 167.411 368.772 166.078 369.574C164.755 370.392 163.062 371.038 160.995 371.512C160.464 371.637 159.984 371.564 159.557 371.303C159.141 371.038 158.792 370.678 158.516 370.22C158.234 369.762 158.026 369.246 157.891 368.678C157.766 368.111 157.724 367.569 157.766 367.053C157.818 366.543 157.964 366.09 158.203 365.699C158.437 365.298 158.776 365.053 159.224 364.97C161.667 364.512 163.542 363.824 164.849 362.908C166.167 361.98 167.089 360.798 167.62 359.366H161.807C161.401 359.366 161.078 359.272 160.828 359.074C160.589 358.866 160.417 358.616 160.307 358.324C160.208 358.033 160.187 357.72 160.245 357.387C160.297 357.053 160.417 356.777 160.599 356.553C160.026 356.595 159.484 356.522 158.974 356.324C158.458 356.116 158.203 355.777 158.203 355.303V351.928C158.203 351.137 158.453 350.527 158.953 350.095C159.464 349.668 160.172 349.449 161.078 349.449H162.349C162.151 349.366 162.005 349.251 161.911 349.095C161.505 348.47 161.13 347.939 160.786 347.491C160.437 347.048 160.005 346.548 159.495 345.991C159.12 345.616 159.005 345.215 159.161 344.783C159.328 344.34 159.604 343.98 159.995 343.699C160.396 343.408 160.859 343.251 161.391 343.22C161.932 343.194 162.391 343.387 162.766 343.803C163.224 344.319 163.672 344.876 164.12 345.47C164.562 346.069 164.964 346.652 165.328 347.22C165.578 347.626 165.599 348.033 165.391 348.449C165.193 348.866 164.891 349.199 164.474 349.449H170.911C170.672 349.298 170.516 349.09 170.432 348.824C170.193 348.199 169.932 347.595 169.641 347.012C169.359 346.418 169.062 345.845 168.745 345.303C168.479 344.819 168.479 344.387 168.745 344.012C169.005 343.626 169.37 343.345 169.828 343.178C170.297 343.012 170.797 342.97 171.328 343.053C171.854 343.137 172.245 343.408 172.495 343.866C172.828 344.48 173.13 345.095 173.411 345.72C173.703 346.345 173.964 346.986 174.203 347.637C174.328 348.043 174.286 348.402 174.078 348.72C173.87 349.043 173.568 349.283 173.182 349.449H178.516C178.042 349.158 177.724 348.772 177.557 348.283C177.391 347.798 177.526 347.34 177.974 346.908C178.292 346.616 178.562 346.361 178.786 346.137C179.021 345.902 179.245 345.668 179.453 345.428C179.672 345.178 179.88 344.923 180.078 344.658C180.286 344.382 180.516 344.074 180.766 343.741C181.057 343.34 181.458 343.137 181.974 343.137C182.5 343.126 182.979 343.241 183.411 343.491C183.839 343.73 184.161 344.048 184.37 344.449C184.578 344.855 184.526 345.272 184.224 345.699C183.599 346.574 183.057 347.298 182.599 347.866C182.141 348.439 181.63 348.965 181.078 349.449H182.849C183.776 349.449 184.5 349.673 185.016 350.116C185.542 350.564 185.807 351.168 185.807 351.928V355.428ZM181.911 356.012C181.771 355.845 181.703 355.652 181.703 355.428V352.991C181.703 352.866 181.651 352.803 181.557 352.803H162.474C162.432 352.803 162.396 352.824 162.37 352.866C162.339 352.908 162.328 352.949 162.328 352.991V355.303C162.328 355.585 162.229 355.803 162.036 355.97H168.141C168.182 355.793 168.208 355.595 168.224 355.387C168.234 355.168 168.266 354.939 168.307 354.699C168.349 354.408 168.484 354.158 168.724 353.949C168.958 353.741 169.229 353.59 169.536 353.491C169.854 353.397 170.193 353.345 170.557 353.345C170.932 353.345 171.266 353.408 171.557 353.533C171.859 353.647 172.104 353.803 172.286 354.012C172.479 354.22 172.568 354.486 172.557 354.803C172.526 355.012 172.505 355.22 172.495 355.428C172.495 355.626 172.474 355.803 172.432 355.97H181.432C181.641 355.97 181.797 355.986 181.911 356.012Z" fill="white"/>
<path d="M227.436 346.157C227.353 346.438 227.254 346.735 227.144 347.053C227.045 347.36 226.936 347.667 226.811 347.969C226.696 348.261 226.587 348.542 226.478 348.803C226.379 349.068 226.29 349.282 226.207 349.449C226.009 349.865 225.717 350.115 225.332 350.199C224.957 350.271 224.592 350.23 224.249 350.074C223.9 349.907 223.624 349.657 223.415 349.324C223.217 348.99 223.207 348.626 223.374 348.219C223.467 348.042 223.566 347.834 223.665 347.594C223.775 347.344 223.879 347.084 223.978 346.803C224.087 346.511 224.191 346.23 224.29 345.949C224.4 345.657 224.488 345.386 224.561 345.136C224.655 344.777 224.884 344.553 225.249 344.469C225.608 344.376 225.967 344.381 226.332 344.49C226.691 344.605 226.999 344.803 227.249 345.094C227.499 345.376 227.561 345.73 227.436 346.157ZM227.415 358.928C227.759 359.386 227.858 359.86 227.707 360.344C227.566 360.818 227.316 361.199 226.957 361.49C226.592 361.771 226.191 361.902 225.749 361.886C225.316 361.876 224.967 361.615 224.707 361.115C224.457 360.631 224.191 360.126 223.915 359.594C223.65 359.068 223.337 358.527 222.978 357.969V363.261C222.978 363.751 222.775 364.115 222.374 364.365C221.983 364.605 221.561 364.719 221.103 364.719C220.655 364.719 220.238 364.605 219.853 364.365C219.462 364.115 219.269 363.751 219.269 363.261V358.636C218.962 359.235 218.644 359.782 218.311 360.282C217.978 360.771 217.629 361.235 217.269 361.678C216.837 362.209 216.379 362.428 215.894 362.344C215.42 362.261 215.009 362.032 214.665 361.657V364.594C214.665 364.636 214.696 364.699 214.769 364.782C214.853 364.855 214.915 364.886 214.957 364.886H226.103C226.462 364.886 226.759 365.042 226.999 365.344C227.249 365.652 227.436 366.032 227.561 366.49C227.686 366.938 227.749 367.438 227.749 367.99C227.749 368.521 227.691 369.006 227.582 369.449C227.467 369.907 227.295 370.287 227.061 370.594C226.821 370.896 226.525 371.053 226.165 371.053H214.374C213.176 371.053 212.316 370.782 211.79 370.24C211.275 369.709 211.019 368.844 211.019 367.636V357.949C210.92 358.199 210.749 358.386 210.499 358.511C210.259 358.636 210.004 358.699 209.728 358.699C209.478 358.699 209.238 358.631 209.019 358.49C208.811 358.339 208.676 358.11 208.624 357.803C208.592 357.709 208.571 357.626 208.561 357.553C208.561 357.469 208.545 357.381 208.519 357.282L206.915 357.428C206.915 357.943 206.926 358.657 206.957 359.574C206.983 360.49 207.025 361.506 207.082 362.615C207.134 363.73 207.207 364.876 207.29 366.053C207.374 367.235 207.457 368.324 207.54 369.324C207.582 369.824 207.488 370.23 207.269 370.553C207.045 370.886 206.749 371.136 206.374 371.303C206.009 371.48 205.608 371.563 205.165 371.553C204.717 371.537 204.316 371.449 203.957 371.282C203.592 371.115 203.301 370.865 203.082 370.532C202.858 370.209 202.769 369.808 202.811 369.324C202.92 368.355 203.009 367.292 203.082 366.136C203.165 364.985 203.228 363.865 203.269 362.782C203.321 361.688 203.363 360.693 203.394 359.803C203.436 358.902 203.462 358.23 203.478 357.782L201.04 358.032C200.551 358.074 200.165 357.943 199.874 357.636C199.592 357.334 199.436 356.985 199.394 356.594C199.353 356.209 199.436 355.844 199.644 355.511C199.853 355.167 200.196 354.985 200.686 354.969C200.863 354.969 201.04 354.964 201.207 354.949C201.384 354.938 201.566 354.928 201.749 354.928C202.165 354.511 202.525 354.131 202.832 353.782C203.134 353.423 203.436 353.032 203.728 352.615C203.196 352.131 202.634 351.657 202.04 351.199C201.441 350.73 200.837 350.282 200.228 349.865C199.821 349.589 199.608 349.251 199.582 348.844C199.566 348.443 199.67 348.074 199.894 347.74C200.129 347.396 200.446 347.152 200.853 347.011C201.269 346.86 201.696 346.907 202.144 347.157C202.504 346.574 202.832 346.027 203.124 345.511C203.426 344.985 203.707 344.428 203.957 343.844C204.124 343.417 204.415 343.157 204.832 343.074C205.249 342.98 205.634 343.001 205.999 343.136C206.374 343.261 206.67 343.49 206.894 343.824C207.113 344.157 207.124 344.542 206.915 344.969C206.608 345.636 206.249 346.292 205.832 346.928C205.426 347.568 204.983 348.23 204.499 348.907C204.691 349.074 204.874 349.251 205.04 349.428C205.217 349.594 205.384 349.771 205.54 349.949C205.816 349.574 206.071 349.157 206.311 348.699C206.561 348.24 206.795 347.798 207.019 347.365C207.254 346.923 207.582 346.667 207.999 346.594C208.415 346.511 208.795 346.563 209.144 346.74C209.504 346.923 209.775 347.188 209.957 347.532C210.134 347.881 210.108 348.261 209.874 348.678C209.249 349.876 208.603 350.949 207.936 351.907C207.269 352.855 206.509 353.782 205.665 354.699C206.009 354.688 206.353 354.673 206.686 354.657C207.019 354.631 207.363 354.594 207.728 354.553L207.54 353.969C207.415 353.626 207.426 353.334 207.582 353.094C207.749 352.844 207.967 352.678 208.249 352.594C208.54 352.501 208.837 352.501 209.144 352.594C209.446 352.693 209.67 352.923 209.811 353.282C210.045 353.839 210.28 354.407 210.519 354.99C210.754 355.563 210.92 356.126 211.019 356.678V344.469C211.019 343.985 211.207 343.615 211.582 343.365C211.967 343.115 212.384 342.99 212.832 342.99C213.29 342.99 213.707 343.115 214.082 343.365C214.467 343.615 214.665 343.985 214.665 344.469V345.365C214.816 345.131 215.025 344.938 215.29 344.782C215.566 344.615 215.842 344.527 216.124 344.511C216.415 344.485 216.691 344.542 216.957 344.678C217.217 344.818 217.426 345.074 217.582 345.449C217.749 345.881 217.915 346.324 218.082 346.782C218.259 347.23 218.436 347.709 218.603 348.219C218.738 348.667 218.691 349.048 218.457 349.365C218.233 349.673 217.936 349.902 217.561 350.053C217.196 350.193 216.837 350.23 216.478 350.157C216.113 350.089 215.874 349.896 215.749 349.574C215.676 349.423 215.603 349.214 215.519 348.949C215.436 348.688 215.337 348.407 215.228 348.115C215.129 347.824 215.03 347.542 214.936 347.261C214.837 346.969 214.749 346.73 214.665 346.532V351.782C214.775 351.563 214.926 351.376 215.124 351.219C215.332 351.068 215.582 350.99 215.874 350.99H219.269V344.469C219.269 343.985 219.462 343.615 219.853 343.365C220.238 343.115 220.655 342.99 221.103 342.99C221.561 342.99 221.983 343.115 222.374 343.365C222.775 343.615 222.978 343.985 222.978 344.469V350.99H226.019C226.478 350.99 226.816 351.167 227.04 351.511C227.259 351.844 227.374 352.214 227.374 352.615C227.374 352.99 227.254 353.355 227.019 353.699C226.795 354.032 226.462 354.199 226.019 354.199H223.415C224.066 354.881 224.754 355.652 225.478 356.511C226.212 357.376 226.858 358.178 227.415 358.928ZM210.749 367.449C210.749 367.907 210.587 368.256 210.269 368.49C209.962 368.73 209.624 368.855 209.249 368.865C208.874 368.865 208.525 368.756 208.207 368.532C207.884 368.313 207.728 367.98 207.728 367.532C207.728 366.99 207.717 366.36 207.707 365.636C207.707 364.902 207.707 364.173 207.707 363.449C207.707 362.74 207.696 362.068 207.686 361.428C207.67 360.792 207.665 360.292 207.665 359.928C207.665 359.594 207.759 359.339 207.957 359.157C208.165 358.964 208.4 358.86 208.665 358.844C208.926 358.818 209.17 358.881 209.394 359.032C209.629 359.173 209.78 359.407 209.853 359.74C209.92 360.048 209.999 360.542 210.082 361.219C210.176 361.902 210.275 362.636 210.374 363.428C210.467 364.219 210.551 364.99 210.624 365.74C210.707 366.48 210.749 367.048 210.749 367.449ZM202.686 359.719C202.686 360.042 202.686 360.511 202.686 361.136C202.686 361.777 202.67 362.485 202.644 363.261C202.629 364.042 202.613 364.855 202.603 365.699C202.603 366.532 202.582 367.298 202.54 367.99C202.509 368.48 202.311 368.824 201.936 369.032C201.571 369.24 201.186 369.313 200.769 369.261C200.363 369.219 200.004 369.053 199.686 368.761C199.363 368.459 199.249 368.048 199.332 367.532C199.441 366.907 199.54 366.214 199.624 365.449C199.707 364.673 199.79 363.902 199.874 363.136C199.957 362.376 200.025 361.678 200.082 361.053C200.15 360.417 200.196 359.928 200.228 359.594C200.269 359.209 200.415 358.923 200.665 358.74C200.915 358.563 201.191 358.48 201.499 358.49C201.801 358.506 202.071 358.615 202.311 358.824C202.561 359.021 202.686 359.318 202.686 359.719ZM215.874 354.199C215.582 354.199 215.332 354.131 215.124 353.99C214.926 353.839 214.775 353.646 214.665 353.407V359.115C214.957 358.824 215.259 358.49 215.582 358.115C215.9 357.74 216.212 357.339 216.519 356.907C216.821 356.48 217.108 356.032 217.374 355.574C217.634 355.105 217.853 354.646 218.019 354.199H215.874Z" fill="white"/>
<path d="M262.399 347.928V349.011H266.899C267.44 349.011 267.847 349.178 268.128 349.511C268.404 349.834 268.545 350.193 268.545 350.594C268.545 351.001 268.404 351.365 268.128 351.699C267.847 352.022 267.44 352.178 266.899 352.178H253.836C253.279 352.178 252.862 352.022 252.586 351.699C252.321 351.365 252.19 351.001 252.19 350.594C252.19 350.193 252.321 349.834 252.586 349.511C252.862 349.178 253.279 349.011 253.836 349.011H258.399V347.928H253.107C252.55 347.928 252.138 347.761 251.878 347.428C251.612 347.084 251.482 346.719 251.482 346.344C251.482 345.943 251.618 345.574 251.899 345.24C252.175 344.897 252.576 344.719 253.107 344.719H258.399V344.282C258.399 343.865 258.597 343.563 259.003 343.365C259.42 343.157 259.883 343.053 260.399 343.053C260.899 343.053 261.357 343.157 261.774 343.365C262.19 343.563 262.399 343.865 262.399 344.282V344.719H267.836C268.388 344.719 268.8 344.897 269.065 345.24C269.341 345.574 269.482 345.943 269.482 346.344C269.482 346.719 269.341 347.084 269.065 347.428C268.8 347.761 268.388 347.928 267.836 347.928H262.399ZM268.961 358.011C268.961 358.459 268.763 358.782 268.378 358.99C268.003 359.199 267.576 359.303 267.107 359.303C266.659 359.303 266.253 359.193 265.878 358.969C265.503 358.751 265.315 358.417 265.315 357.969V356.219H255.524V358.011C255.524 358.417 255.362 358.719 255.045 358.928C254.722 359.136 254.362 359.256 253.961 359.282C253.555 359.313 253.175 359.24 252.815 359.074C252.451 358.907 252.232 358.647 252.149 358.282C251.982 358.407 251.779 358.501 251.545 358.553C251.321 358.594 251.097 358.589 250.878 358.532C250.654 358.48 250.451 358.381 250.274 358.24C250.107 358.105 250.003 357.917 249.961 357.678C249.946 357.636 249.94 357.594 249.94 357.553C249.94 357.501 249.925 357.449 249.899 357.407C249.732 357.423 249.565 357.438 249.399 357.449C249.243 357.464 249.086 357.48 248.92 357.49C248.946 358.006 248.972 358.73 249.003 359.657C249.029 360.589 249.071 361.61 249.128 362.719C249.18 363.818 249.243 364.943 249.315 366.094C249.399 367.251 249.482 368.324 249.565 369.324C249.607 369.824 249.508 370.23 249.274 370.553C249.034 370.886 248.732 371.136 248.357 371.303C247.993 371.48 247.591 371.563 247.149 371.553C246.701 371.537 246.284 371.449 245.899 371.282C245.524 371.115 245.222 370.865 245.003 370.532C244.779 370.209 244.69 369.808 244.732 369.324C244.841 368.365 244.93 367.313 245.003 366.157C245.086 365.006 245.149 363.897 245.19 362.824C245.243 361.74 245.284 360.756 245.315 359.865C245.357 358.98 245.378 358.303 245.378 357.844C244.946 357.886 244.508 357.917 244.065 357.928C243.633 357.943 243.196 357.969 242.753 358.011C242.263 358.027 241.883 357.881 241.607 357.574C241.326 357.256 241.159 356.902 241.107 356.511C241.065 356.11 241.149 355.751 241.357 355.428C241.565 355.094 241.92 354.923 242.42 354.907C242.597 354.907 242.774 354.907 242.94 354.907C243.118 354.907 243.3 354.897 243.482 354.865C243.815 354.464 244.128 354.084 244.42 353.719C244.722 353.344 245.008 352.969 245.274 352.594C244.701 352.152 244.138 351.73 243.586 351.324C243.045 350.923 242.466 350.506 241.857 350.074C241.451 349.824 241.237 349.506 241.211 349.115C241.18 348.73 241.274 348.365 241.482 348.032C241.69 347.688 241.982 347.428 242.357 347.261C242.743 347.094 243.159 347.11 243.607 347.303C243.982 346.719 244.326 346.147 244.649 345.574C244.966 344.99 245.263 344.402 245.545 343.803C245.722 343.386 246.029 343.136 246.461 343.053C246.904 342.969 247.321 343.001 247.711 343.136C248.112 343.261 248.43 343.501 248.67 343.844C248.904 344.178 248.92 344.553 248.711 344.969C248.071 346.303 247.232 347.699 246.19 349.157C246.368 349.282 246.529 349.417 246.67 349.553C246.821 349.678 246.972 349.803 247.128 349.928C247.628 349.167 248.133 348.318 248.649 347.386C248.899 346.943 249.243 346.688 249.69 346.615C250.133 346.532 250.55 346.584 250.94 346.761C251.326 346.943 251.618 347.214 251.815 347.574C252.024 347.938 252.003 348.324 251.753 348.74C250.513 350.923 249.149 352.902 247.649 354.678C247.925 354.652 248.196 354.636 248.461 354.636C248.722 354.626 248.993 354.594 249.274 354.553C249.232 354.443 249.196 354.334 249.17 354.219C249.154 354.094 249.128 353.969 249.086 353.844C248.972 353.511 249.013 353.235 249.211 353.011C249.42 352.777 249.67 352.615 249.961 352.532C250.263 352.438 250.571 352.438 250.878 352.532C251.18 352.631 251.383 352.839 251.482 353.157C251.618 353.522 251.732 353.865 251.815 354.199C251.909 354.522 252.013 354.86 252.128 355.219V354.99C252.128 353.699 252.857 353.053 254.315 353.053H266.67C267.404 353.053 267.966 353.219 268.357 353.553C268.758 353.876 268.961 354.355 268.961 354.99V358.011ZM244.607 359.719C244.607 360.042 244.607 360.511 244.607 361.136C244.607 361.777 244.591 362.485 244.565 363.261C244.55 364.042 244.534 364.855 244.524 365.699C244.524 366.532 244.503 367.298 244.461 367.99C244.43 368.48 244.232 368.824 243.857 369.032C243.482 369.24 243.076 369.313 242.649 369.261C242.232 369.219 241.857 369.053 241.524 368.761C241.201 368.459 241.086 368.048 241.17 367.532C241.263 366.907 241.357 366.214 241.44 365.449C241.524 364.673 241.607 363.902 241.69 363.136C241.784 362.376 241.862 361.678 241.92 361.053C241.987 360.417 242.029 359.928 242.045 359.594C242.086 359.209 242.237 358.923 242.503 358.74C242.763 358.563 243.055 358.48 243.378 358.49C243.696 358.506 243.982 358.615 244.232 358.824C244.482 359.022 244.607 359.318 244.607 359.719ZM269.545 362.511C269.545 364.277 269.487 365.73 269.378 366.865C269.279 367.99 269.091 368.865 268.815 369.49C268.55 370.126 268.175 370.563 267.69 370.803C267.216 371.053 266.597 371.178 265.836 371.178H264.482C263.3 371.178 262.44 370.917 261.899 370.407C261.357 369.891 261.086 369.032 261.086 367.824V358.219C261.086 357.761 261.274 357.417 261.649 357.178C262.034 356.943 262.466 356.824 262.94 356.824C263.399 356.824 263.815 356.943 264.19 357.178C264.576 357.417 264.774 357.761 264.774 358.219V364.615C264.774 364.813 264.784 364.949 264.815 365.032C264.841 365.115 264.966 365.157 265.19 365.157H265.649C265.774 365.157 265.868 365.131 265.94 365.074C266.024 365.006 266.091 364.876 266.149 364.678C266.201 364.469 266.243 364.188 266.274 363.824C266.3 363.449 266.326 362.959 266.357 362.344C266.357 361.902 266.524 361.574 266.857 361.365C267.19 361.157 267.555 361.063 267.961 361.074C268.362 361.074 268.722 361.193 269.045 361.428C269.378 361.667 269.545 362.027 269.545 362.511ZM259.815 358.261C259.815 360.568 259.758 362.501 259.649 364.053C259.534 365.594 259.279 366.876 258.878 367.886C258.487 368.886 257.904 369.647 257.128 370.178C256.362 370.719 255.321 371.141 254.003 371.449C253.571 371.542 253.154 371.511 252.753 371.344C252.347 371.188 251.993 370.938 251.69 370.594C251.383 370.246 251.149 369.813 250.982 369.303C250.815 368.803 250.763 368.251 250.836 367.636C250.529 367.553 250.274 367.417 250.065 367.219C249.857 367.011 249.753 366.73 249.753 366.365C249.753 365.824 249.753 365.256 249.753 364.657C249.763 364.048 249.763 363.449 249.753 362.865C249.753 362.282 249.743 361.735 249.732 361.219C249.716 360.709 249.696 360.282 249.67 359.949C249.654 359.605 249.753 359.339 249.961 359.157C250.18 358.964 250.425 358.86 250.69 358.844C250.966 358.818 251.232 358.881 251.482 359.032C251.743 359.173 251.904 359.407 251.961 359.74C252.003 360.006 252.05 360.339 252.107 360.74C252.175 361.131 252.243 361.568 252.315 362.053C252.399 362.542 252.466 363.053 252.524 363.594C252.591 364.136 252.659 364.657 252.732 365.157C253.55 364.99 254.18 364.756 254.628 364.449C255.071 364.147 255.404 363.73 255.628 363.199C255.847 362.657 255.982 361.985 256.024 361.178C256.065 360.376 256.086 359.386 256.086 358.219C256.086 357.761 256.279 357.417 256.67 357.178C257.055 356.943 257.487 356.824 257.961 356.824C258.42 356.824 258.841 356.943 259.232 357.178C259.618 357.417 259.815 357.777 259.815 358.261Z" fill="white"/>
<path d="M309.757 364.97C310.158 365.012 310.476 365.215 310.715 365.574C310.95 365.939 311.101 366.366 311.174 366.866C311.241 367.355 311.241 367.882 311.174 368.449C311.116 369.007 310.996 369.517 310.819 369.991C310.637 370.475 310.408 370.855 310.132 371.137C309.866 371.428 309.569 371.553 309.236 371.512C306.845 371.163 304.7 370.751 302.799 370.283C300.908 369.809 299.163 369.178 297.569 368.387C294.121 370.038 289.866 371.079 284.799 371.512C284.424 371.553 284.09 371.413 283.799 371.095C283.507 370.788 283.267 370.408 283.09 369.949C282.924 369.491 282.819 368.98 282.778 368.408C282.736 367.824 282.757 367.293 282.84 366.803C282.934 366.319 283.101 365.902 283.34 365.553C283.59 365.21 283.929 365.027 284.361 365.012C285.679 364.902 286.924 364.777 288.09 364.637C289.257 364.501 290.366 364.324 291.424 364.116C290.741 363.439 290.075 362.72 289.424 361.97C288.767 361.21 288.101 360.361 287.424 359.428C287.226 359.178 287.132 358.918 287.132 358.637C287.132 358.345 287.2 358.074 287.34 357.824C287.476 357.564 287.663 357.335 287.903 357.137C288.153 356.928 288.429 356.777 288.736 356.678H285.965C285.434 356.678 285.049 356.486 284.799 356.095C284.549 355.694 284.424 355.277 284.424 354.845C284.424 354.376 284.549 353.944 284.799 353.553C285.049 353.168 285.434 352.97 285.965 352.97H294.819V349.762H285.111C284.58 349.762 284.179 349.585 283.903 349.22C283.637 348.845 283.507 348.444 283.507 348.012C283.507 347.585 283.637 347.178 283.903 346.803C284.179 346.428 284.58 346.241 285.111 346.241H294.819V344.449C294.819 343.965 295.038 343.605 295.486 343.366C295.944 343.132 296.434 343.012 296.965 343.012C297.517 343.012 298.017 343.132 298.465 343.366C298.924 343.605 299.153 343.965 299.153 344.449V346.241H308.903C309.455 346.241 309.866 346.428 310.132 346.803C310.392 347.178 310.528 347.585 310.528 348.012C310.528 348.444 310.392 348.845 310.132 349.22C309.866 349.585 309.455 349.762 308.903 349.762H299.153V352.97H306.132C306.799 352.97 307.351 353.095 307.799 353.345C308.241 353.595 308.575 353.928 308.799 354.345C309.017 354.762 309.116 355.236 309.09 355.762C309.075 356.293 308.929 356.824 308.653 357.366C307.986 358.673 307.246 359.897 306.444 361.033C305.637 362.158 304.736 363.199 303.736 364.158C304.621 364.324 305.559 364.47 306.549 364.595C307.549 364.72 308.616 364.845 309.757 364.97ZM290.403 356.678C290.637 356.777 290.819 356.918 290.944 357.095C292.038 358.335 293.101 359.366 294.132 360.199C295.174 361.022 296.257 361.699 297.382 362.241C298.715 361.616 299.924 360.855 301.007 359.949C302.09 359.033 303.111 357.944 304.069 356.678H290.403Z" fill="white"/>
<path d="M351.511 365.345C351.928 365.402 352.251 365.595 352.491 365.928C352.741 366.251 352.897 366.647 352.97 367.116C353.053 367.59 353.043 368.095 352.949 368.637C352.866 369.178 352.72 369.668 352.511 370.116C352.303 370.559 352.022 370.913 351.678 371.178C351.345 371.454 350.954 371.564 350.511 371.512C349.329 371.371 348.324 371.158 347.491 370.866C346.657 370.574 345.834 370.21 345.032 369.783C344.168 370.21 343.267 370.574 342.324 370.866C341.376 371.158 340.246 371.376 338.928 371.533C338.537 371.574 338.199 371.491 337.907 371.283C337.616 371.085 337.366 370.814 337.157 370.47C336.959 370.121 336.808 369.725 336.699 369.283C336.6 368.84 336.558 368.408 336.574 367.991C336.199 368.574 335.814 369.111 335.428 369.595C335.121 369.98 334.787 370.189 334.428 370.22C334.064 370.246 333.709 370.158 333.366 369.949C333.017 369.751 332.704 369.475 332.428 369.116C332.147 368.741 331.949 368.335 331.824 367.887C331.699 367.444 331.662 367.007 331.72 366.574C331.787 366.147 331.991 365.762 332.324 365.428C333.293 364.46 334.157 363.241 334.907 361.783C335.657 360.324 336.183 358.73 336.491 356.991H334.553C334.511 357.23 334.397 357.46 334.22 357.678C334.053 357.902 333.814 358.095 333.511 358.262C333.189 358.402 332.871 358.543 332.553 358.678C332.23 358.819 331.912 358.949 331.595 359.074V367.678C331.595 368.428 331.517 369.074 331.366 369.616C331.225 370.168 330.949 370.605 330.532 370.928C330.126 371.246 329.558 371.434 328.824 371.491C328.1 371.559 327.168 371.491 326.032 371.283C325.668 371.21 325.376 370.996 325.157 370.637C324.933 370.288 324.782 369.866 324.699 369.366C324.616 368.866 324.595 368.345 324.636 367.803C324.678 367.251 324.772 366.751 324.928 366.303C325.095 365.845 325.308 365.486 325.574 365.22C325.834 364.96 326.142 364.855 326.491 364.908C327.126 365.033 327.511 365.074 327.636 365.033C327.761 364.98 327.824 364.757 327.824 364.366V360.699L326.782 360.991C326.209 361.132 325.725 361.043 325.324 360.72C324.918 360.387 324.647 359.986 324.511 359.512C324.371 359.043 324.386 358.574 324.553 358.116C324.73 357.647 325.105 357.345 325.678 357.22C326.079 357.111 326.454 357.012 326.803 356.928C327.147 356.845 327.491 356.751 327.824 356.637V351.074H326.241C325.699 351.074 325.287 350.897 325.011 350.533C324.73 350.173 324.595 349.777 324.595 349.345C324.595 348.928 324.73 348.543 325.011 348.178C325.287 347.819 325.699 347.637 326.241 347.637H327.824V344.387C327.824 343.918 328.017 343.569 328.407 343.345C328.808 343.126 329.241 343.012 329.699 343.012C330.183 343.012 330.621 343.126 331.011 343.345C331.397 343.569 331.595 343.902 331.595 344.345V347.637H332.803C333.355 347.637 333.772 347.819 334.053 348.178C334.345 348.543 334.491 348.928 334.491 349.345C334.491 349.777 334.345 350.173 334.053 350.533C333.772 350.897 333.355 351.074 332.803 351.074H331.595V355.303C331.704 355.262 331.803 355.23 331.886 355.199C331.97 355.173 332.064 355.137 332.178 355.095C332.579 354.902 332.949 354.861 333.282 354.97C333.366 354.668 333.517 354.418 333.741 354.22C333.959 354.012 334.261 353.908 334.636 353.908H336.949C336.975 353.741 336.991 353.585 336.991 353.428C337.001 353.262 337.022 353.095 337.053 352.928H335.407C334.933 352.928 334.574 352.777 334.324 352.47C334.084 352.152 333.97 351.814 333.97 351.449C333.97 351.064 334.084 350.715 334.324 350.408C334.574 350.09 334.933 349.928 335.407 349.928H336.157C336.032 349.694 335.876 349.46 335.699 349.22C335.517 348.97 335.345 348.741 335.178 348.533C334.98 348.298 334.907 348.043 334.949 347.762C335.001 347.47 335.121 347.21 335.303 346.97H334.866C334.418 346.97 334.074 346.814 333.824 346.491C333.584 346.158 333.459 345.803 333.449 345.428C333.449 345.043 333.564 344.689 333.803 344.366C334.053 344.033 334.428 343.866 334.928 343.866C336.621 343.866 338.23 343.845 339.761 343.803C341.287 343.762 342.704 343.715 344.011 343.658C345.329 343.59 346.517 343.507 347.574 343.408C348.626 343.298 349.522 343.178 350.261 343.053C350.772 342.97 351.199 343.064 351.532 343.324C351.866 343.59 352.079 343.908 352.178 344.283C352.272 344.658 352.23 345.027 352.053 345.387C351.871 345.751 351.517 345.97 350.991 346.053C350.892 346.085 350.782 346.111 350.657 346.137C350.543 346.152 350.428 346.168 350.303 346.178C350.704 346.345 351.001 346.605 351.199 346.949C351.407 347.283 351.392 347.689 351.157 348.158C350.991 348.465 350.824 348.762 350.657 349.053C350.501 349.335 350.329 349.626 350.136 349.928H350.907C351.407 349.928 351.772 350.09 352.011 350.408C352.261 350.715 352.386 351.064 352.386 351.449C352.386 351.814 352.261 352.152 352.011 352.47C351.761 352.777 351.392 352.928 350.907 352.928H340.72C340.704 353.095 340.689 353.262 340.678 353.428C340.662 353.585 340.647 353.741 340.636 353.908H351.241C351.793 353.908 352.204 354.069 352.47 354.387C352.73 354.71 352.866 355.069 352.866 355.47C352.866 355.845 352.73 356.194 352.47 356.512C352.204 356.835 351.793 356.991 351.241 356.991H340.22C340.204 357.158 340.189 357.335 340.178 357.512C340.162 357.694 340.136 357.866 340.095 358.033H349.574C350.058 358.033 350.433 358.137 350.699 358.345C350.975 358.543 351.168 358.798 351.282 359.116C351.407 359.439 351.459 359.783 351.449 360.158C351.433 360.533 351.376 360.902 351.282 361.262C351.074 362.012 350.845 362.71 350.595 363.345C350.355 363.97 350.079 364.569 349.761 365.137C350.053 365.178 350.334 365.215 350.616 365.241C350.907 365.272 351.204 365.303 351.511 365.345ZM348.178 346.428C347.579 346.501 346.933 346.564 346.241 346.616C345.558 346.673 344.829 346.72 344.053 346.762C344.261 347.027 344.439 347.293 344.595 347.553C344.746 347.819 344.907 348.132 345.074 348.491C345.209 348.772 345.246 349.033 345.178 349.283C345.105 349.522 344.991 349.736 344.824 349.928H346.282C346.626 349.376 346.912 348.876 347.136 348.428C347.355 347.986 347.584 347.501 347.824 346.97C347.866 346.876 347.912 346.783 347.97 346.699C348.037 346.616 348.105 346.527 348.178 346.428ZM341.928 349.928C341.845 349.736 341.709 349.486 341.532 349.178C341.35 348.876 341.178 348.595 341.011 348.345C340.845 348.111 340.793 347.861 340.866 347.595C340.949 347.335 341.095 347.095 341.303 346.887C340.814 346.887 340.324 346.897 339.824 346.908C339.324 346.908 338.803 346.923 338.261 346.949C338.47 347.189 338.642 347.402 338.782 347.595C338.918 347.777 339.074 348.012 339.241 348.303C339.407 348.595 339.454 348.882 339.386 349.158C339.329 349.439 339.199 349.694 338.991 349.928H341.928ZM342.053 361.053C342.928 362.126 343.933 362.986 345.074 363.637C345.616 363.335 346.1 362.965 346.532 362.533C346.975 362.09 347.345 361.595 347.636 361.053H342.053ZM340.386 365.283C340.105 364.908 339.834 364.48 339.574 363.991C339.324 363.491 339.105 362.98 338.928 362.449C338.621 363.548 338.241 364.632 337.782 365.699C337.907 365.647 338.053 365.616 338.22 365.616C339.064 365.59 339.787 365.48 340.386 365.283Z" fill="white"/>
<path d="M389.724 366.303C389.859 366.818 389.869 367.282 389.744 367.699C389.619 368.115 389.354 368.469 388.953 368.761C388.546 369.053 388.067 369.261 387.515 369.386C386.974 369.521 386.437 369.563 385.911 369.511C385.38 369.469 384.911 369.324 384.494 369.074C384.088 368.813 383.812 368.428 383.661 367.928C383.338 366.803 383.02 365.719 382.703 364.678C382.395 363.626 382.083 362.589 381.765 361.574H372.599C372.291 362.589 371.979 363.626 371.661 364.678C371.354 365.719 371.057 366.803 370.765 367.928C370.64 368.428 370.359 368.813 369.932 369.074C369.515 369.324 369.046 369.469 368.536 369.511C368.02 369.563 367.484 369.516 366.932 369.365C366.39 369.225 365.916 369.011 365.515 368.719C365.109 368.417 364.838 368.063 364.703 367.657C364.562 367.24 364.567 366.792 364.724 366.303L373.994 346.053C374.296 345.402 374.744 344.907 375.328 344.574C375.921 344.23 376.546 344.053 377.203 344.053C377.854 344.053 378.474 344.219 379.057 344.553C379.651 344.886 380.109 345.386 380.432 346.053L389.724 366.303ZM380.328 357.365C379.27 354.407 378.229 351.792 377.203 349.511C376.671 350.678 376.145 351.917 375.619 353.219C375.088 354.527 374.562 355.907 374.036 357.365H380.328Z" fill="white"/>
<path d="M423.235 352.511C423.235 353.001 423.037 353.365 422.652 353.615C422.261 353.855 421.839 353.969 421.381 353.969C420.933 353.969 420.511 353.855 420.11 353.615C419.719 353.365 419.527 353.001 419.527 352.511V345.49C419.527 344.98 419.719 344.605 420.11 344.365C420.511 344.115 420.933 343.99 421.381 343.99C421.839 343.99 422.261 344.115 422.652 344.365C423.037 344.605 423.235 344.98 423.235 345.49V352.511ZM428.86 355.157C428.86 355.855 428.745 356.449 428.527 356.949C428.303 357.438 427.923 357.818 427.381 358.094C426.839 358.376 426.11 358.532 425.193 358.574C424.277 358.615 423.115 358.542 421.714 358.344C421.141 358.261 420.735 358.006 420.485 357.574C420.245 357.146 420.152 356.693 420.193 356.219C420.235 355.735 420.423 355.318 420.756 354.969C421.089 354.626 421.516 354.49 422.048 354.574C422.631 354.657 423.1 354.73 423.464 354.782C423.839 354.824 424.131 354.834 424.339 354.803C424.558 354.777 424.714 354.719 424.798 354.636C424.881 354.542 424.923 354.396 424.923 354.199V344.469C424.923 343.985 425.12 343.615 425.527 343.365C425.943 343.115 426.391 342.99 426.881 342.99C427.365 342.99 427.818 343.115 428.235 343.365C428.652 343.615 428.86 343.985 428.86 344.469V355.157ZM403.131 370.928C402.766 370.928 402.464 370.782 402.214 370.49C401.975 370.199 401.798 369.829 401.673 369.386C401.558 368.943 401.506 368.464 401.506 367.949C401.506 367.449 401.558 366.98 401.673 366.532C401.798 366.089 401.975 365.719 402.214 365.428C402.464 365.126 402.766 364.969 403.131 364.969H413.256V362.719H405.089C404.532 362.719 404.115 362.548 403.839 362.199C403.574 361.839 403.443 361.443 403.443 361.011C403.443 360.594 403.574 360.209 403.839 359.844C404.115 359.485 404.532 359.303 405.089 359.303H413.256V358.615C413.256 358.313 413.37 358.068 413.61 357.886C413.245 357.792 412.933 357.657 412.673 357.49C412.407 357.324 412.277 357.094 412.277 356.803V353.324H408.86C408.652 354.48 408.318 355.48 407.86 356.324C407.402 357.173 406.699 357.938 405.756 358.615C405.282 358.949 404.787 359.048 404.277 358.907C403.761 358.771 403.318 358.527 402.943 358.178C402.579 357.834 402.35 357.428 402.256 356.969C402.173 356.511 402.344 356.131 402.777 355.824C403.428 355.339 403.923 354.928 404.256 354.594C404.6 354.251 404.86 353.824 405.027 353.324H403.464C402.964 353.324 402.579 353.157 402.318 352.824C402.053 352.48 401.923 352.105 401.923 351.699C401.923 351.298 402.053 350.928 402.318 350.594C402.579 350.251 402.964 350.074 403.464 350.074H405.318V347.219H404.173C403.641 347.219 403.245 347.053 402.985 346.719C402.719 346.386 402.589 346.027 402.589 345.636C402.589 345.251 402.719 344.886 402.985 344.553C403.245 344.209 403.641 344.032 404.173 344.032H417.068C417.594 344.032 417.99 344.209 418.256 344.553C418.516 344.886 418.652 345.251 418.652 345.636C418.652 346.027 418.516 346.386 418.256 346.719C417.99 347.053 417.594 347.219 417.068 347.219H416.214V350.074H417.61C418.11 350.074 418.485 350.251 418.735 350.594C418.995 350.928 419.131 351.298 419.131 351.699C419.131 352.105 418.995 352.48 418.735 352.824C418.485 353.157 418.11 353.324 417.61 353.324H416.214V356.803C416.214 356.902 416.193 357.001 416.152 357.094C416.11 357.178 416.053 357.271 415.985 357.365C416.469 357.407 416.891 357.542 417.256 357.761C417.615 357.969 417.798 358.256 417.798 358.615V359.303H426.485C427.027 359.303 427.428 359.485 427.693 359.844C427.954 360.209 428.089 360.594 428.089 361.011C428.089 361.443 427.954 361.839 427.693 362.199C427.428 362.548 427.027 362.719 426.485 362.719H417.798V364.969H428.402C428.761 364.969 429.058 365.126 429.298 365.428C429.548 365.719 429.725 366.089 429.839 366.532C429.964 366.98 430.027 367.449 430.027 367.949C430.027 368.464 429.964 368.943 429.839 369.386C429.725 369.829 429.548 370.199 429.298 370.49C429.058 370.782 428.761 370.928 428.402 370.928H403.131ZM412.277 347.219H409.089V350.074H412.277V347.219Z" fill="white"/>
<path d="M452.343 357.24C452.343 357.615 452.265 357.98 452.114 358.324C451.973 358.657 451.77 358.959 451.51 359.219C451.244 359.469 450.937 359.673 450.593 359.824C450.26 359.964 449.895 360.032 449.51 360.032C449.135 360.032 448.77 359.964 448.426 359.824C448.093 359.673 447.791 359.469 447.531 359.219C447.265 358.959 447.057 358.657 446.906 358.324C446.765 357.98 446.697 357.615 446.697 357.24C446.697 356.865 446.765 356.511 446.906 356.178C447.057 355.834 447.265 355.527 447.531 355.261C447.791 355.001 448.093 354.798 448.426 354.657C448.77 354.506 449.135 354.428 449.51 354.428C449.895 354.428 450.26 354.506 450.593 354.657C450.937 354.798 451.244 355.001 451.51 355.261C451.77 355.527 451.973 355.834 452.114 356.178C452.265 356.511 452.343 356.865 452.343 357.24Z" fill="white"/>
<path d="M491.67 360.887C491.67 363.678 490.879 365.757 489.295 367.116C487.722 368.48 485.238 369.158 481.837 369.158H473.254C470.972 369.158 469.837 368.022 469.837 365.741V347.512C469.837 345.47 470.972 344.449 473.254 344.449H481.274C484.326 344.449 486.629 344.944 488.17 345.928C489.712 346.902 490.483 348.397 490.483 350.408C490.483 351.283 490.285 352.095 489.899 352.845C489.509 353.585 488.826 354.152 487.858 354.553C488.993 355.001 489.91 355.793 490.608 356.928C491.316 358.053 491.67 359.376 491.67 360.887ZM485.92 350.741C485.92 349.366 484.462 348.678 481.545 348.678H474.545C474.462 348.678 474.42 348.715 474.42 348.783V352.928H481.941C483.243 352.928 484.233 352.762 484.899 352.428C485.576 352.095 485.92 351.533 485.92 350.741ZM486.879 360.095C486.879 359.053 486.462 358.314 485.629 357.866C484.806 357.408 483.556 357.178 481.879 357.178H474.42V362.699C474.42 363.033 474.597 363.199 474.962 363.199H481.879C483.681 363.199 484.967 362.944 485.733 362.428C486.493 361.918 486.879 361.137 486.879 360.095Z" fill="white"/>
<path d="M525.843 352.511C525.843 353.001 525.646 353.365 525.26 353.615C524.869 353.855 524.448 353.969 523.989 353.969C523.541 353.969 523.119 353.855 522.718 353.615C522.328 353.365 522.135 353.001 522.135 352.511V345.49C522.135 344.98 522.328 344.605 522.718 344.365C523.119 344.115 523.541 343.99 523.989 343.99C524.448 343.99 524.869 344.115 525.26 344.365C525.646 344.605 525.843 344.98 525.843 345.49V352.511ZM531.468 355.157C531.468 355.855 531.354 356.449 531.135 356.949C530.911 357.438 530.531 357.818 529.989 358.094C529.448 358.376 528.718 358.532 527.802 358.574C526.885 358.615 525.724 358.542 524.323 358.344C523.75 358.261 523.343 358.006 523.093 357.574C522.854 357.146 522.76 356.693 522.802 356.219C522.843 355.735 523.031 355.318 523.364 354.969C523.698 354.626 524.125 354.49 524.656 354.574C525.239 354.657 525.708 354.73 526.073 354.782C526.448 354.824 526.739 354.834 526.948 354.803C527.166 354.777 527.323 354.719 527.406 354.636C527.489 354.542 527.531 354.396 527.531 354.199V344.469C527.531 343.985 527.729 343.615 528.135 343.365C528.552 343.115 529 342.99 529.489 342.99C529.974 342.99 530.427 343.115 530.843 343.365C531.26 343.615 531.468 343.985 531.468 344.469V355.157ZM505.739 370.928C505.375 370.928 505.073 370.782 504.823 370.49C504.583 370.199 504.406 369.829 504.281 369.386C504.166 368.943 504.114 368.464 504.114 367.949C504.114 367.449 504.166 366.98 504.281 366.532C504.406 366.089 504.583 365.719 504.823 365.428C505.073 365.126 505.375 364.969 505.739 364.969H515.864V362.719H507.698C507.14 362.719 506.724 362.548 506.448 362.199C506.182 361.839 506.052 361.443 506.052 361.011C506.052 360.594 506.182 360.209 506.448 359.844C506.724 359.485 507.14 359.303 507.698 359.303H515.864V358.615C515.864 358.313 515.979 358.068 516.218 357.886C515.854 357.792 515.541 357.657 515.281 357.49C515.015 357.324 514.885 357.094 514.885 356.803V353.324H511.468C511.26 354.48 510.927 355.48 510.468 356.324C510.01 357.173 509.307 357.938 508.364 358.615C507.89 358.949 507.396 359.048 506.885 358.907C506.369 358.771 505.927 358.527 505.552 358.178C505.187 357.834 504.958 357.428 504.864 356.969C504.781 356.511 504.953 356.131 505.385 355.824C506.036 355.339 506.531 354.928 506.864 354.594C507.208 354.251 507.468 353.824 507.635 353.324H506.073C505.573 353.324 505.187 353.157 504.927 352.824C504.661 352.48 504.531 352.105 504.531 351.699C504.531 351.298 504.661 350.928 504.927 350.594C505.187 350.251 505.573 350.074 506.073 350.074H507.927V347.219H506.781C506.25 347.219 505.854 347.053 505.593 346.719C505.328 346.386 505.198 346.027 505.198 345.636C505.198 345.251 505.328 344.886 505.593 344.553C505.854 344.209 506.25 344.032 506.781 344.032H519.677C520.203 344.032 520.599 344.209 520.864 344.553C521.125 344.886 521.26 345.251 521.26 345.636C521.26 346.027 521.125 346.386 520.864 346.719C520.599 347.053 520.203 347.219 519.677 347.219H518.823V350.074H520.218C520.718 350.074 521.093 350.251 521.343 350.594C521.604 350.928 521.739 351.298 521.739 351.699C521.739 352.105 521.604 352.48 521.343 352.824C521.093 353.157 520.718 353.324 520.218 353.324H518.823V356.803C518.823 356.902 518.802 357.001 518.76 357.094C518.718 357.178 518.661 357.271 518.593 357.365C519.078 357.407 519.5 357.542 519.864 357.761C520.224 357.969 520.406 358.256 520.406 358.615V359.303H529.093C529.635 359.303 530.036 359.485 530.302 359.844C530.562 360.209 530.698 360.594 530.698 361.011C530.698 361.443 530.562 361.839 530.302 362.199C530.036 362.548 529.635 362.719 529.093 362.719H520.406V364.969H531.01C531.369 364.969 531.666 365.126 531.906 365.428C532.156 365.719 532.333 366.089 532.448 366.532C532.573 366.98 532.635 367.449 532.635 367.949C532.635 368.464 532.573 368.943 532.448 369.386C532.333 369.829 532.156 370.199 531.906 370.49C531.666 370.782 531.369 370.928 531.01 370.928H505.739ZM514.885 347.219H511.698V350.074H514.885V347.219Z" fill="white"/>
<path d="M572.848 360.282V362.782C572.848 364.365 571.978 365.157 570.243 365.157H562.639V366.719C562.639 367.709 562.556 368.553 562.389 369.261C562.223 369.969 561.785 370.511 561.077 370.886C560.368 371.271 559.296 371.49 557.868 371.532C556.452 371.574 554.483 371.428 551.973 371.094C551.483 371.021 551.087 370.824 550.785 370.49C550.493 370.167 550.285 369.782 550.16 369.324C550.035 368.881 549.993 368.407 550.035 367.907C550.087 367.407 550.228 366.959 550.452 366.553C550.671 366.152 550.973 365.834 551.348 365.594C551.723 365.344 552.171 365.261 552.702 365.344C554.02 365.542 555.046 365.678 555.785 365.761C556.535 365.834 557.087 365.855 557.452 365.824C557.811 365.782 558.025 365.714 558.098 365.615C558.165 365.506 558.202 365.355 558.202 365.157H548.598C548.098 365.157 547.712 364.959 547.452 364.553C547.202 364.136 547.077 363.678 547.077 363.178C547.077 362.667 547.202 362.209 547.452 361.803C547.712 361.386 548.098 361.178 548.598 361.178H558.368V360.282H547.139C546.681 360.282 546.337 360.157 546.118 359.907C545.895 359.657 545.785 359.376 545.785 359.053C545.785 358.735 545.895 358.449 546.118 358.199C546.337 357.938 546.681 357.803 547.139 357.803H558.368V356.949H548.535C548.035 356.949 547.65 356.818 547.389 356.553C547.139 356.292 547.014 356.011 547.014 355.719C547.014 355.402 547.139 355.11 547.389 354.844C547.65 354.584 548.035 354.449 548.535 354.449H558.368V353.699H550.118C548.686 353.699 547.973 353.074 547.973 351.824V349.865C547.973 348.631 548.686 348.011 550.118 348.011H558.368V347.219H547.91C547.353 347.219 546.936 347.084 546.66 346.803C546.395 346.511 546.264 346.214 546.264 345.907C546.264 345.563 546.395 345.251 546.66 344.969C546.936 344.678 547.353 344.532 547.91 344.532H558.368V343.99C558.368 343.657 558.566 343.407 558.973 343.24C559.389 343.074 559.853 342.99 560.368 342.99C560.868 342.99 561.327 343.074 561.743 343.24C562.16 343.407 562.368 343.657 562.368 343.99V344.532H572.223C572.764 344.532 573.171 344.678 573.452 344.969C573.728 345.251 573.868 345.563 573.868 345.907C573.868 346.214 573.728 346.511 573.452 346.803C573.171 347.084 572.764 347.219 572.223 347.219H562.368V348.011H570.181C571.639 348.011 572.368 348.631 572.368 349.865V351.824C572.368 353.074 571.639 353.699 570.181 353.699H562.368V354.449H570.243C571.118 354.449 571.77 354.589 572.202 354.865C572.629 355.146 572.848 355.667 572.848 356.428V357.803H573.41C573.712 357.803 573.936 357.938 574.077 358.199C574.228 358.449 574.306 358.735 574.306 359.053C574.306 359.376 574.228 359.657 574.077 359.907C573.936 360.157 573.712 360.282 573.41 360.282H572.848ZM568.577 350.344H562.368V351.324H568.577V350.344ZM558.368 350.344H551.785V351.324H558.368V350.344ZM569.139 356.949H562.368V357.803H569.139V356.949ZM569.139 360.282H562.368V361.178H569.139V360.282Z" fill="white"/>
<path d="M614.622 364.783C615.039 364.855 615.357 365.053 615.581 365.387C615.799 365.72 615.935 366.132 615.976 366.616C616.018 367.09 615.982 367.585 615.872 368.095C615.773 368.611 615.612 369.074 615.393 369.491C615.185 369.918 614.935 370.262 614.643 370.512C614.351 370.772 614.029 370.866 613.685 370.783C612.695 370.559 611.789 370.309 610.956 370.033C610.122 369.767 609.32 369.454 608.56 369.095C607.794 368.736 607.065 368.34 606.372 367.908C605.674 367.48 604.982 367.001 604.289 366.47C604.299 366.512 604.341 366.668 604.414 366.928C604.497 367.194 604.601 367.548 604.726 367.991C604.851 368.439 604.956 368.814 605.039 369.116C605.164 369.658 605.065 370.1 604.747 370.449C604.44 370.793 604.008 371.059 603.456 371.241C602.914 371.418 602.315 371.512 601.664 371.512C601.023 371.522 600.424 371.449 599.872 371.283C599.331 371.116 598.898 370.85 598.581 370.491C598.258 370.126 598.164 369.668 598.289 369.116C598.357 368.814 598.461 368.444 598.601 368.012C598.737 367.569 598.851 367.215 598.935 366.949C599.029 366.673 599.091 366.512 599.122 366.47C598.398 367.085 597.685 367.611 596.976 368.053C596.268 368.501 595.544 368.887 594.81 369.22C594.07 369.553 593.289 369.835 592.456 370.074C591.633 370.324 590.732 370.559 589.747 370.783C589.398 370.866 589.081 370.772 588.789 370.512C588.497 370.262 588.237 369.918 588.018 369.491C587.81 369.074 587.648 368.611 587.539 368.095C587.44 367.585 587.414 367.09 587.456 366.616C587.497 366.132 587.627 365.72 587.851 365.387C588.07 365.053 588.393 364.855 588.81 364.783C589.529 364.673 590.32 364.553 591.185 364.428C592.06 364.293 592.935 364.147 593.81 363.991C594.685 363.824 595.523 363.647 596.331 363.449C597.133 363.241 597.82 363.033 598.393 362.824H589.206C588.674 362.824 588.279 362.673 588.018 362.366C587.768 362.064 587.643 361.73 587.643 361.366C587.643 360.98 587.768 360.632 588.018 360.324C588.279 360.022 588.674 359.866 589.206 359.866H599.664V358.803H590.997C590.466 358.803 590.07 358.658 589.81 358.366C589.544 358.064 589.419 357.736 589.435 357.387C589.445 357.043 589.586 356.73 589.851 356.449C590.112 356.158 590.497 356.012 590.997 356.012H599.664V354.97H590.206C589.674 354.97 589.289 354.819 589.039 354.512C588.789 354.194 588.664 353.845 588.664 353.47C588.664 353.095 588.789 352.757 589.039 352.449C589.289 352.147 589.674 351.991 590.206 351.991H595.476C595.351 351.689 595.216 351.402 595.081 351.137C594.956 350.876 594.831 350.652 594.706 350.47H588.976C588.476 350.47 588.091 350.303 587.831 349.97C587.581 349.637 587.456 349.283 587.456 348.908C587.456 348.507 587.581 348.147 587.831 347.824C588.091 347.491 588.476 347.324 588.976 347.324H591.289C591.122 347.09 590.945 346.855 590.768 346.616C590.586 346.366 590.393 346.116 590.185 345.866C589.862 345.491 589.799 345.116 589.997 344.741C590.206 344.366 590.523 344.064 590.956 343.824C591.383 343.574 591.851 343.449 592.351 343.449C592.851 343.439 593.237 343.611 593.518 343.97C593.851 344.387 594.211 344.923 594.601 345.574C594.987 346.215 595.32 346.798 595.601 347.324H596.706V344.116C596.706 343.772 596.904 343.501 597.31 343.303C597.726 343.111 598.174 343.012 598.664 343.012C599.148 343.012 599.601 343.111 600.018 343.303C600.435 343.501 600.643 343.772 600.643 344.116V347.324H602.643V344.116C602.643 343.772 602.851 343.501 603.268 343.303C603.685 343.111 604.148 343.012 604.664 343.012C605.19 343.012 605.664 343.111 606.081 343.303C606.508 343.501 606.726 343.772 606.726 344.116V347.324H608.06C608.351 346.882 608.654 346.382 608.976 345.824C609.31 345.257 609.612 344.699 609.893 344.158C610.101 343.715 610.445 343.465 610.935 343.408C611.419 343.355 611.883 343.423 612.331 343.616C612.773 343.814 613.127 344.105 613.393 344.491C613.654 344.866 613.664 345.272 613.414 345.699C613.247 346.007 613.07 346.298 612.893 346.574C612.726 346.84 612.56 347.09 612.393 347.324H614.331C614.831 347.324 615.216 347.491 615.497 347.824C615.789 348.147 615.94 348.501 615.956 348.887C615.966 349.277 615.841 349.637 615.581 349.97C615.315 350.303 614.898 350.47 614.331 350.47H608.851C608.779 350.694 608.695 350.939 608.601 351.199C608.502 351.449 608.393 351.715 608.268 351.991H613.185C613.711 351.991 614.107 352.147 614.372 352.449C614.633 352.757 614.768 353.095 614.768 353.47C614.768 353.845 614.633 354.194 614.372 354.512C614.107 354.819 613.711 354.97 613.185 354.97H603.747V356.012H612.393C612.904 356.012 613.294 356.158 613.56 356.449C613.82 356.73 613.956 357.043 613.956 357.387C613.966 357.736 613.841 358.064 613.581 358.366C613.315 358.658 612.919 358.803 612.393 358.803H603.747V359.866H614.206C614.732 359.866 615.127 360.022 615.393 360.324C615.654 360.632 615.789 360.98 615.789 361.366C615.789 361.73 615.654 362.064 615.393 362.366C615.127 362.673 614.732 362.824 614.206 362.824H605.101C605.669 363.033 606.357 363.241 607.164 363.449C607.966 363.647 608.799 363.824 609.664 363.991C610.539 364.147 611.398 364.293 612.247 364.428C613.107 364.553 613.898 364.673 614.622 364.783ZM598.81 350.47C598.904 350.694 599.008 350.939 599.122 351.199C599.247 351.465 599.362 351.73 599.476 351.991H604.226C604.362 351.73 604.487 351.465 604.601 351.199C604.711 350.939 604.815 350.694 604.914 350.47H598.81Z" fill="white"/>
<path d="M630.772 346.948C630.241 346.948 629.84 346.777 629.564 346.428C629.298 346.084 629.168 345.693 629.168 345.261C629.168 344.818 629.298 344.422 629.564 344.073C629.84 343.73 630.241 343.553 630.772 343.553H641.585C642.126 343.553 642.533 343.73 642.814 344.073C643.09 344.422 643.231 344.818 643.231 345.261C643.231 345.693 643.095 346.084 642.835 346.428C642.569 346.777 642.158 346.948 641.606 346.948H630.772ZM654.439 354.615L654.543 355.886C654.585 356.735 654.658 357.834 654.772 359.178C654.897 360.527 655.053 362.053 655.251 363.761C655.46 365.459 655.694 367.172 655.96 368.907C656.069 369.49 655.949 369.974 655.606 370.365C655.272 370.766 654.835 371.058 654.293 371.24C653.762 371.433 653.168 371.521 652.501 371.511C651.845 371.511 651.251 371.412 650.71 371.219C650.178 371.021 649.751 370.73 649.418 370.344C649.095 369.954 648.981 369.474 649.064 368.907C649.356 367.172 649.59 365.459 649.772 363.761C649.965 362.053 650.116 360.527 650.231 359.178C650.356 357.834 650.449 356.735 650.522 355.886L650.585 354.615H647.501C647.501 356.73 647.465 358.532 647.397 360.032C647.324 361.532 647.199 362.865 647.022 364.032C646.84 365.188 646.595 366.23 646.293 367.157C646.001 368.089 645.632 369.053 645.189 370.053C644.908 370.636 644.522 371.032 644.022 371.24C643.533 371.459 643.007 371.532 642.439 371.448C641.866 371.376 641.314 371.183 640.772 370.865C640.231 370.542 639.793 370.157 639.46 369.698C639.126 369.251 638.923 368.761 638.856 368.219C638.783 367.678 638.949 367.146 639.356 366.615C640.106 365.631 640.741 364.657 641.272 363.698C641.814 362.73 642.262 361.714 642.626 360.657C642.986 359.605 643.257 358.48 643.439 357.282C643.616 356.089 643.71 354.777 643.71 353.344V347.094C643.71 345.251 644.741 344.313 646.814 344.282C647.423 344.256 648.085 344.23 648.793 344.198C649.501 344.172 650.199 344.131 650.897 344.073C651.59 344.006 652.251 343.922 652.876 343.823C653.501 343.73 654.033 343.615 654.481 343.49C655.007 343.339 655.465 343.407 655.856 343.698C656.241 343.98 656.507 344.334 656.647 344.761C656.783 345.178 656.772 345.61 656.606 346.053C656.449 346.485 656.106 346.771 655.564 346.907C655.048 347.032 654.449 347.146 653.772 347.24C653.106 347.339 652.402 347.422 651.668 347.49C650.944 347.547 650.231 347.594 649.522 347.636C648.814 347.678 648.178 347.698 647.626 347.698C647.569 347.698 647.543 347.735 647.543 347.803V351.136H656.064C656.59 351.136 656.986 351.318 657.251 351.678C657.512 352.027 657.647 352.422 657.647 352.865C657.647 353.313 657.512 353.714 657.251 354.073C656.986 354.438 656.59 354.615 656.064 354.615H654.439ZM642.522 357.428C642.522 359.011 641.647 359.803 639.897 359.803H634.981C634.981 360.443 634.991 361.219 635.022 362.136C635.064 363.042 635.085 363.985 635.085 364.969C635.085 365.943 635.043 366.902 634.96 367.844C634.876 368.792 634.71 369.594 634.46 370.261C634.277 370.73 633.986 371.063 633.585 371.261C633.194 371.469 632.757 371.553 632.272 371.511C631.798 371.469 631.319 371.329 630.835 371.094C630.345 370.855 629.939 370.537 629.606 370.136C629.272 369.73 629.043 369.266 628.918 368.74C628.803 368.198 628.876 367.626 629.126 367.011C629.569 365.902 629.928 364.672 630.21 363.323C630.486 361.98 630.626 360.334 630.626 358.386V350.407C630.626 348.865 631.486 348.094 633.21 348.094H639.897C641.647 348.094 642.522 348.865 642.522 350.407V357.428ZM638.626 351.386H634.522V355.886H638.626V351.386Z" fill="white"/>
<path d="M416.317 125.97L473.677 1.99966" stroke="white" stroke-width="3" stroke-linecap="round"/>
<path d="M461.17 166.964L584.797 108.869" stroke="white" stroke-width="3" stroke-linecap="round"/>
<path d="M466.048 197.187H604" stroke="white" stroke-width="3" stroke-linecap="round"/>
<path d="M442.435 140.48L512.746 75.72" stroke="white" stroke-width="3" stroke-linecap="round"/>
<path d="M453.641 153.351L494.347 125.596" stroke="white" stroke-width="3" stroke-linecap="round"/>
<path d="M498.569 122.658L504.12 118.958" stroke="white" stroke-width="3" stroke-linecap="round"/>
<path d="M403.303 122.459L414.405 72.5009" stroke="white" stroke-width="3" stroke-linecap="round"/>
<path d="M416.255 67.1074L417.524 61.3956" stroke="white" stroke-width="3" stroke-linecap="round"/>
<path d="M362.162 125.97L304.803 1.99966" stroke="white" stroke-width="3" stroke-linecap="round"/>
<path d="M317.309 166.964L193.682 108.869" stroke="white" stroke-width="3" stroke-linecap="round"/>
<path d="M311.952 197.187H174" stroke="white" stroke-width="3" stroke-linecap="round"/>
<path d="M336.045 140.48L265.734 75.72" stroke="white" stroke-width="3" stroke-linecap="round"/>
<path d="M324.838 153.351L284.131 125.596" stroke="white" stroke-width="3" stroke-linecap="round"/>
<path d="M278.897 121.888L273.347 118.187" stroke="white" stroke-width="3" stroke-linecap="round"/>
<path d="M312.759 182.989L265.307 169.735" stroke="white" stroke-width="3" stroke-linecap="round"/>
<path d="M259.164 167.9L252.72 166.173" stroke="white" stroke-width="3" stroke-linecap="round"/>
<path d="M468.717 182.989L516.168 169.735" stroke="white" stroke-width="3" stroke-linecap="round"/>
<path d="M522.313 167.9L528.757 166.173" stroke="white" stroke-width="3" stroke-linecap="round"/>
<path d="M431.184 131.889L458.037 90.5818" stroke="white" stroke-width="3" stroke-linecap="round"/>
<path d="M461.435 85.1445L465.129 79.5894" stroke="white" stroke-width="3" stroke-linecap="round"/>
<path d="M346.406 131.889L319.553 90.5818" stroke="white" stroke-width="3" stroke-linecap="round"/>
<path d="M316.153 85.1436L312.459 79.5884" stroke="white" stroke-width="3" stroke-linecap="round"/>
<path d="M375.178 122.459L364.076 72.5009" stroke="white" stroke-width="3" stroke-linecap="round"/>
<path d="M362.226 67.1074L360.956 61.3956" stroke="white" stroke-width="3" stroke-linecap="round"/>
<path d="M389.733 120.874V28.4169" stroke="white" stroke-width="3" stroke-linecap="round"/>
</svg>
