<svg xmlns="http://www.w3.org/2000/svg" width="120.068" height="40.352" viewBox="0 0 120.068 40.352">
  <path id="パス_47137" data-name="パス 47137" d="M34.684-2.184c0-.208-.26-.364-.468-.364a3.134,3.134,0,0,0-1.144.468c-.468.208-.884.364-1.352.624-.676.416-1.508.468-2.236.884a3.488,3.488,0,0,1-2.028.52C26.78-.052,26.1-.1,26.1-.624c0-1.976,1.612-2.7,1.612-3.536a1.8,1.8,0,0,0-1.768-1.612c-1.04,0-1.508,1.092-2.34,1.2-1.3.208-3.484,1.924-4.42,1.924-.156,0-.208-.052-.208-.208,0-.468.468-.988.468-1.352,0-.728-1.56-1.4-2.184-1.4-.78,0-1.352.78-2.5.78-1.2.052-2.028,1.144-3.016,1.664a5.244,5.244,0,0,0-.936.468c-.364,0-.676.156-.988.156S9.36-2.7,9.36-2.964c0-.52.312-.988.312-1.456,0-.728-1.04-.884-1.56-1.04-.52-.1-.26-.364-.78-.364C5.824-5.824,3.8-3.952,2.6-3.12A10.635,10.635,0,0,1,.988-2.08.8.8,0,0,0,.52-1.4c0,.26.26.364.52.364.832,0,1.716-.988,2.652-1.2,1.04-.208,1.2-1.352,2.756-1.352.364,0,.624.1.624.52A4.613,4.613,0,0,1,6.032-.52a.881.881,0,0,0-.468.728c0,.364,1.092.988,1.456.988C7.644,1.2,8.372.1,8.84-.26a8.711,8.711,0,0,1,2.6-1.3,3.849,3.849,0,0,0,2.08-.832,2.475,2.475,0,0,1,1.3-.468c.572,0,.988.26.988.832,0,1.092-1.352,1.352-1.352,2.288,0,.572,1.4,1.2,1.4,1.2a1.014,1.014,0,0,0,.416-.052C17,1.3,17.16.1,17.836-.312a18.462,18.462,0,0,1,2.236-1.2c.572-.26,1.2-.832,1.82-.832,1.092,0,1.248-.572,1.924-.572.208,0,.572.052.572.312a6.273,6.273,0,0,0-.416,1.508A2.225,2.225,0,0,0,26.1,1.248c.312,0,.572-.1.884-.1.208,0,.416.052.624.052,1.872,0,3.692-1.4,5.356-2.08C33.332-1.04,34.684-1.612,34.684-2.184ZM39.312-5.46c0,.312-.884.832-1.144,1.092s-.676.26-.988.468c-.1.052-.26.208-.364.208s-.1-.052-.1-.1c0-.208.468-.624.624-.78A2.776,2.776,0,0,1,39.1-5.564C39.208-5.564,39.312-5.564,39.312-5.46ZM46.28-2.08a.425.425,0,0,0-.468-.416c-.832,0-2.964,1.508-4.056,1.612S39.78.156,38.168.156c-.936,0-2.236-.832-2.236-1.82,0-.572,1.976-1.04,2.392-1.456C39.468-4.16,41.08-4.108,41.08-6.4c0-.78-.468-.884-1.092-.884H39.52c-1.04,0-1.976.936-2.86,1.456A5.4,5.4,0,0,0,34.684-3.9c-.728,1.04-.936,1.508-2.028,2.08-.156.156-.416.312-.416.572a.472.472,0,0,0,.52.416c.468,0,.572,1.2,2.132,1.664a5.081,5.081,0,0,1,1.56.572,2.3,2.3,0,0,0,1.144.26A17.711,17.711,0,0,0,43.316-.26a9.538,9.538,0,0,1,1.56-.936C45.24-1.3,46.28-1.612,46.28-2.08Zm4.368-3.38c0,.312-.884.832-1.144,1.092s-.676.26-.988.468c-.1.052-.26.208-.364.208s-.1-.052-.1-.1c0-.208.468-.624.624-.78a2.776,2.776,0,0,1,1.768-.988C50.544-5.564,50.648-5.564,50.648-5.46Zm6.968,3.38a.425.425,0,0,0-.468-.416c-.832,0-2.964,1.508-4.056,1.612S51.116.156,49.5.156c-.936,0-2.236-.832-2.236-1.82,0-.572,1.976-1.04,2.392-1.456C50.8-4.16,52.416-4.108,52.416-6.4c0-.78-.468-.884-1.092-.884h-.468c-1.04,0-1.976.936-2.86,1.456A5.4,5.4,0,0,0,46.02-3.9c-.728,1.04-.936,1.508-2.028,2.08-.156.156-.416.312-.416.572a.472.472,0,0,0,.52.416c.468,0,.572,1.2,2.132,1.664a5.081,5.081,0,0,1,1.56.572,2.3,2.3,0,0,0,1.144.26A17.711,17.711,0,0,0,54.652-.26a9.538,9.538,0,0,1,1.56-.936C56.576-1.3,57.616-1.612,57.616-2.08Zm36.66-10.244c0-.572-.364-.676-.728-.676-.676,0-1.248.312-1.872.312-.832,0-1.664-.156-2.5-.156-.468,0-.884.208-1.4.208-.312,0-.624-.052-.988-.052-.572,0-1.144.156-1.768.156-.676,0-1.3-.208-1.976-.208-.468,0-.936.1-1.456.1-.728,0-1.508-.156-2.236-.156-.624,0-1.2.208-1.82.208-.78,0-1.612-.1-2.392-.1-.156,0-.624.052-1.092.052-.624,0-1.3-.1-1.3-.416,0-.1.156-.1.208-.156.468-.1,1.092-1.508,1.716-1.924a6.122,6.122,0,0,0,1.456-2.34A.783.783,0,0,0,75.4-18.2c-.624,0-1.56.78-2.184,1.04-.78.364-1.04,1.248-1.768,1.508s-.728.884-1.82,1.248c-1.352.52-.624,1.56-2.912,1.56-.572,0-1.2-.1-1.768-.1-.676,0-1.3.26-1.924.26-1.144,0-2.288-.052-3.38-.052-.884,0-1.716.052-2.6.052-.312,0-.624-.1-.936-.1-.572,0-.676.364-.676.832,0,.416.468.468.78.468.676,0,1.352-.052,2.08-.052.416,0,.364.1.78.1.208,0,.52-.156.676-.156.208,0,.364.052.572.052.416,0,.832-.156,1.248-.156h1.144a5.286,5.286,0,0,1,1.352.1,14.184,14.184,0,0,1,2.132.156c.052.052.1.1.1.156,0,.1-1.924,2.132-2.184,2.392-.884.832-1.4,1.924-2.5,2.6-.78.468-1.4,1.2-2.132,1.664s-1.352,1.092-2.08,1.56c-.416.312-2.5,1.352-2.5,1.768,0,.26.312.416.52.416a2.008,2.008,0,0,0,1.04-.416,12.03,12.03,0,0,1,1.82-.936c.572-.208.832-.78,1.352-1.092A7.786,7.786,0,0,0,61.516-4.68a8.176,8.176,0,0,1,1.716-1.56c.624-.364.312-.988,1.716-1.768a2.089,2.089,0,0,0,.884-.728l.156-.156c.1,0,.156.052.156.1a.606.606,0,0,1-.1.364c-.364.52-1.352,1.092-1.664,1.508-.468.676-.416.832-1.248,1.352-.884.572-1.092,1.664-1.664,2.548a1.161,1.161,0,0,0-.156.728v1.56c0,1.3,1.924,1.872,2.964,1.872a15.18,15.18,0,0,0,2.6-.468c.78-.1,1.456-.624,2.184-.728S70.1-.78,70.772-.936c.364-.1,1.872-.832,1.872-1.144,0-.26-.364-.416-.572-.416a5.249,5.249,0,0,0-2.028.832c-.572.312-1.2.416-1.768.728a17.187,17.187,0,0,1-2.34.624,2.355,2.355,0,0,1-.832.156c-.884,0-1.716-.26-1.716-1.3a4.638,4.638,0,0,1,.26-1.664c.156-.468.832-.728,1.092-1.456.312-.78,1.456-1.04,1.924-2.132.468-1.04,1.82-1.4,2.132-2.236.312-.78,1.2-.988,1.612-1.612a2.765,2.765,0,0,1,2.028-.936h1.456c1.508,0,3.016-.208,4.524-.208.728,0,1.456.156,2.184.156.468,0,.832-.156,1.3-.156.52,0,1.04.208,1.612.208.936,0,1.872-.156,2.808-.156.572,0,1.144.1,1.716.1.676,0,1.352-.052,2.028-.052h.416c.624,0,1.092-.1,1.612-.1.572,0,1.144.26,1.664.26S94.276-11.908,94.276-12.324ZM82.992-2.132c0-.26-.312-.312-.52-.312a1.812,1.812,0,0,0-.884.312c-.364.26-.728.156-1.352.624-.832.624-2.132.416-2.7.884a.8.8,0,0,1-.676.26c-.208,0-.416-.052-.572-.052-.364,0-.676.156-1.04.156a1.246,1.246,0,0,1-1.2-1.2A2.027,2.027,0,0,1,75.14-3.068c.572-.26.676-1.144,1.144-1.456a.507.507,0,0,0,.208-.468c0-.624-.416-.676-.884-.676a1.811,1.811,0,0,0-1.456.52A6.01,6.01,0,0,1,72.8-3.692c-.312.208-1.352,1.2-1.352,1.56,0,.312.312.572.468.832A3.989,3.989,0,0,1,72.28.1c.26.78,1.924,1.4,2.7,1.4A9.041,9.041,0,0,0,77.012.936a5.74,5.74,0,0,0,2.5-.884,8.493,8.493,0,0,1,1.768-.988C81.744-1.144,82.992-1.508,82.992-2.132Zm4.94-13.624c0-.364-.364-.676-.416-1.092-.1-.624,0-1.456-.468-1.976-.208-.208-.52-.572-.78-.572-.416,0-1.456,1.508-1.456,2.08a2.2,2.2,0,0,0,2.08,2.392C87.308-14.924,87.932-15.34,87.932-15.756ZM104.26-2.08c0-.312-.364-.416-.572-.416-.624,0-2.7,1.2-3.64,1.508A8.079,8.079,0,0,1,97.4-.052c-1.4,0-1.716-.416-2.08-1.768a3.069,3.069,0,0,1-.1-.728c0-1.508,1.716-1.2,1.716-2.236,0-.572-.676-1.612-1.3-1.612-1.092,0-2.548,1.508-3.172,2.288a18.848,18.848,0,0,1-3.9,2.6c-.208,0-.26-.1-.26-.312,0-.78.78-1.352.78-1.872,0-.624-1.3-1.612-1.924-1.612a1.753,1.753,0,0,0-.884.26c-.988.572-1.872,1.248-2.86,1.768-.832.416-1.664.728-2.444,1.144-.26.1-1.4.676-1.4,1.04,0,.208.572.26.728.26a2.543,2.543,0,0,0,1.2-.416c.936-.572,2.028-.572,3.068-1.04a1.1,1.1,0,0,1,.364-.156c.26,0,.936.78.936.988,0,.624-1.092,1.092-1.092,1.768,0,.624.676.936,1.248.936,2.6,0,2.86-1.56,4.628-2.288.624-.26,2.028-1.352,2.5-1.352s.26,1.612.572,2.08a3.416,3.416,0,0,0,2.7,1.872,5.543,5.543,0,0,0,1.56-.312c.624-.208,1.04-.78,1.664-.832.832-.052,1.04-.364,1.664-.728a12.564,12.564,0,0,1,2.08-.988C103.688-1.456,104.26-1.716,104.26-2.08Zm-2.236,10.5a.924.924,0,0,1-.208.52c-.884,1.092-1.82,2.08-2.652,3.224a9.856,9.856,0,0,1-.988,1.092c-.364.416-1.248.936-1.508,1.4a4.3,4.3,0,0,1-1.352,1.82c-.416.312-1.508,1.82-1.82,1.82-.156,0-.208-.156-.208-.26,0-.988,1.3-1.092,1.508-2.288a1.628,1.628,0,0,1,.832-1.3c.52-.208.936-.988,1.4-1.352.572-.416.832-1.248,1.3-1.82.572-.572,1.2-1.04,1.716-1.664.26-.26,1.4-1.456,1.768-1.456C101.972,8.164,102.024,8.32,102.024,8.424ZM120.588-2.132c0-.156-.156-.416-.312-.416a2.925,2.925,0,0,0-.936.364c-.572.208-1.04.156-1.508.624-.156.156-1.56.468-1.924.624L113.62,0c-.728.312-2.964,1.768-3.484,1.768-.208,0-.312-.1-.312-.26,0-.884,3.38-4.42,3.38-5.252a.455.455,0,0,0-.416-.468c-.468,0-1.2.728-1.716.936-.468.156-1.144.936-1.508.936-.572,0-.728.572-1.2.572-.052,0-.156-.052-.208-.052-.468,0-1.3.936-2.132.936-.416,0-1.092-.312-1.092-.832,0-.312.78-1.248,1.2-1.248.364,0,2.86-2.08,4.524-2.08.312,0,.572.1.884.1.26,0,.312-.26.312-.468,0-.468-.208-.988-.78-.988s-1.144.156-1.716.208c-.832.1-1.2.052-1.82.676a4.054,4.054,0,0,1-2.34,1.3c-.624,0-1.508,1.508-2.132,1.924a.833.833,0,0,0-.468.832c0,1.664,1.716,2.132,3.12,2.132,1.248,0,2.028-1.092,3.12-1.092.1,0,.26.052.26.208a8.111,8.111,0,0,1-1.248,1.82l-1.56,1.872c-1.04,1.248-3.848,2.34-4.628,3.432-.312.52-1.144.52-1.508,1.092-.364.728-1.872,1.3-2.132,2.028-.364.832-1.56,1.664-2.028,2.444-.364.728-1.352,1.508-1.612,2.132a19.565,19.565,0,0,1-2.288,3.276,4.918,4.918,0,0,0-1.2,2.444.552.552,0,0,0,.624.624,4.126,4.126,0,0,0,2.236-1.3c1.144-1.144,2.392-2.184,3.588-3.276a31.941,31.941,0,0,0,4.264-4.888c1.2-1.664,2.7-3.12,3.952-4.732a7.817,7.817,0,0,1,3.016-2.652,25.4,25.4,0,0,1,2.964-1.716c.936-.208,1.664-.988,2.6-1.248.78-.26,1.352-.832,2.132-.936a21.058,21.058,0,0,0,2.964-1.248C119.548-1.2,120.588-1.612,120.588-2.132Z" transform="translate(-0.52 19.396)" fill="#fff"/>
</svg>
