<svg width="12" height="20" viewBox="0 0 12 20" fill="none" xmlns="http://www.w3.org/2000/svg">
<path d="M0.438697 0.454805C0.15749 0.736096 -0.000483513 1.11756 -0.000483513 1.5153C-0.000483513 1.91305 0.15749 2.29451 0.438697 2.5758L7.8637 10.0008L0.438697 17.4258C0.16546 17.7087 0.0142679 18.0876 0.0176859 18.4809C0.0211029 18.8742 0.178856 19.2504 0.456968 19.5285C0.735081 19.8066 1.1113 19.9644 1.50459 19.9678C1.89789 19.9712 2.27679 19.82 2.5597 19.5468L11.0452 11.0613C11.3264 10.78 11.4844 10.3986 11.4844 10.0008C11.4844 9.60306 11.3264 9.2216 11.0452 8.9403L2.5597 0.454805C2.2784 0.173598 1.89694 0.015625 1.4992 0.015625C1.10145 0.015625 0.719988 0.173598 0.438697 0.454805Z" fill="#1E4268"/>
</svg>
