<svg xmlns="http://www.w3.org/2000/svg" width="71.812" height="71.812" viewBox="0 0 71.812 71.812">
  <g id="number07" transform="translate(-205 -6124.223)">
    <path id="パス_46631" data-name="パス 46631" d="M71.812,1556.767a35.906,35.906,0,1,1-35.906-35.906,35.906,35.906,0,0,1,35.906,35.906" transform="translate(205 4603.362)" fill="#2ca2dc"/>
    <path id="パス_46632" data-name="パス 46632" d="M51.559,1544.375c-.739.615-1.231,1.477-1.97,2.031-.554.431-.739,1.108-1.293,1.539-.739.431-.616,1.6-1.477,2.093a3.016,3.016,0,0,0-1.416,1.6,12.91,12.91,0,0,1-2.831,2.955,13.651,13.651,0,0,0-2.4,2.893,17.564,17.564,0,0,1-1.908,2.339,3.533,3.533,0,0,0-1.17,1.354c-.308.677-1.046,1.046-1.416,1.723-.492.862-1.17,1.6-1.661,2.462-.555.923-1.6,1.722-1.97,2.462a6.645,6.645,0,0,1-1.785,1.908c-.739.554-1.108,1.784-2.093,2.707a3.916,3.916,0,0,0-.8.924c-.185.184-.554,1.045-.8,1.168-.369.123-1.416,1.97-1.723,2.4a4.245,4.245,0,0,0-.923,1.723,3.218,3.218,0,0,1-.185,1.108c-.246.616-1.108.677-1.662.677a11.149,11.149,0,0,1-1.416.185c-.123,0-2.339-.985-2.339-1.416a7,7,0,0,1,1.785-2.585c.677-.431,1.046-1.231,1.723-1.662.739-.431,1.293-1.661,2.585-2.524.985-.676,1.293-1.97,2.339-2.584s1.231-1.848,2.031-2.4c.862-.616,1.354-1.6,2.154-2.278.616-.492.862-1.354,1.415-1.785a23.982,23.982,0,0,0,2.093-2.216c.8-.739.985-1.97,1.97-2.524a23.47,23.47,0,0,0,2.031-2.216c.677-.554,1.046-1.293,1.723-1.847.862-.677,1.416-1.662,2.277-2.4.739-.616,1.046-1.662,1.723-2.339.739-.677.923-1.785,1.662-2.462a1.913,1.913,0,0,0,.677-1.168.671.671,0,0,0-.431-.616c-1.293-.861-2.154-2.093-3.324-2.769-.431-.309-1.293-.8-1.416-1.355a10.825,10.825,0,0,1-.185-2.031c0-.738.062-2.461,1.17-2.461.862,0,1.354,1.17,1.6,1.785.554,1.292.246,3.324,1.293,4.246.492.431,1.539,1.539,2.216,1.539a1.911,1.911,0,0,0,1.723-.922,9.235,9.235,0,0,1,2.708-1.6c.431,0,.677.491.677.861,0,.615-.554,1.108-.985,1.477M42.2,1534.343c-.739.923-.616,1.6-1.785,2.585-.616.492-.369,1.108-1.17,1.723a5.491,5.491,0,0,0-1.416,2.093,12.739,12.739,0,0,0-1.046,1.477,8.906,8.906,0,0,1-1.108,2.153,9.109,9.109,0,0,0-1.046,2.031c-.123.185-.185.309-.369.309-.554,0-.738-1.477-.738-1.908a.984.984,0,0,1,.246-.74,4.882,4.882,0,0,0,1.23-2.276c.492-2.4,1.847-3.939,2.831-6.094.677-1.416,2.216-3.385,3.939-3.385a.761.761,0,0,1,.8.862,2.027,2.027,0,0,1-.369,1.169" transform="translate(205.475 4603.658)" fill="#fff"/>
  </g>
</svg>
