<svg xmlns="http://www.w3.org/2000/svg" width="71.812" height="71.812" viewBox="0 0 71.812 71.812">
  <g id="number08" transform="translate(-205 -6339.87)">
    <path id="パス_46633" data-name="パス 46633" d="M71.812,1766.974a35.906,35.906,0,1,1-35.906-35.906,35.906,35.906,0,0,1,35.906,35.906" transform="translate(205 4608.802)" fill="#2ca2dc"/>
    <path id="パス_46634" data-name="パス 46634" d="M56.189,1753.549a24.64,24.64,0,0,0-4.554,2.4c-1.293.861-3.078,1.292-4.062,1.969-.923.677-2.154.923-3.078,1.724-1.046.984-5.786,2.4-5.786,3.815a4.832,4.832,0,0,0,.492,1.6c.554,1.108.616,2.339,1.231,3.325a24.915,24.915,0,0,1,1.17,3.63,6.715,6.715,0,0,1,.431,2.155c0,.676-.062,1.354-.062,2.031a2.79,2.79,0,0,1-.923,2.153c-.923.986-1.539.74-2.462,1.539-.739.555-1.908.309-2.77.678a7.849,7.849,0,0,1-2.093.308c-.308,0-.677-.062-.985-.062-.8-.062-1.6-.494-2.4-.494-.062,0-3.384.862-3.569.924-.062,0-.185.062-.246.062-.185,0-.246-.184-.246-.309,0-.861.985-1.169.985-1.907,0-.677-1.293-1.354-1.293-2.893,0-1.293.8-1.661,1.416-2.585.8-1.169,2.77-1.722,4.247-1.722,1.354,0,3.2.061,3.2,1.785,0,.738-.123,1.415-.123,2.153,0,1.539-2.093,2.4-2.093,3.2,0,.369.37.43.616.43a4.876,4.876,0,0,0,1.908-.491c1.908-.677,1.539-.739,2.708-2.031a4.184,4.184,0,0,0,.923-3.078v-.308a5.591,5.591,0,0,0-.369-2.462c-.492-.862-.185-1.662-.739-2.276-.616-.74-.8-4.062-2.093-4.062a2.469,2.469,0,0,0-1.231.554c-.8.554-2.031.738-2.77,1.416-.368.369-3.754,1.662-4.739,2.215a18.773,18.773,0,0,1-3.57,2.094,23.618,23.618,0,0,0-4.37,2.769,9.958,9.958,0,0,1-4.37,1.662c-.492,0-1.539-.308-1.539-.985,0-.308.308-.492.616-.615.923-.369,2.093-1.477,3.078-1.539.8-.062,2.524-1.785,3.755-2.153a12.1,12.1,0,0,0,3.816-1.785c.985-.74,2.708-1.047,3.816-1.662a32.529,32.529,0,0,1,3.447-1.97,18.4,18.4,0,0,0,2.215-1.047c.616-.246,1.354-.615,1.354-1.353s-.554-1.108-.554-2.277c0-.8.308-1.6.308-2.339,0-.245-.062-.492-.062-.676a1.987,1.987,0,0,1,.862-1.539c1.231-1.108,1.416-1.786,3.078-2.341,1.17-.431,1.231-.984,2.77-.984.492,0,.923.062,1.416.062.554,0,1.108-.062,1.662-.062.739,0,1.539.431,1.97.431.246,0,.492-.123.739-.123.677,0,1.908.923,1.908,1.6,0,.492-.369.986-.369,1.539,0,.062.062.123.185.123a1.518,1.518,0,0,0,.739-.245,13.308,13.308,0,0,0,2.893-1.6c.739-.615,1.784-.492,2.585-1.045.676-.431,1.722-1.293,2.523-1.293.185,0,.431,0,.431.245,0,.677-1.415,1.477-1.97,1.724m-24.558,20.187c-.923,0-3.385,1.662-3.385,2.646,0,.678.431,1.664,1.231,1.664a2.814,2.814,0,0,0,1.662-.8c.862-.862,1.168-.922,1.23-2.275v-.309c0-.492-.184-.923-.738-.923m12.8-17.3a4.381,4.381,0,0,0-3.57-1.908,4.778,4.778,0,0,0-.985.123c-1.17.246-2.277.185-2.708,1.539a5.761,5.761,0,0,0-.369,1.785c0,.862.554,3.2,1.6,3.2a13.433,13.433,0,0,0,4-1.97c.554-.431,3.139-1.354,3.139-1.97,0-.369-.862-.431-1.108-.8" transform="translate(205.336 4609.333)" fill="#fff"/>
  </g>
</svg>
