<svg xmlns="http://www.w3.org/2000/svg" width="71.812" height="71.812" viewBox="0 0 71.812 71.812">
  <g id="number05" transform="translate(-205 -5703.188)">
    <path id="パス_46627" data-name="パス 46627" d="M71.812,1146.354a35.906,35.906,0,1,1-35.906-35.906,35.906,35.906,0,0,1,35.906,35.906" transform="translate(205 4592.74)" fill="#2ca2dc"/>
    <path id="パス_46628" data-name="パス 46628" d="M36.827,1135.838a2.173,2.173,0,0,0-.369-.062c-1.231,0-2.093,1.231-3.2,1.662-.369.123-.677.923-1.293,1.231a2.1,2.1,0,0,0-1.17,1.97c0,.492.8,1.477,1.108,1.846.431.554.308,1.662.554,2.4a3.212,3.212,0,0,1,.246,1.293c0,.369-.123,1.17-.123,1.293,0,.245.062.554.062.8a2.021,2.021,0,0,1-.246,1.047c-.616,1.539-.246,4.493-1.662,5.417a4.24,4.24,0,0,0-1.477,1.477,10.1,10.1,0,0,1-1.17,1.539c-.431.431-1.293,1.046-1.416,1.662s-1.97,1.662-2.647,1.662c-1.293,0-2.585.308-3.939.308a13.688,13.688,0,0,1-2.646-.616c-1.355-.246-1.108-1.046-1.97-1.6-.492-.369-.492-1.416-.8-1.97a2.546,2.546,0,0,1-.308-1.17,4.751,4.751,0,0,1,.123-.923c.062-.8-.062-1.6.616-2.092.677-.554.862-1.539,1.662-1.97.861-.492,1.97-.37,2.83-.8a2.3,2.3,0,0,1,.862-.245c.431,0,2.831,1.046,2.831,1.477,0,.245-.554.43-.739.43-.8,0-1.6-.554-2.4-.554a1.949,1.949,0,0,0-.985.369c-1.539,1.108-1.907,0-2.4,3.078a.782.782,0,0,0-.062.369,3.759,3.759,0,0,0,3.631,3.816c1.847,0,1.97-.677,3.2-1.6,1.046-.8,1.785-1.847,2.77-2.708,1.293-1.047,1.847-2.462,2.77-3.754.431-.616.492-2.094.862-2.955a5.567,5.567,0,0,0,.246-1.724c0-1.353-.123-3.692-1.908-3.692-1.108,0-1.847.8-2.708.8a1.766,1.766,0,0,1-1.477-1.416c0-.739,1.108-1.169,1.662-1.354.985-.431,2.154-1.477,2.647-1.662a5.52,5.52,0,0,0,2.277-1.847c.492-.615,1.6-.8,2.031-1.354a3.185,3.185,0,0,1,1.662-1.17h1.354c.246,0,.492-.062.739-.062.369,0,.554.677.554.985s-.062.369-.185.369m19.511-3.385c-.554.616-.616,2.216-1.293,2.4-.923.246-1.6,1.108-2.647,1.108-.677,0-1.354-.246-2.093-.246a3.628,3.628,0,0,0-.862.123,13.245,13.245,0,0,1-2.647.246c-1.17,0-2.031.862-2.707.862s-1.539.739-1.97.739-1.97,1.416-2.462,1.416a.476.476,0,0,1-.431-.493.835.835,0,0,1,.431-.677,8.952,8.952,0,0,0,1.416-1.17c1.354-1.108,4.862-2.031,6.585-2.031,1.108,0,1.908-.677,2.524-.677.677,0,1.354-.677,1.97-.923,1.416-.615,2.77-2.831,4-2.831.431,0,.554.862.554,1.231a1.056,1.056,0,0,1-.369.923" transform="translate(205.371 4593.253)" fill="#fff"/>
  </g>
</svg>
