<svg xmlns="http://www.w3.org/2000/svg" width="71.812" height="71.812" viewBox="0 0 71.812 71.812">
  <g id="number04" transform="translate(-205 -5497.8)">
    <path id="パス_46625" data-name="パス 46625" d="M71.812,946.148a35.906,35.906,0,1,1-35.906-35.906,35.906,35.906,0,0,1,35.906,35.906" transform="translate(205 4587.558)" fill="#2ca2dc"/>
    <path id="パス_46626" data-name="パス 46626" d="M48.45,940.462c-.308.8-2.4,3.139-3.016,4.247-.369.616-.923,1.046-1.231,1.662-.369.739-2.4,3.016-2.4,3.57s2.585.8,3.016.8h.246a1.313,1.313,0,0,1,.739.185c.185.184.492.554.492.738,0,.247-.923.8-1.17.8-.616,0-1.231-.37-1.908-.37-.431,0-.862.123-1.293.123s-.862-.062-1.293-.062c-1.662,0-2.77,3.694-3.939,4.617a5.8,5.8,0,0,0-1.662,2.155c-.431.922-.985,1.846-1.415,2.769-.246.615-.617,1.539-1.293,1.785a3,3,0,0,1-.739.062h-.677c-.185,0-.308.062-.492.062-.554,0-.739-.862-.739-1.231,0-.8.307-2.585,1.231-2.831a2.085,2.085,0,0,0,.615-.062,17,17,0,0,0,2.34-2.647c.491-.677.738-1.539,1.293-2.277.492-.553,2.215-2.462,2.215-3.2,0-.492-.492-.74-.862-.862a7.557,7.557,0,0,1-2.585-1.416c-.553-.739-.985-.246-1.6-1.354-.616-1.046-.739-2.708-2.277-2.708-1.416,0-1.662.862-2.647,1.293-1.539.554-2.77,2.77-4.493,2.77-.369,0-1.231-.123-1.293-.615-.062-.554-.923-.863-.923-1.354,0-.554,1.847-1.662,2.339-1.785,1.17-.246,1.231-.923,1.97-1.354.8-.431,1.293-1.416,2.093-1.662a12.094,12.094,0,0,1,2.462-.985c.8-.123,1.477-.985,2.154-1.354,1.722-.862,1.846-2.216,2.892-2.893,1.231-.8,1.847-2.154,2.77-2.647.923-.431,1.293-1.354,2.154-1.847.739-.431.985-1.292,1.662-1.724.923-.615,2.647-3.077,3.57-3.077.677,0,1.662.676,1.662,1.416a.5.5,0,0,1-.246.491c-.492.431-.739,1.663-1.169,2.339-.677.862-1.847,1.231-2.585,2.154-.554.677-1.477.985-2.154,1.847-.492.615-1.416.8-2.031,1.477-.739.862-1.847,1.354-2.647,2.154A21.349,21.349,0,0,0,33.8,941.2c-.369.492-1.661,1.293-1.661,1.662s.615.862.8,1.17a15.406,15.406,0,0,1,.74,2.4c.553,1.046.922.8,1.477,1.539s1.292.492,1.784.985a1.175,1.175,0,0,0,.8.308c.369,0,.677-.124,1.046-.124.739-.122,1.662-1.23,2.031-1.846.492-.8,1.231-1.231,1.785-1.97.677-.923,1.231-.985,1.847-2.216.492-.862,1.293-1.354,1.785-2.154.431-.677,2.031-2.647,2.831-2.77a.226.226,0,0,1,.185-.061c.308,0,.8.185.8.554,0,.739-1.354.8-1.6,1.785" transform="translate(205.535 4588.012)" fill="#fff"/>
  </g>
</svg>
