<svg xmlns="http://www.w3.org/2000/svg" width="71.812" height="71.812" viewBox="0 0 71.812 71.812">
  <g id="グループ_11477" data-name="グループ 11477" transform="translate(-205 -4861.224)">
    <path id="パス_46619" data-name="パス 46619" d="M71.812,325.631a35.906,35.906,0,1,1-35.906-35.906,35.906,35.906,0,0,1,35.906,35.906" transform="translate(205 4571.499)" fill="#2ca2dc"/>
    <path id="パス_46620" data-name="パス 46620" d="M51.114,311.6c-.8.123-1.416,1.046-2.031,1.539a10.56,10.56,0,0,0-2.031,1.6,22.3,22.3,0,0,1-2.708,2.03c-1.231.985-2.462,2.032-3.755,2.893a14.174,14.174,0,0,0-3.877,3.508,7.658,7.658,0,0,1-2.4,2.462c-1.416.554-3.016,2.708-4.124,3.816-.862.862-1.231,2.031-2.216,2.831a30.43,30.43,0,0,0-2.339,2.585c-.431.369-1.416,1.231-1.416,1.847,0,.246.185.369.185.8a2.023,2.023,0,0,1-1.293,2.03c-.862.247-1.662.924-2.585.924-.677,0-1.723-.37-1.723-1.232a3.45,3.45,0,0,1,.616-1.476c.616-.862,1.046-1.724,2.093-2.155.923-.368,1.6-1.969,2.585-2.646.8-.616,1.17-1.6,1.97-2.277.554-.492.923-1.293,1.477-1.847.308-.308,1.416-1.046,1.416-1.416,0-.123,0-.308-.185-.308-.308,0-4.863,2.585-5.848,2.893a5.043,5.043,0,0,0-2.031,1.108,1.241,1.241,0,0,1-.923.554c-.246,0-.554-.185-.554-.431,0-.369.8-.862.985-1.231a6.615,6.615,0,0,1,2.708-1.354c1.662-.431,1.354-1.046,2.585-1.6a19.508,19.508,0,0,1,2.524-1.294c.985-.308,1.847-1.661,2.831-2.277a8.957,8.957,0,0,0,2.77-1.662c.554-.739,1.6-.922,2.277-1.661.8-.985,1.908-1.171,2.77-2.032a27.83,27.83,0,0,1,2.461-1.6c.985-.74,1.662-1.725,2.831-2.093a9.409,9.409,0,0,0,3.139-2.216c.8-.739,1.785-.554,2.4-1.293a3.305,3.305,0,0,1,1.847-1.169c.369,0,.492.245.492.554a1.28,1.28,0,0,1-.923,1.293" transform="translate(205.486 4572.017)" fill="#fff"/>
  </g>
</svg>
