<svg xmlns="http://www.w3.org/2000/svg" width="71.812" height="71.812" viewBox="0 0 71.812 71.812">
  <g id="number06" transform="translate(-205 -5908.576)">
    <path id="パス_46629" data-name="パス 46629" d="M71.812,1346.561a35.906,35.906,0,1,1-35.906-35.906,35.906,35.906,0,0,1,35.906,35.906" transform="translate(205 4597.921)" fill="#2ca2dc"/>
    <path id="パス_46630" data-name="パス 46630" d="M47.457,1334.2c-.8,0-1.477-.554-2.277-.554a4.37,4.37,0,0,0-1.231.245c-1.17.309-1.723.062-2.77.862-.985.8-2.4.862-3.385,1.723a32.5,32.5,0,0,1-2.708,2.216,15.175,15.175,0,0,0-3.447,3.139c-.739.985-1.785,1.354-2.585,2.524a15.408,15.408,0,0,1-1.908,2.093c-.8.8-.8,1.97-1.293,2.955a2.933,2.933,0,0,0-.554,1.785c0,.739.308,3.939,1.416,3.939.739,0,.862-2.524,1.723-3.2.616-.494.492-1.354,1.17-1.97a15.923,15.923,0,0,1,2.154-1.908c1.354-.677,2.031-1.662,3.632-1.847.985-.062,1.97-.431,2.893-.431a3.12,3.12,0,0,1,.8.123c2.031.8,3.447,1.17,3.447,3.816,0,.923-1.169,3.815-2.031,4.308-.862.554-.492,1.539-1.97,2.4-.616.37-2.647,2.031-3.139,2.031a6.084,6.084,0,0,0-2.708,1.046,4.206,4.206,0,0,1-2.462.616c-.616,0-1.231.369-1.908.369a9.417,9.417,0,0,1-3.509-1.539,2.785,2.785,0,0,1-1.231-1.847c-.184-.8-.676-1.415-.8-2.215a6.923,6.923,0,0,1,.739-6.771,33.017,33.017,0,0,1,2.093-3.016c.616-.862,1.539-1.354,2.154-2.154,1.354-1.785,3.139-3.016,4.493-4.8.616-.862,1.785-1.293,2.154-1.785a6.174,6.174,0,0,1,2.524-2.031c.985-.492.985-1.169,2.277-1.354.923-.185,1.539-.738,2.462-.738.677,0,1.231-.493,1.847-.493.185,0,.369.123.554.123.431,0,.8-.307,1.23-.307a4.929,4.929,0,0,1,1.97.8c.369.309,1.046.369,1.108.923a.226.226,0,0,1,.062.185c0,.554-.554.74-.984.74m-10.279,13.233a5.739,5.739,0,0,0-2.893.677c-1.231.554-1.046.985-1.847,1.539-1.108.739-1.293,1.662-1.908,2.154a7.231,7.231,0,0,0-2.4,4.246c0,1.232,1.723,1.663,2.708,1.663,1.539,0,3.632-1.232,5.047-1.847.923-.432,1.477-1.786,2.277-2.463a5.145,5.145,0,0,0,1.416-3.507c0-1.662-.677-2.462-2.4-2.462" transform="translate(205.574 4598.462)" fill="#fff"/>
  </g>
</svg>
