<svg xmlns="http://www.w3.org/2000/svg" width="568.333" height="254.711" viewBox="0 0 568.333 254.711">
  <path id="パス_47145" data-name="パス 47145" d="M82.415-12.985c0,.265-.265.53-.53.8-2.65,1.59-3.445,4.5-6.095,5.83C72.61-4.77,69.43-.53,66.78,0c-3.445,1.06-6.095,4.24-9.8,4.77-3.445.8-4.24,3.18-8.48,3.71-3.445,0-5.83,2.385-8.48,2.385-1.06,0-2.12-.265-3.18-.265-.795,0-2.12.265-3.445.265a11.761,11.761,0,0,1-3.445-.53c-3.445-2.12-6.89-8.48-6.89-12.19s2.12-6.625,2.65-10.07C26.5-16.96,33.39-22.26,37.9-23.85c3.445-1.06,6.625-2.915,10.07-3.71,3.71-.795,6.36-3.975,10.07-3.975,2.65,0,5.3-.265,7.95-.265,9.01,0,5.83,7.95,7.95,11.66s4.77,4.24,8.215,6.36C82.15-13.515,82.415-13.25,82.415-12.985ZM187.355-124.55c0,2.385-4.505,9.01-6.36,10.6-3.445,2.65-5.83,6.36-9.54,8.745-3.18,2.12-4.24,6.36-7.95,7.95s-5.83,6.36-9.275,7.95c-3.445,1.855-10.6,9.01-13.78,9.01-.53,0-.795-.53-.795-1.325,0-1.855,2.65-7.685,3.71-9.805,2.915-6.095,7.685-15.9,13.78-19.61,4.24-2.385,5.3-5.83,10.335-7.42,7.155-2.12,5.3-7.42,15.9-7.685C184.97-126.14,187.355-125.875,187.355-124.55Zm16.165-12.19c0-3.71-3.445-3.445-6.1-4.77a11.11,11.11,0,0,0-4.24-1.06c-2.915,0-5.3,1.855-7.685,3.18-5.565,3.71-8.215,1.59-15.635,8.215-6.1,5.565-14.045,9.01-20.4,14.575-8.745,7.95-11.66,8.745-17.225,20.67-1.855,4.24-4.505,8.215-6.36,12.72-1.325,4.24-3.445,9.54-6.36,12.985-1.59,2.12-12.455,4.24-15.9,5.565-2.65.8-13.25,2.12-13.25,5.83,0,1.325,2.915,2.385,3.975,2.385,3.445,0,3.18-5.035,10.335-5.035,5.83,0,8.215-2.915,11.395-2.915a.971.971,0,0,1,1.06,1.06c0,1.855-2.385,6.625-2.915,9.01-1.06,4.24-4.5,7.155-5.83,11.4-1.06,5.035-5.565,6.36-6.89,10.6-1.06,3.18-7.685,11.66-11.395,11.66-1.325,0-1.325-1.855-1.325-2.65,0-3.71.53-7.155.53-10.6,0-4.77-8.215-5.83-11.66-7.42a13.46,13.46,0,0,0-4.505-.795c-3.975,0-7.95,2.12-12.19,2.12-.8,0-1.59-.265-2.385-.265-2.385,0-6.89,2.915-10.6,3.18-3.975.53-7.155,3.18-11.13,4.24C31.8-31.8,31-26.765,26.765-24.38s-6.1,7.42-8.215,11.395c-2.385,4.24-2.385,10.07-2.385,14.575s3.445,7.42,4.77,11.13c2.12,5.035,6.89,3.445,10.335,5.83a5.15,5.15,0,0,0,3.445.8c4.77,0,9.805-1.06,14.31-1.855s12.985-5.3,14.84-5.3c6.36,0,10.6-7.685,15.635-7.685,3.975,0,16.165-13.25,19.875-16.165,3.975-3.18,12.72-11.925,15.105-16.165,2.385-4.505,4.24-9.275,7.155-13.515,2.65-3.975,3.18-7.155,4.77-11.66a81.883,81.883,0,0,1,3.71-8.48c3.71-7.155,3.445-8.215,10.07-11.925,5.035-2.65,8.215-7.685,13.25-10.07,3.445-1.855,5.83-2.65,7.95-6.1,2.385-3.445,8.745-7.42,12.19-11.13,2.385-2.385,5.3-4.24,7.42-7.155,2.65-3.18,6.625-5.3,9.01-8.745,1.59-2.65,5.035-7.42,7.95-8.48C201.665-126.4,203.52-133.295,203.52-136.74Zm-43.2,108.915c0,1.59-4.505,4.24-5.83,5.565s-3.445,1.325-5.035,2.385c-.53.265-1.325,1.06-1.855,1.06s-.53-.265-.53-.53c0-1.06,2.385-3.18,3.18-3.975,2.12-2.385,5.83-5.035,9.01-5.035C159.795-28.355,160.325-28.355,160.325-27.825ZM195.835-10.6a2.164,2.164,0,0,0-2.385-2.12c-4.24,0-15.1,7.685-20.67,8.215S162.71.8,154.495.8c-4.77,0-11.4-4.24-11.4-9.275,0-2.915,10.07-5.3,12.19-7.42,5.83-5.3,14.045-5.035,14.045-16.7,0-3.975-2.385-4.5-5.565-4.5h-2.385c-5.3,0-10.07,4.77-14.575,7.42-5.3,3.18-6.625,5.035-10.07,9.805-3.71,5.3-4.77,7.685-10.335,10.6-.795.795-2.12,1.59-2.12,2.915a2.407,2.407,0,0,0,2.65,2.12c2.385,0,2.915,6.1,10.865,8.48a25.9,25.9,0,0,1,7.95,2.915,11.711,11.711,0,0,0,5.83,1.325c5.565,0,24.38-6.36,29.15-9.805,2.385-1.59,5.3-3.71,7.95-4.77C190.535-6.625,195.835-8.215,195.835-10.6ZM288.85-15.1a2.562,2.562,0,0,0-2.385-2.385c-1.325,0-12.72,7.95-20.14,7.95-2.385,0-5.035-.8-6.1-3.18a16.309,16.309,0,0,1-.795-4.77c0-3.18-1.06-5.565-1.06-8.745V-28.62c0-2.915-2.65-8.48-6.1-8.48-.53,0-7.685,2.65-9.275,3.18-5.035,1.06-3.71,2.915-7.155,5.565-1.59,1.325-4.24,2.915-6.36,2.915-.795,0-1.325-.265-1.325-1.325,0-2.12-4.24-3.18-6.1-3.71-1.855,0-10.6,6.36-12.455,7.42-4.5,2.12-10.07,4.24-13.78,7.685-2.385,2.385-10.865,4.24-10.865,7.685a2.164,2.164,0,0,0,2.385,2.12c1.855,0,5.83-2.915,8.48-3.445,2.65-.8,6.625-4.5,9.01-4.5,3.18,0,6.1-5.3,10.07-5.3,1.06,0,2.12.53,2.12,1.59,0,3.445-1.59,5.83-4.505,7.685-3.445,2.12-4.77,5.565-7.95,7.95-2.385,1.855-9.54,7.42-9.54,10.6,0,2.385,2.65,3.18,4.505,3.18,7.155,0,7.42-3.975,10.6-6.36,6.36-4.77,6.1-10.335,15.105-15.635,2.915-1.59,4.5-4.505,7.685-5.565,3.445-1.06,7.155-2.915,9.275-6.1,1.06-2.12,3.18-6.36,5.83-6.36,1.855,0,2.915,1.59,2.915,3.445,0,2.12-1.59,3.71-1.59,5.83,0,1.325-.265,2.385-.265,3.445a2.935,2.935,0,0,0,1.325,2.65c3.445,2.385,1.855,3.975,6.625,6.625a20.36,20.36,0,0,0,9.54,2.385,18.362,18.362,0,0,0,5.3-.8c3.445-.795,11.925-5.565,15.105-7.95A3.823,3.823,0,0,0,288.85-15.1ZM386.9-10.07c0-.8,0-2.12-1.325-2.12-2.12,0-6.36,3.975-9.01,4.5-2.915.795-5.83,1.855-8.745,1.855-1.325,0-2.12-.265-2.65-1.325-1.325-2.65-6.89-5.565-6.89-7.685,0-2.385-6.625-5.3-6.625-9.275,0-5.035-8.745-6.89-12.72-6.89-6.36,0-6.89,7.685-11.13,10.6-5.3,3.71-3.71,7.42-10.6,12.19-3.445,2.385-7.95,9.275-12.72,9.275-.8,0-.8-.53-.8-1.06,0-1.59,2.12-6.095,2.915-7.95,1.855-4.77,9.01-12.19,9.01-15.635,0-2.65-3.445-8.745-6.1-8.745-4.505,0-10.335,7.42-14.045,7.95-4.24.53-6.625,6.095-11.13,7.95-1.855.53-13.78,6.625-13.78,8.215,0,1.325,2.915,1.855,3.975,1.855,2.385,0,11.395-3.71,13.25-5.3,2.65-2.65,6.1-2.915,9.01-5.035a35.623,35.623,0,0,1,3.71-2.915c.53.53,1.59,1.59,1.59,2.385,0,1.59-3.975,4.24-4.77,8.745-1.06,5.035-5.3,5.83-5.83,10.07a25.712,25.712,0,0,0-.265,4.5c0,2.915,0,7.685,3.975,7.685,3.445,0,17.225-7.155,19.08-10.07,2.12-3.445,7.685-5.035,10.865-8.48,2.915-3.18,5.565-6.36,8.215-9.8,1.325-1.855,3.975-4.24,6.36-4.24a2.36,2.36,0,0,1,2.12,1.325c1.59,2.915,7.95,3.445,9.275,8.48C352.715-3.18,362.785,0,368.35,0,372.855,0,386.9-4.505,386.9-10.07Zm57.77-.8c0-1.325-1.59-1.59-2.65-1.59a9.237,9.237,0,0,0-4.505,1.59c-1.855,1.325-3.71.8-6.89,3.18-4.24,3.18-10.865,2.12-13.78,4.5A4.069,4.069,0,0,1,413.4-1.855c-1.06,0-2.12-.265-2.915-.265-1.855,0-3.445.8-5.3.8a6.35,6.35,0,0,1-6.1-6.1c0-3.18,2.915-7.155,5.565-8.215,2.915-1.325,3.445-5.83,5.83-7.42a2.583,2.583,0,0,0,1.06-2.385c0-3.18-2.12-3.445-4.5-3.445-2.65,0-5.83.53-7.42,2.65-2.12,2.65-3.975,5.565-6.89,7.42-1.59,1.06-6.89,6.1-6.89,7.95,0,1.59,1.59,2.915,2.385,4.24C389.55-4.77,389.55-1.855,390.08.53c1.325,3.975,9.805,7.155,13.78,7.155,3.445,0,7.155-2.12,10.335-2.915,4.24-1.06,9.54-1.59,12.72-4.5,2.915-2.385,5.83-3.445,9.01-5.035C438.31-5.83,444.67-7.685,444.67-10.865Zm25.175-69.43c0-1.855-1.855-3.445-2.12-5.565-.53-3.18,0-7.42-2.385-10.07-1.06-1.06-2.65-2.915-3.975-2.915-2.12,0-7.42,7.685-7.42,10.6,0,6.36,3.975,12.19,10.6,12.19C466.665-76.055,469.845-78.175,469.845-80.295Zm36.835,69.96c0-1.59-1.855-2.12-3.18-2.12-5.565,0-10.6,6.095-15.1,6.36-3.445.265-4.77,2.12-7.42,3.71C477.8-.8,475.41-1.06,472.5,0a5.342,5.342,0,0,1-2.915.8c-3.445,0-4.77.8-7.155.8-3.445,0-6.36-2.385-8.48-2.385-4.24,0-4.505-5.035-4.505-8.215,0-2.65,1.06-3.445,2.65-3.975,4.24-1.855,5.565-7.685,10.335-7.685,3.71,0,2.385,3.975,5.83,3.975,3.18,0,7.155-1.59,7.155-5.3,0-3.975-3.445-11.13-8.215-11.13-.53,0-1.325.265-2.12.265-3.975.53-8.745,4.505-11.66,7.155-2.65,2.65-5.83,4.505-8.745,6.89-1.325,1.06-1.325,2.65-2.65,3.445-2.12,1.59-3.71,2.915-3.71,5.565,0,1.325.265,2.385.265,3.445,0,1.59-.265,2.915-.265,4.24A9.526,9.526,0,0,0,438.84.8c1.855,4.77,15.1,8.745,19.61,8.745,2.385,0,4.24-1.325,6.36-1.325h1.855c3.18,0,5.3-2.385,8.215-2.65.8-.265,13.78-5.3,14.575-5.83a58.33,58.33,0,0,1,6.89-3.975,28.9,28.9,0,0,0,8.215-3.71C505.62-8.48,506.68-9.275,506.68-10.335Zm22.525-17.49c0,1.59-4.505,4.24-5.83,5.565s-3.445,1.325-5.035,2.385c-.53.265-1.325,1.06-1.855,1.06s-.53-.265-.53-.53c0-1.06,2.385-3.18,3.18-3.975,2.12-2.385,5.83-5.035,9.01-5.035C528.675-28.355,529.205-28.355,529.205-27.825ZM564.715-10.6a2.164,2.164,0,0,0-2.385-2.12c-4.24,0-15.1,7.685-20.67,8.215S531.59.8,523.375.8C518.6.8,511.98-3.445,511.98-8.48c0-2.915,10.07-5.3,12.19-7.42,5.83-5.3,14.045-5.035,14.045-16.7,0-3.975-2.385-4.5-5.565-4.5h-2.385c-5.3,0-10.07,4.77-14.575,7.42-5.3,3.18-6.625,5.035-10.07,9.805-3.71,5.3-4.77,7.685-10.335,10.6-.795.795-2.12,1.59-2.12,2.915a2.407,2.407,0,0,0,2.65,2.12c2.385,0,2.915,6.1,10.865,8.48a25.894,25.894,0,0,1,7.95,2.915,11.711,11.711,0,0,0,5.83,1.325c5.565,0,24.38-6.36,29.15-9.805,2.385-1.59,5.3-3.71,7.95-4.77C559.415-6.625,564.715-8.215,564.715-10.6Z" transform="translate(8.838 238.467) rotate(-10)" fill="#f1f1f1"/>
</svg>
