<svg xmlns="http://www.w3.org/2000/svg" width="100.152" height="22.1" viewBox="0 0 100.152 22.1">
  <path id="パス_47132" data-name="パス 47132" d="M4.212.78a.61.61,0,0,1-.52.468c-.156,0-.364-.156-.364-.312,0-.208.416-.364.572-.364S4.212.624,4.212.78ZM13.1-7.488c0-.728-1.04-.884-1.56-.884a2.681,2.681,0,0,0-2.132.884c-.468.624-.78.468-1.248,1.4-.52,1.2-5.148,2.548-6.448,3.64-.416.312-1.924.78-1.924,1.3,0,.312.364.364.572.364.572,0,2.7-1.352,3.692-1.456.78-.156,1.976-1.4,2.444-1.4.676,0,1.092-.572,1.4-.572s.676.572.676.884c0,.624-.416,2.912-1.3,2.912-.468,0-.884.052-1.352.052-.52,0-.416-.208-.78-.208-.26,0-.572.052-.832.052-.208,0-.364-.052-.52-.052-.572,0-2.184,1.248-2.184,1.82,0,.624.936,1.3,1.508,1.3s1.04-.364,1.664-.364c.156,0,.416.052.676.052a1.7,1.7,0,0,0,.624-.1,2.084,2.084,0,0,1,1.144-.52c.52-.1,1.092-.676,1.664-.884.468-.208.676-.884.988-1.3A3.467,3.467,0,0,0,10.5-2.6c0-.52-.26-.936-.26-1.4,0-1.508,1.56-1.248,1.768-1.716C12.22-6.292,13.1-7.02,13.1-7.488ZM20.592-5.46c0,.312-.884.832-1.144,1.092s-.676.26-.988.468c-.1.052-.26.208-.364.208s-.1-.052-.1-.1c0-.208.468-.624.624-.78a2.776,2.776,0,0,1,1.768-.988C20.488-5.564,20.592-5.564,20.592-5.46ZM27.56-2.08a.425.425,0,0,0-.468-.416c-.832,0-2.964,1.508-4.056,1.612S21.06.156,19.448.156c-.936,0-2.236-.832-2.236-1.82,0-.572,1.976-1.04,2.392-1.456C20.748-4.16,22.36-4.108,22.36-6.4c0-.78-.468-.884-1.092-.884H20.8c-1.04,0-1.976.936-2.86,1.456A5.4,5.4,0,0,0,15.964-3.9c-.728,1.04-.936,1.508-2.028,2.08-.156.156-.416.312-.416.572a.472.472,0,0,0,.52.416c.468,0,.572,1.2,2.132,1.664a5.081,5.081,0,0,1,1.56.572,2.3,2.3,0,0,0,1.144.26A17.711,17.711,0,0,0,24.6-.26a9.538,9.538,0,0,1,1.56-.936C26.52-1.3,27.56-1.612,27.56-2.08Zm18.252-.884a.5.5,0,0,0-.468-.468c-.26,0-2.5,1.56-3.952,1.56A1.234,1.234,0,0,1,40.2-2.5a3.2,3.2,0,0,1-.156-.936c0-.624-.208-1.092-.208-1.716v-.468c0-.572-.52-1.664-1.2-1.664-.1,0-1.508.52-1.82.624-.988.208-.728.572-1.4,1.092a2.3,2.3,0,0,1-1.248.572c-.156,0-.26-.052-.26-.26,0-.416-.832-.624-1.2-.728a15.119,15.119,0,0,0-2.444,1.456,10.6,10.6,0,0,0-2.7,1.508c-.468.468-2.132.832-2.132,1.508a.425.425,0,0,0,.468.416c.364,0,1.144-.572,1.664-.676.52-.156,1.3-.884,1.768-.884.624,0,1.2-1.04,1.976-1.04.208,0,.416.1.416.312a1.686,1.686,0,0,1-.884,1.508c-.676.416-.936,1.092-1.56,1.56C28.808.052,27.4,1.144,27.4,1.768c0,.468.52.624.884.624,1.4,0,1.456-.78,2.08-1.248,1.248-.936,1.2-2.028,2.964-3.068.572-.312.884-.884,1.508-1.092a3.315,3.315,0,0,0,1.82-1.2c.208-.416.624-1.248,1.144-1.248a.605.605,0,0,1,.572.676c0,.416-.312.728-.312,1.144,0,.26-.052.468-.052.676a.576.576,0,0,0,.26.52c.676.468.364.78,1.3,1.3a4,4,0,0,0,1.872.468,3.6,3.6,0,0,0,1.04-.156,12.5,12.5,0,0,0,2.964-1.56A.75.75,0,0,0,45.812-2.964Zm19.24.988c0-.156,0-.416-.26-.416-.416,0-1.248.78-1.768.884a6.749,6.749,0,0,1-1.716.364c-.26,0-.416-.052-.52-.26-.26-.52-1.352-1.092-1.352-1.508,0-.468-1.3-1.04-1.3-1.82,0-.988-1.716-1.352-2.5-1.352-1.248,0-1.352,1.508-2.184,2.08-1.04.728-.728,1.456-2.08,2.392-.676.468-1.56,1.82-2.5,1.82-.156,0-.156-.1-.156-.208A7.167,7.167,0,0,1,49.3-1.56c.364-.936,1.768-2.392,1.768-3.068,0-.52-.676-1.716-1.2-1.716-.884,0-2.028,1.456-2.756,1.56-.832.1-1.3,1.2-2.184,1.56-.364.1-2.7,1.3-2.7,1.612,0,.26.572.364.78.364a8.023,8.023,0,0,0,2.6-1.04c.52-.52,1.2-.572,1.768-.988a6.991,6.991,0,0,1,.728-.572c.1.1.312.312.312.468,0,.312-.78.832-.936,1.716-.208.988-1.04,1.144-1.144,1.976a5.045,5.045,0,0,0-.052.884c0,.572,0,1.508.78,1.508A9.292,9.292,0,0,0,50.8.728C51.22.052,52.312-.26,52.936-.936c.572-.624,1.092-1.248,1.612-1.924A1.871,1.871,0,0,1,55.8-3.692a.463.463,0,0,1,.416.26c.312.572,1.56.676,1.82,1.664C58.344-.624,60.32,0,61.412,0,62.3,0,65.052-.884,65.052-1.976Zm11.336-.156c0-.26-.312-.312-.52-.312a1.812,1.812,0,0,0-.884.312c-.364.26-.728.156-1.352.624-.832.624-2.132.416-2.7.884a.8.8,0,0,1-.676.26c-.208,0-.416-.052-.572-.052-.364,0-.676.156-1.04.156a1.246,1.246,0,0,1-1.2-1.2,2.027,2.027,0,0,1,1.092-1.612c.572-.26.676-1.144,1.144-1.456a.507.507,0,0,0,.208-.468c0-.624-.416-.676-.884-.676a1.811,1.811,0,0,0-1.456.52A6.01,6.01,0,0,1,66.2-3.692c-.312.208-1.352,1.2-1.352,1.56,0,.312.312.572.468.832A3.989,3.989,0,0,1,65.676.1c.26.78,1.924,1.4,2.7,1.4A9.041,9.041,0,0,0,70.408.936,5.74,5.74,0,0,0,72.9.052a8.493,8.493,0,0,1,1.768-.988C75.14-1.144,76.388-1.508,76.388-2.132Zm4.94-13.624c0-.364-.364-.676-.416-1.092-.1-.624,0-1.456-.468-1.976-.208-.208-.52-.572-.78-.572-.416,0-1.456,1.508-1.456,2.08a2.2,2.2,0,0,0,2.08,2.392C80.7-14.924,81.328-15.34,81.328-15.756ZM88.556-2.028c0-.312-.364-.416-.624-.416-1.092,0-2.08,1.2-2.964,1.248-.676.052-.936.416-1.456.728A11.579,11.579,0,0,1,81.848,0a1.048,1.048,0,0,1-.572.156c-.676,0-.936.156-1.4.156-.676,0-1.248-.468-1.664-.468-.832,0-.884-.988-.884-1.612,0-.52.208-.676.52-.78.832-.364,1.092-1.508,2.028-1.508.728,0,.468.78,1.144.78.624,0,1.4-.312,1.4-1.04,0-.78-.676-2.184-1.612-2.184-.1,0-.26.052-.416.052a5.27,5.27,0,0,0-2.288,1.4,21.8,21.8,0,0,1-1.716,1.352c-.26.208-.26.52-.52.676-.416.312-.728.572-.728,1.092,0,.26.052.468.052.676,0,.312-.052.572-.052.832a1.87,1.87,0,0,0,.1.572c.364.936,2.964,1.716,3.848,1.716.468,0,.832-.26,1.248-.26H80.7c.624,0,1.04-.468,1.612-.52.156-.052,2.7-1.04,2.86-1.144a11.446,11.446,0,0,1,1.352-.78A5.671,5.671,0,0,0,88.14-1.56C88.348-1.664,88.556-1.82,88.556-2.028Zm4.42-3.432c0,.312-.884.832-1.144,1.092s-.676.26-.988.468c-.1.052-.26.208-.364.208s-.1-.052-.1-.1c0-.208.468-.624.624-.78a2.776,2.776,0,0,1,1.768-.988C92.872-5.564,92.976-5.564,92.976-5.46Zm6.968,3.38a.425.425,0,0,0-.468-.416c-.832,0-2.964,1.508-4.056,1.612S93.444.156,91.832.156C90.9.156,89.6-.676,89.6-1.664c0-.572,1.976-1.04,2.392-1.456,1.144-1.04,2.756-.988,2.756-3.276,0-.78-.468-.884-1.092-.884h-.468c-1.04,0-1.976.936-2.86,1.456A5.4,5.4,0,0,0,88.348-3.9c-.728,1.04-.936,1.508-2.028,2.08-.156.156-.416.312-.416.572a.472.472,0,0,0,.52.416c.468,0,.572,1.2,2.132,1.664a5.081,5.081,0,0,1,1.56.572,2.3,2.3,0,0,0,1.144.26A17.711,17.711,0,0,0,96.98-.26,9.538,9.538,0,0,1,98.54-1.2C98.9-1.3,99.944-1.612,99.944-2.08Z" transform="translate(0.208 19.396)" fill="#fff"/>
</svg>
