<svg xmlns="http://www.w3.org/2000/svg" width="165.88" height="43.004" viewBox="0 0 165.88 43.004">
  <path id="パス_47134" data-name="パス 47134" d="M28.184-2.132c0-.208-.26-.312-.416-.312-.624,0-1.508.832-2.548.832-.936,0-2.34-.312-2.548-1.352-.156-1.092,0-.78-.832-1.56a.642.642,0,0,0-.416-.208c-.728,0-1.352,1.352-1.976,1.664-.676.312-.728,1.144-1.612,1.664-.468.26-.832,1.3-1.352,1.3-.468,0-.728-.676-.728-1.04a.66.66,0,0,1,.052-.312c.468-.78.26-1.4.52-1.82a.752.752,0,0,0,.1-.364c0-.364-.78-1.4-1.144-1.4-.468,0-.832.728-1.092,1.04-.624.78-2.184,1.4-2.964,2.132a6.59,6.59,0,0,1-2.184,1.3C8.32-.312,7.8.572,6.864.572,6.656.572,6.4.468,6.4.208a1.351,1.351,0,0,1,.468-.832c.364-.416.26-.884.832-1.3a8.384,8.384,0,0,0,1.2-1.716c.312-.416.416-.988.78-1.352.416-.364.624-.884,1.092-1.248.416-.312.468-.936.884-1.3.208-.208.676-.624.676-.936l-.052-.156a1.963,1.963,0,0,0-1.2-.416.629.629,0,0,0-.52.156c-.572.416-.988.364-1.456.988A3.086,3.086,0,0,1,7.748-6.812c-.676.312-1.04,1.092-1.716,1.4C5.3-5.1,4.784-4.368,4.056-4.056c-.624.26-.936.988-1.56,1.248-.676.26-1.3.624-1.924.936-.208.1-.52.26-.52.468,0,.312.468.468.728.468C1.4-.936,3.64-2.5,4.316-2.86S5.148-3.8,6.032-4.108a14,14,0,0,0,1.4-1.04.27.27,0,0,1,.208-.1A.191.191,0,0,1,7.7-5.1a1.228,1.228,0,0,1-.312.468l-.832.936c-.728.832-1.4,2.5-2.184,3.38A1.478,1.478,0,0,0,3.9.676c0,.78.988,1.4,1.716,1.4a14.108,14.108,0,0,0,2.132-.468C9.152,1.4,11.336-.78,12.688-.78c.624,0,.52.936.624,1.352.156.988,1.144.676,1.82.936a.771.771,0,0,0,.364.052c2.08,0,3.12-3.536,4.836-3.536.156,0,.312.052.416.052.416,0,.676-.26.988-.26.572,0,.676.988,1.248,1.248a4.063,4.063,0,0,0,1.924.312h.624C26.052-.624,28.184-1.56,28.184-2.132ZM32.656-5.46c0,.312-.884.832-1.144,1.092s-.676.26-.988.468c-.1.052-.26.208-.364.208s-.1-.052-.1-.1c0-.208.468-.624.624-.78a2.776,2.776,0,0,1,1.768-.988C32.552-5.564,32.656-5.564,32.656-5.46Zm6.968,3.38a.425.425,0,0,0-.468-.416c-.832,0-2.964,1.508-4.056,1.612S33.124.156,31.512.156c-.936,0-2.236-.832-2.236-1.82,0-.572,1.976-1.04,2.392-1.456,1.144-1.04,2.756-.988,2.756-3.276,0-.78-.468-.884-1.092-.884h-.468c-1.04,0-1.976.936-2.86,1.456A5.4,5.4,0,0,0,28.028-3.9C27.3-2.86,27.092-2.392,26-1.82c-.156.156-.416.312-.416.572a.472.472,0,0,0,.52.416c.468,0,.572,1.2,2.132,1.664A5.081,5.081,0,0,1,29.8,1.4a2.3,2.3,0,0,0,1.144.26A17.711,17.711,0,0,0,36.66-.26,9.538,9.538,0,0,1,38.22-1.2C38.584-1.3,39.624-1.612,39.624-2.08ZM54.756-15.444a7.169,7.169,0,0,1-2.132,2.912c-.676.312-1.2,1.352-1.716,1.56S49.348-9.62,49.036-9.62a.112.112,0,0,1-.1-.1c0-.312.572-.78.78-.936.884-.676,1.248-1.924,2.08-2.5.676-.52,2.132-2.444,2.808-2.444A.138.138,0,0,1,54.756-15.444ZM70.928-20.28c0-.78-.364-1.768-1.248-1.768a5.313,5.313,0,0,0-2.028.52,6.3,6.3,0,0,0-2.288,2.08c-.676.988-1.612,1.716-2.288,2.652-.78,1.04-1.352,2.236-2.236,3.224a12.817,12.817,0,0,0-2.34,3.64,7.154,7.154,0,0,1-1.612,2.444,11.268,11.268,0,0,1-2.444,1.664c-.78.52-1.352,1.248-2.08,1.768-1.04.676-3.952,2.184-5.044,2.184-.416,0-.52-.312-.52-.676,0-.208.052-.416.052-.676a.726.726,0,0,0-.156-.468,1.223,1.223,0,0,1-.26-.832,2.945,2.945,0,0,1,.156-.936c.26-.78,1.2-.884,1.612-1.456A3.1,3.1,0,0,1,49.5-7.9c.728-.364,1.144-1.248,1.872-1.716a10.443,10.443,0,0,0,2.392-2.392c.416-.52,1.092-.832,1.508-1.352s1.612-.988,1.82-1.56c.26-.78,1.508-2.288,1.508-2.86a1.745,1.745,0,0,0-1.716-1.56,2.2,2.2,0,0,0-1.664.676,7.6,7.6,0,0,1-2.548,1.716c-.832.364-2.132,2.288-3.016,2.964A25.546,25.546,0,0,0,45.552-7.9a3.694,3.694,0,0,1-1.82,2.288A17.511,17.511,0,0,0,42.12-4.524a23.134,23.134,0,0,1-2.5,1.352c-.884.364-1.508,1.092-2.5,1.456a.831.831,0,0,0-.624.728c0,.26.208.416.52.416.52,0,1.248-.728,1.82-.884.78-.208,1.4-.936,2.184-1.2.52-.208,1.352-.936,1.82-.936a.94.94,0,0,1,.936.728A3.356,3.356,0,0,0,47.112-.468,2.576,2.576,0,0,0,48-.572c.988-.364,1.872-.988,2.912-1.352a4.261,4.261,0,0,0,1.716-.936,5.5,5.5,0,0,1,1.82-1.456,8.706,8.706,0,0,0,2.08-1.3.9.9,0,0,1,.572-.312c.26,0,.312.1.364.312.208.624.052,1.716.26,2.5a5.311,5.311,0,0,0,1.768,2.6A8.286,8.286,0,0,0,61.724.624a2.745,2.745,0,0,0,1.3.208,13.1,13.1,0,0,0,2.5-.26A28.718,28.718,0,0,0,68.38-.78c.572-.156,2.132-.78,2.132-1.56,0-.1,0-.156-.052-.208-.052,0-.1-.052-.156-.052a6.734,6.734,0,0,0-2.132.832c-.78.572-1.82.572-2.444,1.092a1.164,1.164,0,0,1-.884.312c-.78,0-1.56-.312-2.288-.312-1.716,0-3.016-2.288-3.016-3.8,0-.832.52-1.56.52-2.288s1.612-2.808,2.028-3.588A6.592,6.592,0,0,1,64.74-12.9c1.4-.936,2.08-2.444,3.276-3.536a26.884,26.884,0,0,0,2.548-2.912A1.62,1.62,0,0,0,70.928-20.28ZM84.5-4.628c0-.468-.728-.468-1.04-.468-1.456,0-2.808.468-4.316.468a28.006,28.006,0,0,1-4.16-.312h-.572c-.52,0-2.288.416-2.288,1.092,0,1.04,4.888,1.04,5.72,1.04a28.588,28.588,0,0,0,4.732-.416C83.252-3.328,84.5-3.8,84.5-4.628Zm24.492-13.78a1.237,1.237,0,0,0-1.2-1.144,1.65,1.65,0,0,0-1.04.312c-.884.676-3.64,2.34-4.056,3.016-.364.572-1.144.78-1.612,1.3a21.667,21.667,0,0,1-2.132,2.236c-.676.572-1.872,1.092-2.288,1.872C96.2-9.88,94.9-9.2,94.12-8.528a23.775,23.775,0,0,1-2.34,2.236c-.936.52-.884.676-1.56,1.4A16.5,16.5,0,0,1,86.268-2.08c-.26.156-.728.572-.728.884l.052.156a.774.774,0,0,0,.468.208c.884,0,2.808-1.56,3.536-2.08a11.428,11.428,0,0,1,1.2-1.04c.676-.364.416-.624.988-.936.156-.052.728-.572.78-.572.052.052.1.1.1.156,0,.78-1.924,1.82-2.288,2.6C89.96-1.716,88.92-1.04,88.92.052c0,.676,1.092,1.352,1.612,1.612a2.04,2.04,0,0,0,.936.208c1.092,0,1.976-.676,3.068-.884C96.044.676,96.252-.728,97.448-1.04c.52-.156.832-.78,1.352-.78.468,0,.468,1.04,1.352,1.456a7.283,7.283,0,0,0,2.288.52c.884,0,1.456-.624,2.184-.988.364-.208,1.716-.78,1.716-1.248a.4.4,0,0,0-.364-.416c-.936,0-2.028,1.456-4,1.456-2.288,0-.884-1.768-2.548-2.548a.964.964,0,0,0-.364-.1c-.676,0-1.4.676-1.872,1.092-.52.468-1.144.676-1.716,1.144A6.865,6.865,0,0,1,92.716.052a1.013,1.013,0,0,1-1.04-1.144,1.14,1.14,0,0,1,.364-.884c.52-.468.832-1.144,1.352-1.508.572-.364.728-1.144,1.144-1.4.832-.52,1.924-2.5,3.172-3.328.988-.676,1.924-2.912,2.964-3.12.468-.1,1.2-.988,1.768-1.248.572-.208,1.144-1.248,1.4-1.248.572,0,1.4-.884,1.976-1.2.78-.416.936-1.456,1.508-1.716.52-.26.676-.884,1.248-1.144A.547.547,0,0,0,108.992-18.408ZM110.916-5.46c0,.312-.884.832-1.144,1.092s-.676.26-.988.468c-.1.052-.26.208-.364.208s-.1-.052-.1-.1c0-.208.468-.624.624-.78a2.776,2.776,0,0,1,1.768-.988C110.812-5.564,110.916-5.564,110.916-5.46Zm6.968,3.38a.425.425,0,0,0-.468-.416c-.832,0-2.964,1.508-4.056,1.612s-1.976,1.04-3.588,1.04c-.936,0-2.236-.832-2.236-1.82,0-.572,1.976-1.04,2.392-1.456,1.144-1.04,2.756-.988,2.756-3.276,0-.78-.468-.884-1.092-.884h-.468c-1.04,0-1.976.936-2.86,1.456A5.4,5.4,0,0,0,106.288-3.9c-.728,1.04-.936,1.508-2.028,2.08-.156.156-.416.312-.416.572a.472.472,0,0,0,.52.416c.468,0,.572,1.2,2.132,1.664a5.081,5.081,0,0,1,1.56.572,2.3,2.3,0,0,0,1.144.26A17.711,17.711,0,0,0,114.92-.26a9.538,9.538,0,0,1,1.56-.936C116.844-1.3,117.884-1.612,117.884-2.08Zm10.452-.052c0-.26-.312-.312-.52-.312a1.812,1.812,0,0,0-.884.312c-.364.26-.728.156-1.352.624-.832.624-2.132.416-2.7.884a.8.8,0,0,1-.676.26c-.208,0-.416-.052-.572-.052-.364,0-.676.156-1.04.156a1.246,1.246,0,0,1-1.2-1.2,2.027,2.027,0,0,1,1.092-1.612c.572-.26.676-1.144,1.144-1.456a.507.507,0,0,0,.208-.468c0-.624-.416-.676-.884-.676a1.811,1.811,0,0,0-1.456.52,6.01,6.01,0,0,1-1.352,1.456c-.312.208-1.352,1.2-1.352,1.56,0,.312.312.572.468.832a3.989,3.989,0,0,1,.364,1.4c.26.78,1.924,1.4,2.7,1.4a9.041,9.041,0,0,0,2.028-.572,5.74,5.74,0,0,0,2.5-.884,8.493,8.493,0,0,1,1.768-.988C127.088-1.144,128.336-1.508,128.336-2.132Zm4.94-13.624c0-.364-.364-.676-.416-1.092-.1-.624,0-1.456-.468-1.976-.208-.208-.52-.572-.78-.572-.416,0-1.456,1.508-1.456,2.08a2.2,2.2,0,0,0,2.08,2.392C132.652-14.924,133.276-15.34,133.276-15.756ZM149.6-2.08c0-.312-.364-.416-.572-.416-.624,0-2.7,1.2-3.64,1.508a8.079,8.079,0,0,1-2.652.936c-1.4,0-1.716-.416-2.08-1.768a3.069,3.069,0,0,1-.1-.728c0-1.508,1.716-1.2,1.716-2.236,0-.572-.676-1.612-1.3-1.612-1.092,0-2.548,1.508-3.172,2.288a18.848,18.848,0,0,1-3.9,2.6c-.208,0-.26-.1-.26-.312,0-.78.78-1.352.78-1.872,0-.624-1.3-1.612-1.924-1.612a1.753,1.753,0,0,0-.884.26c-.988.572-1.872,1.248-2.86,1.768-.832.416-1.664.728-2.444,1.144-.26.1-1.4.676-1.4,1.04,0,.208.572.26.728.26a2.543,2.543,0,0,0,1.2-.416c.936-.572,2.028-.572,3.068-1.04a1.1,1.1,0,0,1,.364-.156c.26,0,.936.78.936.988,0,.624-1.092,1.092-1.092,1.768,0,.624.676.936,1.248.936,2.6,0,2.86-1.56,4.628-2.288.624-.26,2.028-1.352,2.5-1.352s.26,1.612.572,2.08a3.416,3.416,0,0,0,2.7,1.872,5.543,5.543,0,0,0,1.56-.312c.624-.208,1.04-.78,1.664-.832.832-.052,1.04-.364,1.664-.728a12.565,12.565,0,0,1,2.08-.988C149.032-1.456,149.6-1.716,149.6-2.08Zm-2.236,10.5a.924.924,0,0,1-.208.52c-.884,1.092-1.82,2.08-2.652,3.224a9.856,9.856,0,0,1-.988,1.092c-.364.416-1.248.936-1.508,1.4a4.3,4.3,0,0,1-1.352,1.82c-.416.312-1.508,1.82-1.82,1.82-.156,0-.208-.156-.208-.26,0-.988,1.3-1.092,1.508-2.288a1.628,1.628,0,0,1,.832-1.3c.52-.208.936-.988,1.4-1.352.572-.416.832-1.248,1.3-1.82.572-.572,1.2-1.04,1.716-1.664.26-.26,1.4-1.456,1.768-1.456C147.316,8.164,147.368,8.32,147.368,8.424ZM165.932-2.132c0-.156-.156-.416-.312-.416a2.925,2.925,0,0,0-.936.364c-.572.208-1.04.156-1.508.624-.156.156-1.56.468-1.924.624L158.964,0c-.728.312-2.964,1.768-3.484,1.768-.208,0-.312-.1-.312-.26,0-.884,3.38-4.42,3.38-5.252a.455.455,0,0,0-.416-.468c-.468,0-1.2.728-1.716.936-.468.156-1.144.936-1.508.936-.572,0-.728.572-1.2.572-.052,0-.156-.052-.208-.052-.468,0-1.3.936-2.132.936-.416,0-1.092-.312-1.092-.832,0-.312.78-1.248,1.2-1.248.364,0,2.86-2.08,4.524-2.08.312,0,.572.1.884.1.26,0,.312-.26.312-.468,0-.468-.208-.988-.78-.988s-1.144.156-1.716.208c-.832.1-1.2.052-1.82.676a4.054,4.054,0,0,1-2.34,1.3c-.624,0-1.508,1.508-2.132,1.924a.833.833,0,0,0-.468.832c0,1.664,1.716,2.132,3.12,2.132,1.248,0,2.028-1.092,3.12-1.092.1,0,.26.052.26.208a8.11,8.11,0,0,1-1.248,1.82l-1.56,1.872c-1.04,1.248-3.848,2.34-4.628,3.432-.312.52-1.144.52-1.508,1.092-.364.728-1.872,1.3-2.132,2.028-.364.832-1.56,1.664-2.028,2.444-.364.728-1.352,1.508-1.612,2.132a19.565,19.565,0,0,1-2.288,3.276,4.918,4.918,0,0,0-1.2,2.444.552.552,0,0,0,.624.624,4.126,4.126,0,0,0,2.236-1.3c1.144-1.144,2.392-2.184,3.588-3.276a31.94,31.94,0,0,0,4.264-4.888c1.2-1.664,2.7-3.12,3.952-4.732a7.817,7.817,0,0,1,3.016-2.652,25.4,25.4,0,0,1,2.964-1.716c.936-.208,1.664-.988,2.6-1.248.78-.26,1.352-.832,2.132-.936A21.058,21.058,0,0,0,164.58-1.04C164.892-1.2,165.932-1.612,165.932-2.132Z" transform="translate(-0.052 22.048)" fill="#fff"/>
</svg>
