<svg xmlns="http://www.w3.org/2000/svg" width="20.384" height="16.574" viewBox="0 0 20.384 16.574">
  <path id="パス_46657" data-name="パス 46657" d="M196.077,87.5a8.413,8.413,0,0,1-2.4.658,4.2,4.2,0,0,0,1.838-2.314,8.343,8.343,0,0,1-2.656,1.015,4.182,4.182,0,0,0-7.126,3.814,11.875,11.875,0,0,1-8.618-4.37,4.188,4.188,0,0,0,1.294,5.584,4.168,4.168,0,0,1-1.894-.523v.052a4.185,4.185,0,0,0,3.354,4.1,4.215,4.215,0,0,1-1.889.072,4.185,4.185,0,0,0,3.9,2.906,8.394,8.394,0,0,1-6.191,1.732A11.893,11.893,0,0,0,194,90.365V90.2c0-.18,0-.362-.013-.54a8.49,8.49,0,0,0,2.087-2.165Z" transform="translate(-175.694 -85.529)" fill="#1571da"/>
</svg>
