<svg xmlns="http://www.w3.org/2000/svg" width="217.745" height="98.47"><defs><clipPath id="clip-path"><path id="長方形_23426" data-name="長方形 23426" fill="none" d="M0 0h217.745v98.47H0z"/></clipPath></defs><g id="グループ_10682" data-name="グループ 10682" style="isolation:isolate"><g id="グループ_10681" data-name="グループ 10681"><g id="グループ_10680" data-name="グループ 10680" clip-path="url(#clip-path)"><path id="パス_47150" data-name="パス 47150" d="M20.592-2.808c0-.432-.5-.576-.864-.576-1.512 0-2.88 1.656-4.1 1.728-.936.072-1.3.576-2.016 1.008A16.032 16.032 0 0111.3 0a1.451 1.451 0 01-.792.216c-.936 0-1.3.216-1.944.216-.936 0-1.728-.648-2.3-.648-1.152 0-1.224-1.368-1.224-2.232 0-.72.288-.936.72-1.08 1.152-.5 1.512-2.088 2.808-2.088 1.008 0 .648 1.08 1.584 1.08.864 0 1.944-.432 1.944-1.44C12.1-7.056 11.16-9 9.864-9c-.144 0-.36.072-.576.072A7.3 7.3 0 006.12-6.984a30.182 30.182 0 01-2.376 1.872c-.36.288-.36.72-.72.936-.576.432-1.008.792-1.008 1.512 0 .36.072.648.072.936 0 .432-.072.792-.072 1.152a2.588 2.588 0 00.144.792c.5 1.3 4.1 2.376 5.328 2.376.648 0 1.152-.36 1.728-.36h.5c.864 0 1.44-.648 2.232-.72.216-.072 3.744-1.44 3.96-1.584a15.848 15.848 0 011.872-1.08 7.853 7.853 0 002.236-1.008c.284-.14.576-.36.576-.648zM28.584-5.4c0 .72-1.44 1.152-1.872 1.944-.648 1.08-2.808 2.88-4.1 2.88a1.13 1.13 0 01-1.224-1.008 1.539 1.539 0 01.864-1.224c1.44-.792 4.032-3.456 5.616-3.456a.806.806 0 01.716.864zm11.3 2.376c0-.288-.432-.432-.72-.432A10.694 10.694 0 0036-2.232a28.107 28.107 0 01-5.04 1.44c-.72 0-1.152-.936-1.152-1.584 0-1.008 1.3-2.376 1.3-3.816 0-.936-.36-2.376-1.512-2.376-.648 0-1.3.288-2.016.288h-.288c-1.8 0-3.24 1.3-4.608 2.016-1.656.936-4.536 2.952-4.536 5.04 0 1.584.648 1.872 2.016 2.232a9.187 9.187 0 002.448.432c1.872 0 2.736-1.368 3.744-1.368C27.5.072 27.432 1.8 29.088 1.8a10.9 10.9 0 002.664-.5A10.549 10.549 0 0133.768.288 42.02 42.02 0 0039.24-2.16c.216-.14.648-.504.648-.864zm1.728 4.1a.845.845 0 01-.72.648c-.216 0-.5-.216-.5-.432 0-.288.576-.5.792-.5s.432.072.432.288zm12.316-11.444c0-1.008-1.44-1.224-2.16-1.224a3.713 3.713 0 00-2.952 1.224c-.648.864-1.08.648-1.728 1.944-.72 1.656-7.128 3.528-8.928 5.04-.576.432-2.664 1.08-2.664 1.8 0 .432.5.5.792.5.792 0 3.744-1.872 5.112-2.016 1.08-.216 2.736-1.944 3.384-1.944.936 0 1.512-.792 1.944-.792s.936.792.936 1.224c0 .864-.576 4.032-1.8 4.032-.648 0-1.224.072-1.872.072-.72 0-.576-.288-1.08-.288-.36 0-.792.072-1.152.072-.288 0-.5-.072-.72-.072-.792 0-3.024 1.728-3.024 2.52 0 .864 1.3 1.8 2.088 1.8s1.44-.5 2.3-.5c.216 0 .576.072.936.072a2.351 2.351 0 00.864-.144 2.886 2.886 0 011.584-.72c.72-.144 1.512-.936 2.3-1.224.648-.288.936-1.224 1.368-1.8a4.8 4.8 0 00.872-2.808c0-.72-.36-1.3-.36-1.944 0-2.088 2.16-1.728 2.448-2.376.284-.792 1.512-1.8 1.512-2.448zM64.3-7.56c0 .432-1.224 1.152-1.584 1.512s-.936.36-1.368.648c-.144.072-.36.288-.5.288s-.144-.072-.144-.144c0-.288.648-.864.864-1.08a3.844 3.844 0 012.44-1.364c.144 0 .292 0 .292.14zm9.648 4.68a.588.588 0 00-.648-.576c-1.152 0-4.1 2.088-5.616 2.232s-2.74 1.44-4.972 1.44c-1.3 0-3.1-1.152-3.1-2.52 0-.792 2.736-1.44 3.312-2.016 1.584-1.44 3.816-1.368 3.816-4.536 0-1.08-.648-1.224-1.512-1.224h-.648c-1.44 0-2.736 1.3-3.96 2.016A7.476 7.476 0 0057.888-5.4c-1.008 1.44-1.3 2.088-2.808 2.88-.216.216-.576.432-.576.792a.654.654 0 00.72.576c.648 0 .792 1.656 2.952 2.3a7.035 7.035 0 012.16.792 3.182 3.182 0 001.584.36 24.523 24.523 0 007.92-2.66A13.206 13.206 0 0172-1.656c.5-.144 1.944-.576 1.944-1.224zm22.68 3.96a.845.845 0 01-.72.648c-.216 0-.5-.216-.5-.432 0-.288.576-.5.792-.5s.424.068.424.284zm12.312-11.448c0-1.008-1.44-1.224-2.16-1.224a3.713 3.713 0 00-2.952 1.224c-.648.864-1.08.648-1.728 1.944-.72 1.656-7.128 3.528-8.928 5.04-.576.432-2.664 1.08-2.664 1.8 0 .432.5.5.792.5.792 0 3.744-1.872 5.112-2.016 1.08-.216 2.736-1.944 3.384-1.944.936 0 1.512-.792 1.944-.792s.936.792.936 1.224c0 .864-.576 4.032-1.8 4.032-.648 0-1.224.072-1.872.072-.72 0-.576-.288-1.08-.288-.36 0-.792.072-1.152.072-.288 0-.5-.072-.72-.072-.792 0-3.024 1.728-3.024 2.52 0 .864 1.3 1.8 2.088 1.8s1.44-.5 2.3-.5c.216 0 .576.072.936.072a2.351 2.351 0 00.864-.144 2.886 2.886 0 011.584-.72c.72-.144 1.512-.936 2.3-1.224.648-.288.936-1.224 1.368-1.8a4.8 4.8 0 00.864-2.808c0-.72-.36-1.3-.36-1.944 0-2.088 2.16-1.728 2.448-2.376.292-.792 1.516-1.8 1.516-2.448zm55.08-6.7c0-.792-.5-.936-1.008-.936-.936 0-1.728.432-2.592.432-1.152 0-2.3-.216-3.456-.216-.648 0-1.224.288-1.944.288-.432 0-.864-.072-1.368-.072-.792 0-1.584.216-2.448.216-.936 0-1.8-.288-2.736-.288-.648 0-1.3.144-2.016.144-1.008 0-2.088-.216-3.1-.216-.864 0-1.656.288-2.52.288-1.08 0-2.232-.144-3.312-.144-.216 0-.864.072-1.512.072-.864 0-1.8-.144-1.8-.576 0-.144.216-.144.288-.216.648-.144 1.512-2.088 2.376-2.664a8.476 8.476 0 002.016-3.24 1.084 1.084 0 00-1.008-1.004c-.864 0-2.16 1.08-3.024 1.44-1.08.5-1.44 1.728-2.448 2.088s-1.008 1.224-2.52 1.728c-1.872.72-.864 2.16-4.032 2.16-.792 0-1.656-.144-2.448-.144-.936 0-1.8.36-2.664.36-1.584 0-3.168-.072-4.68-.072-1.224 0-2.376.072-3.6.072-.432 0-.864-.144-1.3-.144-.792 0-.936.5-.936 1.152 0 .576.648.648 1.08.648.936 0 1.872-.072 2.88-.072.576 0 .5.144 1.08.144.288 0 .72-.216.936-.216.288 0 .5.072.792.072.576 0 1.152-.216 1.728-.216h1.584a7.319 7.319 0 011.872.144 19.64 19.64 0 012.952.216c.072.072.144.144.144.216 0 .144-2.664 2.952-3.024 3.312-1.224 1.152-1.944 2.664-3.456 3.6-1.08.648-1.944 1.656-2.952 2.3s-1.872 1.512-2.88 2.16c-.576.432-3.456 1.872-3.456 2.448 0 .36.432.576.72.576a2.78 2.78 0 001.44-.576 16.657 16.657 0 012.52-1.3c.792-.288 1.152-1.08 1.872-1.512a10.781 10.781 0 002.592-1.872 11.321 11.321 0 012.376-2.16c.864-.5.432-1.368 2.376-2.448a2.893 2.893 0 001.224-1.008l.216-.216c.144 0 .216.072.216.144a.839.839 0 01-.144.5c-.5.72-1.872 1.512-2.3 2.088-.648.936-.576 1.152-1.728 1.872-1.224.792-1.512 2.3-2.3 3.528a1.607 1.607 0 00-.216 1.008v2.16c0 1.8 2.664 2.592 4.1 2.592a21.018 21.018 0 003.6-.648c1.08-.144 2.016-.864 3.024-1.008s1.44-1.008 2.376-1.224c.5-.144 2.592-1.152 2.592-1.584 0-.36-.5-.576-.792-.576a7.267 7.267 0 00-2.808 1.168c-.792.432-1.656.576-2.448 1.008a23.8 23.8 0 01-3.24.864 3.261 3.261 0 01-1.152.216c-1.224 0-2.376-.36-2.376-1.8a6.422 6.422 0 01.36-2.3c.216-.648 1.152-1.008 1.512-2.016.432-1.08 2.016-1.44 2.664-2.952.648-1.44 2.52-1.944 2.952-3.1.432-1.08 1.656-1.368 2.232-2.232a3.828 3.828 0 012.808-1.3h2.016c2.088 0 4.176-.288 6.264-.288 1.008 0 2.016.216 3.024.216.648 0 1.152-.216 1.8-.216.72 0 1.44.288 2.232.288 1.3 0 2.592-.216 3.888-.216.792 0 1.584.144 2.376.144.936 0 1.872-.072 2.808-.072h.576c.864 0 1.512-.144 2.232-.144.792 0 1.584.36 2.3.36s.724-.648.724-1.224zM162-2.736c0-.36-.576-.5-.864-.5a6.543 6.543 0 00-2.376.936c-1.872.936-4.248 1.3-6.192 2.16a2.558 2.558 0 01-.72.144c-.864 0-1.944-1.728-1.944-2.376 0-1.512 1.944-2.016 1.944-3.6a1.716 1.716 0 00-1.584-1.872c-1.08 0-1.44 1.512-2.448 1.656-1.512.144-2.232 1.728-3.528 2.3-1.44.576-2.16 2.3-3.24 2.664a13.992 13.992 0 01-4.1 1.152.881.881 0 01-1.008-1.008c0-2.952 1.872-1.944 3.024-3.6.5-.72.864-1.872 1.944-1.872.288 0 .5-.144.5-.432a1.77 1.77 0 00-1.44-1.656 2.679 2.679 0 00-2.016.936c-.72.936-1.872 1.44-2.664 2.376-1.008 1.3-2.592 1.584-3.528 2.376a.879.879 0 00-.288.648c0 1.8 1.008 1.8 1.584 2.808s3.24 1.3 4.392 1.3c.936 0 2.088-.72 3.1-.936 1.584-.288 1.944-1.08 2.664-1.224 1.152-.216 1.44-2.088 3.24-2.088.72 0 1.3 2.592 2.52 3.6 1.08.792 1.656.5 2.808.864h.36c.936 0 2.088-1.3 3.384-1.512a10.719 10.719 0 004.176-1.732c.428-.216 2.3-1.008 2.3-1.512zm7.992-3.528a3.557 3.557 0 01-.864 2.16c-.5.5 0 .792-.864 1.08-.648.288-1.224 1.368-1.656 1.368s-1.152 1.3-2.952 1.3c-.5 0-1.152-.072-1.152-.72 0-1.512 1.872-1.872 2.3-3.1.36-.936.432-.72 1.224-1.08.72-.36 1.728-1.224 2.52-1.224a3.5 3.5 0 001.008-.288c.22.144.436 0 .436.504zm23.04-19.872c0-.936-1.512-1.368-2.232-1.368-1.944 0-3.024 2.592-4.968 2.952-1.224.288-1.944 2.448-3.24 3.024-1.368.576-1.728 2.52-3.168 3.1-.072.072-1.944 2.448-2.088 2.736a23.561 23.561 0 01-2.52 3.456 15.072 15.072 0 00-1.584 2.016c-.288.576-1.44 2.3-2.16 2.3-.576 0-.288-1.08-1.44-1.08-.36 0-.792.432-1.152.432-.936 0-1.512.72-2.376.936-1.224.288-2.088 1.656-3.1 2.3-.936.576-1.584 1.44-2.448 2.016-.432.36-.288.936-.576 1.44a1.94 1.94 0 00-.36 1.08 2.779 2.779 0 003.024 2.808c1.3 0 2.088-.792 2.808-.792 1.44 0 3.024-1.656 3.672-1.656 1.08 0 1.008-1.08 1.656-1.08.432 0 .648.864.72 1.152.144 1.008.864.864 1.152 1.728.216.648 1.368.72 1.944.72a5.232 5.232 0 001.8-.288c1.008-.36 1.944-.792 2.88-1.224.864-.288 1.584-.864 2.448-1.08.72-.216 3.888-1.728 3.888-2.376 0-.288 0-.648-.288-.648a26.943 26.943 0 00-4.608 1.872 10.255 10.255 0 01-1.8.864 2.449 2.449 0 01-.72.072c-.792.144-1.08.792-1.8.792a1.5 1.5 0 01-.864-.36c-1.512-.792-1.152-1.008-1.3-2.448a7.933 7.933 0 01-.144-1.3 2.67 2.67 0 01.288-1.008c.36-.72-.144-.864.576-1.728.72-.72.864-2.232 1.944-2.592 1.3-.432 1.728-2.808 2.448-2.88.72-.144 1.584-2.232 2.592-2.376.936-.072.864-2.16 1.728-2.232 1.728-.216 2.736-3.456 3.888-3.744.792-.216.864-1.656 1.368-2.3.216-.288 1.584-1.08 2.16-1.656.44-.5 1.952-1.004 1.952-1.58zm-5.4 41.04c0 .5-.576.936-.936 1.152-.864.5-1.944 2.16-2.664 2.88-.936 1.08-5.4 4.536-5.832 5.328-.288.648-2.016 1.08-2.664 1.656a14.353 14.353 0 00-2.448 2.664c-.576.648-2.232.936-2.808 1.584-.432.576-1.08.864-1.512 1.368a1 1 0 01-.72.36c-.288 0-.5-.144-.5-.432v-.144a1.794 1.794 0 01.864-1.44c.864-.72 1.08-2.52 2.3-3.1a3.69 3.69 0 002.088-1.94c.576-1.224 1.944-2.088 2.736-3.168.576-.864 2.664-1.872 3.528-2.736a16.52 16.52 0 011.944-1.944c1.08-.72 2.52-.864 3.528-1.656a4.265 4.265 0 012.376-.792c.288 0 .72 0 .72.356zm23.616-23.328a.838.838 0 00-.936-.792 2.486 2.486 0 00-1.3.36 6.3 6.3 0 01-2.736.792c-.936 0-1.512.864-2.088 1.368-1.152 1.008-2.664 1.008-3.744 1.8-1.152 1.008-2.664 2.088-4.248 2.088-.648 0-1.3-.216-1.3-1.008a1.5 1.5 0 01.576-1.152c.5-.432.288-1.08 1.008-1.8.144-.144.288-.288.288-.432 0-.5-1.656-1.872-2.16-1.872a1.335 1.335 0 00-.864.5c-.936.864-2.3.864-3.312 1.656a9.538 9.538 0 01-2.52 1.656 10.864 10.864 0 00-2.016 1.08c-.5.288-2.52 1.008-2.52 1.584 0 .36.576.576.864.576.792 0 3.24-1.3 4.176-1.584 1.08-.432 1.512-1.224 2.952-1.224a.51.51 0 01.576.5c0 .576-.792 1.656-.792 2.88 0 1.152.792 1.512 1.8 1.512 1.728 0 5.976-1.944 7.56-2.808.864-.432 2.016-1.656 2.88-1.8.648-.072 1.44-.648 2.016-.648.288 0 .576 0 .576.432a4.884 4.884 0 01-2.224 3.32c-1.224.72-1.728 2.808-2.592 3.384s-1.656 1.8-2.376 2.16a9.166 9.166 0 00-2.88 2.88c-.72 1.152-2.808 2.088-3.816 3.384a5.867 5.867 0 01-4.32 2.376c-.36 0-.792-.216-1.152-.216-.72 0-1.656.936-2.448 1.08-1.152.216-1.8 1.224-2.88 1.368s-1.512 1.3-2.448 1.584-1.8 1.728-2.664 2.3c-1.008.648-1.44 2.016-2.52 2.592-1.152.72-1.584 2.592-3.024 3.24s-2.376 3.312-3.744 4.392c-1.512 1.224-1.3 2.232-2.016 3.888a2.346 2.346 0 00-.288.936c0 1.008 1.584 1.152 2.3 1.152 1.008 0 1.944-1.512 2.88-1.944 1.224-.5 4.392-2.16 5.04-3.168 1.008-1.368 2.736-2.088 3.672-3.384.5-.792 1.8-1.224 2.52-1.944 1.008-.936 1.944-1.008 2.88-2.3a12.051 12.051 0 013.168-3.168c1.152-.936 2.664-3.1 3.528-3.672a1.216 1.216 0 01.72-.216 1.663 1.663 0 011.728 1.512 6.709 6.709 0 01-1.152 3.672c-1.08 1.512-2.592.72-2.592 1.944a.53.53 0 00.576.576 22.05 22.05 0 002.74-1.008c.864-.216 1.08-1.3 1.512-2.016a5.986 5.986 0 001.3-3.024c0-.648-1.152-1.872-1.512-2.808-.216-.432-.936-1.008-.936-1.224 0-.576 2.16-2.592 2.592-3.024a21.77 21.77 0 012.232-2.232c.936-.576 1.008-1.584 2.088-2.16.72-.36 2.088-2.376 3.1-3.168 1.512-1.3 2.952-3.96 4.176-4.824.792-.576 1.008-2.16 1.8-2.592.72-.432.648-1.08 1.224-1.656.352-.432 1.072-1.008 1.072-1.656z" transform="translate(0 55.597)" fill="#2ca2dc"/></g></g></g></svg>