<svg xmlns="http://www.w3.org/2000/svg" width="151.112" height="45.188"><path id="パス_47133" data-name="パス 47133" d="M14.872-2.028c0-.312-.364-.416-.624-.416-1.092 0-2.08 1.2-2.964 1.248-.676.052-.936.416-1.456.728A11.579 11.579 0 018.164 0a1.048 1.048 0 01-.572.156c-.676 0-.936.156-1.4.156-.676 0-1.248-.468-1.664-.468-.832 0-.884-.988-.884-1.612 0-.52.208-.676.52-.78.832-.364 1.092-1.508 2.028-1.508.728 0 .468.78 1.144.78.624 0 1.4-.312 1.4-1.04C8.736-5.1 8.06-6.5 7.124-6.5c-.1 0-.26.052-.416.052a5.27 5.27 0 00-2.288 1.4A21.8 21.8 0 012.7-3.692c-.26.208-.26.52-.52.676-.416.312-.728.572-.728 1.092 0 .26.052.468.052.676 0 .312-.052.572-.052.832a1.869 1.869 0 00.1.572c.364.936 2.964 1.716 3.848 1.716.468 0 .832-.26 1.248-.26h.372c.624 0 1.04-.468 1.612-.52.156-.052 2.7-1.04 2.86-1.144a11.446 11.446 0 011.352-.78 5.671 5.671 0 001.612-.728c.208-.104.416-.26.416-.468zM20.644-3.9c0 .52-1.04.832-1.352 1.4-.468.78-2.028 2.08-2.964 2.08a.816.816 0 01-.884-.728 1.111 1.111 0 01.624-.884c1.04-.572 2.912-2.5 4.056-2.5a.582.582 0 01.52.632zm8.164 1.716c0-.208-.312-.312-.52-.312A7.723 7.723 0 0026-1.612a20.3 20.3 0 01-3.64 1.04c-.52 0-.832-.676-.832-1.144 0-.728.936-1.716.936-2.756 0-.676-.26-1.716-1.092-1.716-.468 0-.936.208-1.456.208h-.208c-1.3 0-2.34.936-3.328 1.456-1.2.676-3.276 2.132-3.276 3.64C13.1.26 13.572.468 14.56.728a6.635 6.635 0 001.768.312c1.352 0 1.976-.988 2.7-.988.832 0 .78 1.248 1.976 1.248a7.874 7.874 0 001.928-.364 7.618 7.618 0 011.456-.728A30.348 30.348 0 0028.34-1.56c.16-.104.468-.364.468-.624zM30.056.78a.61.61 0 01-.52.468c-.156 0-.364-.156-.364-.312 0-.208.416-.364.572-.364s.312.052.312.208zm8.892-8.268c0-.728-1.04-.884-1.56-.884a2.681 2.681 0 00-2.132.884c-.468.624-.78.468-1.248 1.4-.52 1.2-5.148 2.548-6.448 3.64-.416.312-1.924.78-1.924 1.3 0 .312.364.364.572.364.572 0 2.7-1.352 3.692-1.456.78-.156 1.976-1.4 2.444-1.4.676 0 1.092-.572 1.4-.572s.676.572.676.884c0 .624-.416 2.912-1.3 2.912-.468 0-.884.052-1.352.052-.52 0-.416-.208-.78-.208-.26 0-.572.052-.832.052-.208 0-.364-.052-.52-.052-.572 0-2.184 1.248-2.184 1.82 0 .624.936 1.3 1.508 1.3s1.04-.364 1.664-.364c.156 0 .416.052.676.052a1.7 1.7 0 00.624-.1 2.084 2.084 0 011.144-.52c.52-.1 1.092-.676 1.664-.884.468-.208.676-.884.988-1.3a3.467 3.467 0 00.628-2.032c0-.52-.26-.936-.26-1.4 0-1.508 1.56-1.248 1.768-1.716.208-.576 1.092-1.304 1.092-1.772zm7.488 2.028c0 .312-.884.832-1.144 1.092s-.676.26-.988.468c-.1.052-.26.208-.364.208s-.1-.052-.1-.1c0-.208.468-.624.624-.78a2.776 2.776 0 011.768-.988c.1-.004.204-.004.204.1zM53.4-2.08a.425.425 0 00-.468-.416C52.1-2.5 49.972-.988 48.88-.884S46.9.156 45.292.156c-.936 0-2.236-.832-2.236-1.82 0-.572 1.976-1.04 2.392-1.456C46.592-4.16 48.2-4.108 48.2-6.4c0-.78-.468-.884-1.092-.884h-.468c-1.04 0-1.976.936-2.86 1.456A5.4 5.4 0 0041.808-3.9c-.728 1.04-.936 1.508-2.028 2.08-.156.156-.416.312-.416.572a.472.472 0 00.52.416c.468 0 .572 1.2 2.132 1.664a5.081 5.081 0 011.56.572 2.3 2.3 0 001.144.26A17.711 17.711 0 0050.44-.26 9.538 9.538 0 0152-1.2c.364-.1 1.4-.412 1.4-.88zM69.784.78a.61.61 0 01-.52.468c-.156 0-.364-.156-.364-.312 0-.208.416-.364.572-.364s.312.052.312.208zm8.892-8.268c0-.728-1.04-.884-1.56-.884a2.681 2.681 0 00-2.132.884c-.468.624-.78.468-1.248 1.4-.52 1.2-5.148 2.548-6.448 3.64-.416.312-1.924.78-1.924 1.3 0 .312.364.364.572.364.572 0 2.7-1.352 3.692-1.456.78-.156 1.976-1.4 2.444-1.4.676 0 1.092-.572 1.4-.572s.676.572.676.884c0 .624-.416 2.912-1.3 2.912-.468 0-.884.052-1.352.052-.52 0-.416-.208-.78-.208-.26 0-.572.052-.832.052-.208 0-.364-.052-.52-.052-.572 0-2.184 1.248-2.184 1.82 0 .624.936 1.3 1.508 1.3s1.04-.364 1.664-.364c.156 0 .416.052.676.052a1.7 1.7 0 00.624-.1 2.084 2.084 0 011.144-.52c.52-.1 1.092-.676 1.664-.884.468-.208.676-.884.988-1.3a3.467 3.467 0 00.628-2.032c0-.52-.26-.936-.26-1.4 0-1.508 1.56-1.248 1.768-1.716.208-.576 1.092-1.304 1.092-1.772zm39.78-4.836c0-.572-.364-.676-.728-.676-.676 0-1.248.312-1.872.312-.832 0-1.664-.156-2.5-.156-.468 0-.884.208-1.4.208-.312 0-.624-.052-.988-.052-.572 0-1.144.156-1.768.156-.676 0-1.3-.208-1.976-.208-.468 0-.936.1-1.456.1-.728 0-1.508-.156-2.236-.156-.624 0-1.2.208-1.82.208-.78 0-1.612-.1-2.392-.1-.156 0-.624.052-1.092.052-.624 0-1.3-.1-1.3-.416 0-.1.156-.1.208-.156.468-.1 1.092-1.508 1.716-1.924a6.122 6.122 0 001.456-2.34.783.783 0 00-.728-.728c-.624 0-1.56.78-2.184 1.04-.78.364-1.04 1.248-1.768 1.508s-.728.884-1.82 1.248c-1.352.52-.624 1.56-2.912 1.56-.572 0-1.2-.1-1.768-.1-.676 0-1.3.26-1.924.26-1.144 0-2.288-.052-3.38-.052-.884 0-1.716.052-2.6.052-.312 0-.624-.1-.936-.1-.572 0-.676.364-.676.832 0 .416.468.468.78.468.676 0 1.352-.052 2.08-.052.416 0 .364.1.78.1.208 0 .52-.156.676-.156.208 0 .364.052.572.052.416 0 .832-.156 1.248-.156h1.144a5.286 5.286 0 011.352.1 14.184 14.184 0 012.132.156c.052.052.1.1.1.156 0 .1-1.924 2.132-2.184 2.392-.884.832-1.4 1.924-2.5 2.6-.78.468-1.4 1.2-2.132 1.664s-1.352 1.092-2.08 1.56c-.416.312-2.5 1.352-2.5 1.768 0 .26.312.416.52.416a2.008 2.008 0 001.04-.416 12.03 12.03 0 011.82-.936c.572-.208.832-.78 1.352-1.092A7.786 7.786 0 0085.7-4.68a8.176 8.176 0 011.716-1.56c.624-.364.312-.988 1.716-1.768a2.089 2.089 0 00.884-.728l.156-.156c.1 0 .156.052.156.1a.606.606 0 01-.1.364c-.364.52-1.352 1.092-1.664 1.508-.468.676-.416.832-1.248 1.352-.884.572-1.092 1.664-1.664 2.548a1.161 1.161 0 00-.156.728v1.56c0 1.3 1.924 1.872 2.964 1.872a15.18 15.18 0 002.6-.468c.78-.1 1.456-.624 2.184-.728s1.04-.728 1.716-.884c.364-.1 1.872-.832 1.872-1.144 0-.26-.364-.416-.572-.416a5.249 5.249 0 00-2.028.832c-.572.312-1.2.416-1.768.728a17.187 17.187 0 01-2.34.624 2.355 2.355 0 01-.832.156c-.884 0-1.716-.26-1.716-1.3a4.638 4.638 0 01.26-1.664c.156-.468.832-.728 1.092-1.456.312-.78 1.456-1.04 1.924-2.132.468-1.04 1.82-1.4 2.132-2.236.312-.78 1.2-.988 1.612-1.612a2.765 2.765 0 012.028-.936h1.456c1.508 0 3.016-.208 4.524-.208.728 0 1.456.156 2.184.156.468 0 .832-.156 1.3-.156.52 0 1.04.208 1.612.208.936 0 1.872-.156 2.808-.156.572 0 1.144.1 1.716.1.676 0 1.352-.052 2.028-.052h.416c.624 0 1.092-.1 1.612-.1.572 0 1.144.26 1.664.26s.512-.464.512-.88zM117-1.976c0-.26-.416-.364-.624-.364a4.726 4.726 0 00-1.716.676c-1.352.676-3.068.936-4.472 1.56a1.848 1.848 0 01-.52.1c-.624 0-1.4-1.248-1.4-1.716 0-1.092 1.4-1.456 1.4-2.6a1.239 1.239 0 00-1.144-1.352c-.78 0-1.04 1.092-1.768 1.2-1.092.1-1.612 1.248-2.548 1.664-1.04.416-1.56 1.664-2.34 1.924a10.105 10.105 0 01-2.968.832.637.637 0 01-.728-.728c0-2.132 1.352-1.4 2.184-2.6.364-.52.624-1.352 1.4-1.352.208 0 .364-.1.364-.312a1.278 1.278 0 00-1.04-1.2 1.935 1.935 0 00-1.456.676c-.52.676-1.352 1.04-1.924 1.716-.728.936-1.872 1.144-2.548 1.716a.635.635 0 00-.208.468c0 1.3.728 1.3 1.144 2.028s2.34.936 3.172.936a13.559 13.559 0 002.24-.672c1.144-.208 1.4-.78 1.924-.884.832-.156 1.04-1.508 2.34-1.508.52 0 .936 1.872 1.82 2.6.78.572 1.2.364 2.028.624h.26c.676 0 1.508-.936 2.444-1.092a7.741 7.741 0 003.016-1.248c.316-.156 1.668-.728 1.668-1.092zm5.772-2.548a2.569 2.569 0 01-.624 1.56c-.364.364 0 .572-.624.78-.468.208-.884.988-1.2.988s-.824.936-2.124.936c-.364 0-.832-.052-.832-.52 0-1.092 1.352-1.352 1.664-2.236.26-.676.312-.52.884-.78.52-.26 1.248-.884 1.82-.884a2.526 2.526 0 00.728-.208c.152.104.308 0 .308.364zm16.64-14.352c0-.676-1.092-.988-1.612-.988-1.4 0-2.184 1.872-3.588 2.132-.884.208-1.4 1.768-2.34 2.184-.988.416-1.248 1.82-2.288 2.236-.052.052-1.4 1.768-1.508 1.976a17.016 17.016 0 01-1.82 2.5 10.885 10.885 0 00-1.144 1.456c-.208.416-1.04 1.664-1.56 1.664-.416 0-.208-.78-1.04-.78-.26 0-.572.312-.832.312-.676 0-1.092.52-1.716.676-.884.208-1.508 1.2-2.236 1.664-.676.416-1.144 1.04-1.768 1.456-.312.26-.208.676-.416 1.04a1.4 1.4 0 00-.26.78 2.007 2.007 0 002.184 2.028c.936 0 1.508-.572 2.028-.572 1.04 0 2.184-1.2 2.652-1.2.78 0 .728-.78 1.2-.78.312 0 .468.624.52.832.1.728.624.624.832 1.248.156.468.988.52 1.4.52a3.779 3.779 0 001.3-.208c.728-.26 1.4-.572 2.08-.884.624-.208 1.144-.624 1.768-.78.52-.156 2.808-1.248 2.808-1.716 0-.208 0-.468-.208-.468A19.458 19.458 0 00130.52-1.2a7.406 7.406 0 01-1.3.624 1.769 1.769 0 01-.52.052c-.572.1-.78.572-1.3.572a1.08 1.08 0 01-.624-.26c-1.092-.572-.832-.728-.936-1.768a5.73 5.73 0 01-.1-.936 1.928 1.928 0 01.208-.728c.26-.52-.1-.624.416-1.248.52-.52.624-1.612 1.4-1.872.936-.312 1.248-2.028 1.768-2.08.52-.1 1.144-1.612 1.872-1.716.676-.052.624-1.56 1.248-1.612 1.248-.156 1.976-2.5 2.808-2.7.572-.156.624-1.2.988-1.664.156-.208 1.144-.78 1.56-1.2.312-.364 1.404-.724 1.404-1.14zm-3.9 29.64c0 .364-.416.676-.676.832a14.714 14.714 0 00-1.924 2.08c-.676.78-3.9 3.276-4.212 3.848-.208.468-1.456.78-1.924 1.2a10.367 10.367 0 00-1.768 1.924c-.416.468-1.612.676-2.028 1.144-.312.416-.78.624-1.092.988a.722.722 0 01-.52.26c-.208 0-.364-.1-.364-.312v-.1a1.3 1.3 0 01.624-1.04c.624-.52.78-1.82 1.664-2.236a2.665 2.665 0 001.508-1.4c.416-.884 1.4-1.508 1.976-2.288.416-.624 1.924-1.352 2.548-1.976a11.932 11.932 0 011.4-1.4c.78-.52 1.82-.624 2.548-1.2a3.08 3.08 0 011.716-.572c.212-.016.524-.016.524.248zm17.056-16.848a.605.605 0 00-.676-.572 1.8 1.8 0 00-.936.26 4.548 4.548 0 01-1.976.572c-.676 0-1.092.624-1.508.988-.832.728-1.924.728-2.7 1.3a5.073 5.073 0 01-3.072 1.508c-.468 0-.936-.156-.936-.728a1.086 1.086 0 01.416-.832c.364-.312.208-.78.728-1.3.1-.1.208-.208.208-.312 0-.364-1.2-1.352-1.56-1.352a.964.964 0 00-.624.364c-.676.624-1.664.624-2.392 1.2a6.888 6.888 0 01-1.82 1.2 7.847 7.847 0 00-1.456.78c-.364.208-1.82.728-1.82 1.144 0 .26.416.416.624.416a22 22 0 003.016-1.152c.78-.312 1.092-.884 2.132-.884a.368.368 0 01.416.364c0 .416-.572 1.2-.572 2.08 0 .832.572 1.092 1.3 1.092 1.248 0 4.316-1.4 5.46-2.028.624-.312 1.456-1.2 2.08-1.3.468-.052 1.04-.468 1.456-.468.208 0 .416 0 .416.312a3.528 3.528 0 01-1.612 2.392c-.884.52-1.248 2.028-1.872 2.444s-1.2 1.3-1.716 1.56a6.62 6.62 0 00-2.08 2.08c-.52.832-2.028 1.508-2.756 2.444a4.238 4.238 0 01-3.12 1.716c-.26 0-.572-.156-.832-.156-.52 0-1.2.676-1.768.78-.832.156-1.3.884-2.08.988s-1.092.936-1.768 1.144-1.3 1.248-1.924 1.664c-.728.468-1.04 1.456-1.82 1.872-.832.52-1.144 1.872-2.184 2.34s-1.716 2.392-2.7 3.172c-1.092.884-.936 1.612-1.456 2.808a1.694 1.694 0 00-.208.676c0 .728 1.144.832 1.664.832.728 0 1.4-1.092 2.08-1.4.884-.364 3.172-1.56 3.64-2.288.728-.988 1.976-1.508 2.652-2.444.364-.572 1.3-.884 1.82-1.4.728-.676 1.4-.728 2.08-1.664a8.7 8.7 0 012.288-2.288c.832-.676 1.924-2.236 2.548-2.652a.878.878 0 01.52-.156 1.2 1.2 0 011.248 1.092 4.845 4.845 0 01-.832 2.652c-.78 1.092-1.872.52-1.872 1.4a.383.383 0 00.416.416 15.925 15.925 0 001.976-.728c.624-.156.78-.936 1.092-1.456a4.324 4.324 0 00.936-2.184c0-.468-.832-1.352-1.092-2.028-.156-.312-.676-.728-.676-.884 0-.416 1.56-1.872 1.872-2.184a15.721 15.721 0 011.612-1.612c.676-.416.728-1.144 1.508-1.56.52-.26 1.508-1.716 2.236-2.288C147.68.728 148.72-1.2 149.6-1.82c.572-.416.728-1.56 1.3-1.872.52-.312.468-.78.884-1.2.264-.308.784-.724.784-1.192z" transform="translate(-1.456 19.864)" fill="#fff"/></svg>