<svg xmlns="http://www.w3.org/2000/svg" width="369.786" height="396.154"><defs><clipPath id="clip-path"><path id="長方形_23622" data-name="長方形 23622" transform="translate(288.481)" fill="none" d="M0 0h369.786v396.154H0z"/></clipPath></defs><g id="グループ_10843" data-name="グループ 10843" transform="translate(-288.481)" clip-path="url(#clip-path)"><path id="パス_47147" data-name="パス 47147" d="M70.98-10.14c0 6.24-8.58 5.98-12.48 8.32a7.391 7.391 0 01-3.12 1.04 2.565 2.565 0 01-2.6-2.34c0-6.24 11.18-9.62 16.12-9.62 1.82 0 2.08 1.04 2.08 2.6zm103.48-111.54c0 5.2-.26 9.62-4.42 13-1.82 1.56-2.86 3.9-4.94 5.2-3.9 2.08-5.72 4.16-8.32 7.54-2.6 3.64-6.24 4.42-9.88 6.24-4.16 2.08-3.12 3.9-8.84 4.94-3.12.78-4.68 3.64-7.54 4.68-7.02 2.86-14.04 4.94-20.8 8.06-3.12 1.3-6.5 3.12-9.88 3.12-6.24 0-11.7 4.68-17.94 4.68s-11.7 3.38-17.94 3.38c-.26 0-1.04 0-1.04-.26 0-1.3 6.5-7.02 7.8-7.8 3.12-2.08 3.38-4.94 5.72-7.54 3.12-3.38 7.54-4.94 10.4-8.84 5.2-6.5 17.16-10.66 23.92-16.9s38.74-22.36 47.58-22.62c2.86-.26 5.46-.52 8.06-.52s8.06.26 8.06 3.64zm10.14.78c0-11.96-5.2-11.18-14.3-14.56a13.206 13.206 0 00-4.42-.78c-10.92 0-28.86 12.22-33.54 12.22-2.86 0-8.06 5.2-11.44 6.5-5.46 1.56-24.18 13.26-29.38 16.9-2.6 2.08-4.16 4.94-6.5 7.02-4.68 4.16-11.18 4.68-14.56 10.14-3.64 5.98-17.16 18.98-22.88 23.92a40.662 40.662 0 01-10.4 7.02c-1.3.52-4.94 1.56-4.94 3.38 0 1.3.78 2.34.78 3.64 0 2.34-1.56 3.38-3.38 4.68-3.12 2.34-4.94 6.5-8.06 9.1-3.38 3.38-4.42 8.06-8.06 11.44C10.4-17.42 8.58-9.36 8.58-5.2c0 9.1 8.84 17.94 17.94 17.94 1.82 0 3.64-.78 5.46-.78s3.38.52 5.2.52c3.64 0 6.76-2.08 10.4-2.08 3.38 0 5.98-.52 8.32-3.12 2.08-2.08 4.94-1.3 7.54-2.6 2.34-1.3 2.34-2.6 5.2-2.6 3.64 0 5.46-4.42 8.58-4.42 3.9 0 8.32-7.28 8.32-10.92 0-5.46-6.24-9.88-11.44-9.88-4.68 0-8.58 3.38-13.26 4.42-3.38.78-5.98 3.38-9.62 4.42-1.56.26-8.58 7.02-8.58 8.58 0 2.6 2.6 4.68 2.6 5.98 0 4.42-7.02 4.42-10.14 4.42-7.02 0-13.52-2.86-13.52-11.18 0-7.28 11.96-20.54 15.6-27.82 1.3-2.08 3.64-2.6 4.94-4.42 2.86-3.64 3.9-6.5 8.58-8.06 5.46-1.82 5.98-4.94 12.48-5.2 5.46-.52 7.28-3.9 10.92-3.9 4.68 0 10.4-3.12 12.22-3.12 3.64 0 7.02-2.6 10.92-2.6 5.98 0 11.44-4.68 17.16-6.5 5.72-1.56 10.4-4.68 16.38-5.72 3.64-.52 7.28-4.68 11.18-5.98 2.86-1.04 6.76-4.68 9.36-4.68 2.86 0 5.46-4.42 8.84-5.46 10.14-3.38 2.86-7.02 11.7-11.18 5.72-2.6 12.74-13.52 12.74-19.76zM144.3-19.5c0 2.6-5.2 4.16-6.76 7.02-2.34 3.9-10.14 10.4-14.82 10.4-2.08 0-4.42-1.3-4.42-3.64 0-2.08 1.56-3.38 3.12-4.42 5.2-2.86 14.56-12.48 20.28-12.48 1.56 0 2.6 1.56 2.6 3.12zm40.82 8.58c0-1.04-1.56-1.56-2.6-1.56-2.6 0-9.1 3.12-11.44 4.42s-16.12 5.2-18.2 5.2c-2.6 0-4.16-3.38-4.16-5.72 0-3.64 4.68-8.58 4.68-13.78 0-3.38-1.3-8.58-5.46-8.58-2.34 0-4.68 1.04-7.28 1.04h-1.04c-6.5 0-11.7 4.68-16.64 7.28-5.98 3.38-16.38 10.66-16.38 18.2 0 5.72 2.34 6.76 7.28 8.06a33.174 33.174 0 008.84 1.56c6.76 0 9.88-4.94 13.52-4.94 4.16 0 3.9 6.24 9.88 6.24a39.368 39.368 0 009.62-1.82c2.34-1.3 4.68-2.86 7.28-3.64 3.9-1.3 16.64-6.76 19.76-8.84.78-.52 2.34-1.82 2.34-3.12zm6.24 14.82c0 1.04-1.56 2.34-2.6 2.34-.78 0-1.82-.78-1.82-1.56 0-1.04 2.08-1.82 2.86-1.82s1.56.26 1.56 1.04zm44.46-41.34c0-3.64-5.2-4.42-7.8-4.42-3.64 0-8.58 1.3-10.66 4.42-2.34 3.12-3.9 2.34-6.24 7.02-2.6 5.98-25.74 12.74-32.24 18.2-2.08 1.56-9.62 3.9-9.62 6.5 0 1.56 1.82 1.82 2.86 1.82 2.86 0 13.52-6.76 18.46-7.28 3.9-.78 9.88-7.02 12.22-7.02 3.38 0 5.46-2.86 7.02-2.86s3.38 2.86 3.38 4.42c0 3.12-2.08 14.56-6.5 14.56-2.34 0-4.42.26-6.76.26-2.6 0-2.08-1.04-3.9-1.04-1.3 0-2.86.26-4.16.26-1.04 0-1.82-.26-2.6-.26-2.86 0-10.92 6.24-10.92 9.1 0 3.12 4.68 6.5 7.54 6.5s5.2-1.82 8.32-1.82c.78 0 2.08.26 3.38.26a8.488 8.488 0 003.12-.52c2.08-1.56 3.38-2.34 5.72-2.6 2.6-.52 5.46-3.38 8.32-4.42 2.34-1.04 3.38-4.42 4.94-6.5 2.08-2.34 3.12-7.02 3.12-10.14 0-2.6-1.3-4.68-1.3-7.02 0-7.54 7.8-6.24 8.84-8.58 1.04-2.86 5.461-6.5 5.461-8.84zm37.44 10.14c0 1.56-4.42 4.16-5.72 5.46s-3.38 1.3-4.94 2.34c-.52.26-1.3 1.04-1.82 1.04s-.52-.26-.52-.52c0-1.04 2.34-3.12 3.12-3.9 2.08-2.34 5.72-4.94 8.84-4.94.521 0 1.041 0 1.041.52zm34.84 16.9a2.124 2.124 0 00-2.34-2.08c-4.16 0-14.82 7.54-20.28 8.06S275.6.78 267.541.78c-4.68 0-11.18-4.16-11.18-9.1 0-2.86 9.88-5.2 11.96-7.28 5.72-5.2 13.78-4.94 13.78-16.38 0-3.9-2.34-4.42-5.46-4.42H274.3c-5.2 0-9.88 4.68-14.3 7.28-5.2 3.12-6.5 4.94-9.88 9.62-3.64 5.2-4.68 7.54-10.14 10.4-.78.78-2.08 1.56-2.08 2.86a2.362 2.362 0 002.6 2.08c2.34 0 2.86 5.98 10.66 8.32a25.406 25.406 0 017.8 2.86 11.49 11.49 0 005.72 1.3c5.46 0 23.92-6.24 28.6-9.62a47.688 47.688 0 017.8-4.68c1.82-.52 7.02-2.08 7.02-4.42z" transform="rotate(-10 1604.786 -1721.87)" fill="#f1f1f1"/></g></svg>