<svg xmlns="http://www.w3.org/2000/svg" width="191.028" height="98.46"><defs><clipPath id="clip-path"><path id="長方形_23430" data-name="長方形 23430" fill="none" d="M0 0h191.028v98.46H0z"/></clipPath></defs><g id="グループ_10694" data-name="グループ 10694" style="isolation:isolate"><g id="グループ_10693" data-name="グループ 10693"><g id="グループ_10692" data-name="グループ 10692" clip-path="url(#clip-path)"><path id="パス_47149" data-name="パス 47149" d="M20.592-2.808c0-.432-.5-.576-.864-.576-1.512 0-2.88 1.656-4.1 1.728-.936.072-1.3.576-2.016 1.008A16.032 16.032 0 0111.3 0a1.451 1.451 0 01-.792.216c-.936 0-1.3.216-1.944.216-.936 0-1.728-.648-2.3-.648-1.152 0-1.224-1.368-1.224-2.232 0-.72.288-.936.72-1.08 1.152-.5 1.512-2.088 2.808-2.088 1.008 0 .648 1.08 1.584 1.08.864 0 1.944-.432 1.944-1.44C12.1-7.056 11.16-9 9.864-9c-.144 0-.36.072-.576.072A7.3 7.3 0 006.12-6.984a30.182 30.182 0 01-2.376 1.872c-.36.288-.36.72-.72.936-.576.432-1.008.792-1.008 1.512 0 .36.072.648.072.936 0 .432-.072.792-.072 1.152a2.588 2.588 0 00.144.792c.5 1.3 4.1 2.376 5.328 2.376.648 0 1.152-.36 1.728-.36h.5c.864 0 1.44-.648 2.232-.72.216-.072 3.744-1.44 3.96-1.584a15.848 15.848 0 011.872-1.08 7.853 7.853 0 002.236-1.008c.284-.14.576-.36.576-.648zm6.624-.36c0 .288-.648.576-.864.648-1.3.576-1.728 2.448-3.672 2.448-.5 0-1.584-.288-1.584-.936 0-.432.576-.936.72-1.44A2.583 2.583 0 0123.04-4.32c.864-.36 1.152-1.656 2.736-1.656 0 0 .216.072.216.144 0 .216-.072.288-.072.432v.288a2.887 2.887 0 00.58 1.224c.212.216.716.36.716.72zm2.016-2.376a.34.34 0 01-.36.36c-.216 0-.648-.216-.648-.5 0-.216.36-.288.5-.288a.481.481 0 01.508.428zm10.656 1.728c0-.144-.072-.36-.288-.36-1.08 0-2.52 1.656-4.536 1.656-1.224 0-3.672-.792-3.672-2.3 0-.5.36-.792.36-1.008a2.48 2.48 0 00-1.584-1.584c-.936 0-1.224-1.152-2.16-1.152-1.152 0-2.232.648-3.312.864-1.8.216-4.9 3.384-5.976 4.68-.5.576-.432 1.584-.792 2.232a1.161 1.161 0 00-.216.648c0 1.08 1.872 2.3 2.88 2.3.648 0 1.224-.288 1.872-.288 1.872 0 2.664-1.44 4.248-2.016a2.524 2.524 0 001.728-1.368 2.12 2.12 0 011.152-.72 7.019 7.019 0 011.584.576 11.841 11.841 0 003.528.72c1.296 0 5.184-1.296 5.184-2.88zm43.488.792c0-.288-.36-.5-.648-.5a4.34 4.34 0 00-1.584.648c-.648.288-1.224.5-1.872.864-.936.576-2.088.648-3.1 1.224a4.829 4.829 0 01-2.808.72c-.936 0-1.872-.072-1.872-.792 0-2.736 2.232-3.744 2.232-4.9a2.492 2.492 0 00-2.444-2.232c-1.44 0-2.088 1.512-3.24 1.656-1.8.288-4.824 2.664-6.12 2.664-.216 0-.288-.072-.288-.288 0-.648.648-1.368.648-1.872 0-1.008-2.16-1.944-3.024-1.944-1.08 0-1.872 1.08-3.456 1.08-1.656.072-2.808 1.584-4.176 2.3a7.261 7.261 0 00-1.3.648c-.5 0-.936.216-1.368.216s-.648-.216-.648-.576c0-.72.432-1.368.432-2.016 0-1.008-1.44-1.224-2.16-1.44-.72-.144-.36-.5-1.08-.5-2.088 0-4.9 2.592-6.552 3.744a14.725 14.725 0 01-2.228 1.44 1.109 1.109 0 00-.648.936c0 .36.36.5.72.5 1.152 0 2.376-1.368 3.672-1.656 1.44-.288 1.656-1.872 3.816-1.872.5 0 .864.144.864.72 0 .72-.72 3.1-1.44 3.528a1.219 1.219 0 00-.648 1.012c0 .5 1.512 1.368 2.016 1.368.864 0 1.872-1.512 2.52-2.016a12.062 12.062 0 013.6-1.8 5.33 5.33 0 002.88-1.152 3.426 3.426 0 011.8-.648c.792 0 1.368.36 1.368 1.152 0 1.508-1.872 1.872-1.872 3.168 0 .792 1.944 1.656 1.944 1.656a1.4 1.4 0 00.576-.072c1.012-.144 1.224-1.8 2.16-2.376a25.563 25.563 0 013.1-1.656c.792-.36 1.656-1.152 2.52-1.152 1.512 0 1.728-.792 2.664-.792.288 0 .792.072.792.432a8.686 8.686 0 00-.576 2.088 3.08 3.08 0 002.952 3.24c.432 0 .792-.144 1.224-.144.288 0 .576.072.864.072 2.592 0 5.112-1.944 7.416-2.88.496-.216 2.372-1.008 2.372-1.8zm20.592-14.256c0-.432-.432-.648-.864-.648a1.516 1.516 0 00-.936.36 8.028 8.028 0 01-2.736 1.3 7.909 7.909 0 00-2.592 2.088 7 7 0 01-2.952 2.016c-1.224.5-2.088 1.944-2.952 2.232-.864.216-.5.792-1.44 1.224-1.08.432-1.584 1.584-2.592 2.088-.648.36-1.152.792-1.8 1.152A5.366 5.366 0 0082.8-3.96a14.849 14.849 0 01-2.664 1.66.885.885 0 00-.5.792.588.588 0 00.648.576c.648 0 1.584-.864 2.3-1.08.576-.144 1.44-1.008 1.8-1.008a4.059 4.059 0 002.232-1.224c.576-.648 1.3-.792 1.944-1.368.216-.216.576-.576.864-.576a.191.191 0 01.216.216 4.264 4.264 0 01-1.44 2.16c-.648.432-.936 1.3-1.512 1.872a15.241 15.241 0 00-3.528 3.6c-.936 1.58-2.592 2.44-3.744 3.884-.792 1.08-2.088 1.656-2.88 2.664-.36.576-1.44 2.448-2.16 2.448-.36 0-2.232 2.016-2.952 2.448-.936.5-2.232 1.8-2.232 2.88 0 .72.288.864 1.008.864.936 0 2.664-.432 3.168-1.368a2.762 2.762 0 011.656-1.8c.72-.288 2.16-2.376 2.88-3.024 1.008-.864 1.584-2.808 2.52-3.384A5.584 5.584 0 0082.512 4.9c.432-.792 1.44-1.008 1.8-1.728a5.612 5.612 0 012.016-2.092C87.192.5 87.7-.576 88.488-1.3c1.012-.86 1.944-2.732 2.952-3.308 1.152-.648 1.872-1.8 2.952-2.376a10.773 10.773 0 002.52-2.592 8.737 8.737 0 012.808-2.016c1.368-.72 2.088-3.1 2.952-3.6a2.94 2.94 0 001.296-2.088zm7.344 14.4c0-.36-.5-.576-.792-.576-.648 0-5.112 2.736-5.832 2.736-1.008 0-1.872.792-2.592.792-1.8 0-2.16-.216-2.16-2.016 0-.864.576-1.584.576-2.376a1.961 1.961 0 00-.5-1.44c-.576-.648-.36-1.584-1.584-1.584-1.152 0-1.872 1.728-2.664 1.944-.864.288-1.512 1.656-2.376 2.016-.864.432-1.224 1.512-2.016 1.944-.5.288-1.512.936-1.512 1.584a.465.465 0 00.432.432c1.224 0 2.808-2.3 3.6-2.3S95.4-3.672 95.9-3.672c.216 0 .936.648.936.864 0 .432-.216.792-.216 1.224 0 .576 1.656 2.592 2.232 3.1a5.843 5.843 0 002.52.5c.936 0 1.872-.72 2.88-.72s2.16-1.44 3.24-1.728a13.464 13.464 0 002.88-1.44c.364-.216.94-.504.94-1.008zm8.064-2.52c0 .72-1.44 1.152-1.872 1.944-.648 1.08-2.808 2.88-4.1 2.88a1.13 1.13 0 01-1.224-1.008 1.539 1.539 0 01.864-1.224c1.44-.792 4.032-3.456 5.616-3.456a.806.806 0 01.716.864zm11.3 2.376c0-.288-.432-.432-.72-.432a10.694 10.694 0 00-3.168 1.224 28.107 28.107 0 01-5.04 1.44c-.72 0-1.152-.936-1.152-1.584 0-1.008 1.3-2.376 1.3-3.816 0-.936-.36-2.376-1.512-2.376-.648 0-1.3.288-2.016.288h-.288c-1.8 0-3.24 1.3-4.608 2.016-1.656.936-4.536 2.952-4.536 5.04 0 1.584.648 1.872 2.016 2.232a9.187 9.187 0 002.448.432c1.872 0 2.736-1.368 3.744-1.368 1.152 0 1.08 1.728 2.736 1.728a10.9 10.9 0 002.664-.5A10.549 10.549 0 01124.56.288a42.02 42.02 0 005.472-2.448c.216-.14.648-.504.648-.864zm29.088.144c0-.432-.5-.576-.792-.576-.864 0-3.744 1.656-5.04 2.088-1.224.432-2.3 1.3-3.672 1.3-1.944 0-2.376-.576-2.88-2.448a4.249 4.249 0 01-.144-1.008c0-2.088 2.376-1.656 2.376-3.1 0-.792-.936-2.232-1.8-2.232-1.512 0-3.528 2.088-4.392 3.168-.576.648-4.824 3.6-5.4 3.6-.288 0-.36-.144-.36-.432 0-1.08 1.08-1.872 1.08-2.592 0-.864-1.8-2.232-2.664-2.232a2.427 2.427 0 00-1.224.36c-1.368.792-2.592 1.728-3.96 2.448-1.152.576-2.3 1.008-3.384 1.584-.36.144-1.944.936-1.944 1.44 0 .288.792.36 1.008.36a3.521 3.521 0 001.656-.576c1.3-.792 2.808-.792 4.248-1.44a1.525 1.525 0 01.5-.216c.36 0 1.3 1.08 1.3 1.368 0 .864-1.512 1.512-1.512 2.448 0 .864.936 1.3 1.728 1.3 3.6 0 3.96-2.16 6.408-3.168.864-.36 2.808-1.872 3.456-1.872s.36 2.232.792 2.88c.792 1.3 2.088 2.592 3.744 2.592a7.674 7.674 0 002.16-.432c.864-.288 1.44-1.08 2.3-1.152 1.152-.072 1.44-.5 2.3-1.008a17.4 17.4 0 012.88-1.368c.444-.22 1.236-.58 1.236-1.084zm1.8 17.784c0 .5-.576.936-.936 1.152-.864.5-1.944 2.16-2.664 2.88-.936 1.08-5.4 4.536-5.832 5.328-.288.648-2.016 1.08-2.664 1.656a14.353 14.353 0 00-2.448 2.664c-.576.648-2.232.936-2.808 1.584-.432.576-1.08.864-1.512 1.368a1 1 0 01-.72.36c-.288 0-.5-.144-.5-.432v-.144a1.794 1.794 0 01.864-1.44c.864-.72 1.08-2.52 2.3-3.1a3.69 3.69 0 002.088-1.944c.576-1.224 1.944-2.088 2.736-3.168.576-.864 2.664-1.872 3.528-2.736a16.52 16.52 0 011.944-1.944c1.08-.72 2.52-.864 3.528-1.656a4.265 4.265 0 012.376-.792c.292.004.724.004.724.36zm23.62-23.328a.838.838 0 00-.936-.792 2.486 2.486 0 00-1.3.36 6.3 6.3 0 01-2.736.792c-.936 0-1.512.864-2.088 1.368-1.152 1.008-2.664 1.008-3.744 1.8-1.152 1.008-2.664 2.088-4.248 2.088-.648 0-1.3-.216-1.3-1.008a1.5 1.5 0 01.576-1.152c.5-.432.288-1.08 1.008-1.8.144-.144.288-.288.288-.432 0-.5-1.656-1.872-2.16-1.872a1.335 1.335 0 00-.864.5c-.936.864-2.3.864-3.312 1.656a9.538 9.538 0 01-2.52 1.656 10.864 10.864 0 00-2.016 1.08c-.5.288-2.52 1.008-2.52 1.584 0 .36.576.576.864.576.792 0 3.24-1.3 4.176-1.584 1.08-.432 1.512-1.224 2.952-1.224a.51.51 0 01.576.5c0 .576-.792 1.656-.792 2.88 0 1.152.792 1.512 1.8 1.512 1.728 0 5.976-1.944 7.56-2.808.864-.432 2.016-1.656 2.88-1.8.648-.072 1.44-.648 2.016-.648.288 0 .576 0 .576.432a4.884 4.884 0 01-2.22 3.32c-1.224.72-1.728 2.808-2.592 3.384s-1.656 1.8-2.376 2.16a9.166 9.166 0 00-2.88 2.88c-.72 1.152-2.808 2.088-3.816 3.384a5.867 5.867 0 01-4.32 2.376c-.36 0-.792-.216-1.152-.216-.72 0-1.656.936-2.448 1.08-1.152.216-1.8 1.224-2.88 1.368s-1.512 1.3-2.448 1.584-1.8 1.728-2.664 2.3c-1.008.648-1.44 2.016-2.52 2.592-1.152.72-1.584 2.592-3.024 3.24s-2.376 3.312-3.744 4.392c-1.512 1.224-1.3 2.232-2.016 3.888a2.346 2.346 0 00-.288.936c0 1.008 1.584 1.152 2.3 1.152 1.008 0 1.944-1.512 2.88-1.944 1.224-.5 4.392-2.16 5.04-3.168 1.008-1.368 2.736-2.088 3.672-3.384.5-.792 1.8-1.224 2.52-1.944 1.008-.936 1.944-1.008 2.88-2.3a12.051 12.051 0 013.168-3.168c1.152-.936 2.664-3.1 3.528-3.672a1.216 1.216 0 01.72-.216 1.663 1.663 0 011.728 1.512 6.709 6.709 0 01-1.152 3.672c-1.08 1.512-2.592.72-2.592 1.944a.53.53 0 00.576.576 22.05 22.05 0 002.736-1.008c.864-.216 1.08-1.3 1.512-2.016a5.986 5.986 0 001.3-3.024c0-.648-1.152-1.872-1.512-2.808-.216-.432-.936-1.008-.936-1.224 0-.576 2.16-2.592 2.592-3.024a21.77 21.77 0 012.232-2.232c.936-.576 1.008-1.584 2.088-2.16.72-.36 2.088-2.376 3.1-3.168 1.512-1.3 2.952-3.96 4.176-4.824.792-.576 1.008-2.16 1.8-2.592.72-.432.648-1.08 1.224-1.656.352-.432 1.072-1.008 1.072-1.656z" transform="translate(0 55.591)" fill="#2ca2dc"/></g></g></g></svg>