<svg xmlns="http://www.w3.org/2000/svg" width="125.424" height="20.072"><path id="パス_47136" data-name="パス 47136" d="M14.872-2.028c0-.312-.364-.416-.624-.416-1.092 0-2.08 1.2-2.964 1.248-.676.052-.936.416-1.456.728A11.579 11.579 0 018.164 0a1.048 1.048 0 01-.572.156c-.676 0-.936.156-1.4.156-.676 0-1.248-.468-1.664-.468-.832 0-.884-.988-.884-1.612 0-.52.208-.676.52-.78.832-.364 1.092-1.508 2.028-1.508.728 0 .468.78 1.144.78.624 0 1.4-.312 1.4-1.04C8.736-5.1 8.06-6.5 7.124-6.5c-.1 0-.26.052-.416.052a5.27 5.27 0 00-2.288 1.4A21.8 21.8 0 012.7-3.692c-.26.208-.26.52-.52.676-.416.312-.728.572-.728 1.092 0 .26.052.468.052.676 0 .312-.052.572-.052.832a1.869 1.869 0 00.1.572c.364.936 2.964 1.716 3.848 1.716.468 0 .832-.26 1.248-.26h.372c.624 0 1.04-.468 1.612-.52.156-.052 2.7-1.04 2.86-1.144a11.446 11.446 0 011.352-.78 5.671 5.671 0 001.612-.728c.208-.104.416-.26.416-.468zm4.784-.26c0 .208-.468.416-.624.468-.932.42-1.248 1.768-2.652 1.768-.364 0-1.144-.208-1.144-.676 0-.312.416-.676.52-1.04a1.865 1.865 0 01.884-1.352c.624-.26.832-1.2 1.976-1.2 0 0 .156.052.156.1 0 .156-.052.208-.052.312v.208a2.085 2.085 0 00.416.884c.156.164.52.268.52.528zM21.112-4a.246.246 0 01-.26.26c-.156 0-.468-.156-.468-.364 0-.156.26-.208.364-.208a.348.348 0 01.364.312zm7.7 1.248c0-.1-.052-.26-.208-.26-.78 0-1.82 1.2-3.276 1.2-.884 0-2.652-.572-2.652-1.664 0-.364.26-.572.26-.728a1.791 1.791 0 00-1.144-1.144c-.676 0-.884-.832-1.56-.832a12.446 12.446 0 00-2.392.624c-1.3.156-3.536 2.444-4.316 3.38-.364.416-.312 1.144-.572 1.612a.839.839 0 00-.156.468c0 .78 1.352 1.664 2.08 1.664.468 0 .884-.208 1.352-.208 1.352 0 1.924-1.04 3.068-1.456a1.823 1.823 0 001.248-.988 1.531 1.531 0 01.832-.52 5.07 5.07 0 011.144.416 8.552 8.552 0 002.548.52c.932-.008 3.74-.944 3.74-2.088zm20.7.676c0-.312-.364-.416-.572-.416-.624 0-2.7 1.2-3.64 1.508a8.079 8.079 0 01-2.652.936c-1.4 0-1.716-.416-2.08-1.768a3.069 3.069 0 01-.1-.728c0-1.508 1.716-1.2 1.716-2.236 0-.572-.676-1.612-1.3-1.612-1.092 0-2.548 1.508-3.172 2.288a18.848 18.848 0 01-3.9 2.6c-.208 0-.26-.1-.26-.312 0-.78.78-1.352.78-1.872 0-.624-1.3-1.612-1.924-1.612a1.753 1.753 0 00-.884.26c-.988.572-1.872 1.248-2.86 1.768-.832.416-1.664.728-2.444 1.144-.26.1-1.4.676-1.4 1.04 0 .208.572.26.728.26a2.543 2.543 0 001.2-.416c.936-.572 2.028-.572 3.068-1.04a1.1 1.1 0 01.364-.156c.26 0 .936.78.936.988C31.1-.832 30-.364 30 .312c0 .624.676.936 1.248.936 2.6 0 2.86-1.56 4.628-2.288.624-.26 2.028-1.352 2.5-1.352s.26 1.612.572 2.08a3.416 3.416 0 002.7 1.872 5.543 5.543 0 001.56-.312c.624-.208 1.04-.78 1.664-.832.832-.052 1.04-.364 1.664-.728A12.564 12.564 0 0148.62-1.3c.312-.156.88-.416.88-.78zm36.6-10.248c0-.572-.364-.676-.728-.676-.676 0-1.248.312-1.872.312-.832 0-1.664-.156-2.5-.156-.468 0-.884.208-1.4.208-.312 0-.624-.052-.988-.052-.572 0-1.144.156-1.768.156-.676 0-1.3-.208-1.976-.208-.468 0-.936.1-1.456.1-.728 0-1.508-.156-2.236-.156-.624 0-1.2.208-1.82.208-.78 0-1.612-.1-2.392-.1-.156 0-.624.052-1.092.052-.624 0-1.3-.1-1.3-.416 0-.1.156-.1.208-.156.468-.1 1.092-1.508 1.716-1.924a6.122 6.122 0 001.456-2.34.783.783 0 00-.728-.728c-.624 0-1.56.78-2.184 1.04-.78.364-1.04 1.248-1.768 1.508s-.728.884-1.82 1.248c-1.352.52-.624 1.56-2.912 1.56-.572 0-1.2-.1-1.768-.1-.676 0-1.3.26-1.924.26-1.144 0-2.288-.052-3.38-.052-.884 0-1.716.052-2.6.052-.312 0-.624-.1-.936-.1-.572 0-.676.364-.676.832 0 .416.468.468.78.468.676 0 1.352-.052 2.08-.052.416 0 .364.1.78.1.208 0 .52-.156.676-.156.208 0 .364.052.572.052.416 0 .832-.156 1.248-.156h1.144a5.286 5.286 0 011.352.1 14.184 14.184 0 012.132.156c.052.052.1.1.1.156 0 .1-1.924 2.132-2.184 2.392-.884.832-1.4 1.924-2.5 2.6-.78.468-1.4 1.2-2.132 1.664s-1.352 1.092-2.08 1.56c-.416.312-2.5 1.352-2.5 1.768 0 .26.312.416.52.416a2.008 2.008 0 001.04-.416 12.03 12.03 0 011.82-.936c.572-.208.832-.78 1.352-1.092a7.786 7.786 0 001.884-1.352 8.176 8.176 0 011.716-1.56c.624-.364.312-.988 1.716-1.768a2.089 2.089 0 00.884-.728l.156-.156c.1 0 .156.052.156.1a.606.606 0 01-.1.364c-.364.52-1.352 1.092-1.664 1.508-.468.676-.416.832-1.248 1.352-.888.576-1.096 1.668-1.668 2.552a1.161 1.161 0 00-.156.728v1.56c0 1.3 1.924 1.872 2.964 1.872a15.18 15.18 0 002.6-.468c.78-.1 1.456-.624 2.184-.728s1.04-.728 1.716-.884c.364-.1 1.872-.832 1.872-1.144 0-.26-.364-.416-.572-.416a5.249 5.249 0 00-2.028.832c-.572.312-1.2.416-1.768.728a17.186 17.186 0 01-2.34.624 2.355 2.355 0 01-.832.156c-.884 0-1.716-.26-1.716-1.3a4.638 4.638 0 01.26-1.664c.156-.468.832-.728 1.092-1.456.312-.78 1.456-1.04 1.924-2.132.468-1.04 1.82-1.4 2.132-2.236.312-.78 1.2-.988 1.612-1.612a2.765 2.765 0 012.028-.936h1.456c1.508 0 3.016-.208 4.524-.208.728 0 1.456.156 2.184.156.468 0 .832-.156 1.3-.156.52 0 1.04.208 1.612.208.936 0 1.872-.156 2.808-.156.572 0 1.144.1 1.716.1.676 0 1.352-.052 2.028-.052h.416c.624 0 1.092-.1 1.612-.1.572 0 1.144.26 1.664.26s.52-.468.52-.884zM70.1-3.9c0 .52-1.04.832-1.352 1.4-.468.78-2.028 2.08-2.964 2.08a.816.816 0 01-.884-.728 1.111 1.111 0 01.624-.884c1.04-.572 2.912-2.5 4.056-2.5a.582.582 0 01.52.632zm8.16 1.716c0-.208-.312-.312-.52-.312a7.723 7.723 0 00-2.288.884 20.3 20.3 0 01-3.64 1.04c-.52 0-.832-.676-.832-1.144 0-.728.936-1.716.936-2.756 0-.676-.26-1.716-1.092-1.716-.468 0-.936.208-1.456.208h-.208c-1.3 0-2.34.936-3.328 1.456-1.2.676-3.276 2.132-3.276 3.64 0 1.144.468 1.352 1.456 1.612a6.635 6.635 0 001.768.312c1.352 0 1.976-.988 2.7-.988.832 0 .78 1.248 1.976 1.248a7.874 7.874 0 001.928-.364A7.618 7.618 0 0173.84.208a30.348 30.348 0 003.952-1.768c.156-.104.468-.364.468-.624zm11.908.156c0-.312-.364-.416-.624-.416-1.092 0-2.08 1.2-2.964 1.248-.676.052-.936.416-1.456.728A11.579 11.579 0 0183.46 0a1.048 1.048 0 01-.572.156c-.676 0-.936.156-1.4.156-.676 0-1.248-.468-1.664-.468-.832 0-.884-.988-.884-1.612 0-.52.208-.676.52-.78.832-.364 1.092-1.508 2.028-1.508.728 0 .468.78 1.144.78.624 0 1.4-.312 1.4-1.04 0-.78-.676-2.184-1.612-2.184-.1 0-.26.052-.416.052a5.27 5.27 0 00-2.288 1.4A21.8 21.8 0 0178-3.692c-.26.208-.26.52-.52.676-.416.312-.728.572-.728 1.092 0 .26.052.468.052.676 0 .312-.052.572-.052.832a1.87 1.87 0 00.1.572c.364.936 2.964 1.716 3.848 1.716.468 0 .832-.26 1.248-.26h.364c.624 0 1.04-.468 1.612-.52.156-.052 2.7-1.04 2.86-1.144a11.446 11.446 0 011.352-.78 5.671 5.671 0 001.612-.728c.212-.104.42-.26.42-.468zm36.712-10.3c0-.572-.364-.676-.728-.676-.676 0-1.248.312-1.872.312-.832 0-1.664-.156-2.5-.156-.468 0-.884.208-1.4.208-.312 0-.624-.052-.988-.052-.572 0-1.144.156-1.768.156-.676 0-1.3-.208-1.976-.208-.468 0-.936.1-1.456.1-.728 0-1.508-.156-2.236-.156-.624 0-1.2.208-1.82.208-.78 0-1.612-.1-2.392-.1-.156 0-.624.052-1.092.052-.624 0-1.3-.1-1.3-.416 0-.1.156-.1.208-.156.468-.1 1.092-1.508 1.716-1.924a6.122 6.122 0 001.456-2.34.783.783 0 00-.732-.724c-.624 0-1.56.78-2.184 1.04-.78.364-1.04 1.248-1.768 1.508s-.728.884-1.82 1.248c-1.352.52-.624 1.56-2.912 1.56-.572 0-1.2-.1-1.768-.1-.676 0-1.3.26-1.924.26-1.144 0-2.288-.052-3.38-.052-.884 0-1.716.052-2.6.052-.312 0-.624-.1-.936-.1-.572 0-.676.364-.676.832 0 .416.468.468.78.468.676 0 1.352-.052 2.08-.052.416 0 .364.1.78.1.208 0 .52-.156.676-.156.208 0 .364.052.572.052.416 0 .832-.156 1.248-.156h1.144a5.286 5.286 0 011.352.1 14.184 14.184 0 012.132.156c.052.052.1.1.1.156 0 .1-1.924 2.132-2.184 2.392-.884.832-1.4 1.924-2.5 2.6-.78.468-1.4 1.2-2.132 1.664S90.728-3.536 90-3.068c-.416.312-2.5 1.352-2.5 1.768 0 .26.312.416.52.416a2.008 2.008 0 001.04-.416 12.03 12.03 0 011.82-.936c.572-.208.832-.78 1.352-1.092A7.786 7.786 0 0094.12-4.68a8.177 8.177 0 011.716-1.56c.624-.364.312-.988 1.716-1.768a2.089 2.089 0 00.884-.728l.156-.156c.1 0 .156.052.156.1a.606.606 0 01-.1.364c-.364.52-1.352 1.092-1.664 1.508-.468.676-.416.832-1.248 1.352-.884.572-1.092 1.664-1.664 2.548a1.161 1.161 0 00-.156.728v1.56c0 1.3 1.924 1.872 2.964 1.872a15.18 15.18 0 002.6-.468c.78-.1 1.456-.624 2.184-.728s1.04-.728 1.716-.884c.364-.1 1.872-.832 1.872-1.144 0-.26-.364-.416-.572-.416a5.249 5.249 0 00-2.028.832c-.572.312-1.2.416-1.768.728a17.187 17.187 0 01-2.34.624 2.355 2.355 0 01-.832.156c-.884 0-1.716-.26-1.716-1.3a4.639 4.639 0 01.26-1.664c.156-.468.832-.728 1.092-1.456.312-.78 1.456-1.04 1.924-2.132.468-1.04 1.82-1.4 2.132-2.236.312-.78 1.2-.988 1.612-1.612a2.765 2.765 0 012.028-.936h1.456c1.508 0 3.016-.208 4.524-.208.728 0 1.456.156 2.184.156.468 0 .832-.156 1.3-.156.52 0 1.04.208 1.612.208.936 0 1.872-.156 2.808-.156.572 0 1.144.1 1.716.1.676 0 1.352-.052 2.028-.052h.416c.624 0 1.092-.1 1.612-.1.572 0 1.144.26 1.664.26s.516-.464.516-.88z" transform="translate(-1.456 18.2)" fill="#fff"/></svg>