<svg width="146" height="152" fill="none" xmlns="http://www.w3.org/2000/svg"><g clip-path="url(#clip0_1_809)"><path d="M109.486 107.611v30.704h-96.62V.28h96.62v43.426" stroke="#000" stroke-width="2" stroke-linecap="round" stroke-linejoin="round"/><path d="M96.905 138.315v13.405H.285V13.688h12.58M26.45 64.8h51.136M26.45 91.613h51.136M26.45 112.466H49.6m96.117-68.827l-40.97 51.992-.139.062-13.923-11.52.017-.07 41.023-52.046 13.992 11.582z" stroke="#000" stroke-width="2" stroke-linecap="round" stroke-linejoin="round"/><path d="M104.608 95.693l-18.774 8.361 4.85-19.882 13.924 11.52zm29.464-37.28l-14.159-11.36" stroke="#000" stroke-width="2" stroke-linecap="round" stroke-linejoin="round"/><path d="M32.154 49.114V25.833h-4.743v-1.83H39.13v1.83h-4.62v23.28h-2.356zm9.736 0v-25.11h5.673c1.57 0 2.8.258 3.69.775a4.243 4.243 0 011.952 2.2c.393.951.59 2.088.59 3.41 0 .93-.104 1.81-.31 2.636-.207.826-.559 1.53-1.055 2.108-.496.578-1.198.96-2.108 1.147l3.844 12.834h-2.294l-3.689-12.338h-3.937v12.338H41.89zm2.356-14.074h3.193c1.054 0 1.87-.176 2.45-.527.578-.352.991-.868 1.24-1.55.247-.682.371-1.54.371-2.573 0-1.55-.268-2.708-.806-3.472-.537-.765-1.601-1.147-3.193-1.147h-3.255v9.269zm13.57 14.074v-25.11h2.355v25.11h-2.355zm5.446 0l5.3-25.11h2.48l5.333 25.11H74.05l-1.24-6.727h-5.983l-1.271 6.727h-2.294zm3.906-8.432H72.5l-2.666-13.547-2.666 13.547zm12.231 8.432v-25.11h2.356v23.343h7.13v1.767h-9.486z" fill="#000"/></g><defs><clipPath id="clip0_1_809"><path fill="#fff" d="M0 0h146v152H0z"/></clipPath></defs></svg>