<svg xmlns="http://www.w3.org/2000/svg" width="20" height="20"><path id="パス_46661" data-name="パス 46661" d="M5.859.07a7.313 7.313 0 00-2.426.469A4.892 4.892 0 001.664 1.7 4.9 4.9 0 00.513 3.469 7.346 7.346 0 00.053 5.9C.007 6.964 0 7.3 0 10.02s.017 3.056.068 4.123a7.331 7.331 0 00.469 2.425A4.9 4.9 0 001.7 18.337a4.9 4.9 0 001.774 1.15 7.339 7.339 0 002.428.46c1.061.047 1.398.053 4.117.053s3.057-.017 4.123-.068a7.35 7.35 0 002.426-.469 5.11 5.11 0 002.919-2.93 7.322 7.322 0 00.46-2.427c.046-1.069.053-1.406.053-4.125s-.017-3.056-.068-4.122a7.334 7.334 0 00-.469-2.426 4.906 4.906 0 00-1.156-1.769 4.894 4.894 0 00-1.776-1.15A7.316 7.316 0 0014.1.054C13.037.007 12.7 0 9.981 0S6.925.019 5.859.07m.117 18.078a5.545 5.545 0 01-1.857-.34 3.116 3.116 0 01-1.152-.746 3.107 3.107 0 01-.75-1.148 5.539 5.539 0 01-.348-1.857c-.05-1.054-.061-1.37-.066-4.04s0-2.986.051-4.041a5.537 5.537 0 01.34-1.857 3.1 3.1 0 01.746-1.152 3.1 3.1 0 011.149-.75 5.534 5.534 0 011.856-.348c1.055-.05 1.37-.06 4.039-.069s2.986 0 4.041.051a5.524 5.524 0 011.856.34 3.1 3.1 0 011.152.746 3.1 3.1 0 01.75 1.149 5.52 5.52 0 01.347 1.855c.05 1.055.062 1.371.066 4.04s0 2.986-.051 4.041a5.545 5.545 0 01-.34 1.858 3.312 3.312 0 01-1.895 1.9 5.538 5.538 0 01-1.855.348c-1.055.05-1.371.061-4.041.066s-2.985 0-4.04-.051m8.153-13.488a1.2 1.2 0 101.2-1.2 1.2 1.2 0 00-1.2 1.2M4.865 10.01A5.135 5.135 0 109.99 4.866a5.134 5.134 0 00-5.125 5.144m1.8 0a3.333 3.333 0 113.339 3.327 3.333 3.333 0 01-3.339-3.327" fill="#0070c5"/></svg>