<svg xmlns="http://www.w3.org/2000/svg" width="71.812" height="71.812"><g id="number02" transform="translate(-205 -5066.506)"><path id="パス_46621" data-name="パス 46621" d="M71.812 525.735a35.906 35.906 0 11-35.906-35.906 35.906 35.906 0 0135.906 35.906" transform="translate(205 4576.677)" fill="#2ca2dc"/><path id="パス_46622" data-name="パス 46622" d="M47.662 517.508c-.677 1.046-.677 2.585-1.662 3.446-.862.74-1.108 1.539-2.216 2.093-.739.431-.923 1.663-2.277 2.217-1.108.431-2.4 1.784-3.385 1.97-1.908.307-3.2 3.323-4.74 3.446a.812.812 0 00-.677.862 1.219 1.219 0 00.369.862c1.354 1.539.862 4.063 3.2 4.063.554 0 1.046-.123 1.6-.123a.993.993 0 011.108.923c0 .431-1.847 1.477-2.339 1.477-.8 0-2.647-.123-3.2-.8a18.049 18.049 0 01-2.092-2.278c-.554-.985-.985-1.846-2.217-1.846-1.476 0-2.276 1.539-4.061 1.539-.677 0-.862-.554-1.477-.8-.308-.123-.985-.369-.985-.8a9.456 9.456 0 012.708-2.031c.739-.062 1.17-.923 1.97-1.108.862-.246 1.17-1.108 2.216-1.108l.369.062c1.108 0 1.416-.677 2.338-1.169.985-.554 1.539-1.539 2.339-2.215.123-.124.369-.309.369-.492 0-.37-.985-.37-1.231-.431a2.159 2.159 0 01-1.477-1.171 1.379 1.379 0 01-.184-.861v-.923c0-.554-.185-.985-.185-1.478 0-1.847 2.462-5.046 4.061-5.785 1.108-.554 1.046-1.6 2.647-1.847 1.108-.246 1.785-1.169 3.016-1.169.862 0 1.723-.431 2.585-.431a3.518 3.518 0 013.509 2.893c0 .677.369 1.293.369 1.97a1.671 1.671 0 01-.369 1.046m-2.893-2.093c-1.17-1.046-.431-1.539-2.77-1.539a2.375 2.375 0 00-1.231.369c-.8.492-1.785.369-2.585.985-.862.739-1.6.616-2.339 1.723-.492.8-1.477 1.231-1.723 2.216a7.206 7.206 0 00-.246 1.6 1.714 1.714 0 00.369 1.107c.308.492 1.231.492 1.723 1.108.246.247.677.862 1.108.862.246 0 .369-.184.554-.308l2.4-1.353c1.046-.616 1.416-1.786 2.4-2.278 1.108-.553.985-1.538 1.723-2.215a2.334 2.334 0 00.862-1.662.791.791 0 00-.246-.616" transform="translate(205.586 4577.241)" fill="#fff"/></g></svg>