<svg xmlns="http://www.w3.org/2000/svg" width="71.812" height="71.812"><g id="number03" transform="translate(-205 -5282.153)"><path id="パス_46623" data-name="パス 46623" d="M71.812 735.941a35.906 35.906 0 11-35.906-35.906 35.906 35.906 0 0135.906 35.906" transform="translate(205 4582.118)" fill="#2ca2dc"/><path id="パス_46624" data-name="パス 46624" d="M48.754 727.375c-.985.739-.923 1.724-2.154 2.154-.862.369-1.108 1.108-1.847 1.354a28.3 28.3 0 00-4.863 3.139c-.554.492-1.846.862-1.846 1.785 0 1.785 2.276 1.046 2.276 3.693a5.217 5.217 0 01-2.154 4.123 12.212 12.212 0 01-3.077 1.908c-1.046.37-1.6 1.355-2.585 1.785a8.778 8.778 0 01-3.016.8c-.616 0-1.108-.308-1.723-.308-1.477 0-2.708 1.109-4.124 1.109-.8 0-2.831-1.355-2.831-2.217 0-.676 1.723-2.524 2.524-2.524.862 0 1.785.678 2.585.678.492 0 .923-.309 1.416-.309.739 0 1.477.432 2.216.432a12.82 12.82 0 003.139-1.108 5.305 5.305 0 002.831-2.585 4.808 4.808 0 00.922-2.339c0-1.662-2.461-2.647-2.461-3.755 0-1.046 1.046-1.539 1.907-1.662 1.355-.123 2.339-1.293 3.632-1.662 1.662-.431 1.723-1.416 2.831-2.093s1.477-1.6 2.462-2.339c.492-.369 1.17-.923 1.17-1.662 0-.554-.677-1.6-1.293-1.6-.185 0-.369.062-.616.062-.431 0-.8-.246-1.293-.246-.369 0-.739.062-1.108.062-.492 0-.862-.185-1.293-.185-.8 0-1.662.862-2.585 1.046-.8.123-1.416.616-2.215.8-.924.246-.862.862-1.785 1.108-.677.123-1.046.554-1.662.739-.923.369-1.108 1.231-1.847 1.662-.616.369-1.108 1.908-1.477 1.908-.308 0-.308-.492-.308-.677a3.142 3.142 0 011.108-2.339c1.17-.862.739-1.046 2.4-1.785.616-.246.985-.8 1.539-1.17.985-.492 1.477-1.231 2.584-1.539.677-.185 1.477-.8 2.093-.8.923-.063 1.723-.554 2.585-.554.739 0 1.416-.37 2.154-.37.492 0 .862.123 1.354.123.431 0 .923-.184 1.416-.184.923 0 1.785 1.107 2.585 1.107.492 0 .8 1.293 1.231 1.724a1.084 1.084 0 01.369.8 2.366 2.366 0 01-1.17 1.908" transform="translate(205.539 4582.682)" fill="#fff"/></g></svg>