<svg xmlns="http://www.w3.org/2000/svg" width="98.644" height="44.72"><path id="パス_47151" data-name="パス 47151" d="M17.42-12.48c0-.312-.312-.468-.624-.468a1.1 1.1 0 00-.676.26 5.8 5.8 0 01-1.976.936 5.712 5.712 0 00-1.872 1.508 5.052 5.052 0 01-2.132 1.456c-.884.364-1.508 1.4-2.132 1.612-.624.156-.364.572-1.04.884-.78.312-1.144 1.144-1.868 1.508-.468.26-.832.572-1.3.832A3.876 3.876 0 002.132-2.86a10.724 10.724 0 01-1.924 1.2.639.639 0 00-.364.572.425.425 0 00.468.416c.468 0 1.144-.624 1.664-.78.416-.1 1.04-.728 1.3-.728a2.932 2.932 0 001.612-.884c.416-.468.936-.572 1.4-.988.156-.156.416-.416.624-.416a.138.138 0 01.156.156 3.08 3.08 0 01-1.04 1.56c-.468.312-.676.936-1.092 1.352a11.007 11.007 0 00-2.544 2.6C1.716 2.34.52 2.964-.312 4c-.572.78-1.508 1.2-2.08 1.924-.26.416-1.04 1.768-1.56 1.768-.26 0-1.612 1.456-2.132 1.768-.676.364-1.612 1.3-1.612 2.08 0 .52.208.624.728.624a2.921 2.921 0 002.288-.984 2 2 0 011.2-1.3c.52-.208 1.56-1.716 2.08-2.184.724-.624 1.14-2.028 1.816-2.444a4.033 4.033 0 001.508-1.716c.312-.572 1.04-.728 1.3-1.248A4.053 4.053 0 014.68.78C5.3.364 5.668-.416 6.24-.936c.728-.624 1.4-1.976 2.132-2.392.828-.472 1.352-1.3 2.128-1.716a7.781 7.781 0 001.82-1.872 6.31 6.31 0 012.028-1.456c.988-.52 1.508-2.236 2.132-2.6a2.124 2.124 0 00.94-1.508zm5.3 10.4c0-.26-.364-.416-.572-.416C21.684-2.5 18.46-.52 17.94-.52c-.728 0-1.352.572-1.872.572-1.3 0-1.56-.156-1.56-1.456 0-.624.416-1.144.416-1.716a1.416 1.416 0 00-.364-1.04c-.416-.468-.26-1.14-1.144-1.14-.832 0-1.352 1.248-1.924 1.4-.624.208-1.092 1.2-1.716 1.456-.624.312-.884 1.092-1.456 1.4-.364.212-1.092.68-1.092 1.144a.336.336 0 00.312.316c.884 0 2.028-1.664 2.6-1.664s1.092-1.4 1.456-1.4c.156 0 .676.468.676.624 0 .312-.156.572-.156.884a6.934 6.934 0 001.612 2.236 4.22 4.22 0 001.82.364c.676 0 1.352-.52 2.08-.52s1.56-1.04 2.34-1.248a9.724 9.724 0 002.08-1.04c.26-.16.676-.368.676-.732zm4.836-.208c0 .208-.468.416-.624.468C26-1.4 25.688-.052 24.284-.052c-.364 0-1.144-.208-1.144-.676 0-.312.416-.676.52-1.04a1.865 1.865 0 01.884-1.352c.624-.26.832-1.2 1.976-1.2 0 0 .156.052.156.1 0 .156-.052.208-.052.312v.208a2.085 2.085 0 00.416.884c.16.164.52.268.52.528zM29.016-4a.246.246 0 01-.26.26c-.156 0-.468-.156-.468-.364 0-.156.26-.208.364-.208a.348.348 0 01.364.312zm7.7 1.248c0-.1-.052-.26-.208-.26-.78 0-1.82 1.2-3.276 1.2-.884 0-2.652-.572-2.652-1.664 0-.364.26-.572.26-.728a1.791 1.791 0 00-1.144-1.144c-.676 0-.884-.832-1.56-.832a12.446 12.446 0 00-2.392.624c-1.3.156-3.536 2.444-4.316 3.38-.364.416-.312 1.144-.572 1.612A.839.839 0 0020.7-.1c0 .78 1.352 1.664 2.08 1.664.468 0 .884-.208 1.352-.208C25.48 1.352 26.052.312 27.2-.1a1.823 1.823 0 001.248-.988 1.531 1.531 0 01.832-.52 5.07 5.07 0 011.14.408 8.552 8.552 0 002.548.52c.932.004 3.744-.932 3.744-2.076zM51.324-15.7c-.052.936-2.236 3.38-2.964 3.744a5.227 5.227 0 00-1.768 1.768c-.364.468-1.3.468-1.716.936-.364.468-.624 1.04-1.144 1.3a3.939 3.939 0 00-.676.52c-.468.364-.624.416-.676.416s-.052-.052-.052-.156a.98.98 0 01.208-.468 10.354 10.354 0 012.184-2.292c.676-.624.988-1.768 1.716-2.288 1.092-.728 3.588-3.64 4.68-3.692a.257.257 0 01.156.052s.052 0 .052.16zm3.12-1.976c0-.884-.416-1.092-1.248-1.092-2.808 0-2.444 1.664-4.16 2.184-1.2.312-1.976 1.352-2.912 2.132a9.3 9.3 0 00-2.444 2.5c-.52.832-1.352 1.4-1.82 2.236-.572.988-1.56 1.82-2.028 2.86a5.351 5.351 0 01-1.924 2.236c-.624.26-.936 1.144-1.664 1.456-.832.312-1.4.936-2.184 1.3-.26.156-1.2.52-1.2.884 0 .156.26.312.416.312a3.83 3.83 0 00.728-.208c1.2-.208 3.068-1.872 3.952-1.872a.605.605 0 01.572.676c0 1.768 1.04 3.432 3.016 3.432a.773.773 0 00.468-.1c.624-.364 1.456 0 2.652-.676.832-.52 1.924-.676 2.6-1.144.572-.364 2.548-.78 2.548-1.508 0-.26-.052-.416-.364-.416a2.738 2.738 0 00-1.248.404c-.572.416-1.352.52-1.976.884a16.176 16.176 0 01-2.804.936 3.954 3.954 0 01-1.3.312 1.056 1.056 0 01-1.2-1.04c0-.208.052-.364.052-.52 0-.78-.364-1.508-.364-2.236 0-.884.936-1.3 1.612-1.612.728-.416 1.092-1.2 1.924-1.56.728-.364 1.092-1.092 1.716-1.4a7.332 7.332 0 002.552-2.184c.676-.936 1.04-.728 1.612-1.4.78-.78 2.288-1.456 2.756-2.392.78-1.62 1.664-1.1 1.664-3.388zM60.32-2.132c0-.26-.312-.312-.52-.312a1.813 1.813 0 00-.884.312c-.364.26-.728.156-1.352.624-.832.624-2.132.416-2.7.884a.8.8 0 01-.676.26c-.208 0-.416-.052-.572-.052-.364 0-.676.156-1.04.156a1.246 1.246 0 01-1.2-1.2 2.027 2.027 0 011.092-1.612c.572-.26.676-1.144 1.144-1.456a.507.507 0 00.208-.468c0-.624-.416-.676-.884-.676a1.811 1.811 0 00-1.456.52 6.01 6.01 0 01-1.352 1.456c-.312.208-1.352 1.2-1.352 1.56 0 .312.312.572.468.832A3.989 3.989 0 0149.608.1c.26.78 1.924 1.4 2.7 1.4A9.041 9.041 0 0054.34.936a5.74 5.74 0 002.5-.884 8.493 8.493 0 011.76-.988c.472-.208 1.72-.572 1.72-1.196zm4.94-13.624c0-.364-.364-.676-.416-1.092-.1-.624 0-1.456-.468-1.976-.208-.208-.52-.572-.78-.572-.416 0-1.456 1.508-1.456 2.08a2.2 2.2 0 002.08 2.392c.416 0 1.04-.416 1.04-.832zm7.228 13.728c0-.312-.364-.416-.624-.416-1.092 0-2.08 1.2-2.964 1.248-.676.052-.936.416-1.456.728A11.579 11.579 0 0165.78 0a1.048 1.048 0 01-.572.156c-.676 0-.936.156-1.4.156-.676 0-1.248-.468-1.664-.468-.832 0-.884-.988-.884-1.612 0-.52.208-.676.52-.78.832-.364 1.092-1.508 2.028-1.508.728 0 .468.78 1.144.78.624 0 1.4-.312 1.4-1.04 0-.78-.676-2.184-1.612-2.184-.1 0-.26.052-.416.052a5.27 5.27 0 00-2.288 1.4 21.8 21.8 0 01-1.716 1.356c-.26.208-.26.52-.52.676-.416.312-.728.572-.728 1.092 0 .26.052.468.052.676 0 .312-.052.572-.052.832a1.869 1.869 0 00.1.572c.364.936 2.964 1.716 3.848 1.716.468 0 .832-.26 1.248-.26h.364c.624 0 1.04-.468 1.612-.52.156-.052 2.7-1.04 2.86-1.144a11.446 11.446 0 011.352-.78 5.671 5.671 0 001.612-.728c.212-.104.42-.26.42-.468zm1.4 12.792c0 .364-.416.676-.676.832a14.714 14.714 0 00-1.924 2.08c-.676.78-3.9 3.276-4.212 3.848-.208.468-1.456.78-1.924 1.2a10.366 10.366 0 00-1.768 1.924c-.416.468-1.612.676-2.028 1.144-.312.416-.78.624-1.092.988a.722.722 0 01-.52.26c-.208 0-.364-.1-.364-.312v-.1a1.3 1.3 0 01.624-1.04c.624-.52.78-1.82 1.664-2.236a2.665 2.665 0 001.508-1.4c.416-.884 1.4-1.508 1.976-2.288.416-.624 1.924-1.352 2.548-1.976a11.932 11.932 0 011.4-1.4c.78-.52 1.82-.624 2.548-1.2a3.08 3.08 0 011.716-.572c.216-.016.528-.016.528.248zm17.06-16.848a.605.605 0 00-.676-.572 1.8 1.8 0 00-.936.26 4.548 4.548 0 01-1.976.572c-.676 0-1.092.624-1.508.988-.832.728-1.924.728-2.7 1.3a5.073 5.073 0 01-3.072 1.508c-.468 0-.936-.156-.936-.728a1.086 1.086 0 01.416-.832c.364-.312.208-.78.728-1.3.1-.1.208-.208.208-.312 0-.364-1.2-1.352-1.56-1.352a.964.964 0 00-.624.364c-.676.624-1.664.624-2.392 1.2A6.888 6.888 0 0174.1-3.8a7.846 7.846 0 00-1.456.78c-.364.208-1.82.728-1.82 1.144 0 .26.416.416.624.416a22 22 0 003.016-1.14c.78-.312 1.092-.884 2.132-.884a.368.368 0 01.416.364c0 .416-.572 1.2-.572 2.08 0 .832.572 1.092 1.3 1.092 1.248 0 4.316-1.4 5.46-2.028.624-.312 1.456-1.2 2.08-1.3.468-.052 1.04-.468 1.456-.468.208 0 .416 0 .416.312A3.528 3.528 0 0185.54-1.04c-.884.52-1.248 2.028-1.872 2.44s-1.2 1.3-1.716 1.56a6.62 6.62 0 00-2.08 2.08c-.52.832-2.028 1.508-2.756 2.444A4.238 4.238 0 0174 9.2c-.26 0-.572-.156-.832-.156-.52 0-1.2.676-1.768.78-.832.156-1.3.884-2.08.988s-1.092.936-1.768 1.144-1.3 1.248-1.924 1.664c-.728.468-1.04 1.456-1.82 1.872-.832.52-1.144 1.872-2.184 2.34s-1.716 2.392-2.7 3.172c-1.092.884-.936 1.612-1.456 2.808a1.694 1.694 0 00-.208.676c0 .728 1.144.832 1.664.832.728 0 1.4-1.092 2.08-1.4.884-.364 3.172-1.56 3.64-2.288.728-.988 1.976-1.508 2.652-2.444.364-.572 1.3-.884 1.82-1.4.728-.676 1.4-.728 2.08-1.664a8.7 8.7 0 012.288-2.288c.832-.676 1.924-2.236 2.548-2.652a.878.878 0 01.52-.156A1.2 1.2 0 0177.8 12.12a4.845 4.845 0 01-.832 2.652c-.78 1.092-1.872.52-1.872 1.4a.383.383 0 00.416.416 15.925 15.925 0 001.976-.728c.624-.156.78-.936 1.092-1.456a4.324 4.324 0 00.936-2.184c0-.468-.832-1.352-1.092-2.028-.156-.312-.676-.728-.676-.884 0-.416 1.56-1.872 1.872-2.184a15.724 15.724 0 011.612-1.612c.676-.416.728-1.144 1.508-1.56.52-.26 1.508-1.716 2.236-2.288C86.06.728 87.1-1.2 87.984-1.82c.572-.416.728-1.56 1.3-1.872.52-.312.468-.78.884-1.2.26-.308.78-.724.78-1.192z" transform="translate(7.696 19.396)" fill="#fff"/></svg>