<svg xmlns="http://www.w3.org/2000/svg" width="436.879" height="230.52"><path id="パス_47151" data-name="パス 47151" d="M88.775-63.6c0-1.59-1.59-2.385-3.18-2.385a5.581 5.581 0 00-3.445 1.325c-2.12 2.12-6.89 3.71-10.07 4.77-2.65.795-7.685 5.3-9.54 7.685-2.385 3.445-7.155 5.83-10.865 7.42C47.17-42.93 43.99-37.63 40.81-36.57c-3.18.795-1.855 2.915-5.3 4.505-3.975 1.59-5.83 5.83-9.54 7.685-2.385 1.325-4.24 2.915-6.625 4.24-4.24 2.12-5.035 1.855-8.48 5.565-3.18 3.18-6.36 3.71-9.805 6.095A3.259 3.259 0 00-.8-5.565a2.164 2.164 0 002.39 2.12c2.385 0 5.83-3.18 8.48-3.975 2.12-.53 5.3-3.71 6.625-3.71 2.385 0 6.625-2.65 8.215-4.505 2.12-2.385 4.77-2.915 7.155-5.035.8-.8 2.12-2.12 3.18-2.12a.7.7 0 01.8.8c0 2.12-3.445 6.625-5.3 7.95-2.385 1.59-3.445 4.77-5.565 6.89C20.41-2.91 15.64.27 12.195 6.1S2.65 15.1-1.59 20.405c-2.915 3.975-7.685 6.095-10.6 9.8-1.325 2.12-5.3 9.01-7.95 9.01-1.325 0-8.215 7.42-10.865 9.01-3.445 1.855-8.215 6.625-8.215 10.6 0 2.65 1.06 3.18 3.71 3.18 3.445 0 9.805-1.59 11.66-5.035 1.06-2.915 3.18-5.83 6.095-6.625 2.65-1.06 7.95-8.745 10.6-11.13 3.71-3.18 5.83-10.335 9.275-12.455 3.445-1.855 5.83-5.3 7.685-8.745 1.59-2.915 5.3-3.71 6.625-6.36C17.755 8.74 21.2 5.56 23.85 3.97c3.18-2.12 5.035-6.1 7.95-8.745 3.71-3.18 7.155-10.07 10.865-12.19 4.24-2.385 6.89-6.625 10.865-8.745 3.445-2.12 6.89-6.36 9.275-9.54s6.89-5.565 10.335-7.42c5.035-2.645 7.685-11.39 10.86-13.245 2.125-1.325 4.775-4.77 4.775-7.685zm27.03 53c0-1.325-1.855-2.12-2.915-2.12-2.385 0-18.815 10.07-21.465 10.07-3.71 0-6.89 2.915-9.54 2.915-6.625 0-7.95-.8-7.95-7.42 0-3.18 2.12-5.83 2.12-8.745a7.218 7.218 0 00-1.855-5.3c-2.12-2.385-1.325-5.83-5.83-5.83-4.24 0-6.89 6.36-9.8 7.155-3.18 1.06-5.565 6.095-8.745 7.42-3.18 1.59-4.5 5.565-7.42 7.155-1.86 1.06-5.57 3.445-5.57 5.83a1.71 1.71 0 001.59 1.59c4.505 0 10.335-8.48 13.25-8.48s5.565-7.155 7.42-7.155c.795 0 3.445 2.385 3.445 3.18 0 1.59-.8 2.915-.8 4.505 0 2.12 6.1 9.54 8.215 11.395 1.595 1.325 7.16 1.855 9.28 1.855 3.445 0 6.89-2.65 10.6-2.65s7.95-5.3 11.925-6.36c3.975-.795 7.155-3.71 10.6-5.3 1.325-.795 3.445-1.855 3.445-3.71zm93.545-4.5a2.562 2.562 0 00-2.385-2.385c-1.325 0-12.72 7.95-20.14 7.95-2.385 0-5.035-.8-6.1-3.18a16.309 16.309 0 01-.795-4.77c0-3.18-1.06-5.565-1.06-8.745v-2.39c0-2.915-2.65-8.48-6.1-8.48-.53 0-7.685 2.65-9.275 3.18-5.035 1.06-3.71 2.915-7.155 5.565-1.59 1.325-4.24 2.915-6.36 2.915-.795 0-1.325-.265-1.325-1.325 0-2.12-4.24-3.18-6.1-3.71-1.855 0-10.6 6.36-12.455 7.42-4.505 2.12-10.07 4.24-13.78 7.685-2.385 2.385-10.865 4.24-10.865 7.685a2.164 2.164 0 002.385 2.12c1.855 0 5.83-2.915 8.48-3.445 2.65-.8 6.625-4.5 9.01-4.5 3.18 0 6.1-5.3 10.07-5.3 1.06 0 2.12.53 2.12 1.59 0 3.445-1.59 5.83-4.505 7.685-3.445 2.12-4.77 5.565-7.95 7.95-2.385 1.855-9.54 7.42-9.54 10.6 0 2.385 2.65 3.18 4.5 3.18 7.155 0 7.42-3.975 10.6-6.36 6.36-4.77 6.1-10.335 15.1-15.635 2.915-1.59 4.505-4.505 7.685-5.565 3.445-1.06 7.155-2.915 9.275-6.1 1.06-2.12 3.18-6.36 5.83-6.36 1.855 0 2.915 1.59 2.915 3.445 0 2.12-1.59 3.71-1.59 5.83 0 1.325-.265 2.385-.265 3.445a2.935 2.935 0 001.325 2.65c3.445 2.385 1.855 3.975 6.625 6.625a20.36 20.36 0 009.54 2.385 18.362 18.362 0 005.3-.8c3.445-.795 11.925-5.565 15.1-7.95a3.823 3.823 0 001.885-2.905zm46.64 4.24c0-1.325-1.59-1.59-2.65-1.59a9.237 9.237 0 00-4.505 1.59c-1.855 1.325-3.71.8-6.89 3.18-4.24 3.18-10.865 2.12-13.78 4.5a4.069 4.069 0 01-3.445 1.325c-1.06 0-2.12-.265-2.915-.265-1.855 0-3.445.8-5.3.8a6.35 6.35 0 01-6.1-6.1c0-3.18 2.915-7.155 5.565-8.215 2.915-1.325 3.445-5.83 5.83-7.42a2.583 2.583 0 001.06-2.385c0-3.18-2.12-3.445-4.505-3.445-2.65 0-5.83.53-7.42 2.65-2.12 2.65-3.975 5.565-6.89 7.42-1.59 1.06-6.89 6.1-6.89 7.95 0 1.59 1.59 2.915 2.385 4.24 1.33 1.855 1.33 4.77 1.86 7.155 1.325 3.975 9.8 7.155 13.78 7.155 3.445 0 7.155-2.12 10.335-2.915 4.24-1.06 9.54-1.59 12.72-4.5 2.915-2.385 5.83-3.445 9.01-5.035 2.385-1.065 8.745-2.92 8.745-6.1zm25.175-69.43c0-1.855-1.855-3.445-2.12-5.565-.53-3.18 0-7.42-2.385-10.07-1.06-1.06-2.65-2.915-3.975-2.915-2.12 0-7.42 7.685-7.42 10.6 0 6.36 3.975 12.19 10.6 12.19 2.12-.005 5.3-2.125 5.3-4.245zM318-10.335c0-1.59-1.855-2.12-3.18-2.12-5.565 0-10.6 6.095-15.105 6.36-3.445.265-4.77 2.12-7.42 3.71C289.115-.8 286.73-1.06 283.815 0a5.342 5.342 0 01-2.915.8c-3.445 0-4.77.8-7.155.8-3.445 0-6.36-2.385-8.48-2.385-4.24 0-4.505-5.035-4.505-8.215 0-2.65 1.06-3.445 2.65-3.975 4.24-1.855 5.565-7.685 10.335-7.685 3.71 0 2.385 3.975 5.83 3.975 3.18 0 7.155-1.59 7.155-5.3 0-3.975-3.445-11.13-8.215-11.13-.53 0-1.325.265-2.12.265-3.975.53-8.745 4.505-11.66 7.155-2.65 2.65-5.83 4.505-8.745 6.89-1.325 1.06-1.325 2.65-2.65 3.445-2.12 1.59-3.71 2.915-3.71 5.565 0 1.325.265 2.385.265 3.445 0 1.59-.265 2.915-.265 4.24a9.527 9.527 0 00.53 2.91c1.855 4.77 15.105 8.745 19.61 8.745 2.385 0 4.24-1.325 6.36-1.325h1.855c3.18 0 5.3-2.385 8.215-2.65.795-.265 13.78-5.3 14.575-5.83a58.332 58.332 0 016.89-3.975 28.9 28.9 0 008.215-3.71c1.06-.535 2.12-1.33 2.12-2.39zm22.525-17.49c0 1.59-4.505 4.24-5.83 5.565s-3.445 1.325-5.035 2.385c-.53.265-1.325 1.06-1.855 1.06s-.53-.265-.53-.53c0-1.06 2.385-3.18 3.18-3.975 2.12-2.385 5.83-5.035 9.01-5.035.53 0 1.06 0 1.06.53zm35.51 17.225a2.164 2.164 0 00-2.385-2.12c-4.24 0-15.105 7.685-20.67 8.215S342.91.8 334.695.8c-4.77 0-11.395-4.245-11.395-9.28 0-2.915 10.07-5.3 12.19-7.42 5.83-5.3 14.045-5.035 14.045-16.7 0-3.975-2.385-4.5-5.565-4.5h-2.385c-5.3 0-10.07 4.77-14.575 7.42-5.3 3.18-6.625 5.035-10.07 9.805-3.71 5.3-4.77 7.685-10.335 10.6-.795.795-2.12 1.59-2.12 2.915a2.407 2.407 0 002.65 2.12c2.385 0 2.915 6.1 10.865 8.48a25.894 25.894 0 017.95 2.915 11.711 11.711 0 005.83 1.325c5.565 0 24.38-6.36 29.15-9.805 2.385-1.59 5.3-3.71 7.95-4.77 1.855-.53 7.155-2.12 7.155-4.505z" transform="rotate(-10 957.398 -237.515)" fill="#f1f1f1"/></svg>