<svg xmlns="http://www.w3.org/2000/svg" xmlns:xlink="http://www.w3.org/1999/xlink" width="483.639" height="424.797" viewBox="0 0 483.639 424.797">
  <defs>
    <clipPath id="clip-path">
      <rect id="長方形_23571" data-name="長方形 23571" width="483.639" height="424.797" fill="none"/>
    </clipPath>
  </defs>
  <g id="グループ_10838" data-name="グループ 10838" clip-path="url(#clip-path)">
    <path id="パス_47146" data-name="パス 47146" d="M202.692-125.286c0-3.192-7.714-3.458-10.906-3.458-5.32,0-3.192,3.724-8.512,4.522-11.7,1.064-17.822,15.96-27.93,15.96a13.627,13.627,0,0,1-7.182-2.394c-4.256-2.66-11.97-4.256-14.63-8.512-2.66-4.788-7.448-4.788-9.842-8.246-2.128-3.192-5.054-3.724-7.182-6.65-4.522-5.586-5.32-6.384-13.3-6.384h-1.33a8.741,8.741,0,0,0-7.714,3.724c-2.926,3.724-3.99,9.576-6.65,13.566-2.394,3.724-3.724,6.384-3.724,11.172,0,2.926-1.064,5.586-1.064,8.246,0,5.054,7.98,10.108,12.5,10.108,3.724,0,6.384-2.394,9.044-4.522a102.951,102.951,0,0,1,9.044-5.586,11.823,11.823,0,0,0,4.522-8.512c0-2.394-1.6-3.458-3.99-3.458-8.778,0-3.192,9.842-15.96,14.1a11.707,11.707,0,0,1-2.66.532c-4.522,0-4.522-5.586-4.522-8.778a17.182,17.182,0,0,1,1.064-6.916c.8-2.128,1.6-3.192,2.128-5.852.532-2.926.532-5.586,3.99-6.65,3.192-1.064,3.724-2.66,7.448-2.66,4.788,0,9.044,2.926,11.97,6.65s7.98,5.32,10.906,9.31c2.926,3.724,7.448,7.448,12.236,8.778,3.192.8,8.778,5.32,9.576,8.778,0,.266.266.532.266.8,0,3.192-5.32,8.246-5.852,12.768-.8,5.32-6.118,7.98-6.916,11.438-1.064,4.788-18.62,31.654-22.344,32.452h-1.862c-2.394,0-10.108-.8-11.97-2.66-1.6-1.862-5.054-3.192-5.852-5.32-.532-1.862-2.66-4.788-4.788-4.788-1.6,0-1.862,1.862-1.862,3.192,0,11.172,18.354,15.96,18.354,19.684,0,5.054-17.024,18.886-21.014,23.408C82.992-3.458,79-3.458,73.948,1.6,67.564,8.246,63.308,5.32,60.116,9.31c-4.256,4.522-7.182,3.458-12.236,6.118a25.16,25.16,0,0,1-10.64,2.66c-5.32,0-7.98-3.192-7.98-8.512,0-4.256,2.66-5.586,4.256-9.044s4.256-6.118,6.118-9.31c1.6-2.394,5.054-9.044,8.246-9.044,3.458,0,5.054,9.31,9.31,9.31,5.586,0,8.512-10.906,8.512-15.162,0-3.724-.8-11.438-5.852-11.438-2.66,0-6.916,2.394-9.31,3.724A34.593,34.593,0,0,0,36.176-14.9C33.782-9.842,30.058-6.65,26.334-2.66c-6.65,7.714-2.926,9.842-5.32,15.428a6.063,6.063,0,0,0-.8,2.926c0,5.586,10.374,9.842,14.9,9.842,3.99,0,7.448-2.394,11.438-2.66,7.182-.532,25-8.246,30.324-13.034C80.6,6.65,87.248,5.586,89.642,2.66,92.3-.8,100.814-5.586,105.07-9.576c3.192-2.926,11.172-14.9,14.9-14.9,2.926,0,4.788,4.256,8.512,4.256,4.256,0,10.64-9.842,13.566-13.034,3.192-3.724,7.714-6.65,12.236-9.31,2.926-1.6,5.32-3.99,8.778-5.32,3.192-1.064,11.172-7.98,11.172-11.438,0-.266-.266-.532-.266-.8-.266-.266-.532-.266-1.064-.266-2.394,0-6.916,5.32-10.906,5.32-6.118,0-18.62,11.7-26.334,11.7-.8,0-1.6-.266-1.6-1.33,0-3.192,7.714-10.108,9.044-14.63a19.324,19.324,0,0,1,4.256-8.778c2.128-2.394,1.33-5.586,4.522-9.044,2.66-2.926,2.66-8.246,5.32-10.108,3.724-2.394,4.522-5.852,6.118-9.576,2.128-4.522,10.374-6.916,14.9-8.512,5.852-2.128,11.172-6.118,16.226-7.98,3.458-1.064,7.182-7.182,8.246-10.64Zm33.516,44.954c-.266,4.788-11.438,17.29-15.162,19.152-3.99,1.862-6.384,5.586-9.044,9.044-1.862,2.394-6.65,2.394-8.778,4.788-1.862,2.394-3.192,5.32-5.852,6.65-.8.266-2.128,1.6-3.458,2.66-2.394,1.862-3.192,2.128-3.458,2.128s-.266-.266-.266-.8a5.012,5.012,0,0,1,1.064-2.394,52.965,52.965,0,0,1,11.172-11.7c3.458-3.192,5.054-9.044,8.778-11.7,5.586-3.724,18.354-18.62,23.94-18.886a1.313,1.313,0,0,1,.8.266S236.208-81.13,236.208-80.332Zm15.96-10.108c0-4.522-2.128-5.586-6.384-5.586-14.364,0-12.5,8.512-21.28,11.172-6.118,1.6-10.108,6.916-14.9,10.906-4.522,3.724-9.576,7.448-12.5,12.768-2.66,4.256-6.916,7.182-9.31,11.438-2.926,5.054-7.98,9.31-10.374,14.63-1.6,3.458-6.118,9.842-9.842,11.438-3.192,1.33-4.788,5.852-8.512,7.448-4.256,1.6-7.182,4.788-11.172,6.65-1.33.8-6.118,2.66-6.118,4.522,0,.8,1.33,1.6,2.128,1.6,1.33,0,2.394-.8,3.724-1.064,6.118-1.064,15.694-9.576,20.216-9.576,1.862,0,2.926,1.6,2.926,3.458,0,9.044,5.32,17.556,15.428,17.556a3.953,3.953,0,0,0,2.394-.532c3.192-1.862,7.448,0,13.566-3.458C206.416.266,212-.532,215.46-2.926c2.926-1.862,13.034-3.99,13.034-7.714,0-1.33-.266-2.128-1.862-2.128a14.008,14.008,0,0,0-6.384,2.128c-2.926,2.128-6.916,2.66-10.108,4.522-3.724,2.394-10.108,3.192-14.364,4.788a20.228,20.228,0,0,1-6.65,1.6c-3.458,0-6.118-1.862-6.118-5.32,0-1.064.266-1.862.266-2.66,0-3.99-1.862-7.714-1.862-11.438,0-4.522,4.788-6.65,8.246-8.246,3.724-2.128,5.586-6.118,9.842-7.98,3.724-1.862,5.586-5.586,8.778-7.182a37.5,37.5,0,0,0,13.034-11.172c3.458-4.788,5.32-3.724,8.246-7.182,3.99-3.99,11.7-7.448,14.1-12.236C247.646-81.4,252.168-78.736,252.168-90.44Zm.8,78.736c0,1.064-2.394,2.128-3.192,2.394-4.788,2.128-6.384,9.044-13.566,9.044-1.862,0-5.852-1.064-5.852-3.458,0-1.6,2.128-3.458,2.66-5.32.532-2.394,1.862-5.852,4.522-6.916,3.192-1.33,4.256-6.118,10.108-6.118,0,0,.8.266.8.532,0,.8-.266,1.064-.266,1.6v1.064a10.667,10.667,0,0,0,2.128,4.522C251.1-13.566,252.966-13.034,252.966-11.7Zm7.448-8.778a1.257,1.257,0,0,1-1.33,1.33c-.8,0-2.394-.8-2.394-1.862,0-.8,1.33-1.064,1.862-1.064A1.779,1.779,0,0,1,260.414-20.482ZM299.782-14.1c0-.532-.266-1.33-1.064-1.33-3.99,0-9.31,6.118-16.758,6.118-4.522,0-13.566-2.926-13.566-8.512,0-1.862,1.33-2.926,1.33-3.724,0-1.862-3.99-5.852-5.852-5.852-3.458,0-4.522-4.256-7.98-4.256-4.256,0-8.246,2.394-12.236,3.192-6.65.8-18.088,12.5-22.078,17.29-1.862,2.128-1.6,5.852-2.926,8.246a4.29,4.29,0,0,0-.8,2.394c0,3.99,6.916,8.512,10.64,8.512,2.394,0,4.522-1.064,6.916-1.064,6.916,0,9.842-5.32,15.694-7.448,2.394-.8,5.32-2.128,6.384-5.054.532-.8,2.926-2.66,4.256-2.66s4.522,1.6,5.852,2.128a43.744,43.744,0,0,0,13.034,2.66C285.418-3.458,299.782-8.246,299.782-14.1ZM427.2-10.906c0-1.064-1.33-1.6-2.128-1.6-3.192,0-7.714,4.256-13.034,4.256-4.788,0-11.97-1.6-13.034-6.916-.8-5.586,0-3.99-4.256-7.98a3.284,3.284,0,0,0-2.128-1.064c-3.724,0-6.916,6.916-10.108,8.512-3.458,1.6-3.724,5.852-8.246,8.512-2.394,1.33-4.256,6.65-6.916,6.65-2.394,0-3.724-3.458-3.724-5.32a3.374,3.374,0,0,1,.266-1.6c2.394-3.99,1.33-7.182,2.66-9.31a3.844,3.844,0,0,0,.532-1.862c0-1.862-3.99-7.182-5.852-7.182-2.394,0-4.256,3.724-5.586,5.32C352.45-16.492,344.47-13.3,340.48-9.576a33.708,33.708,0,0,1-11.172,6.65c-3.724,1.33-6.384,5.852-11.172,5.852-1.064,0-2.394-.532-2.394-1.862,0-1.6,1.33-3.192,2.394-4.256,1.862-2.128,1.33-4.522,4.256-6.65,2.66-2.128,3.99-5.852,6.118-8.778,1.6-2.128,2.128-5.054,3.99-6.916,2.128-1.862,3.192-4.522,5.586-6.384,2.128-1.6,2.394-4.788,4.522-6.65,1.064-1.064,3.458-3.192,3.458-4.788l-.266-.8c-1.33-1.33-4.256-2.128-6.118-2.128a3.215,3.215,0,0,0-2.66.8c-2.926,2.128-5.054,1.862-7.448,5.054a15.787,15.787,0,0,1-6.916,5.586c-3.458,1.6-5.32,5.586-8.778,7.182-3.724,1.6-6.384,5.32-10.108,6.916-3.192,1.33-4.788,5.054-7.98,6.384-3.458,1.33-6.65,3.192-9.842,4.788-1.064.532-2.66,1.33-2.66,2.394,0,1.6,2.394,2.394,3.724,2.394,3.192,0,14.63-7.98,18.088-9.842s4.256-4.788,8.778-6.384c1.862-.8,5.586-4.256,7.182-5.32a1.382,1.382,0,0,1,1.064-.532.977.977,0,0,1,.266.8,6.281,6.281,0,0,1-1.6,2.394l-4.256,4.788c-3.724,4.256-7.182,12.768-11.172,17.29a7.559,7.559,0,0,0-2.394,5.054c0,3.99,5.054,7.182,8.778,7.182,3.99,0,7.182-1.862,10.906-2.394C329.84,7.182,341.012-3.99,347.928-3.99c3.192,0,2.66,4.788,3.192,6.916.8,5.054,5.852,3.458,9.31,4.788a3.944,3.944,0,0,0,1.862.266c10.64,0,15.96-18.088,24.738-18.088.8,0,1.6.266,2.128.266,2.128,0,3.458-1.33,5.054-1.33,2.926,0,3.458,5.054,6.384,6.384,3.192,1.6,6.384,1.6,9.842,1.6h3.192C416.29-3.192,427.2-7.98,427.2-10.906Z" transform="translate(35.732 277.034) rotate(-10)" fill="#f1f1f1"/>
  </g>
</svg>
