<svg id="logo-white" xmlns="http://www.w3.org/2000/svg" width="153.78" height="46.937" viewBox="0 0 153.78 46.937">
  <path id="パス_46564" data-name="パス 46564" d="M226.481,5480.107a14.421,14.421,0,0,1-3.42,1.8,4.149,4.149,0,0,1-1.2.18,4.613,4.613,0,0,1-2.16-.54c-1.079-.6-.719-.959-1.5-1.5a.662.662,0,0,1-.3-.6c0-.24.059-.48.059-.779,0-.479.361-.84.361-1.32a.7.7,0,0,0-.659-.779c-.6,0-1.082.959-1.32,1.439a3.82,3.82,0,0,1-2.1,1.38c-.72.24-1.08.9-1.739,1.259-2.039,1.2-1.98,2.459-3.42,3.539-.72.541-.78,1.439-2.4,1.439-.42,0-1.019-.18-1.019-.719,0-.721,1.62-1.979,2.159-2.4.72-.54,1.02-1.32,1.8-1.8a1.946,1.946,0,0,0,1.018-1.74c0-.239-.24-.36-.479-.36-.9,0-1.56,1.2-2.28,1.2-.539,0-1.438.84-2.039,1.02-.6.121-1.5.78-1.92.78a.49.49,0,0,1-.539-.48c0-.779,1.92-1.2,2.459-1.739a12.2,12.2,0,0,1,3.12-1.74,17.409,17.409,0,0,1,2.819-1.679c.419.12,1.379.36,1.379.839,0,.24.121.3.3.3a2.655,2.655,0,0,0,1.439-.66c.781-.6.481-1.021,1.621-1.26.359-.12,1.98-.72,2.1-.72.778,0,1.379,1.26,1.379,1.919v.541c0,.72.239,1.26.239,1.979a3.73,3.73,0,0,0,.18,1.08,1.426,1.426,0,0,0,1.381.72c1.679,0,4.258-1.8,4.558-1.8a.578.578,0,0,1,.539.54.862.862,0,0,1-.419.66" transform="translate(-203.387 -5455.935)" fill="#fff"/>
  <path id="パス_46565" data-name="パス 46565" d="M236.135,5482.13a9.847,9.847,0,0,0-2.039,1.141,6.613,6.613,0,0,1-2.879,1.02,10.436,10.436,0,0,1-2.34.659c-.9,0-2.819-.72-3.119-1.619a4.629,4.629,0,0,0-.42-1.62c-.179-.3-.54-.6-.54-.96,0-.419,1.2-1.559,1.56-1.8a6.937,6.937,0,0,0,1.559-1.679,2.088,2.088,0,0,1,1.679-.6c.54,0,1.02.06,1.02.78a.584.584,0,0,1-.241.54c-.539.359-.659,1.379-1.318,1.68a2.336,2.336,0,0,0-1.26,1.859,1.437,1.437,0,0,0,1.379,1.38c.42,0,.78-.179,1.2-.179.18,0,.42.06.66.06a.92.92,0,0,0,.78-.3c.659-.54,2.159-.3,3.119-1.02.72-.54,1.14-.42,1.559-.72a2.091,2.091,0,0,1,1.02-.359c.24,0,.6.059.6.359,0,.72-1.439,1.14-1.98,1.379M242.613,5466a2.535,2.535,0,0,1-2.4-2.759c0-.66,1.2-2.4,1.679-2.4.3,0,.659.421.9.66.539.6.419,1.559.539,2.279.06.479.48.839.48,1.26,0,.479-.72.959-1.2.959" transform="translate(-202.846 -5456.28)" fill="#fff"/>
  <path id="パス_46566" data-name="パス 46566" d="M251.377,5481.045a6.538,6.538,0,0,1-1.86.84,13.166,13.166,0,0,0-1.559.9c-.179.12-3.119,1.259-3.3,1.319-.659.06-1.14.6-1.859.6h-.42c-.48,0-.9.3-1.439.3-1.02,0-4.019-.9-4.439-1.979a2.171,2.171,0,0,1-.12-.66c0-.3.06-.6.06-.959,0-.24-.06-.479-.06-.78,0-.6.36-.9.84-1.259.3-.181.3-.54.6-.781a24.811,24.811,0,0,0,1.98-1.559,6.089,6.089,0,0,1,2.639-1.62c.18,0,.361-.059.48-.059,1.081,0,1.86,1.618,1.86,2.519,0,.84-.9,1.2-1.619,1.2-.78,0-.481-.9-1.32-.9-1.08,0-1.379,1.319-2.338,1.738-.361.12-.6.3-.6.9,0,.72.059,1.86,1.019,1.86.48,0,1.14.54,1.919.54.54,0,.84-.181,1.62-.181a1.214,1.214,0,0,0,.66-.18,13.411,13.411,0,0,0,1.919-.54c.6-.36.9-.78,1.679-.841,1.02-.06,2.159-1.439,3.419-1.439.3,0,.72.12.72.479,0,.24-.24.421-.48.541" transform="translate(-202.555 -5455.913)" fill="#fff"/>
  <path id="パス_46567" data-name="パス 46567" d="M262.12,5482.055a9.841,9.841,0,0,1-2.939-.6,5.843,5.843,0,0,0-1.319-.479,1.769,1.769,0,0,0-.96.6,2.1,2.1,0,0,1-1.439,1.14c-1.319.48-1.98,1.68-3.539,1.68-.54,0-1.02.24-1.559.24-.84,0-2.4-1.019-2.4-1.919a.97.97,0,0,1,.18-.54c.3-.54.24-1.379.659-1.858.9-1.08,3.48-3.719,4.978-3.9a14.354,14.354,0,0,1,2.76-.719c.779,0,1.02.959,1.8.959a2.064,2.064,0,0,1,1.319,1.32c0,.18-.3.419-.3.839,0,1.26,2.039,1.919,3.058,1.919,1.68,0,2.88-1.379,3.78-1.379.179,0,.24.18.24.3,0,1.319-3.24,2.4-4.319,2.4m-6.838-2.458a2.421,2.421,0,0,1-.48-1.021v-.24c0-.12.06-.179.06-.359,0-.061-.18-.12-.18-.12-1.319,0-1.559,1.08-2.279,1.379a2.153,2.153,0,0,0-1.02,1.56c-.12.42-.6.839-.6,1.2,0,.54.9.779,1.319.779,1.62,0,1.98-1.559,3.059-2.04.18-.059.72-.3.72-.539,0-.3-.419-.421-.6-.6m1.86-1.74c-.12,0-.42.059-.42.24,0,.239.36.42.54.42a.284.284,0,0,0,.3-.3.4.4,0,0,0-.42-.359" transform="translate(-202.264 -5455.905)" fill="#fff"/>
  <path id="パス_46568" data-name="パス 46568" d="M277.761,5481.045a6.538,6.538,0,0,1-1.86.84,13.159,13.159,0,0,0-1.559.9c-.179.12-3.119,1.259-3.3,1.319-.659.06-1.14.6-1.859.6h-.42c-.48,0-.9.3-1.439.3-1.02,0-4.019-.9-4.439-1.979a2.172,2.172,0,0,1-.12-.66c0-.3.06-.6.06-.959,0-.24-.06-.479-.06-.78,0-.6.36-.9.84-1.259.3-.181.3-.54.6-.781a24.814,24.814,0,0,0,1.98-1.559,6.089,6.089,0,0,1,2.639-1.62c.18,0,.361-.059.48-.059,1.081,0,1.86,1.618,1.86,2.519,0,.84-.9,1.2-1.619,1.2-.78,0-.481-.9-1.32-.9-1.079,0-1.379,1.319-2.338,1.738-.361.12-.6.3-.6.9,0,.72.059,1.86,1.019,1.86.48,0,1.14.54,1.919.54.54,0,.84-.181,1.62-.181a1.215,1.215,0,0,0,.66-.18,13.412,13.412,0,0,0,1.919-.54c.6-.36.9-.78,1.679-.841,1.02-.06,2.159-1.439,3.419-1.439.3,0,.72.12.72.479,0,.24-.24.421-.48.541" transform="translate(-201.891 -5455.913)" fill="#fff"/>
  <path id="パス_46569" data-name="パス 46569" d="M303.76,5459.75c-.659.84-1.2,2.219-2.039,2.819s-1.26,1.92-2.039,2.34a5.146,5.146,0,0,0-2.22,2.159c-.66,1.021-2.039,1.141-2.7,2.1a19.987,19.987,0,0,1-4.259,3.478,15.655,15.655,0,0,0-2.819,2.1,41.366,41.366,0,0,0-3.6,4.918c-.3.36-1.679,1.619-1.679,1.919,0,.242.419.242.6.242,1.439,0,2.579-1.92,3.9-2.28,1.019-.241,2.1-1.44,3.119-1.44a1.128,1.128,0,0,1,1.14,1.08c0,.84-.54,1.561-.54,2.458,0,1.2.9,1.741,2.039,1.741a5.242,5.242,0,0,0,2.28-.661c1.08-.48,2.159-.659,3.239-1.259a15.856,15.856,0,0,1,2.4-1.02c.3,0,.719.181.719.541a.394.394,0,0,1-.24.3,5.2,5.2,0,0,1-1.919.959c-1.08.361-1.98,1.26-3.179,1.62-1.08.24-2.4,1.14-3.479,1.14h-.36c-1.62-.42-2.4-.66-3.119-2.28-.42-.9-.54-1.978-1.68-1.978-.779,0-1.679,1.019-2.519,1.319-1.919.719-1.679,1.259-2.939,1.979a7.054,7.054,0,0,1-2.819.9,1.025,1.025,0,0,1-1.139-1.08,1.949,1.949,0,0,1,1.259-1.62c.66-.359.18-1.138,1.14-1.8a1.533,1.533,0,0,0,.9-1.5.7.7,0,0,0-.12-.42,2.537,2.537,0,0,1-.66.42c-.78.3-1.26.9-2.039,1.2-1.02.36-1.74,1.259-2.759,1.68a3.648,3.648,0,0,1-1.32.358c-.24,0-.84-.18-.84-.42s3.539-2.159,4.079-2.579c.779-.66,1.139-1.32,2.159-1.56,1.08-.239,1.26-1.68,2.459-1.68,1.379,0,3.119-2.639,3.659-3.779,1.2-2.519,6.237-10.8,8.637-11.937a6.485,6.485,0,0,0,1.379-.839c.72-.48,1.02-1.14,1.919-1.38,1.8-.419,2.459-1.618,4.559-1.618,1.2,0,1.98.179,1.98,1.618a3.123,3.123,0,0,1-.54,1.74m-1.8-1.68c-3.059,0-4.558,2.64-5.818,2.88-1.439.239-4.139,4.618-4.919,5.938a7.893,7.893,0,0,0-1.559,3.959.159.159,0,0,0,.18.18c.72,0,2.578-1.439,3.119-1.979.78-.78,1.5-.9,2.279-1.86a11.2,11.2,0,0,1,1.98-1.8c.48-.421.84-1.02,1.319-1.5a23.414,23.414,0,0,0,2.4-2.459,7.546,7.546,0,0,0,1.619-3.06c0-.3-.419-.3-.6-.3" transform="translate(-201.619 -5456.392)" fill="#fff"/>
  <path id="パス_46570" data-name="パス 46570" d="M310.92,5481.487a11.046,11.046,0,0,0-1.8,1.08,20.451,20.451,0,0,1-6.6,2.22,2.656,2.656,0,0,1-1.319-.3,5.881,5.881,0,0,0-1.8-.661c-1.8-.539-1.919-1.919-2.459-1.919a.545.545,0,0,1-.6-.48c0-.3.3-.479.48-.659a5.654,5.654,0,0,0,2.34-2.4,6.229,6.229,0,0,1,2.279-2.218c1.02-.6,2.1-1.68,3.3-1.68h.54c.72,0,1.259.12,1.259,1.02,0,2.639-1.859,2.58-3.179,3.779-.48.48-2.759,1.021-2.759,1.68,0,1.14,1.5,2.1,2.579,2.1,1.859,0,2.879-1.079,4.139-1.2s3.718-1.86,4.678-1.86a.49.49,0,0,1,.54.48c0,.541-1.2.9-1.62,1.02m-6.658-5.038a3.2,3.2,0,0,0-2.039,1.14c-.18.179-.72.659-.72.9,0,.06,0,.12.12.12s.3-.179.419-.24c.36-.239.84-.239,1.14-.539s1.319-.9,1.319-1.259c0-.12-.12-.12-.24-.12" transform="translate(-201.045 -5455.935)" fill="#fff"/>
  <path id="パス_46571" data-name="パス 46571" d="M353.9,5469.98c-.6,0-1.26-.3-1.919-.3-.6,0-1.14.12-1.86.12h-.48c-.78,0-1.559.06-2.34.06-.66,0-1.319-.119-1.98-.119-1.079,0-2.159.179-3.239.179-.659,0-1.26-.239-1.86-.239-.539,0-.96.18-1.5.18-.84,0-1.68-.18-2.52-.18-1.739,0-3.478.239-5.218.239h-1.679a3.19,3.19,0,0,0-2.34,1.081c-.48.719-1.5.96-1.859,1.859-.36.959-1.92,1.38-2.459,2.579-.54,1.261-1.86,1.56-2.22,2.46-.3.84-1.079,1.14-1.26,1.679a5.351,5.351,0,0,0-.3,1.919c0,1.2.96,1.5,1.98,1.5a2.717,2.717,0,0,0,.96-.18,19.742,19.742,0,0,0,2.7-.72c.66-.36,1.38-.48,2.04-.839a6.047,6.047,0,0,1,2.338-.959c.24,0,.66.18.66.479,0,.36-1.74,1.2-2.159,1.319-.78.18-1.14.9-1.98,1.02s-1.62.719-2.519.839a17.4,17.4,0,0,1-3,.541c-1.2,0-3.418-.661-3.418-2.16v-1.8a1.342,1.342,0,0,1,.179-.839c.66-1.019.9-2.279,1.919-2.939.96-.6.9-.779,1.439-1.56.36-.479,1.5-1.14,1.92-1.739a.7.7,0,0,0,.12-.419c0-.061-.06-.12-.18-.12l-.179.181a2.42,2.42,0,0,1-1.02.839c-1.62.9-1.26,1.618-1.98,2.04a9.393,9.393,0,0,0-1.979,1.8,8.933,8.933,0,0,1-2.16,1.559c-.6.361-.9,1.021-1.559,1.261a13.888,13.888,0,0,0-2.1,1.08,2.315,2.315,0,0,1-1.2.48c-.24,0-.6-.18-.6-.48,0-.48,2.4-1.68,2.88-2.039.84-.541,1.559-1.261,2.4-1.8s1.559-1.379,2.458-1.92c1.26-.78,1.86-2.04,2.88-3,.3-.3,2.519-2.639,2.519-2.759,0-.061-.059-.12-.12-.181a16.339,16.339,0,0,0-2.459-.18,6.086,6.086,0,0,0-1.559-.12h-1.319c-.48,0-.96.18-1.439.18-.24,0-.42-.06-.66-.06-.179,0-.539.18-.779.18-.48,0-.42-.12-.9-.12-.84,0-1.62.06-2.4.06-.36,0-.9-.06-.9-.54,0-.54.12-.958.78-.958.36,0,.72.119,1.08.119,1.02,0,1.98-.061,3-.061,1.26,0,2.579.061,3.9.061.72,0,1.439-.3,2.22-.3.659,0,1.38.12,2.039.12,2.64,0,1.8-1.2,3.36-1.8,1.259-.419,1.259-1.139,2.1-1.439s1.14-1.319,2.04-1.74c.72-.3,1.8-1.2,2.519-1.2a.9.9,0,0,1,.84.839,7.067,7.067,0,0,1-1.679,2.7c-.72.48-1.439,2.1-1.98,2.219-.059.06-.24.06-.24.18,0,.359.78.479,1.5.479.539,0,1.08-.06,1.259-.06.9,0,1.86.12,2.76.12.72,0,1.379-.239,2.1-.239.84,0,1.739.179,2.578.179.6,0,1.14-.12,1.679-.12.78,0,1.5.24,2.28.24.72,0,1.379-.18,2.039-.18.419,0,.779.06,1.14.06.6,0,1.08-.239,1.619-.239.96,0,1.919.18,2.88.18.72,0,1.379-.359,2.159-.359.419,0,.84.119.84.779,0,.481,0,1.02-.6,1.02" transform="translate(-200.723 -5456.245)" fill="#fff"/>
  <path id="パス_46572" data-name="パス 46572" d="M219.183,5501.709c.057.663-1.44.734-1.383.273.115-1.484.172-3.444.187-5.3a14,14,0,0,1-2.363,2.925c-.115.1-.417-.158-.417-.259a.087.087,0,0,1,.014-.058,13.5,13.5,0,0,0,2.637-4.785c-.547.058-1.095.159-1.413.188-.187.014-.778-.721-.778-.792,0-.043.1-.115.145-.1a9.557,9.557,0,0,0,2.089.159h.057c-.014-1.081-.043-1.96-.086-2.478a1.5,1.5,0,0,0-.274-.75c-.043-.058.029-.274.115-.274a7.089,7.089,0,0,1,1.816.534c.073.029.1.273-.013.36-.2.115-.39.3-.4.433-.029.633-.057,1.383-.072,2.176h.1c.173-.389.461-.792.562-.792.13,0,.562.432.908.951.144.2.172.345-.1.345h-1.483v1.125c.821.388,1.628,1.195,1.6,1.455-.057.578-.98.937-1.081.635a7.812,7.812,0,0,0-.519-1.2c0,1.989.057,3.963.158,5.231m10.174-1.441c0,.058-.014.115-.057.129-1.311.274-1.441,1.052-1.6.994-1.024-.417-2.162-2.1-3.128-4.005.014,1.744.072,3.4.159,4.5.043.39-.461.591-.893.591-.3,0-.563-.1-.548-.3.1-1.167.145-2.623.173-4.107a13.053,13.053,0,0,1-3.862,3.1c-.145.073-.433-.3-.331-.374a11.67,11.67,0,0,0,3.919-4.295c-.923.029-1.931.173-2.363.216-.188.014-.778-.735-.778-.807,0-.043.1-.116.144-.1a13.182,13.182,0,0,0,2.71.187h.59c0-.662-.014-1.3-.014-1.888h-1.413a10.223,10.223,0,0,1-1.21,1.614c-.087.087-.476-.2-.39-.4a12.409,12.409,0,0,0,1.182-3.559,1.6,1.6,0,0,0-.029-.39c-.014-.043.129-.172.2-.145a6.517,6.517,0,0,1,1.44.836c.087.072-.043.332-.115.332a.449.449,0,0,0-.332.057,6.214,6.214,0,0,1-.46,1.153h1.109c-.014-.951-.043-1.729-.072-2.191a1.537,1.537,0,0,0-.274-.778c-.043-.057.029-.273.115-.273a7.89,7.89,0,0,1,1.859.433c.073.028.1.288-.014.359-.2.145-.389.317-.4.462-.03.589-.057,1.268-.073,1.988h.476c.231-.418.663-.894.807-.894a3.363,3.363,0,0,1,1.168,1.037c.173.2.188.361-.1.361h-2.363c-.014.605-.014,1.24-.014,1.888h1.686c.231-.417.663-.907.792-.907a3.236,3.236,0,0,1,1.182,1.038c.187.215.2.374-.087.374H224.6a8.863,8.863,0,0,0,3.6,3.329,2.538,2.538,0,0,0,1.024.173c.072-.014.129.144.129.273" transform="translate(-203.088 -5455.536)" fill="#fff"/>
  <path id="パス_46573" data-name="パス 46573" d="M230.478,5500.1c0-.073.115-.231.188-.231a3.875,3.875,0,0,0,.721,0c.748-.087,1.542-.187,2.363-.332a22.1,22.1,0,0,0-.073-2.521.853.853,0,0,0-.086-.3c-.5.073-.98.145-1.268.174-.188.014-.792-.721-.792-.793,0-.044.115-.116.159-.1a9.571,9.571,0,0,0,2.132.16h1.2c.216-.4.6-.836.721-.836a3.017,3.017,0,0,1,1.095.98c.158.216.187.36-.1.36h-1.6l.043.014c.073.029.087.26.014.288a.349.349,0,0,0-.23.333c-.03.547-.044,1.326-.03,2.032.764-.145,1.542-.318,2.363-.52.159-.03.347.36.2.418a44.249,44.249,0,0,1-5.447,1.729.933.933,0,0,0-.231.417c0,.1-.317.2-.389.131a4.893,4.893,0,0,1-.951-1.4m6.182-6.11h-2.1c-1.153,0-2.45.172-2.926.216-.187.015-.778-.75-.778-.822,0-.043.1-.115.145-.1a16.327,16.327,0,0,0,3.2.2H236.6c-.073-.793-.116-1.643-.13-2.579a1.428,1.428,0,0,0-.115-.606c-.043-.071.086-.215.145-.215a8.057,8.057,0,0,1,1.412.375c.1.057.086.316.014.346a.469.469,0,0,0-.3.332,20.266,20.266,0,0,0,.115,2.348h1.672c.231-.433.692-.951.836-.951a3.618,3.618,0,0,1,1.239,1.08c.173.217.188.376-.1.376H237.8c.547,4.409,2.392,6.643,3.329,6.643.2,0,.3-.1.417-.346.188-.576.49-1.671.678-2.507.029-.13.433-.058.433.072a.764.764,0,0,1-.03.158c-.5,2.291-.446,2.536-.274,2.839a.973.973,0,0,1,.216.547c0,.374-.389.648-.966.648-1.787,0-4.236-1.815-4.942-8.054m1.5-2.955c-.129-.1.086-.4.259-.375a3.223,3.223,0,0,1,1.917,1.124c.029.633-.923,1.21-1.053.907a5.709,5.709,0,0,0-1.124-1.657" transform="translate(-202.705 -5455.542)" fill="#fff"/>
  <path id="パス_46574" data-name="パス 46574" d="M257.374,5495.346c0,.057-.015.129-.073.143-1.426.333-1.556,1.125-1.758,1.067-1.513-.4-3.458-2.451-4.971-4.813a13.648,13.648,0,0,1-6.557,5.2c-.129.057-.345-.187-.345-.332a.109.109,0,0,1,.029-.071,14.019,14.019,0,0,0,5.808-5.793.972.972,0,0,0,.072-.447c0-.057.173-.172.216-.172h.029a6.968,6.968,0,0,1,1.5.894c.072.057-.043.359-.116.359a2.4,2.4,0,0,0-.331.029,11.318,11.318,0,0,0,5.2,3.574,2.634,2.634,0,0,0,1.153.087c.086,0,.145.173.145.273m-2.724,2.132c.172.2.188.361-.1.361h-3.977l.3.129c.086.043.043.331-.043.331a.571.571,0,0,0-.274.1,16.551,16.551,0,0,1-1.571,2.1c1.066-.014,2.19-.057,3.444-.187a10.768,10.768,0,0,0-1.009-1.283c-.115-.129.159-.445.331-.359,1.413.835,2.825,2.306,2.781,2.738a1.07,1.07,0,0,1-.922.821c-.145,0-.2-.043-.245-.145a11.333,11.333,0,0,0-.663-1.311,35.741,35.741,0,0,1-5.116.851.708.708,0,0,0-.259.374c-.014.1-.317.174-.389.086a5.177,5.177,0,0,1-.88-1.411c-.029-.073.145-.26.216-.245a6.068,6.068,0,0,0,.721.071c.433,0,.864.015,1.311.015A20,20,0,0,0,249.2,5498a.585.585,0,0,0,.014-.158h-.043c-1.037,0-2.233.172-2.709.215-.2.014-.792-.734-.792-.807,0-.043.1-.115.144-.1a14.357,14.357,0,0,0,2.868.188H252.6c.245-.418.692-.865.836-.865a3.464,3.464,0,0,1,1.211,1.008m-7.09-2.334c0-.043.1-.114.145-.1a9.8,9.8,0,0,0,2.118.158h1.038c.231-.389.635-.807.764-.807a3.324,3.324,0,0,1,1.124.966c.173.2.188.345-.1.345h-2.061a21.988,21.988,0,0,0-2.248.231c-.188.014-.778-.721-.778-.793" transform="translate(-202.371 -5455.54)" fill="#fff"/>
  <path id="パス_46575" data-name="パス 46575" d="M260.763,5502.006a38.29,38.29,0,0,0,.086-4.956,14.653,14.653,0,0,1-2.939,1.944c-.116.059-.375-.2-.375-.331a.052.052,0,0,1,.014-.043,13.316,13.316,0,0,0,4.67-4.9h-.951c-.635,0-1.629.144-2.1.187-.188.015-.735-.677-.735-.749,0-.044.1-.117.144-.1a9.38,9.38,0,0,0,2.248.159,11.082,11.082,0,0,0-.043-1.873,1.486,1.486,0,0,0-.216-.505c-.043-.086.029-.289.115-.289a9.322,9.322,0,0,1,1.744.333c.073.029.1.316-.014.374-.245.087-.36.2-.374.346a15.082,15.082,0,0,0,0,1.614h.129c.188-.318.476-.649.577-.649a3.076,3.076,0,0,1,1.109,1.008c.159.26.159.376-.072.448a2.859,2.859,0,0,1-.4.1,11.879,11.879,0,0,1-1.354,1.786c.115.044.259.1.417.174.073.029.1.3-.014.36a1.016,1.016,0,0,0-.288.216,3.194,3.194,0,0,1,1.874.851c.144.548-.592,1.225-.793.951a6.581,6.581,0,0,0-1.2-1.167,36.945,36.945,0,0,0,.072,4.453c.043.361-.461.547-.864.547-.274,0-.476-.086-.461-.289m1.556-1.3c0-.043.1-.115.145-.1a13.748,13.748,0,0,0,2.795.188h.606c.043-1.456.043-3.229.043-4.857-.735.058-1.484.174-1.859.2-.188.015-.778-.721-.778-.792,0-.043.1-.115.143-.1a11.3,11.3,0,0,0,2.407.173h.086c-.014-1.6-.043-3-.1-3.746a1.391,1.391,0,0,0-.23-.75c-.058-.087.029-.289.115-.289a8.06,8.06,0,0,1,1.873.476c.073.029.1.3-.014.36-.23.115-.4.274-.4.418-.043.965-.057,2.219-.057,3.53h.778c.231-.46.677-1.008.836-1.008a3.841,3.841,0,0,1,1.211,1.109c.172.246.187.4-.1.4h-2.737c0,1.73.029,3.517.072,4.872h1.7c.244-.461.72-1.01.864-1.01a3.709,3.709,0,0,1,1.239,1.111.5.5,0,0,1,.129.273c0,.086-.057.129-.216.129h-5.086c-1.024,0-2.205.173-2.681.217-.188.014-.778-.735-.778-.807" transform="translate(-202.022 -5455.53)" fill="#fff"/>
  <path id="パス_46576" data-name="パス 46576" d="M276.259,5496.664a12.181,12.181,0,0,0,.1-2.925c-.013-.2-.634-.75-1.008-.951-.029-.015-.029-.043-.029-.072,0-.13.1-.333.172-.333.347,0,2.234.664,2.234,1.211,0,.115-.216.346-.216.462,0,.979.029,1.944.029,2.867,0,.707-1.369.173-1.283-.26m-.576,4.353a5.231,5.231,0,0,0,3.617-5.375c0-.937,0-2.118-.057-2.912a2.249,2.249,0,0,0-1.009-.821c-.072-.043.029-.374.145-.374.317,0,2.392.5,2.392,1.081,0,.159-.245.389-.274.5-.043.5.029,1.5.029,2.71-.029,2.694-1.283,4.625-4.525,5.648a.378.378,0,0,1-.129.029c-.188,0-.361-.434-.188-.49" transform="translate(-201.575 -5455.505)" fill="#fff"/>
  <path id="パス_46577" data-name="パス 46577" d="M294.606,5494.219c0,.216-.389.375-.418.519a30.64,30.64,0,0,1-.85,3.646c.4.216.907.577.907.764,0,.245-.345.475-.547.461a16.366,16.366,0,0,0-5.706.476h-.029c-.331,0-1.283-.98-1.542-1.6v-.028c0-.088.288-.231.389-.146a2.471,2.471,0,0,0,1.039.476,26.064,26.064,0,0,0,4.409-.447c.245-1.239.519-2.968.576-3.8.014-.058-.043-.086-.086-.086a24.776,24.776,0,0,0-4.208.576c-.5.13-1.6-1.181-1.744-1.7-.029-.087.173-.26.332-.26a.128.128,0,0,1,.1.044,2.531,2.531,0,0,0,1.138.734c3.069-.173,4.035-.3,4.655-.72.2-.145,1.585.59,1.585,1.095" transform="translate(-201.295 -5455.468)" fill="#fff"/>
  <path id="パス_46578" data-name="パス 46578" d="M301.071,5496.848a5.258,5.258,0,0,0-1.513-1.354.148.148,0,0,1-.072-.144.309.309,0,0,1,.231-.3,3.278,3.278,0,0,1,2.22.59c.2.621-.635,1.485-.865,1.211m-1.095,2.205c-.057-.145.3-.375.433-.275.518.419.893.52,1.268.361a24.941,24.941,0,0,0,7.191-5.851c.086-.086.46.1.46.273a.11.11,0,0,1-.014.058,18.6,18.6,0,0,1-6.96,6.571c-.433.217-.519.5-.907.5-.4,0-1.326-1.254-1.47-1.643m2.579-4.237a6.47,6.47,0,0,0-1.413-1.542c-.158-.1.03-.419.188-.433a3.336,3.336,0,0,1,2.205.865c.129.648-.778,1.426-.98,1.109" transform="translate(-200.965 -5455.474)" fill="#fff"/>
  <path id="パス_46579" data-name="パス 46579" d="M319.16,5499.626a.335.335,0,0,1-.3.288,26.565,26.565,0,0,0-6.514.5c-.029,0-.057.015-.1.015-.447,0-.85-.648-1.109-1.109a.054.054,0,0,1-.014-.043c0-.087.244-.231.317-.159a2.252,2.252,0,0,0,.706.375c1.023-.044,1.859-.073,2.565-.116,0-.5-.029-1.182-.073-1.744a.172.172,0,0,0-.014-.2c-.36.058-.648.13-.907.188-.4.086-1.037-.633-1.2-1.009-.029-.086.115-.216.231-.216.043,0,.072,0,.086.03.188.115.577.446.764.446a7.541,7.541,0,0,0,2.824-.49.131.131,0,0,1,.073-.015c.3,0,.893.389.893.649,0,.072-.188.259-.245.245a14.789,14.789,0,0,0-1.9.072c.288.071.547.173.547.288,0,.159-.188.188-.2.418-.014.346-.043.878-.072,1.283a8.165,8.165,0,0,0,2.479-.462c.187-.072,1.167.562,1.167.764" transform="translate(-200.672 -5455.384)" fill="#fff"/>
</svg>
