<svg id="logo" xmlns="http://www.w3.org/2000/svg" width="153.78" height="46.937" viewBox="0 0 153.78 46.937">
  <path id="パス_46177" data-name="パス 46177" d="M175.379,116.451a14.376,14.376,0,0,1-3.419,1.8,4.117,4.117,0,0,1-1.2.18,4.607,4.607,0,0,1-2.159-.54c-1.08-.6-.72-.96-1.5-1.5a.665.665,0,0,1-.3-.6c0-.239.059-.479.059-.779,0-.48.36-.84.36-1.319a.7.7,0,0,0-.659-.78c-.6,0-1.081.96-1.32,1.439a3.825,3.825,0,0,1-2.1,1.38c-.72.24-1.08.9-1.74,1.26-2.039,1.2-1.98,2.458-3.419,3.539-.72.539-.78,1.439-2.4,1.439-.42,0-1.02-.179-1.02-.72,0-.72,1.62-1.98,2.159-2.4.72-.539,1.02-1.319,1.8-1.8a1.944,1.944,0,0,0,1.019-1.739c0-.241-.24-.36-.48-.36-.9,0-1.559,1.2-2.279,1.2-.54,0-1.439.84-2.039,1.019-.6.12-1.5.78-1.92.78a.49.49,0,0,1-.539-.48c0-.78,1.919-1.2,2.459-1.74a12.234,12.234,0,0,1,3.119-1.74,17.439,17.439,0,0,1,2.819-1.679c.419.12,1.38.36,1.38.84,0,.24.12.3.3.3a2.648,2.648,0,0,0,1.439-.66c.78-.6.48-1.019,1.62-1.259.36-.121,1.98-.721,2.1-.721.779,0,1.379,1.26,1.379,1.92v.539c0,.72.24,1.26.24,1.98a3.69,3.69,0,0,0,.18,1.08,1.422,1.422,0,0,0,1.38.72c1.679,0,4.259-1.8,4.558-1.8a.58.58,0,0,1,.54.539.864.864,0,0,1-.42.66" transform="translate(-152.286 -92.279)" fill="#2ca2dc"/>
  <path id="パス_46178" data-name="パス 46178" d="M185.034,118.473a9.833,9.833,0,0,0-2.039,1.14,6.627,6.627,0,0,1-2.879,1.02,10.449,10.449,0,0,1-2.339.659c-.9,0-2.819-.72-3.119-1.619a4.63,4.63,0,0,0-.42-1.62c-.179-.3-.54-.6-.54-.96,0-.42,1.2-1.559,1.56-1.8a6.97,6.97,0,0,0,1.559-1.679,2.086,2.086,0,0,1,1.679-.6c.54,0,1.02.06,1.02.78a.583.583,0,0,1-.241.539c-.539.36-.659,1.38-1.318,1.68a2.336,2.336,0,0,0-1.26,1.859,1.437,1.437,0,0,0,1.379,1.38c.42,0,.78-.179,1.2-.179.18,0,.42.059.66.059a.919.919,0,0,0,.78-.3c.659-.539,2.159-.3,3.119-1.019.72-.54,1.14-.419,1.559-.72a2.089,2.089,0,0,1,1.02-.36c.24,0,.6.059.6.36,0,.72-1.439,1.139-1.98,1.379m6.478-16.135a2.534,2.534,0,0,1-2.4-2.759c0-.66,1.2-2.4,1.679-2.4.3,0,.659.42.9.66.539.6.419,1.559.539,2.279.06.48.48.84.48,1.26,0,.48-.72.96-1.2.96" transform="translate(-151.747 -92.623)" fill="#2ca2dc"/>
  <path id="パス_46179" data-name="パス 46179" d="M200.276,117.389a6.518,6.518,0,0,1-1.86.84,13.309,13.309,0,0,0-1.559.9c-.179.12-3.119,1.26-3.3,1.319-.659.06-1.14.6-1.859.6h-.42c-.48,0-.9.3-1.439.3-1.02,0-4.019-.9-4.439-1.98a2.165,2.165,0,0,1-.12-.659c0-.3.061-.6.061-.96,0-.24-.061-.48-.061-.78,0-.6.36-.9.84-1.26.3-.179.3-.539.6-.779a25.182,25.182,0,0,0,1.98-1.559,6.085,6.085,0,0,1,2.639-1.62c.18,0,.361-.06.48-.06,1.081,0,1.86,1.62,1.86,2.52,0,.84-.9,1.2-1.619,1.2-.78,0-.481-.9-1.32-.9-1.08,0-1.379,1.32-2.339,1.74-.361.12-.6.3-.6.9,0,.72.059,1.86,1.019,1.86.48,0,1.14.539,1.919.539.54,0,.84-.18,1.62-.18a1.212,1.212,0,0,0,.66-.179,13.368,13.368,0,0,0,1.919-.539c.6-.361.9-.78,1.679-.841,1.02-.059,2.159-1.439,3.419-1.439.3,0,.72.12.72.48,0,.241-.24.42-.48.54" transform="translate(-151.454 -92.257)" fill="#2ca2dc"/>
  <path id="パス_46180" data-name="パス 46180" d="M211.019,118.4a9.854,9.854,0,0,1-2.939-.6,5.879,5.879,0,0,0-1.319-.48,1.77,1.77,0,0,0-.96.6,2.1,2.1,0,0,1-1.439,1.14c-1.319.479-1.98,1.679-3.539,1.679-.54,0-1.02.24-1.559.24-.84,0-2.4-1.019-2.4-1.919a.97.97,0,0,1,.18-.54c.3-.54.24-1.379.659-1.859.9-1.08,3.48-3.719,4.978-3.9a14.337,14.337,0,0,1,2.76-.72c.779,0,1.02.96,1.8.96a2.062,2.062,0,0,1,1.319,1.319c0,.179-.3.419-.3.839,0,1.261,2.039,1.921,3.058,1.921,1.68,0,2.88-1.381,3.78-1.381.179,0,.24.18.24.3,0,1.319-3.24,2.4-4.319,2.4m-6.838-2.458a2.418,2.418,0,0,1-.48-1.02v-.24c0-.12.06-.18.06-.36,0-.06-.18-.121-.18-.121-1.319,0-1.559,1.081-2.279,1.381a2.151,2.151,0,0,0-1.02,1.559c-.12.419-.6.839-.6,1.2,0,.539.9.779,1.319.779,1.62,0,1.98-1.559,3.059-2.038.18-.062.72-.3.72-.54,0-.3-.419-.42-.6-.6m1.86-1.741c-.12,0-.42.06-.42.241,0,.24.36.42.54.42a.284.284,0,0,0,.3-.3.4.4,0,0,0-.42-.361" transform="translate(-151.163 -92.248)" fill="#2ca2dc"/>
  <path id="パス_46181" data-name="パス 46181" d="M226.66,117.389a6.517,6.517,0,0,1-1.86.84,13.309,13.309,0,0,0-1.559.9c-.179.12-3.119,1.26-3.3,1.319-.659.06-1.14.6-1.859.6h-.42c-.48,0-.9.3-1.439.3-1.02,0-4.019-.9-4.439-1.98a2.165,2.165,0,0,1-.12-.659c0-.3.06-.6.06-.96,0-.24-.06-.48-.06-.78,0-.6.36-.9.84-1.26.3-.179.3-.539.6-.779a25.173,25.173,0,0,0,1.98-1.559,6.086,6.086,0,0,1,2.639-1.62c.18,0,.361-.06.48-.06,1.081,0,1.86,1.62,1.86,2.52,0,.84-.9,1.2-1.619,1.2-.78,0-.481-.9-1.32-.9-1.08,0-1.379,1.32-2.339,1.74-.361.12-.6.3-.6.9,0,.72.059,1.86,1.019,1.86.48,0,1.14.539,1.919.539.54,0,.84-.18,1.62-.18a1.212,1.212,0,0,0,.66-.179,13.367,13.367,0,0,0,1.919-.539c.6-.361.9-.78,1.679-.841,1.02-.059,2.159-1.439,3.419-1.439.3,0,.72.12.72.48,0,.241-.24.42-.48.54" transform="translate(-150.79 -92.257)" fill="#2ca2dc"/>
  <path id="パス_46182" data-name="パス 46182" d="M252.66,96.093c-.659.84-1.2,2.22-2.039,2.819s-1.26,1.919-2.039,2.34a5.15,5.15,0,0,0-2.22,2.159c-.66,1.021-2.039,1.14-2.7,2.1a19.943,19.943,0,0,1-4.259,3.478,15.648,15.648,0,0,0-2.819,2.1,41.38,41.38,0,0,0-3.6,4.918c-.3.361-1.679,1.62-1.679,1.92,0,.241.419.241.6.241,1.439,0,2.579-1.921,3.9-2.281,1.019-.24,2.1-1.439,3.119-1.439a1.128,1.128,0,0,1,1.14,1.08c0,.841-.54,1.56-.54,2.459,0,1.2.9,1.741,2.039,1.741a5.236,5.236,0,0,0,2.28-.661c1.08-.48,2.159-.659,3.239-1.259a15.917,15.917,0,0,1,2.4-1.02c.3,0,.72.18.72.54a.393.393,0,0,1-.24.3,5.207,5.207,0,0,1-1.919.96c-1.08.36-1.98,1.26-3.179,1.62-1.08.24-2.4,1.14-3.479,1.14h-.36c-1.62-.42-2.4-.659-3.119-2.28-.42-.9-.54-1.979-1.68-1.979-.779,0-1.679,1.019-2.519,1.319-1.919.721-1.679,1.259-2.939,1.979a7.048,7.048,0,0,1-2.819.9,1.024,1.024,0,0,1-1.139-1.08,1.948,1.948,0,0,1,1.259-1.62c.66-.36.18-1.139,1.14-1.8a1.533,1.533,0,0,0,.9-1.5.7.7,0,0,0-.12-.419,2.474,2.474,0,0,1-.66.419c-.78.3-1.26.9-2.039,1.2-1.02.36-1.74,1.259-2.759,1.68a3.656,3.656,0,0,1-1.32.359c-.24,0-.84-.18-.84-.42s3.539-2.159,4.079-2.579c.779-.659,1.139-1.319,2.159-1.559,1.08-.24,1.26-1.679,2.459-1.679,1.379,0,3.119-2.639,3.659-3.779,1.2-2.518,6.237-10.8,8.637-11.935a6.558,6.558,0,0,0,1.379-.841c.72-.48,1.02-1.14,1.919-1.38,1.8-.419,2.459-1.619,4.559-1.619,1.2,0,1.98.179,1.98,1.619a3.128,3.128,0,0,1-.54,1.74m-1.8-1.679c-3.059,0-4.558,2.639-5.818,2.879-1.439.241-4.139,4.62-4.919,5.939a7.891,7.891,0,0,0-1.559,3.958.159.159,0,0,0,.18.179c.72,0,2.578-1.439,3.119-1.979.78-.78,1.5-.9,2.279-1.86a11.212,11.212,0,0,1,1.98-1.8c.48-.42.84-1.02,1.319-1.5a23.24,23.24,0,0,0,2.4-2.459,7.542,7.542,0,0,0,1.619-3.058c0-.3-.419-.3-.6-.3" transform="translate(-150.52 -92.734)" fill="#2ca2dc"/>
  <path id="パス_46183" data-name="パス 46183" d="M259.818,117.83a11.047,11.047,0,0,0-1.8,1.08,20.447,20.447,0,0,1-6.6,2.219,2.658,2.658,0,0,1-1.32-.3,5.855,5.855,0,0,0-1.8-.66c-1.8-.538-1.919-1.919-2.458-1.919a.544.544,0,0,1-.6-.479c0-.3.3-.481.481-.659,1.26-.66,1.5-1.2,2.338-2.4a6.225,6.225,0,0,1,2.28-2.219c1.02-.6,2.1-1.679,3.3-1.679h.541c.719,0,1.258.12,1.258,1.02,0,2.638-1.859,2.578-3.178,3.778-.481.48-2.759,1.02-2.759,1.679,0,1.14,1.5,2.1,2.578,2.1,1.86,0,2.879-1.08,4.14-1.2s3.717-1.86,4.677-1.86a.491.491,0,0,1,.54.481c0,.539-1.2.9-1.62,1.019m-6.657-5.039a3.207,3.207,0,0,0-2.04,1.139c-.18.18-.72.661-.72.9,0,.062,0,.121.121.121s.3-.18.418-.241c.36-.24.84-.24,1.14-.539s1.32-.9,1.32-1.26c0-.12-.121-.12-.24-.12" transform="translate(-149.944 -92.279)" fill="#2ca2dc"/>
  <path id="パス_46184" data-name="パス 46184" d="M302.8,106.324c-.6,0-1.26-.3-1.919-.3-.6,0-1.14.12-1.86.12h-.48c-.78,0-1.559.059-2.339.059-.66,0-1.319-.12-1.98-.12-1.08,0-2.159.179-3.239.179-.659,0-1.26-.239-1.86-.239-.539,0-.96.179-1.5.179-.84,0-1.68-.179-2.52-.179-1.739,0-3.479.239-5.218.239H278.21a3.19,3.19,0,0,0-2.34,1.081c-.48.72-1.5.96-1.859,1.859-.361.961-1.92,1.38-2.459,2.579-.54,1.26-1.86,1.559-2.22,2.459-.3.84-1.079,1.139-1.26,1.679a5.353,5.353,0,0,0-.3,1.919c0,1.2.96,1.5,1.979,1.5a2.721,2.721,0,0,0,.961-.179,19.838,19.838,0,0,0,2.7-.721c.66-.36,1.38-.479,2.04-.839a6.035,6.035,0,0,1,2.339-.961c.24,0,.66.18.66.48,0,.36-1.74,1.2-2.159,1.319-.78.18-1.14.9-1.98,1.02s-1.62.72-2.519.84a17.47,17.47,0,0,1-3,.54c-1.2,0-3.418-.66-3.418-2.159v-1.8a1.343,1.343,0,0,1,.179-.84c.66-1.02.9-2.279,1.919-2.939.96-.6.9-.779,1.439-1.559.36-.48,1.5-1.139,1.92-1.739a.707.707,0,0,0,.12-.42c0-.06-.06-.12-.18-.12l-.179.179a2.4,2.4,0,0,1-1.02.84c-1.62.9-1.26,1.62-1.98,2.04a9.4,9.4,0,0,0-1.979,1.8,8.958,8.958,0,0,1-2.16,1.559c-.6.36-.9,1.02-1.559,1.26a13.9,13.9,0,0,0-2.1,1.08,2.314,2.314,0,0,1-1.2.48c-.24,0-.6-.179-.6-.48,0-.48,2.4-1.679,2.879-2.039.841-.54,1.56-1.26,2.4-1.8s1.559-1.38,2.458-1.92c1.26-.779,1.86-2.039,2.88-3,.3-.3,2.519-2.64,2.519-2.759,0-.06-.059-.12-.12-.18a16.362,16.362,0,0,0-2.459-.179,6.094,6.094,0,0,0-1.559-.12h-1.319c-.48,0-.96.179-1.439.179-.24,0-.42-.059-.66-.059-.179,0-.539.179-.779.179-.48,0-.42-.12-.9-.12-.84,0-1.62.059-2.4.059-.36,0-.9-.059-.9-.539,0-.539.12-.96.78-.96.36,0,.72.12,1.079.12,1.02,0,1.98-.059,3-.059,1.26,0,2.579.059,3.9.059.72,0,1.439-.3,2.22-.3.659,0,1.38.12,2.039.12,2.64,0,1.8-1.2,3.36-1.8,1.259-.42,1.259-1.139,2.1-1.439s1.14-1.319,2.04-1.74c.72-.3,1.8-1.2,2.519-1.2a.9.9,0,0,1,.84.84,7.061,7.061,0,0,1-1.679,2.7c-.72.48-1.439,2.1-1.98,2.22-.059.059-.24.059-.24.18,0,.36.78.479,1.5.479.539,0,1.08-.059,1.259-.059.9,0,1.86.12,2.76.12.72,0,1.379-.24,2.1-.24.84,0,1.739.179,2.578.179.6,0,1.14-.119,1.679-.119.78,0,1.5.239,2.28.239.72,0,1.379-.179,2.039-.179.419,0,.779.059,1.14.059.6,0,1.08-.24,1.619-.24.96,0,1.919.18,2.88.18.72,0,1.379-.36,2.159-.36.419,0,.84.12.84.779,0,.481,0,1.02-.6,1.02" transform="translate(-149.622 -92.589)" fill="#2ca2dc"/>
  <path id="パス_46185" data-name="パス 46185" d="M168.082,138.052c.057.663-1.44.735-1.383.274.115-1.483.172-3.444.187-5.3a13.986,13.986,0,0,1-2.363,2.925c-.115.1-.417-.159-.417-.259a.086.086,0,0,1,.014-.057,13.507,13.507,0,0,0,2.637-4.785c-.547.057-1.095.159-1.413.188-.187.014-.778-.721-.778-.792,0-.043.1-.116.145-.1a9.506,9.506,0,0,0,2.089.159h.057c-.014-1.081-.043-1.96-.086-2.479a1.5,1.5,0,0,0-.274-.749c-.043-.057.029-.274.115-.274a7.1,7.1,0,0,1,1.816.533c.073.03.1.274-.014.361-.2.115-.389.3-.4.433-.029.634-.057,1.383-.072,2.175h.1c.173-.39.461-.792.562-.792.13,0,.562.433.908.951.144.2.172.345-.1.345h-1.483v1.125c.821.389,1.628,1.2,1.6,1.455-.057.577-.98.937-1.081.635a7.8,7.8,0,0,0-.519-1.2c0,1.989.057,3.962.158,5.231m10.174-1.44c0,.057-.014.115-.057.129-1.311.274-1.441,1.052-1.6.994-1.024-.418-2.162-2.1-3.128-4.006.014,1.744.072,3.4.159,4.5.043.39-.461.591-.893.591-.3,0-.563-.1-.548-.3.1-1.167.145-2.622.173-4.107a13.068,13.068,0,0,1-3.862,3.1c-.145.072-.433-.3-.331-.374a11.671,11.671,0,0,0,3.919-4.295c-.923.029-1.931.173-2.363.216-.188.014-.778-.735-.778-.807,0-.044.1-.116.144-.1a13.2,13.2,0,0,0,2.71.187h.591c0-.663-.014-1.3-.014-1.888h-1.413a10.191,10.191,0,0,1-1.21,1.615c-.087.087-.476-.2-.39-.4a12.413,12.413,0,0,0,1.182-3.561,1.587,1.587,0,0,0-.029-.389c-.014-.043.129-.172.2-.145a6.514,6.514,0,0,1,1.44.837c.087.072-.043.331-.115.331a.449.449,0,0,0-.332.057,6.226,6.226,0,0,1-.46,1.153h1.109c-.014-.951-.043-1.73-.072-2.191a1.534,1.534,0,0,0-.274-.778c-.043-.057.029-.274.115-.274a7.952,7.952,0,0,1,1.859.432.266.266,0,0,1-.014.361c-.2.145-.389.317-.4.461-.03.591-.057,1.268-.073,1.989h.476c.231-.418.663-.894.807-.894a3.359,3.359,0,0,1,1.168,1.038c.173.2.188.36-.1.36h-2.363c-.014.606-.014,1.239-.014,1.888h1.686c.231-.418.663-.908.792-.908a3.237,3.237,0,0,1,1.182,1.039c.187.215.2.374-.087.374H173.5a8.86,8.86,0,0,0,3.6,3.329,2.559,2.559,0,0,0,1.024.173c.072-.014.129.144.129.274" transform="translate(-151.989 -91.879)"/>
  <path id="パス_46186" data-name="パス 46186" d="M179.377,136.445c0-.073.115-.231.188-.231a3.956,3.956,0,0,0,.721,0c.748-.086,1.542-.188,2.363-.332a22.1,22.1,0,0,0-.073-2.522.839.839,0,0,0-.086-.3c-.5.072-.98.144-1.268.173-.188.013-.792-.722-.792-.794,0-.043.115-.115.159-.1a9.619,9.619,0,0,0,2.132.159h1.2c.216-.4.6-.836.721-.836a3.016,3.016,0,0,1,1.095.98c.158.216.187.36-.1.36h-1.6l.043.015c.073.028.087.259.014.288a.347.347,0,0,0-.23.331c-.03.547-.044,1.326-.03,2.032.764-.145,1.542-.318,2.363-.519.159-.029.347.36.2.417a44.121,44.121,0,0,1-5.447,1.729.937.937,0,0,0-.231.418c0,.1-.317.2-.389.13a4.909,4.909,0,0,1-.951-1.4m6.182-6.11h-2.1c-1.153,0-2.45.173-2.926.216-.187.014-.778-.749-.778-.821,0-.044.1-.116.145-.1a16.339,16.339,0,0,0,3.2.2H185.5c-.073-.792-.116-1.642-.13-2.579a1.426,1.426,0,0,0-.115-.606c-.043-.072.086-.215.145-.215a8.1,8.1,0,0,1,1.412.374c.1.057.086.318.014.345a.473.473,0,0,0-.3.332,20.27,20.27,0,0,0,.115,2.349h1.672c.231-.433.692-.951.836-.951a3.624,3.624,0,0,1,1.239,1.081c.173.216.188.375-.1.375H186.7c.547,4.409,2.392,6.643,3.329,6.643.2,0,.3-.1.417-.347.188-.576.49-1.671.678-2.507.029-.13.433-.058.433.072a.766.766,0,0,1-.03.159c-.5,2.291-.446,2.535-.274,2.839a.97.97,0,0,1,.216.547c0,.374-.389.648-.966.648-1.787,0-4.236-1.816-4.942-8.055m1.5-2.955c-.129-.1.086-.4.259-.374a3.226,3.226,0,0,1,1.917,1.124c.029.635-.923,1.211-1.053.908a5.721,5.721,0,0,0-1.124-1.658" transform="translate(-151.602 -91.886)"/>
  <path id="パス_46187" data-name="パス 46187" d="M206.273,131.689c0,.057-.015.129-.073.144-1.426.331-1.556,1.124-1.758,1.066-1.513-.4-3.458-2.449-4.971-4.813a13.644,13.644,0,0,1-6.557,5.2c-.129.057-.346-.188-.346-.332a.107.107,0,0,1,.029-.071,14.018,14.018,0,0,0,5.808-5.793.969.969,0,0,0,.072-.447c0-.058.173-.173.216-.173h.029a6.927,6.927,0,0,1,1.5.894c.072.056-.043.359-.116.359a2.222,2.222,0,0,0-.331.03,11.3,11.3,0,0,0,5.2,3.573,2.6,2.6,0,0,0,1.153.087c.086,0,.145.173.145.275m-2.724,2.132c.172.2.188.36-.1.36h-3.977l.3.13c.086.043.043.33-.043.33a.574.574,0,0,0-.274.1,16.521,16.521,0,0,1-1.571,2.1c1.066-.013,2.19-.056,3.444-.187a10.6,10.6,0,0,0-1.009-1.283c-.115-.129.159-.447.331-.36,1.413.836,2.825,2.306,2.781,2.737a1.069,1.069,0,0,1-.922.821c-.145,0-.2-.043-.245-.144a11.364,11.364,0,0,0-.663-1.312,35.347,35.347,0,0,1-5.116.85.716.716,0,0,0-.259.376c-.014.1-.317.172-.389.086a5.181,5.181,0,0,1-.88-1.413c-.029-.073.145-.259.216-.245a5.8,5.8,0,0,0,.721.072c.433,0,.864.014,1.311.014a19.914,19.914,0,0,0,.893-2.522.588.588,0,0,0,.014-.158h-.043c-1.037,0-2.233.173-2.709.216-.2.014-.792-.735-.792-.807,0-.043.1-.115.144-.1a14.368,14.368,0,0,0,2.868.188H201.5c.245-.418.692-.864.836-.864a3.462,3.462,0,0,1,1.211,1.009m-7.09-2.335c0-.043.1-.115.145-.1a9.792,9.792,0,0,0,2.118.157h1.038c.231-.388.635-.807.764-.807a3.316,3.316,0,0,1,1.124.967c.173.2.188.346-.1.346h-2.061a21.98,21.98,0,0,0-2.248.231c-.188.013-.778-.721-.778-.793" transform="translate(-151.27 -91.884)"/>
  <path id="パス_46188" data-name="パス 46188" d="M209.662,138.35a38.311,38.311,0,0,0,.086-4.957,14.636,14.636,0,0,1-2.939,1.945c-.116.058-.375-.2-.375-.33a.051.051,0,0,1,.014-.043,13.317,13.317,0,0,0,4.67-4.9h-.951c-.635,0-1.629.144-2.1.187-.188.015-.735-.677-.735-.748,0-.043.1-.115.144-.1a9.393,9.393,0,0,0,2.248.159,11.087,11.087,0,0,0-.043-1.873,1.492,1.492,0,0,0-.216-.505c-.043-.086.029-.287.116-.287a9.418,9.418,0,0,1,1.743.331c.073.029.1.317-.014.375-.245.086-.36.2-.374.344a15.084,15.084,0,0,0,0,1.615h.129c.188-.317.476-.649.577-.649a3.069,3.069,0,0,1,1.109,1.01c.159.259.159.374-.072.446a2.641,2.641,0,0,1-.4.1,11.914,11.914,0,0,1-1.354,1.788c.115.043.259.1.417.173.073.028.1.3-.014.36a1,1,0,0,0-.288.216,3.191,3.191,0,0,1,1.874.85c.144.547-.592,1.224-.793.95a6.611,6.611,0,0,0-1.2-1.167,36.937,36.937,0,0,0,.072,4.452c.043.361-.461.548-.864.548-.274,0-.476-.086-.461-.289m1.556-1.3c0-.043.1-.116.145-.1a13.7,13.7,0,0,0,2.795.188h.606c.043-1.456.043-3.228.043-4.857-.735.058-1.484.173-1.859.2-.188.013-.778-.721-.778-.792,0-.044.1-.116.144-.1a11.276,11.276,0,0,0,2.407.173h.086c-.014-1.6-.043-3-.1-3.747a1.4,1.4,0,0,0-.23-.749c-.058-.087.029-.288.115-.288a8.046,8.046,0,0,1,1.873.476c.073.03.1.3-.014.36-.23.115-.4.275-.4.418-.043.966-.057,2.219-.057,3.531h.778c.231-.461.677-1.009.836-1.009a3.841,3.841,0,0,1,1.211,1.109c.172.245.187.4-.1.4h-2.737c0,1.73.029,3.516.072,4.872h1.7c.244-.461.72-1.01.864-1.01a3.708,3.708,0,0,1,1.239,1.11.51.51,0,0,1,.129.274c0,.086-.057.129-.216.129h-5.086c-1.024,0-2.205.173-2.681.216-.188.014-.778-.734-.778-.807" transform="translate(-150.923 -91.875)"/>
  <path id="パス_46189" data-name="パス 46189" d="M225.158,133.008a12.193,12.193,0,0,0,.1-2.926c-.013-.2-.634-.749-1.008-.95-.029-.014-.029-.043-.029-.073,0-.129.1-.331.172-.331.347,0,2.234.663,2.234,1.211,0,.115-.216.346-.216.461,0,.98.029,1.945.029,2.867,0,.706-1.369.173-1.283-.259m-.576,4.351a5.23,5.23,0,0,0,3.617-5.374c0-.937,0-2.119-.057-2.912a2.24,2.24,0,0,0-1.009-.821c-.072-.043.029-.374.145-.374.317,0,2.392.5,2.392,1.081,0,.159-.245.39-.274.5-.043.5.029,1.5.029,2.709-.029,2.7-1.283,4.627-4.525,5.65a.4.4,0,0,1-.129.028c-.188,0-.361-.432-.188-.49" transform="translate(-150.474 -91.849)"/>
  <path id="パス_46190" data-name="パス 46190" d="M243.505,130.562c0,.217-.389.374-.418.52a30.735,30.735,0,0,1-.85,3.645c.4.217.907.577.907.764,0,.246-.345.477-.547.462a16.377,16.377,0,0,0-5.706.475h-.029c-.331,0-1.283-.98-1.542-1.6V134.8c0-.086.288-.232.389-.145a2.477,2.477,0,0,0,1.039.476,26.167,26.167,0,0,0,4.409-.447c.245-1.239.519-2.968.576-3.8.014-.056-.043-.086-.086-.086a24.718,24.718,0,0,0-4.208.576c-.5.13-1.6-1.182-1.744-1.7-.029-.086.173-.26.332-.26a.128.128,0,0,1,.1.044,2.539,2.539,0,0,0,1.138.734c3.069-.172,4.035-.3,4.655-.72.2-.145,1.585.591,1.585,1.095" transform="translate(-150.194 -91.81)"/>
  <path id="パス_46191" data-name="パス 46191" d="M249.97,133.191a5.277,5.277,0,0,0-1.513-1.355.146.146,0,0,1-.072-.145.312.312,0,0,1,.231-.3,3.285,3.285,0,0,1,2.22.592c.2.62-.635,1.483-.865,1.211m-1.095,2.205c-.057-.145.3-.376.433-.274.518.417.893.518,1.268.36a24.947,24.947,0,0,0,7.191-5.851c.086-.086.46.1.46.274a.106.106,0,0,1-.014.056,18.62,18.62,0,0,1-6.96,6.573c-.433.215-.519.5-.907.5-.4,0-1.326-1.254-1.47-1.642m2.579-4.238a6.484,6.484,0,0,0-1.413-1.542c-.158-.1.03-.417.188-.432a3.344,3.344,0,0,1,2.205.864c.129.649-.778,1.426-.98,1.109" transform="translate(-149.864 -91.816)"/>
  <path id="パス_46192" data-name="パス 46192" d="M268.059,135.97a.336.336,0,0,1-.3.288,26.54,26.54,0,0,0-6.514.5c-.029,0-.057.014-.1.014-.447,0-.85-.649-1.109-1.109a.055.055,0,0,1-.014-.043c0-.087.244-.231.317-.159a2.272,2.272,0,0,0,.706.375c1.023-.044,1.859-.073,2.565-.116,0-.5-.029-1.182-.073-1.744a.172.172,0,0,0-.014-.2c-.36.057-.648.13-.907.188-.4.086-1.037-.635-1.2-1.009-.029-.086.115-.216.231-.216.043,0,.072,0,.086.029.188.116.577.447.764.447a7.539,7.539,0,0,0,2.824-.49.133.133,0,0,1,.073-.014c.3,0,.893.39.893.649,0,.072-.188.258-.245.245a14.6,14.6,0,0,0-1.9.072c.288.072.547.173.547.288,0,.159-.188.188-.2.418-.014.346-.043.879-.072,1.283a8.2,8.2,0,0,0,2.479-.461c.187-.072,1.167.562,1.167.764" transform="translate(-149.571 -91.728)"/>
</svg>
