<svg xmlns="http://www.w3.org/2000/svg" width="162.903" height="98.47" viewBox="0 0 162.903 98.47">
  <g id="グループ_11479" data-name="グループ 11479" transform="translate(-618.664 -799.063)">
    <path id="パス_47130" data-name="パス 47130" d="M48.024-3.024c0-.288-.36-.5-.648-.5a4.34,4.34,0,0,0-1.584.648c-.648.288-1.224.5-1.872.864-.936.576-2.088.648-3.1,1.224a4.829,4.829,0,0,1-2.808.72c-.936,0-1.872-.072-1.872-.792,0-2.736,2.232-3.744,2.232-4.9a2.492,2.492,0,0,0-2.448-2.232c-1.44,0-2.088,1.512-3.24,1.656-1.8.288-4.824,2.664-6.12,2.664-.216,0-.288-.072-.288-.288,0-.648.648-1.368.648-1.872,0-1.008-2.16-1.944-3.024-1.944-1.08,0-1.872,1.08-3.456,1.08-1.656.072-2.808,1.584-4.176,2.3a7.261,7.261,0,0,0-1.3.648c-.5,0-.936.216-1.368.216s-.648-.216-.648-.576c0-.72.432-1.368.432-2.016,0-1.008-1.44-1.224-2.16-1.44-.72-.144-.36-.5-1.08-.5-2.088,0-4.9,2.592-6.552,3.744A14.725,14.725,0,0,1,1.368-2.88a1.109,1.109,0,0,0-.648.936c0,.36.36.5.72.5,1.152,0,2.376-1.368,3.672-1.656,1.44-.288,1.656-1.872,3.816-1.872.5,0,.864.144.864.72,0,.72-.72,3.1-1.44,3.528A1.219,1.219,0,0,0,7.7.288c0,.5,1.512,1.368,2.016,1.368.864,0,1.872-1.512,2.52-2.016a12.062,12.062,0,0,1,3.6-1.8,5.33,5.33,0,0,0,2.88-1.152,3.426,3.426,0,0,1,1.8-.648c.792,0,1.368.36,1.368,1.152,0,1.512-1.872,1.872-1.872,3.168,0,.792,1.944,1.656,1.944,1.656a1.4,1.4,0,0,0,.576-.072C23.544,1.8,23.76.144,24.7-.432a25.563,25.563,0,0,1,3.1-1.656c.792-.36,1.656-1.152,2.52-1.152,1.512,0,1.728-.792,2.664-.792.288,0,.792.072.792.432a8.686,8.686,0,0,0-.576,2.088,3.08,3.08,0,0,0,2.952,3.24c.432,0,.792-.144,1.224-.144.288,0,.576.072.864.072,2.592,0,5.112-1.944,7.416-2.88C46.152-1.44,48.024-2.232,48.024-3.024ZM54.432-7.56c0,.432-1.224,1.152-1.584,1.512s-.936.36-1.368.648c-.144.072-.36.288-.5.288s-.144-.072-.144-.144c0-.288.648-.864.864-1.08A3.844,3.844,0,0,1,54.144-7.7C54.288-7.7,54.432-7.7,54.432-7.56ZM64.08-2.88a.588.588,0,0,0-.648-.576c-1.152,0-4.1,2.088-5.616,2.232S55.08.216,52.848.216c-1.3,0-3.1-1.152-3.1-2.52,0-.792,2.736-1.44,3.312-2.016,1.584-1.44,3.816-1.368,3.816-4.536,0-1.08-.648-1.224-1.512-1.224H54.72c-1.44,0-2.736,1.3-3.96,2.016A7.476,7.476,0,0,0,48.024-5.4c-1.008,1.44-1.3,2.088-2.808,2.88-.216.216-.576.432-.576.792a.654.654,0,0,0,.72.576c.648,0,.792,1.656,2.952,2.3a7.035,7.035,0,0,1,2.16.792,3.182,3.182,0,0,0,1.584.36A24.523,24.523,0,0,0,59.976-.36a13.206,13.206,0,0,1,2.16-1.3C62.64-1.8,64.08-2.232,64.08-2.88Zm1.944,3.96a.845.845,0,0,1-.72.648c-.216,0-.5-.216-.5-.432,0-.288.576-.5.792-.5S66.024.864,66.024,1.08ZM78.336-10.368c0-1.008-1.44-1.224-2.16-1.224a3.713,3.713,0,0,0-2.952,1.224c-.648.864-1.08.648-1.728,1.944-.72,1.656-7.128,3.528-8.928,5.04-.576.432-2.664,1.08-2.664,1.8,0,.432.5.5.792.5.792,0,3.744-1.872,5.112-2.016,1.08-.216,2.736-1.944,3.384-1.944.936,0,1.512-.792,1.944-.792s.936.792.936,1.224c0,.864-.576,4.032-1.8,4.032-.648,0-1.224.072-1.872.072-.72,0-.576-.288-1.08-.288-.36,0-.792.072-1.152.072-.288,0-.5-.072-.72-.072-.792,0-3.024,1.728-3.024,2.52,0,.864,1.3,1.8,2.088,1.8s1.44-.5,2.3-.5c.216,0,.576.072.936.072a2.351,2.351,0,0,0,.864-.144,2.886,2.886,0,0,1,1.584-.72c.72-.144,1.512-.936,2.3-1.224.648-.288.936-1.224,1.368-1.8A4.8,4.8,0,0,0,74.736-3.6c0-.72-.36-1.3-.36-1.944,0-2.088,2.16-1.728,2.448-2.376C77.112-8.712,78.336-9.72,78.336-10.368ZM84.6,1.08a.845.845,0,0,1-.72.648c-.216,0-.5-.216-.5-.432,0-.288.576-.5.792-.5S84.6.864,84.6,1.08ZM96.912-10.368c0-1.008-1.44-1.224-2.16-1.224A3.713,3.713,0,0,0,91.8-10.368c-.648.864-1.08.648-1.728,1.944-.72,1.656-7.128,3.528-8.928,5.04-.576.432-2.664,1.08-2.664,1.8,0,.432.5.5.792.5.792,0,3.744-1.872,5.112-2.016,1.08-.216,2.736-1.944,3.384-1.944.936,0,1.512-.792,1.944-.792s.936.792.936,1.224c0,.864-.576,4.032-1.8,4.032-.648,0-1.224.072-1.872.072-.72,0-.576-.288-1.08-.288-.36,0-.792.072-1.152.072-.288,0-.5-.072-.72-.072C83.232-.792,81,.936,81,1.728c0,.864,1.3,1.8,2.088,1.8s1.44-.5,2.3-.5c.216,0,.576.072.936.072a2.351,2.351,0,0,0,.864-.144,2.886,2.886,0,0,1,1.584-.72c.72-.144,1.512-.936,2.3-1.224.648-.288.936-1.224,1.368-1.8A4.8,4.8,0,0,0,93.312-3.6c0-.72-.36-1.3-.36-1.944,0-2.088,2.16-1.728,2.448-2.376C95.688-8.712,96.912-9.72,96.912-10.368ZM109.152-5.4c0,.72-1.44,1.152-1.872,1.944-.648,1.08-2.808,2.88-4.1,2.88a1.13,1.13,0,0,1-1.224-1.008,1.539,1.539,0,0,1,.864-1.224c1.44-.792,4.032-3.456,5.616-3.456A.806.806,0,0,1,109.152-5.4Zm11.3,2.376c0-.288-.432-.432-.72-.432a10.694,10.694,0,0,0-3.168,1.224,28.107,28.107,0,0,1-5.04,1.44c-.72,0-1.152-.936-1.152-1.584,0-1.008,1.3-2.376,1.3-3.816,0-.936-.36-2.376-1.512-2.376-.648,0-1.3.288-2.016.288h-.288c-1.8,0-3.24,1.3-4.608,2.016-1.656.936-4.536,2.952-4.536,5.04,0,1.584.648,1.872,2.016,2.232a9.187,9.187,0,0,0,2.448.432c1.872,0,2.736-1.368,3.744-1.368,1.152,0,1.08,1.728,2.736,1.728a10.9,10.9,0,0,0,2.664-.5A10.549,10.549,0,0,1,114.336.288a42.02,42.02,0,0,0,5.472-2.448C120.024-2.3,120.456-2.664,120.456-3.024Zm-3.24,14.688a1.279,1.279,0,0,1-.288.72c-1.224,1.512-2.52,2.88-3.672,4.464a13.647,13.647,0,0,1-1.368,1.512c-.5.576-1.728,1.3-2.088,1.944a5.956,5.956,0,0,1-1.872,2.52c-.576.432-2.088,2.52-2.52,2.52-.216,0-.288-.216-.288-.36,0-1.368,1.8-1.512,2.088-3.168a2.254,2.254,0,0,1,1.152-1.8c.72-.288,1.3-1.368,1.944-1.872.792-.576,1.152-1.728,1.8-2.52.792-.792,1.656-1.44,2.376-2.3.36-.36,1.944-2.016,2.448-2.016C117.144,11.3,117.216,11.52,117.216,11.664Zm25.7-14.616c0-.216-.216-.576-.432-.576a4.05,4.05,0,0,0-1.3.5c-.792.288-1.44.216-2.088.864-.216.216-2.16.648-2.664.864L133.272,0c-1.008.432-4.1,2.448-4.824,2.448-.288,0-.432-.144-.432-.36,0-1.224,4.68-6.12,4.68-7.272a.63.63,0,0,0-.576-.648c-.648,0-1.656,1.008-2.376,1.3-.648.216-1.584,1.3-2.088,1.3-.792,0-1.008.792-1.656.792-.072,0-.216-.072-.288-.072-.648,0-1.8,1.3-2.952,1.3-.576,0-1.512-.432-1.512-1.152,0-.432,1.08-1.728,1.656-1.728.5,0,3.96-2.88,6.264-2.88.432,0,.792.144,1.224.144.36,0,.432-.36.432-.648,0-.648-.288-1.368-1.08-1.368s-1.584.216-2.376.288c-1.152.144-1.656.072-2.52.936-.72.72-2.088,1.8-3.24,1.8-.864,0-2.088,2.088-2.952,2.664a1.154,1.154,0,0,0-.648,1.152c0,2.3,2.376,2.952,4.32,2.952,1.728,0,2.808-1.512,4.32-1.512.144,0,.36.072.36.288a11.23,11.23,0,0,1-1.728,2.52l-2.16,2.592c-1.44,1.728-5.328,3.24-6.408,4.752-.432.72-1.584.72-2.088,1.512-.5,1.008-2.592,1.8-2.952,2.808-.5,1.152-2.16,2.3-2.808,3.384-.5,1.008-1.872,2.088-2.232,2.952-.432,1.224-2.376,3.456-3.168,4.536a6.809,6.809,0,0,0-1.656,3.384.764.764,0,0,0,.864.864c1.008,0,2.376-1.08,3.1-1.8,1.584-1.584,3.312-3.024,4.968-4.536a44.227,44.227,0,0,0,5.9-6.768c1.656-2.3,3.744-4.32,5.472-6.552a10.823,10.823,0,0,1,4.176-3.672c1.3-.648,2.88-2.016,4.1-2.376,1.3-.288,2.3-1.368,3.6-1.728,1.08-.36,1.872-1.152,2.952-1.3a29.158,29.158,0,0,0,4.1-1.728C141.48-1.656,142.92-2.232,142.92-2.952Zm6.336-4.608c0,.432-1.224,1.152-1.584,1.512s-.936.36-1.368.648c-.144.072-.36.288-.5.288s-.144-.072-.144-.144c0-.288.648-.864.864-1.08A3.844,3.844,0,0,1,148.968-7.7C149.112-7.7,149.256-7.7,149.256-7.56ZM158.9-2.88a.588.588,0,0,0-.648-.576c-1.152,0-4.1,2.088-5.616,2.232S149.9.216,147.672.216c-1.3,0-3.1-1.152-3.1-2.52,0-.792,2.736-1.44,3.312-2.016,1.584-1.44,3.816-1.368,3.816-4.536,0-1.08-.648-1.224-1.512-1.224h-.648c-1.44,0-2.736,1.3-3.96,2.016A7.476,7.476,0,0,0,142.848-5.4c-1.008,1.44-1.3,2.088-2.808,2.88-.216.216-.576.432-.576.792a.654.654,0,0,0,.72.576c.648,0,.792,1.656,2.952,2.3a7.036,7.036,0,0,1,2.16.792,3.182,3.182,0,0,0,1.584.36A24.523,24.523,0,0,0,154.8-.36a13.206,13.206,0,0,1,2.16-1.3C157.464-1.8,158.9-2.232,158.9-2.88Z" transform="translate(618.662 854.662)" fill="#2ca2dc"/>
    <rect id="長方形_23338" data-name="長方形 23338" width="162.903" height="98.47" transform="translate(618.664 799.063)" fill="none"/>
  </g>
</svg>
