<svg xmlns="http://www.w3.org/2000/svg" xmlns:xlink="http://www.w3.org/1999/xlink" width="142.16" height="98.471" viewBox="0 0 142.16 98.471">
  <defs>
    <clipPath id="clip-path">
      <rect id="長方形_23339" data-name="長方形 23339" width="142.16" height="98.471" transform="translate(629.035 1397.41)" fill="none"/>
    </clipPath>
  </defs>
  <g id="マスクグループ_10604" data-name="マスクグループ 10604" transform="translate(-629.035 -1397.41)" clip-path="url(#clip-path)">
    <path id="パス_47131" data-name="パス 47131" d="M5.832,1.08a.845.845,0,0,1-.72.648c-.216,0-.5-.216-.5-.432,0-.288.576-.5.792-.5S5.832.864,5.832,1.08ZM18.144-10.368c0-1.008-1.44-1.224-2.16-1.224a3.713,3.713,0,0,0-2.952,1.224c-.648.864-1.08.648-1.728,1.944-.72,1.656-7.128,3.528-8.928,5.04C1.8-2.952-.288-2.3-.288-1.584c0,.432.5.5.792.5C1.3-1.08,4.248-2.952,5.616-3.1,6.7-3.312,8.352-5.04,9-5.04c.936,0,1.512-.792,1.944-.792s.936.792.936,1.224c0,.864-.576,4.032-1.8,4.032-.648,0-1.224.072-1.872.072-.72,0-.576-.288-1.08-.288-.36,0-.792.072-1.152.072-.288,0-.5-.072-.72-.072-.792,0-3.024,1.728-3.024,2.52,0,.864,1.3,1.8,2.088,1.8s1.44-.5,2.3-.5c.216,0,.576.072.936.072a2.351,2.351,0,0,0,.864-.144,2.886,2.886,0,0,1,1.584-.72c.72-.144,1.512-.936,2.3-1.224.648-.288.936-1.224,1.368-1.8A4.8,4.8,0,0,0,14.544-3.6c0-.72-.36-1.3-.36-1.944,0-2.088,2.16-1.728,2.448-2.376C16.92-8.712,18.144-9.72,18.144-10.368ZM28.512-7.56c0,.432-1.224,1.152-1.584,1.512s-.936.36-1.368.648c-.144.072-.36.288-.5.288s-.144-.072-.144-.144c0-.288.648-.864.864-1.08A3.844,3.844,0,0,1,28.224-7.7C28.368-7.7,28.512-7.7,28.512-7.56ZM38.16-2.88a.588.588,0,0,0-.648-.576c-1.152,0-4.1,2.088-5.616,2.232S29.16.216,26.928.216c-1.3,0-3.1-1.152-3.1-2.52,0-.792,2.736-1.44,3.312-2.016,1.584-1.44,3.816-1.368,3.816-4.536,0-1.08-.648-1.224-1.512-1.224H28.8c-1.44,0-2.736,1.3-3.96,2.016A7.476,7.476,0,0,0,22.1-5.4C21.1-3.96,20.808-3.312,19.3-2.52c-.216.216-.576.432-.576.792a.654.654,0,0,0,.72.576c.648,0,.792,1.656,2.952,2.3a7.035,7.035,0,0,1,2.16.792,3.182,3.182,0,0,0,1.584.36A24.523,24.523,0,0,0,34.056-.36a13.206,13.206,0,0,1,2.16-1.3C36.72-1.8,38.16-2.232,38.16-2.88ZM63.432-4.1a.7.7,0,0,0-.648-.648c-.36,0-3.456,2.16-5.472,2.16a1.708,1.708,0,0,1-1.656-.864,4.431,4.431,0,0,1-.216-1.3c0-.864-.288-1.512-.288-2.376v-.648c0-.792-.72-2.3-1.656-2.3-.144,0-2.088.72-2.52.864-1.368.288-1.008.792-1.944,1.512a3.183,3.183,0,0,1-1.728.792c-.216,0-.36-.072-.36-.36,0-.576-1.152-.864-1.656-1.008-.5,0-2.88,1.728-3.384,2.016A14.677,14.677,0,0,0,38.16-4.176c-.648.648-2.952,1.152-2.952,2.088a.588.588,0,0,0,.648.576c.5,0,1.584-.792,2.3-.936.72-.216,1.8-1.224,2.448-1.224.864,0,1.656-1.44,2.736-1.44.288,0,.576.144.576.432A2.334,2.334,0,0,1,42.7-2.592c-.936.576-1.3,1.512-2.16,2.16-.648.5-2.592,2.016-2.592,2.88,0,.648.72.864,1.224.864,1.944,0,2.016-1.08,2.88-1.728,1.728-1.3,1.656-2.808,4.1-4.248.792-.432,1.224-1.224,2.088-1.512a4.591,4.591,0,0,0,2.52-1.656c.288-.576.864-1.728,1.584-1.728a.838.838,0,0,1,.792.936c0,.576-.432,1.008-.432,1.584,0,.36-.072.648-.072.936a.8.8,0,0,0,.36.72c.936.648.5,1.08,1.8,1.8a5.532,5.532,0,0,0,2.592.648,4.989,4.989,0,0,0,1.44-.216,17.311,17.311,0,0,0,4.1-2.16A1.039,1.039,0,0,0,63.432-4.1Zm26.64,1.368c0-.216,0-.576-.36-.576-.576,0-1.728,1.08-2.448,1.224a9.344,9.344,0,0,1-2.376.5c-.36,0-.576-.072-.72-.36-.36-.72-1.872-1.512-1.872-2.088,0-.648-1.8-1.44-1.8-2.52,0-1.368-2.376-1.872-3.456-1.872-1.728,0-1.872,2.088-3.024,2.88-1.44,1.008-1.008,2.016-2.88,3.312-.936.648-2.16,2.52-3.456,2.52-.216,0-.216-.144-.216-.288a9.924,9.924,0,0,1,.792-2.16c.5-1.3,2.448-3.312,2.448-4.248,0-.72-.936-2.376-1.656-2.376-1.224,0-2.808,2.016-3.816,2.16-1.152.144-1.8,1.656-3.024,2.16-.5.144-3.744,1.8-3.744,2.232,0,.36.792.5,1.08.5a11.109,11.109,0,0,0,3.6-1.44c.72-.72,1.656-.792,2.448-1.368A9.68,9.68,0,0,1,66.6-5.328c.144.144.432.432.432.648,0,.432-1.08,1.152-1.3,2.376C65.448-.936,64.3-.72,64.152.432a6.986,6.986,0,0,0-.072,1.224c0,.792,0,2.088,1.08,2.088.936,0,4.68-1.944,5.184-2.736C70.92.072,72.432-.36,73.3-1.3c.792-.864,1.512-1.728,2.232-2.664a2.591,2.591,0,0,1,1.728-1.152.641.641,0,0,1,.576.36c.432.792,2.16.936,2.52,2.3C80.784-.864,83.52,0,85.032,0,86.256,0,90.072-1.224,90.072-2.736Zm15.7-.216c0-.36-.432-.432-.72-.432a2.51,2.51,0,0,0-1.224.432c-.5.36-1.008.216-1.872.864C100.8-1.224,99-1.512,98.208-.864a1.106,1.106,0,0,1-.936.36c-.288,0-.576-.072-.792-.072-.5,0-.936.216-1.44.216a1.725,1.725,0,0,1-1.656-1.656A2.807,2.807,0,0,1,94.9-4.248c.792-.36.936-1.584,1.584-2.016a.7.7,0,0,0,.288-.648c0-.864-.576-.936-1.224-.936a2.508,2.508,0,0,0-2.016.72,8.322,8.322,0,0,1-1.872,2.016c-.432.288-1.872,1.656-1.872,2.16,0,.432.432.792.648,1.152a5.523,5.523,0,0,1,.5,1.944c.36,1.08,2.664,1.944,3.744,1.944A12.518,12.518,0,0,0,97.488,1.3c1.152-.288,2.592-.432,3.456-1.224A11.76,11.76,0,0,1,103.392-1.3C104.04-1.584,105.768-2.088,105.768-2.952Zm6.84-18.864c0-.5-.5-.936-.576-1.512-.144-.864,0-2.016-.648-2.736-.288-.288-.72-.792-1.08-.792-.576,0-2.016,2.088-2.016,2.88a3.043,3.043,0,0,0,2.88,3.312C111.744-20.664,112.608-21.24,112.608-21.816ZM122.616-2.808c0-.432-.5-.576-.864-.576-1.512,0-2.88,1.656-4.1,1.728-.936.072-1.3.576-2.016,1.008a16.032,16.032,0,0,1-2.3.648,1.451,1.451,0,0,1-.792.216c-.936,0-1.3.216-1.944.216-.936,0-1.728-.648-2.3-.648-1.152,0-1.224-1.368-1.224-2.232,0-.72.288-.936.72-1.08,1.152-.5,1.512-2.088,2.808-2.088,1.008,0,.648,1.08,1.584,1.08.864,0,1.944-.432,1.944-1.44,0-1.08-.936-3.024-2.232-3.024-.144,0-.36.072-.576.072a7.3,7.3,0,0,0-3.168,1.944,30.182,30.182,0,0,1-2.376,1.872c-.36.288-.36.72-.72.936-.576.432-1.008.792-1.008,1.512,0,.36.072.648.072.936,0,.432-.072.792-.072,1.152a2.588,2.588,0,0,0,.144.792c.5,1.3,4.1,2.376,5.328,2.376.648,0,1.152-.36,1.728-.36h.5c.864,0,1.44-.648,2.232-.72.216-.072,3.744-1.44,3.96-1.584a15.848,15.848,0,0,1,1.872-1.08A7.853,7.853,0,0,0,122.04-2.16C122.328-2.3,122.616-2.52,122.616-2.808Zm6.12-4.752c0,.432-1.224,1.152-1.584,1.512s-.936.36-1.368.648c-.144.072-.36.288-.5.288s-.144-.072-.144-.144c0-.288.648-.864.864-1.08A3.844,3.844,0,0,1,128.448-7.7C128.592-7.7,128.736-7.7,128.736-7.56Zm9.648,4.68a.588.588,0,0,0-.648-.576c-1.152,0-4.1,2.088-5.616,2.232s-2.736,1.44-4.968,1.44c-1.3,0-3.1-1.152-3.1-2.52,0-.792,2.736-1.44,3.312-2.016,1.584-1.44,3.816-1.368,3.816-4.536,0-1.08-.648-1.224-1.512-1.224h-.648c-1.44,0-2.736,1.3-3.96,2.016A7.475,7.475,0,0,0,122.328-5.4c-1.008,1.44-1.3,2.088-2.808,2.88-.216.216-.576.432-.576.792a.654.654,0,0,0,.72.576c.648,0,.792,1.656,2.952,2.3a7.035,7.035,0,0,1,2.16.792,3.182,3.182,0,0,0,1.584.36A24.523,24.523,0,0,0,134.28-.36a13.206,13.206,0,0,1,2.16-1.3C136.944-1.8,138.384-2.232,138.384-2.88Z" transform="translate(629.33 1453.01)" fill="#2ca2dc"/>
  </g>
</svg>
