<svg xmlns="http://www.w3.org/2000/svg" xmlns:xlink="http://www.w3.org/1999/xlink" width="235.536" height="98.47" viewBox="0 0 235.536 98.47">
  <defs>
    <clipPath id="clip-path">
      <rect id="長方形_23428" data-name="長方形 23428" width="235.536" height="98.47" fill="none"/>
    </clipPath>
  </defs>
  <g id="well-being" style="isolation: isolate">
    <g id="グループ_10687" data-name="グループ 10687">
      <g id="グループ_10686" data-name="グループ 10686" clip-path="url(#clip-path)">
        <path id="パス_46552" data-name="パス 46552" d="M706.424,3831.2h-.886a5.775,5.775,0,0,1-2.732-.443c-.812-.369-.96-1.771-1.771-1.771-.443,0-.812.369-1.4.369-.148,0-.369-.074-.59-.074-2.436,0-3.912,5.021-6.865,5.021a1.1,1.1,0,0,1-.518-.074c-.96-.37-2.362.074-2.583-1.33-.148-.59,0-1.919-.886-1.919-1.919,0-5.019,3.1-7.012,3.4a20.057,20.057,0,0,1-3.027.664c-1.033,0-2.436-.886-2.436-1.994a2.1,2.1,0,0,1,.664-1.4c1.107-1.255,2.067-3.617,3.1-4.8l1.182-1.329a1.745,1.745,0,0,0,.443-.664.272.272,0,0,0-.074-.222.383.383,0,0,0-.3.148,19.858,19.858,0,0,1-1.994,1.476c-1.255.443-1.476,1.255-2.436,1.772s-4.134,2.731-5.019,2.731c-.369,0-1.033-.222-1.033-.664,0-.3.443-.517.738-.665.886-.443,1.772-.96,2.731-1.329.886-.369,1.329-1.4,2.214-1.771,1.033-.443,1.771-1.476,2.8-1.919.961-.443,1.477-1.551,2.437-1.993a4.38,4.38,0,0,0,1.919-1.55c.664-.887,1.255-.813,2.067-1.4a.892.892,0,0,1,.738-.222,2.786,2.786,0,0,1,1.7.591l.074.221c0,.444-.664,1.033-.96,1.33-.591.517-.664,1.4-1.255,1.845-.664.517-.96,1.255-1.55,1.771-.517.517-.664,1.329-1.107,1.919a11.909,11.909,0,0,1-1.7,2.436c-.812.591-.664,1.255-1.181,1.845a1.914,1.914,0,0,0-.665,1.182c0,.368.369.515.665.515,1.329,0,2.067-1.254,3.1-1.624a9.352,9.352,0,0,0,3.1-1.845c1.107-1.033,3.322-1.919,4.207-3.026.369-.443.886-1.476,1.55-1.476.518,0,1.625,1.476,1.625,1.993a1.069,1.069,0,0,1-.148.517c-.369.59-.074,1.476-.738,2.583a.937.937,0,0,0-.074.443c0,.517.369,1.476,1.033,1.476.738,0,1.255-1.476,1.919-1.845,1.255-.738,1.329-1.919,2.288-2.362.886-.443,1.772-2.362,2.8-2.362a.91.91,0,0,1,.59.3c1.181,1.107.96.664,1.181,2.214.3,1.477,2.289,1.919,3.618,1.919,1.476,0,2.731-1.181,3.617-1.181.221,0,.59.147.59.443C710.189,3829.869,707.162,3831.2,706.424,3831.2Zm18.01-.812a13.562,13.562,0,0,0-2.215,1.329,25.121,25.121,0,0,1-8.12,2.732,3.26,3.26,0,0,1-1.624-.369,7.21,7.21,0,0,0-2.215-.812c-2.214-.665-2.362-2.363-3.026-2.363a.671.671,0,0,1-.738-.591c0-.369.369-.59.59-.812,1.55-.812,1.845-1.477,2.879-2.953a7.66,7.66,0,0,1,2.806-2.731c1.255-.738,2.584-2.067,4.06-2.067h.664c.886,0,1.55.148,1.55,1.255,0,3.248-2.288,3.174-3.912,4.65-.591.591-3.4,1.255-3.4,2.067,0,1.4,1.846,2.584,3.174,2.584,2.288,0,3.543-1.33,5.093-1.477s4.578-2.289,5.759-2.289a.6.6,0,0,1,.664.591C726.427,3829.8,724.951,3830.238,724.434,3830.386Zm-8.194-6.2a3.94,3.94,0,0,0-2.51,1.4c-.221.221-.886.812-.886,1.107,0,.073,0,.147.148.147s.369-.222.517-.3c.443-.3,1.033-.3,1.4-.665s1.624-1.107,1.624-1.55C716.535,3824.186,716.387,3824.186,716.239,3824.186Zm54.109-19.563a38.255,38.255,0,0,1-3.617,4.135c-1.7,1.55-2.657,3.691-4.65,5.02-1.773,1.181-2.732,1.771-3.766,3.617-.59,1.107-2.879,4.061-2.879,5.094s-.738,2.067-.738,3.248c0,2.14,1.845,5.388,4.281,5.388,1.033,0,2.142.443,3.249.443a1.653,1.653,0,0,0,1.255-.443c.886-.738,2.362-.738,3.469-1.55a9.563,9.563,0,0,1,3.026-1.181c.074,0,.148.074.221.074.074.074.074.148.074.3,0,1.108-2.214,1.993-3.026,2.215-1.4.517-2.583,1.551-4.06,1.919a18.515,18.515,0,0,1-3.544.37,3.88,3.88,0,0,1-1.845-.3c-1.181-.589-2.067-.663-3.174-1.624a7.539,7.539,0,0,1-2.51-3.691c-.3-1.107-.074-2.657-.369-3.543-.074-.3-.148-.443-.517-.443a1.282,1.282,0,0,0-.812.443,12.359,12.359,0,0,1-2.954,1.845,7.81,7.81,0,0,0-2.583,2.067,6.045,6.045,0,0,1-2.436,1.329c-1.476.517-2.731,1.4-4.134,1.919a3.64,3.64,0,0,1-1.256.148c-2.436,0-3.838-1.256-4.724-3.4A1.335,1.335,0,0,0,731,3826.99c-.664,0-1.845,1.033-2.583,1.329-1.107.369-1.993,1.4-3.1,1.7-.812.222-1.845,1.255-2.583,1.255-.443,0-.738-.222-.738-.591a1.18,1.18,0,0,1,.886-1.034c1.4-.516,2.288-1.55,3.544-2.066a32.951,32.951,0,0,0,3.543-1.919,24.887,24.887,0,0,1,2.288-1.55c1.255-.443,2.141-1.993,2.584-3.248.443-1.477,4.578-7.751,5.832-8.637,1.255-.96,3.1-3.692,4.281-4.208a10.8,10.8,0,0,0,3.617-2.436,3.121,3.121,0,0,1,2.363-.96,2.478,2.478,0,0,1,2.436,2.215c0,.812-1.772,2.954-2.141,4.061-.3.812-1.994,1.477-2.585,2.215s-1.55,1.181-2.141,1.919a14.824,14.824,0,0,1-3.4,3.4c-1.033.664-1.624,1.919-2.657,2.437a4.393,4.393,0,0,0-1.845,1.4c-.591.812-1.92.959-2.289,2.067a4.185,4.185,0,0,0-.221,1.329,1.737,1.737,0,0,0,.369,1.181,1.03,1.03,0,0,1,.221.664c0,.369-.074.665-.074.959,0,.517.148.96.739.96,1.55,0,5.684-2.141,7.16-3.1,1.033-.738,1.845-1.772,2.953-2.51a16,16,0,0,0,3.47-2.362,10.174,10.174,0,0,0,2.288-3.47,18.2,18.2,0,0,1,3.322-5.167c1.255-1.4,2.067-3.1,3.174-4.578.96-1.328,2.289-2.362,3.249-3.764a8.938,8.938,0,0,1,3.248-2.953,7.544,7.544,0,0,1,2.879-.738c1.255,0,1.772,1.4,1.772,2.51A2.3,2.3,0,0,1,770.348,3804.623Zm-22.663,5.315c-.96,0-3.026,2.731-3.986,3.469-1.181.812-1.7,2.583-2.953,3.543-.3.221-1.107.885-1.107,1.329a.159.159,0,0,0,.148.148c.443,0,1.919-1.624,2.657-1.919s1.476-1.772,2.436-2.215c.812-.443,3.026-3.322,3.026-4.134A.2.2,0,0,0,747.685,3809.938Zm39.712,17.569a40.622,40.622,0,0,1-6.718.591c-1.181,0-8.121,0-8.121-1.477,0-.959,2.51-1.55,3.249-1.55h.812a39.8,39.8,0,0,0,5.905.443c2.141,0,4.06-.664,6.128-.664.443,0,1.476,0,1.476.664C790.129,3826.7,788.357,3827.36,787.4,3827.507Zm36.907-20.818c-.812.369-1.033,1.255-1.772,1.624-.812.37-1.033,1.846-2.141,2.437-.812.443-1.993,1.7-2.8,1.7-.369,0-1.181,1.477-1.993,1.772-.812.369-1.846,1.624-2.511,1.771-1.476.3-2.8,3.469-4.208,4.43-1.771,1.181-3.322,3.986-4.5,4.724-.591.369-.812,1.476-1.624,1.993-.739.517-1.182,1.477-1.92,2.14a1.62,1.62,0,0,0-.517,1.255,1.438,1.438,0,0,0,1.476,1.624c.887,0,3.249-1.476,3.913-2.141.812-.664,1.7-.959,2.436-1.624.664-.59,1.7-1.55,2.657-1.55a1.366,1.366,0,0,1,.517.148c2.362,1.107.369,3.617,3.618,3.617,2.8,0,4.355-2.067,5.684-2.067a.571.571,0,0,1,.517.591c0,.664-1.919,1.476-2.436,1.771-1.033.518-1.845,1.4-3.1,1.4a10.351,10.351,0,0,1-3.249-.739c-1.255-.591-1.255-2.067-1.919-2.067-.738,0-1.181.885-1.919,1.107-1.7.443-1.993,2.436-4.134,2.88-1.55.295-2.806,1.255-4.356,1.255a2.893,2.893,0,0,1-1.329-.3c-.738-.369-2.288-1.328-2.288-2.289,0-1.55,1.476-2.51,2.067-3.912.517-1.108,3.248-2.584,3.248-3.691,0-.074-.074-.147-.148-.221-.074,0-.886.738-1.107.812-.812.443-.443.812-1.4,1.329a16.191,16.191,0,0,0-1.7,1.476c-1.033.738-3.765,2.953-5.019,2.953a1.1,1.1,0,0,1-.664-.3l-.074-.222c0-.443.664-1.033,1.033-1.254a23.422,23.422,0,0,0,5.61-3.986c.96-1.033.886-1.255,2.214-1.993,1.329-.812,2.142-2.216,3.323-3.175,1.107-.959,2.953-1.919,3.617-3.248.591-1.107,2.288-1.845,3.248-2.657a30.7,30.7,0,0,0,3.026-3.174c.664-.738,1.773-1.033,2.289-1.845.59-.96,4.5-3.323,5.757-4.282a2.34,2.34,0,0,1,1.476-.443,1.757,1.757,0,0,1,1.7,1.624A.777.777,0,0,1,824.3,3806.689Zm11.219,23.7a13.555,13.555,0,0,0-2.214,1.329,25.127,25.127,0,0,1-8.121,2.732,3.26,3.26,0,0,1-1.624-.369,7.213,7.213,0,0,0-2.214-.812c-2.216-.665-2.363-2.363-3.027-2.363a.671.671,0,0,1-.738-.591c0-.369.369-.59.591-.812,1.551-.812,1.846-1.477,2.88-2.953a7.664,7.664,0,0,1,2.8-2.731c1.255-.738,2.584-2.067,4.06-2.067h.664c.886,0,1.55.148,1.55,1.255,0,3.248-2.288,3.174-3.912,4.65-.59.591-3.4,1.255-3.4,2.067,0,1.4,1.845,2.584,3.174,2.584,2.288,0,3.543-1.33,5.094-1.477s4.576-2.289,5.758-2.289a.6.6,0,0,1,.664.591C837.516,3829.8,836.04,3830.238,835.523,3830.386Zm-8.194-6.2a3.941,3.941,0,0,0-2.51,1.4c-.221.221-.886.812-.886,1.107,0,.073,0,.147.148.147s.369-.222.517-.3c.443-.3,1.033-.3,1.4-.665s1.624-1.107,1.624-1.55C827.624,3824.186,827.477,3824.186,827.329,3824.186Zm22.588,6.57a12.053,12.053,0,0,0-2.51,1.4c-.886.812-2.363.961-3.544,1.256a12.833,12.833,0,0,1-2.879.812c-1.107,0-3.469-.886-3.838-1.994a5.661,5.661,0,0,0-.517-1.993c-.221-.369-.664-.738-.664-1.181,0-.517,1.476-1.919,1.919-2.215a8.532,8.532,0,0,0,1.919-2.067,2.571,2.571,0,0,1,2.067-.738c.664,0,1.255.073,1.255.959a.72.72,0,0,1-.3.665c-.664.443-.812,1.7-1.624,2.067a2.878,2.878,0,0,0-1.55,2.288,1.769,1.769,0,0,0,1.7,1.7c.517,0,.96-.221,1.476-.221.221,0,.517.074.812.074a1.133,1.133,0,0,0,.96-.369c.813-.664,2.658-.369,3.839-1.255.886-.665,1.4-.517,1.919-.886a2.571,2.571,0,0,1,1.255-.443c.3,0,.738.074.738.443C852.353,3829.943,850.582,3830.46,849.917,3830.755Zm31.372-.517a17.8,17.8,0,0,0-2.953,1.4c-.886.516-1.181.96-2.362,1.034-.886.073-1.476.886-2.362,1.18a7.829,7.829,0,0,1-2.214.444c-1.7,0-3.027-1.33-3.839-2.658-.443-.665-.148-2.953-.812-2.953s-2.657,1.55-3.543,1.919c-2.51,1.034-2.879,3.248-6.571,3.248-.812,0-1.772-.442-1.772-1.327,0-.961,1.55-1.625,1.55-2.511,0-.295-.96-1.4-1.329-1.4a1.558,1.558,0,0,0-.517.221c-1.476.665-3.026.665-4.355,1.476a3.608,3.608,0,0,1-1.7.591c-.221,0-1.033-.074-1.033-.369,0-.517,1.624-1.329,1.993-1.476,1.107-.591,2.288-1.034,3.469-1.624,1.4-.738,2.657-1.7,4.06-2.51a2.487,2.487,0,0,1,1.256-.369c.886,0,2.731,1.4,2.731,2.288,0,.738-1.107,1.55-1.107,2.657,0,.3.074.443.369.443.59,0,4.945-3.027,5.536-3.691.886-1.107,2.953-3.248,4.5-3.248.886,0,1.845,1.476,1.845,2.288,0,1.476-2.437,1.033-2.437,3.174a4.356,4.356,0,0,0,.149,1.034c.517,1.92.96,2.51,2.953,2.51,1.4,0,2.51-.886,3.765-1.329,1.329-.443,4.281-2.141,5.168-2.141.3,0,.812.148.812.591C882.545,3829.647,881.733,3830.017,881.289,3830.238Zm-23.4-19.341a3.121,3.121,0,0,1-2.954-3.4c0-.812,1.476-2.952,2.067-2.952.369,0,.813.517,1.108.812.664.738.517,1.919.664,2.805.074.591.591,1.033.591,1.551C859.367,3810.307,858.481,3810.9,857.89,3810.9Zm45.912,19.71a30.077,30.077,0,0,1-4.207,1.773c-1.107.147-1.919.959-3.026,1.328-1.329.369-2.363,1.476-3.692,1.771-1.255.369-2.879,1.771-4.207,2.436a11.094,11.094,0,0,0-4.281,3.765c-1.773,2.288-3.913,4.356-5.611,6.718a45.333,45.333,0,0,1-6.053,6.938c-1.7,1.551-3.47,3.027-5.094,4.651-.738.738-2.141,1.845-3.174,1.845a.783.783,0,0,1-.886-.885,6.989,6.989,0,0,1,1.7-3.47c.812-1.107,2.805-3.4,3.248-4.65.369-.886,1.772-1.993,2.288-3.026.665-1.107,2.363-2.288,2.88-3.469.369-1.033,2.51-1.845,3.026-2.879.517-.812,1.7-.812,2.141-1.55,1.107-1.55,5.094-3.1,6.57-4.872l2.214-2.657a11.518,11.518,0,0,0,1.771-2.585c0-.221-.221-.295-.369-.295-1.55,0-2.657,1.55-4.429,1.55-1.994,0-4.43-.663-4.43-3.026a1.183,1.183,0,0,1,.664-1.181c.886-.59,2.142-2.731,3.027-2.731,1.181,0,2.583-1.107,3.322-1.846.886-.885,1.4-.812,2.583-.959.812-.074,1.624-.3,2.436-.3s1.107.738,1.107,1.4c0,.3-.074.664-.443.664-.443,0-.812-.147-1.255-.147-2.362,0-5.905,2.952-6.422,2.952-.591,0-1.7,1.329-1.7,1.771,0,.738.96,1.181,1.55,1.181,1.181,0,2.362-1.329,3.026-1.329.074,0,.221.073.3.073.664,0,.886-.812,1.7-.812.517,0,1.476-1.107,2.141-1.328.738-.3,1.772-1.329,2.436-1.329a.646.646,0,0,1,.592.664c0,1.181-4.8,6.2-4.8,7.456,0,.221.148.369.443.369.738,0,3.913-2.066,4.947-2.51l3.248-1.328c.517-.222,2.51-.664,2.731-.886.664-.665,1.329-.591,2.141-.886a4.147,4.147,0,0,1,1.329-.517c.221,0,.443.369.443.591C905.722,3829.8,904.246,3830.386,903.8,3830.607Zm-24.73,13.066c-.517,0-2.141,1.7-2.51,2.067-.738.887-1.624,1.551-2.436,2.363-.664.812-1.033,1.993-1.845,2.583-.664.517-1.256,1.624-1.994,1.919a2.312,2.312,0,0,0-1.181,1.845c-.3,1.7-2.141,1.847-2.141,3.249,0,.148.074.369.3.369.443,0,1.993-2.14,2.584-2.584a6.109,6.109,0,0,0,1.92-2.583c.369-.665,1.624-1.4,2.141-1.993a14.009,14.009,0,0,0,1.4-1.55c1.181-1.624,2.51-3.027,3.764-4.578a1.307,1.307,0,0,0,.3-.738C879.368,3843.895,879.294,3843.673,879.073,3843.673Z" transform="translate(-670.178 -3775.027)" fill="#2ca2dc"/>
      </g>
    </g>
  </g>
</svg>
